<svg width="60" height="60" viewBox="0 0 60 60" fill="none" xmlns="http://www.w3.org/2000/svg">
<g clip-path="url(#clip0)">
<path d="M41.6486 0C41.7344 0 41.7344 0 41.8201 0C41.9058 0 41.9058 0 41.9915 0C42.0773 0 42.163 0 42.3344 0C42.4202 0 42.4202 0 42.5058 0C42.5916 0 42.763 0.0858373 42.8487 0.0858373H42.9345C43.1059 0.0858373 43.1916 0.171674 43.363 0.257511C43.363 0.257511 43.4488 0.257511 43.4488 0.343347C43.5346 0.343347 43.6202 0.429185 43.7917 0.515021H43.8774C43.9631 0.515021 43.9631 0.600858 44.0489 0.600858C47.6491 2.57511 51.3352 4.54936 54.9355 6.52361C54.8498 6.43777 54.764 6.43777 54.6783 6.43777C56.4785 7.29613 57.7643 9.27035 57.7643 11.6738L57.6786 47.8112C57.6786 51.4163 54.9355 54.6781 51.6781 55.1931L18.2467 59.9142C17.9895 59.9142 17.7324 60 17.4752 60C16.5323 60 15.675 59.7425 14.9892 59.3133C14.9892 59.3133 14.9892 59.3133 15.075 59.3133C11.4747 57.339 7.78864 55.3648 4.18834 53.3905C2.47391 52.4464 1.35953 50.558 1.35953 48.3262L1.44525 12.1888C1.44525 11.9313 1.44525 11.7597 1.44525 11.5021C1.44525 11.4163 1.44525 11.3305 1.44525 11.2446C1.44525 11.073 1.44525 10.9871 1.53097 10.8154C1.53097 10.7296 1.53097 10.6437 1.61669 10.5579C1.61669 10.4721 1.70241 10.3004 1.70241 10.2146C1.70241 10.1287 1.78813 10.0429 1.78813 9.95705C1.78813 9.87128 1.87386 9.69959 1.87386 9.61374C1.87386 9.52789 1.87386 9.52789 1.95958 9.44204C2.0453 9.27035 2.0453 9.18458 2.13102 9.01289C2.13102 8.92704 2.21675 8.84119 2.21675 8.84119C2.21675 8.75534 2.30247 8.66949 2.30247 8.58373C2.30247 8.58373 2.30247 8.49786 2.38819 8.49786C2.55963 8.24034 2.64535 7.98283 2.8168 7.81115C2.8168 7.81115 2.8168 7.81115 2.90252 7.72532C3.07396 7.55364 3.15968 7.38197 3.33112 7.2103C3.33112 7.2103 3.33112 7.12446 3.41684 7.12446L3.50256 7.03863C3.50256 6.78112 3.674 6.69528 3.84545 6.52361L3.93117 6.43777C4.10261 6.2661 4.35978 6.09442 4.53122 5.92274C4.53122 5.92274 4.53122 5.92274 4.61694 5.92274C4.70267 5.8369 4.78839 5.75107 4.87411 5.66523C4.95983 5.66523 4.95983 5.57939 5.04555 5.57939C5.13127 5.49356 5.30272 5.40772 5.47416 5.40772C5.55988 5.32189 5.55988 5.32188 5.6456 5.32188C5.81705 5.23605 5.98849 5.15021 6.15994 5.06438C6.24566 5.06438 6.24566 5.06438 6.33138 4.97854C6.4171 4.97854 6.50282 4.97854 6.67427 4.8927C6.75999 4.8927 6.75999 4.8927 6.84571 4.8927C7.01715 4.80687 7.18859 4.80687 7.36003 4.80687L40.7914 0.0858373C40.9629 0.0858373 41.1343 0.0858373 41.3058 0C41.3915 0 41.3915 0 41.4772 0C41.563 0 41.563 0 41.6486 0Z" fill="#C51E1E"/>
<path d="M41.6486 0C41.7344 0 41.7344 0 41.8201 0C41.9058 0 41.9058 0 41.9915 0C42.0773 0 42.163 0 42.3344 0C42.4202 0 42.4202 0 42.5058 0C42.5916 0 42.763 0.0858373 42.8487 0.0858373H42.9345C43.1059 0.0858373 43.1916 0.171674 43.363 0.257511C43.363 0.257511 43.4488 0.257511 43.4488 0.343347C43.5346 0.343347 43.6202 0.429185 43.7917 0.515021H43.8774C43.9631 0.515021 43.9631 0.600858 44.0489 0.600858C47.6491 2.57511 51.3352 4.54936 54.9355 6.52361C54.8498 6.43777 54.764 6.43777 54.6783 6.43777C56.4785 7.29613 57.7643 9.27035 57.7643 11.6738L57.6786 47.8112C57.6786 51.4163 54.9355 54.6781 51.6781 55.1931L18.2467 59.9142C17.9895 59.9142 17.7324 60 17.4752 60C16.5323 60 15.675 59.7425 14.9892 59.3133C14.9892 59.3133 14.9892 59.3133 15.075 59.3133C11.4747 57.339 7.78864 55.3648 4.18834 53.3905C2.47391 52.4464 1.35953 50.558 1.35953 48.3262L1.44525 12.1888C1.44525 11.9313 1.44525 11.7597 1.44525 11.5021C1.44525 11.4163 1.44525 11.3305 1.44525 11.2446C1.44525 11.073 1.44525 10.9871 1.53097 10.8154C1.53097 10.7296 1.53097 10.6437 1.61669 10.5579C1.61669 10.4721 1.70241 10.3004 1.70241 10.2146C1.70241 10.1287 1.78813 10.0429 1.78813 9.95705C1.78813 9.87128 1.87386 9.69959 1.87386 9.61374C1.87386 9.52789 1.87386 9.52789 1.95958 9.44204C2.0453 9.27035 2.0453 9.18458 2.13102 9.01289C2.13102 8.92704 2.21675 8.84119 2.21675 8.84119C2.21675 8.75534 2.30247 8.66949 2.30247 8.58373C2.30247 8.58373 2.30247 8.49786 2.38819 8.49786C2.55963 8.24034 2.64535 7.98283 2.8168 7.81115C2.8168 7.81115 2.8168 7.81115 2.90252 7.72532C3.07396 7.55364 3.15968 7.38197 3.33112 7.2103C3.33112 7.2103 3.33112 7.12446 3.41684 7.12446L3.50256 7.03863C3.50256 6.78112 3.674 6.69528 3.84545 6.52361L3.93117 6.43777C4.10261 6.2661 4.35978 6.09442 4.53122 5.92274C4.53122 5.92274 4.53122 5.92274 4.61694 5.92274C4.70267 5.8369 4.78839 5.75107 4.87411 5.66523C4.95983 5.66523 4.95983 5.57939 5.04555 5.57939C5.13127 5.49356 5.30272 5.40772 5.47416 5.40772C5.55988 5.32189 5.55988 5.32188 5.6456 5.32188C5.81705 5.23605 5.98849 5.15021 6.15994 5.06438C6.24566 5.06438 6.24566 5.06438 6.33138 4.97854C6.4171 4.97854 6.50282 4.97854 6.67427 4.8927C6.75999 4.8927 6.75999 4.8927 6.84571 4.8927C7.01715 4.80687 7.18859 4.80687 7.36003 4.80687L40.7914 0.0858373C40.9629 0.0858373 41.1343 0.0858373 41.3058 0C41.3915 0 41.3915 0 41.4772 0C41.563 0 41.563 0 41.6486 0ZM41.6486 2.83262H41.563H41.4772C41.3915 2.83262 41.3058 2.83262 41.2201 2.83262L7.78864 7.55365C7.70292 7.55365 7.6172 7.55364 7.53147 7.63948H7.44575H7.36003C7.36003 7.63948 7.27431 7.63948 7.18859 7.72532H7.10287C7.01715 7.72532 6.93143 7.81115 6.84571 7.81115C6.75999 7.81115 6.75999 7.89699 6.67427 7.89699C6.58854 7.89699 6.58854 7.98283 6.50282 7.98283H6.4171V8.06866L6.33138 8.1545L6.24566 8.24034C6.07421 8.32618 5.98849 8.41202 5.81705 8.49786L5.73133 8.58373C5.6456 8.66949 5.55988 8.75534 5.47416 8.84119L5.38844 8.92704C5.38844 8.92704 5.38844 8.92704 5.30272 9.01289C5.217 9.09873 5.13127 9.27035 5.04555 9.35619V9.44204C4.95983 9.52789 4.87411 9.69959 4.78839 9.87128C4.78839 9.87128 4.78839 9.87128 4.78839 9.95705L4.70267 10.0429V10.1287V10.2146C4.70267 10.3004 4.61694 10.3863 4.61694 10.4721C4.61694 10.5579 4.61694 10.5579 4.53122 10.6437V10.7296V10.8154L4.4455 10.9871V11.073V11.1588V11.2446V11.4163V11.5021C4.4455 11.5021 4.4455 11.588 4.4455 11.6738V11.7597C4.4455 11.7597 4.4455 11.8455 4.4455 11.9313V11.8455C4.4455 12.0172 4.4455 12.103 4.4455 12.2747L4.10261 48.3262C4.10261 49.5279 4.61694 50.4721 5.47416 50.9871L10.7031 53.8198L16.3608 56.9099C16.7037 57.0815 17.0466 57.1673 17.4752 57.1673C17.5609 57.1673 17.7324 57.1673 17.818 57.1673L51.2494 52.4464C53.1354 52.1888 54.8498 50.0429 54.8498 47.897L54.9355 11.7597C54.9355 10.5579 54.3355 9.52789 53.4783 9.09873C53.4783 9.09873 53.5639 9.09873 53.5639 9.18458L47.2206 5.75107L42.6773 3.2618C42.5916 3.2618 42.5916 3.2618 42.5058 3.17596H42.4202C42.4202 3.17596 42.3344 3.17596 42.2487 3.09013H42.163C42.0773 3.09013 42.0773 3.09013 41.9915 3.09013H41.9058C41.8201 3.09013 41.8201 3.09013 41.7344 3.09013H41.6486V2.83262Z" fill="#C51E1E"/>
<path d="M15.8464 36.309C11.8175 36.309 10.0173 34.3347 10.0173 31.6738L10.1887 31.5022H12.589L12.7604 31.6738C12.7604 33.0472 13.532 33.9056 15.9321 33.9056C17.7323 33.9056 18.7609 33.3047 18.7609 32.103C18.7609 30.7296 17.9894 30.3004 15.1606 29.8712C12.3318 29.4421 10.1887 28.4978 10.1887 25.6652C10.1887 23.691 11.8175 21.8884 15.5892 21.8884C19.361 21.8884 20.9897 23.691 20.9897 26.0944L20.8183 26.2661H18.418L18.2466 26.0944C18.2466 24.8927 17.6465 24.2918 15.4178 24.2918C13.6176 24.2918 13.0175 24.8927 13.0175 25.6652C13.0175 26.867 13.7891 27.2961 16.6179 27.6395C19.4467 28.0687 21.5897 29.2704 21.5897 32.0172C21.6755 34.3347 20.0468 36.309 15.8464 36.309Z" fill="white"/>
<path d="M30.2478 30.4714H26.476L26.3046 30.643V35.8791L26.1332 36.0508H23.733L23.5616 35.8791V22.3168L23.733 22.1452H30.3335C33.1623 22.1452 35.1339 23.5186 35.1339 26.3512C35.0482 29.098 33.0766 30.4714 30.2478 30.4714ZM30.2478 24.4628H26.476L26.3046 24.6345V27.8105L26.476 27.9821H30.2478C31.4479 27.9821 32.2194 27.5529 32.2194 26.1795C32.2194 24.892 31.4479 24.4628 30.2478 24.4628Z" fill="white"/>
</g>
<defs>
<clipPath id="clip0">
<rect width="60" height="60" fill="white"/>
</clipPath>
</defs>
</svg>
