<svg width="60" height="60" viewBox="0 0 60 60" fill="none" xmlns="http://www.w3.org/2000/svg">
<rect width="60" height="60" fill="white"/>
<path fill-rule="evenodd" clip-rule="evenodd" d="M60 0H0V60H60V0ZM39.7625 5H39.6195H39.4764H39.3333C39.1903 5.07153 39.0472 5.07153 38.9041 5.07153L11.0072 9.00572C10.8641 9.00572 10.721 9.00572 10.578 9.07725H10.4349C10.2918 9.14878 10.2203 9.14878 10.1488 9.14878C10.1077 9.18992 10.0902 9.2074 10.0691 9.21483C10.0536 9.22031 10.0361 9.22031 10.0057 9.22031L9.57654 9.43491C9.54614 9.43491 9.52866 9.43491 9.51312 9.4404C9.49209 9.44782 9.47461 9.4653 9.43348 9.50644C9.29041 9.50644 9.14735 9.57797 9.07582 9.6495C9.04006 9.6495 9.02217 9.66738 9.00429 9.68526C8.98641 9.70315 8.96853 9.72103 8.93276 9.72103L8.71817 9.93562H8.64664C8.57511 10.0072 8.48569 10.0787 8.39628 10.1502C8.30687 10.2217 8.21745 10.2933 8.14592 10.3648L8.07439 10.4363C8.04453 10.4662 8.01468 10.4929 7.98612 10.5185C7.87785 10.6155 7.78827 10.6957 7.78827 10.8655L7.71674 10.9371C7.64521 10.9371 7.64521 11.0086 7.64521 11.0086C7.57368 11.0801 7.52003 11.1516 7.46638 11.2232L7.46638 11.2232L7.46638 11.2232C7.41273 11.2947 7.35908 11.3662 7.28755 11.4378L7.21602 11.5093C7.12939 11.5959 7.06899 11.7088 7.00305 11.832C6.9601 11.9123 6.9148 11.9969 6.85837 12.0815C6.78684 12.0815 6.78684 12.1531 6.78684 12.1531C6.78684 12.1888 6.76896 12.2246 6.75107 12.2604C6.73319 12.2961 6.71531 12.3319 6.71531 12.3677C6.71531 12.3677 6.64378 12.4392 6.64378 12.5107C6.60801 12.5823 6.59013 12.6359 6.57225 12.6896C6.55436 12.7432 6.53648 12.7969 6.50072 12.8684C6.45958 12.9095 6.4421 12.927 6.43467 12.948C6.42918 12.9636 6.42918 12.981 6.42918 13.0114C6.42918 13.0472 6.4113 13.1009 6.39342 13.1545C6.37554 13.2082 6.35765 13.2618 6.35765 13.2976C6.35765 13.3333 6.33977 13.3691 6.32189 13.4049C6.30401 13.4406 6.28612 13.4764 6.28612 13.5122C6.28612 13.5479 6.26824 13.6016 6.25036 13.6552C6.23248 13.7089 6.21459 13.7625 6.21459 13.7983C6.14306 13.8698 6.14306 13.9413 6.14306 14.0129C6.07153 14.1559 6.07153 14.2275 6.07153 14.3705V14.5851V15.1574L6 45.2718C6 47.1316 6.9299 48.7053 8.36052 49.4921C9.86258 50.3147 11.3825 51.1373 12.9025 51.9598L12.9027 51.9599L12.903 51.9601C14.4229 52.7826 15.9429 53.6052 17.4449 54.4278H17.3734C17.9456 54.7854 18.6609 55 19.4478 55C19.5551 55 19.6624 54.9821 19.7697 54.9642C19.877 54.9464 19.9843 54.9285 20.0916 54.9285L47.9886 50.9943C50.7067 50.5651 52.9957 47.8469 52.9957 44.8426L53.0672 14.7282C53.0672 12.7253 51.9943 11.0801 50.4921 10.3648C50.5239 10.3648 50.5558 10.3648 50.5876 10.3711L50.7067 10.4363C50.667 10.3966 50.6273 10.379 50.5876 10.3711C49.1245 9.57037 47.6448 8.76964 46.1652 7.96891L46.1645 7.96853C44.6445 7.14592 43.1245 6.32332 41.6223 5.50072C41.5866 5.50072 41.5687 5.48283 41.5508 5.46495C41.5329 5.44707 41.515 5.42918 41.4793 5.42918H41.4077C41.3531 5.40186 41.3089 5.37454 41.2711 5.3512C41.21 5.31344 41.1658 5.28612 41.1216 5.28612C41.1216 5.21459 41.0501 5.21459 41.0501 5.21459C41.0117 5.19543 40.9785 5.17626 40.9477 5.15847C40.8635 5.10986 40.7971 5.07153 40.6924 5.07153H40.6209C40.5851 5.07153 40.5315 5.05365 40.4778 5.03577C40.4242 5.01788 40.3705 5 40.3348 5H40.1917H39.9056H39.7625ZM39.5479 7.36052H39.6195V7.57511H39.691H39.8341H39.9056H40.0486H40.1202C40.1917 7.64664 40.2632 7.64664 40.2632 7.64664H40.3348C40.3759 7.68777 40.3934 7.70525 40.4144 7.71268C40.43 7.71817 40.4474 7.71817 40.4778 7.71817L44.269 9.79256L49.5622 12.6538C49.5622 12.6372 49.5584 12.6245 49.5525 12.6147C50.2347 12.9899 50.7067 13.8274 50.7067 14.7997L50.6352 44.9142C50.6352 46.7024 49.2046 48.4907 47.6309 48.7053L19.7339 52.6395H19.4478C19.0901 52.6395 18.804 52.568 18.5179 52.4249L13.7969 49.8498L9.43348 47.4893C8.71817 47.0601 8.28898 46.2732 8.28898 45.2718L8.57511 15.2289V14.9428V14.8712V14.7997V14.7282V14.5851V14.5136V14.3705V14.299V14.2275V14.1559L8.64664 14.0129V13.9413V13.8698C8.68777 13.8287 8.70525 13.8112 8.71268 13.7902C8.71817 13.7746 8.71817 13.7571 8.71817 13.7268C8.71817 13.691 8.73605 13.6552 8.75393 13.6195C8.77182 13.5837 8.7897 13.5479 8.7897 13.5122V13.4406V13.3691L8.86123 13.2976V13.226C8.93276 13.083 9.00429 12.9399 9.07582 12.8684V12.7969C9.11159 12.7611 9.14735 12.7074 9.18312 12.6538C9.21888 12.6001 9.25465 12.5465 9.29041 12.5107L9.36195 12.4392L9.43348 12.3677L9.64807 12.1531L9.7196 12.0815C9.79113 12.0458 9.84478 12.01 9.89843 11.9742C9.95208 11.9385 10.0057 11.9027 10.0773 11.867L10.1488 11.7954L10.2203 11.7239V11.6524H10.2918C10.3276 11.6524 10.3455 11.6345 10.3634 11.6166C10.3813 11.5987 10.3991 11.5808 10.4349 11.5808C10.4707 11.5808 10.4886 11.5629 10.5064 11.5451C10.5243 11.5272 10.5422 11.5093 10.578 11.5093C10.6137 11.5093 10.6495 11.4914 10.6853 11.4735C10.721 11.4557 10.7568 11.4378 10.7926 11.4378H10.8641C10.9356 11.3662 11.0072 11.3662 11.0072 11.3662H11.0787H11.1502C11.2217 11.2947 11.2933 11.2947 11.3648 11.2947L39.2618 7.36052H39.4764H39.5479ZM18.0887 35.2575C14.7268 35.2575 13.2246 33.6123 13.2246 31.3949L13.3677 31.2518H15.3705L15.5136 31.3949C15.5136 32.5394 16.1574 33.2547 18.1602 33.2547C19.6624 33.2547 20.5207 32.7539 20.5207 31.7525C20.5207 30.608 19.877 30.2504 17.5165 29.8927C15.1559 29.5351 13.3677 28.7482 13.3677 26.3877C13.3677 24.7425 14.7268 23.2404 17.8741 23.2404C21.0215 23.2404 22.3805 24.7425 22.3805 26.7454L22.2375 26.8884H20.2346L20.0916 26.7454C20.0916 25.7439 19.5908 25.2432 17.731 25.2432C16.2289 25.2432 15.7282 25.7439 15.7282 26.3877C15.7282 27.3891 16.372 27.7468 18.7325 28.0329C21.093 28.3906 22.8813 29.392 22.8813 31.681C22.9528 33.6123 21.5937 35.2575 18.0887 35.2575ZM26.9585 30.3934H30.1059C32.4664 30.3934 34.1116 29.2489 34.1831 26.9599C34.1831 24.5994 32.5379 23.4549 30.1774 23.4549H24.6695L24.5265 23.598V34.8998L24.6695 35.0429H26.6724L26.8154 34.8998V30.5365L26.9585 30.3934ZM26.9585 25.3863H30.1059C31.1073 25.3863 31.7511 25.7439 31.7511 26.8169C31.7511 27.9614 31.1073 28.319 30.1059 28.319H26.9585L26.8154 28.176V25.5293L26.9585 25.3863Z" fill="#C51E1E"/>
</svg>
