<svg width="186" height="60" viewBox="0 0 186 60" fill="none" xmlns="http://www.w3.org/2000/svg">
<g clip-path="url(#clip0)">
<rect width="186" height="60" fill="#F5F5F5"/>
<path fill-rule="evenodd" clip-rule="evenodd" d="M0 0V60.1237H186.185V0H0ZM95.101 15.5876L95.2864 15.4021H97.3256L97.511 15.5876V27.2784L97.3256 27.4639H95.2864L95.101 27.2784V15.5876ZM25.5209 15.5876L25.7063 15.4021H28.3017L28.487 15.5876L31.9475 24H32.1329L35.5934 15.5876L35.7787 15.4021H38.3741L38.5595 15.5876V27.2784L38.3741 27.4639H36.3349L36.1495 27.2784V20.5979H35.8405L33.1216 27.2784L32.9362 27.4639H31.0206L30.8352 27.2784L28.1163 20.5979H27.9309V27.2784L27.7455 27.4639H25.7063L25.5209 27.2784V15.5876ZM20.0213 15.5876L20.2066 15.4021H22.2458L22.4312 15.5876V27.2784L22.2458 27.4639H20.2066L20.0213 27.2784V15.5876ZM29.0432 42.5567C28.8578 42.9897 28.5488 43.3608 28.1781 43.732C27.8073 44.0412 27.2512 44.3505 26.6332 44.5361C26.0153 44.7217 25.212 44.8454 24.3468 44.8454C23.4817 44.8454 22.7402 44.7217 22.1223 44.5361C21.5043 44.3505 21.01 44.0412 20.5774 43.732C20.1448 43.3608 19.8359 42.9278 19.6505 42.4948C19.4651 42 19.3415 41.5052 19.3415 40.9485L19.5269 40.7629H21.5661L21.7515 40.9485C21.7515 41.567 21.9369 42 22.3694 42.3093C22.7402 42.6186 23.4817 42.8041 24.5322 42.8041C25.3355 42.8041 25.8917 42.6804 26.3243 42.433C26.7568 42.1856 26.9422 41.8144 26.9422 41.2577C26.9422 40.9485 26.8804 40.701 26.8186 40.5155C26.695 40.3299 26.5714 40.1443 26.3243 40.0206C26.0771 39.8969 25.7681 39.7732 25.3973 39.6495C25.0266 39.5258 24.5322 39.4639 23.9143 39.4021C23.4463 39.3552 23.0137 39.2374 22.6166 39.1293C22.4894 39.0946 22.3658 39.0609 22.2458 39.0309C21.6897 38.8454 21.2571 38.6598 20.8864 38.3505C20.5156 38.1031 20.2066 37.732 19.9595 37.299C19.7123 36.866 19.6505 36.3711 19.6505 35.7526C19.6505 35.3196 19.7123 34.8866 19.8977 34.5155C20.0831 34.1443 20.3302 33.7732 20.701 33.4639C21.0718 33.1546 21.5661 32.9072 22.1223 32.7217C22.6784 32.5361 23.4199 32.4742 24.2233 32.4742C25.0266 32.4742 25.7063 32.5361 26.3243 32.7217C26.8804 32.9072 27.3748 33.1546 27.7455 33.4639C28.1163 33.7732 28.4252 34.1443 28.5488 34.5773C28.7342 35.0103 28.796 35.5052 28.796 36L28.6106 36.1856H26.5714L26.386 36C26.386 35.7526 26.3243 35.5052 26.2625 35.3196C26.2007 35.134 26.0771 34.9485 25.8917 34.8247C25.7063 34.701 25.4591 34.5773 25.1502 34.5155C24.8412 34.4536 24.4704 34.3918 23.9761 34.3918C23.2346 34.3918 22.6784 34.5155 22.3694 34.7629C22.0605 35.0103 21.9369 35.2577 21.9369 35.6289C21.9369 35.8763 21.9987 36.1237 22.0605 36.3093C22.1841 36.4948 22.3076 36.6186 22.5548 36.7423C22.802 36.866 23.111 36.9897 23.4817 37.0515C23.5939 37.0703 23.7231 37.0946 23.8641 37.1213L23.8643 37.1213C24.1893 37.1826 24.577 37.2558 24.9648 37.299C25.5827 37.3608 26.1389 37.4845 26.6332 37.6701C27.1276 37.8557 27.6219 38.1031 27.9927 38.4124C28.3635 38.7216 28.6724 39.0928 28.9196 39.5258C29.1668 39.9588 29.2286 40.4536 29.2286 41.0722C29.2904 41.6907 29.2286 42.1237 29.0432 42.5567ZM40.4751 34.5155L40.2897 34.701H36.8292L36.6439 34.8866V44.5361L36.4585 44.7217H34.4193L34.2339 44.5361V34.8866L34.0485 34.701H30.588L30.4027 34.5155V32.7835L30.588 32.5979H40.2279L40.4133 32.7835V34.5155H40.4751ZM52.7103 41.134C52.4631 41.8763 52.0306 42.5567 51.5362 43.1134C51.0419 43.6701 50.4239 44.1031 49.6824 44.4124C48.9409 44.7217 48.1375 44.8454 47.2724 44.8454C46.3455 44.8454 45.5422 44.7217 44.8625 44.4124C44.1209 44.1031 43.503 43.6701 43.0086 43.1134C42.5143 42.5567 42.1435 41.9381 41.8345 41.134C41.5874 40.3918 41.402 39.5258 41.402 38.6598C41.402 37.732 41.5256 36.9278 41.8345 36.1856C42.0817 35.4433 42.5143 34.7629 43.0086 34.2062C43.503 33.6495 44.1209 33.2165 44.8625 32.9072C45.604 32.5979 46.4073 32.4742 47.2724 32.4742C48.1993 32.4742 49.0027 32.5979 49.6824 32.9072C50.4239 33.2165 51.0419 33.6495 51.5362 34.2062C52.0306 34.7629 52.4013 35.3814 52.7103 36.1856C52.9575 36.9278 53.1429 37.7938 53.1429 38.6598C53.1429 39.5258 53.0193 40.3918 52.7103 41.134ZM54.3169 27.2784L54.1316 27.4639H52.0924L51.907 27.2784V20.5979H51.7216L49.0027 27.2784L48.8173 27.4639H46.9635L46.7781 27.2784L44.0591 20.5979H43.8738V27.2784L43.6884 27.4639H41.6492L41.4638 27.2784V15.5876L41.6492 15.4021H44.2445L44.4299 15.5876L47.8904 24H48.0757L51.5362 15.5876L51.7216 15.4021H54.3169L54.5023 15.5876V27.2784H54.3169ZM65.1927 37.7938C65.0073 38.2268 64.6983 38.5979 64.3276 38.9072C63.9568 39.2165 63.5243 39.4639 63.0299 39.5876C62.5355 39.7113 61.9794 39.8351 61.3615 39.8351H58.0864L57.901 40.0206V44.4742L57.7156 44.6598H55.6764L55.491 44.4742V32.7835L55.6764 32.5979H61.3615C61.9794 32.5979 62.5355 32.6598 63.0299 32.8454C63.5243 32.9691 63.9568 33.2165 64.3276 33.5258C64.6983 33.8351 64.9455 34.2062 65.1927 34.6392C65.3781 35.0722 65.5017 35.6289 65.5017 36.2474C65.5017 36.8041 65.3781 37.3608 65.1927 37.7938ZM65.0073 27.2165C64.2658 27.5258 63.4625 27.6495 62.5973 27.6495C61.6704 27.6495 60.8671 27.5258 60.1874 27.2165C59.4458 26.9072 58.8279 26.4742 58.3336 25.9175C57.8392 25.3608 57.4684 24.7423 57.1595 23.9381C56.9123 23.1959 56.7269 22.3299 56.7269 21.4639C56.7269 20.5979 56.8505 19.732 57.1595 18.9897C57.4066 18.2474 57.8392 17.567 58.3336 17.0103C58.8279 16.4536 59.4458 16.0206 60.1874 15.7113C60.9289 15.4021 61.7322 15.2784 62.5973 15.2784C63.5243 15.2784 64.3276 15.4021 65.0073 15.7113C65.7488 16.0206 66.3668 16.4536 66.8611 17.0103C67.3555 17.567 67.7262 18.1856 68.0352 18.9897C68.2824 19.732 68.4678 20.5979 68.4678 21.4639C68.4678 22.3299 68.3442 23.1959 68.0352 23.9381C67.788 24.6804 67.3555 25.3608 66.8611 25.9175C66.305 26.4742 65.687 26.9072 65.0073 27.2165ZM77.1807 37.7938C76.9953 38.2268 76.6864 38.5979 76.3156 38.9072C75.9448 39.2165 75.5123 39.4639 75.0179 39.5876C74.5236 39.7113 73.9674 39.8351 73.3495 39.8351H70.0744L69.889 40.0206V44.4742L69.7037 44.6598H67.6645L67.4791 44.4742V32.7835L67.6645 32.5979H73.3495C73.9674 32.5979 74.5236 32.6598 75.0179 32.8454C75.5123 32.9691 75.9448 33.2165 76.3156 33.5258C76.6864 33.8351 76.9336 34.2062 77.1807 34.6392C77.3661 35.0722 77.4897 35.6289 77.4897 36.2474C77.4897 36.8041 77.3661 37.3608 77.1807 37.7938ZM78.1694 27.2784V22.4536L77.984 22.268H73.3495L73.1641 22.4536V27.2784L72.9787 27.4639H70.9395L70.7542 27.2784V15.5876L70.9395 15.4021H72.9787L73.1641 15.5876V20.0412L73.3495 20.2268H77.984L78.1694 20.0412V15.5876L78.3548 15.4021H80.394L80.5794 15.5876V27.2784L80.394 27.4639H78.3548L78.1694 27.2784ZM87.9329 34.5155L87.7475 34.701H82.0625L81.8771 34.8866V37.299L82.0625 37.4845H87.3767L87.5621 37.6701V39.4021L87.3767 39.5876H82.0625L81.8771 39.7732V42.4948L82.0625 42.6804H87.7475L87.9329 42.866V44.5979L87.7475 44.7835H79.7143L79.5289 44.5979V32.7835L79.7143 32.5979H87.7475L87.9329 32.7835V34.5155ZM89.9721 24.866H85.7083L85.3375 25.0515L84.4724 27.2784L84.287 27.4639H82.7422L82.5568 27.2784V25.5464L86.5116 15.5876L86.697 15.4021H88.9216L89.107 15.5876L93.0618 25.5464V27.2784L92.8764 27.4639H91.3316L91.1462 27.2784L90.2811 25.0515L89.9721 24.866ZM100.786 44.4742L100.601 44.6598H98.1907L97.8199 44.4742L93.1854 36.5567H93V44.4742L92.8146 44.6598H90.8372L90.6518 44.4742V32.7835L90.8372 32.5979H93.2472L93.6179 32.7835L98.2525 40.701H98.4379V32.7835L98.6233 32.5979H100.662L100.848 32.7835V44.4742H100.786ZM109.005 17.3196L108.819 17.5052H103.134L102.949 17.6907V20.1031L103.134 20.2887H108.449L108.634 20.4742V22.2062L108.449 22.3918H103.134L102.949 22.5773V25.299L103.134 25.4845H108.819L109.005 25.6701V27.4021L108.819 27.5876H100.724L100.539 27.4021V15.5876L100.724 15.4021H108.819L109.005 15.5876V17.3196ZM148.12 24.6804H143.609L143.486 24.8041V34.0825L143.609 34.2062H145.216L145.34 34.0825V30.5567L145.463 30.433H148.058C149.974 30.433 151.334 29.5051 151.334 27.5876C151.334 25.6701 149.974 24.6804 148.12 24.6804ZM148.12 28.7629H145.525L145.401 28.6392V26.4742L145.525 26.3505H148.12C148.924 26.3505 149.48 26.5979 149.48 27.5876C149.48 28.5155 148.924 28.7629 148.12 28.7629ZM138.851 28.5155C140.767 28.7629 142.25 29.567 142.25 31.4845C142.25 33.0309 141.138 34.3918 138.357 34.4536C135.638 34.4536 134.402 33.0928 134.402 31.299L134.526 31.1753H136.132L136.256 31.299C136.256 32.2268 136.812 32.7835 138.419 32.7835C139.654 32.7835 140.334 32.3505 140.334 31.5464C140.334 30.6186 139.778 30.3093 137.862 30.0619C135.947 29.8144 134.464 29.134 134.464 27.2165C134.464 25.8557 135.514 24.6186 138.11 24.6186C140.643 24.6186 141.755 25.8557 141.755 27.4639L141.632 27.5876H140.025L139.902 27.4639C139.902 26.6598 139.469 26.2268 137.986 26.2268C136.812 26.2268 136.379 26.5979 136.379 27.1546C136.379 27.9588 136.936 28.268 138.851 28.5155ZM137.615 49.9794C138.11 50.2887 138.666 50.4124 139.346 50.4124C139.531 50.4124 139.716 50.4124 139.902 50.3505L162.704 47.134C164.99 46.8247 166.782 44.5361 166.844 42.1237L166.906 17.5052C166.906 15.8351 166.041 14.5361 164.805 13.9175C164.836 13.9175 164.866 13.933 164.897 13.9485C164.928 13.9639 164.959 13.9794 164.99 13.9794C162.518 12.6186 160.047 11.2577 157.575 9.95876C157.544 9.95876 157.528 9.9433 157.513 9.92783C157.497 9.91237 157.482 9.89691 157.451 9.89691H157.389C157.328 9.83505 157.266 9.83505 157.204 9.83505C157.204 9.83505 157.142 9.83505 157.142 9.7732C157.08 9.74227 157.034 9.7268 156.988 9.71134C156.941 9.69588 156.895 9.68041 156.833 9.64949H156.771C156.741 9.64949 156.694 9.63402 156.648 9.61856C156.601 9.60309 156.555 9.58763 156.524 9.58763H156.401H156.215H156.092H155.968H155.845H155.721H155.412L132.61 12.8041C132.548 12.8041 132.486 12.8196 132.425 12.835C132.363 12.8505 132.301 12.866 132.239 12.866H132.116C132.054 12.866 132.007 12.8814 131.961 12.8969C131.915 12.9124 131.868 12.9278 131.807 12.9278C131.745 12.9278 131.745 12.9278 131.745 12.9897C131.691 13.0168 131.636 13.032 131.587 13.0458C131.525 13.0634 131.471 13.0787 131.436 13.1134C131.405 13.1134 131.39 13.1289 131.374 13.1443C131.359 13.1598 131.343 13.1753 131.312 13.1753C131.281 13.2062 131.235 13.2217 131.189 13.2371C131.142 13.2526 131.096 13.268 131.065 13.299C131.034 13.299 131.019 13.3144 131.003 13.3299C130.988 13.3454 130.972 13.3608 130.942 13.3608C130.911 13.3918 130.88 13.4072 130.849 13.4227C130.818 13.4381 130.787 13.4536 130.756 13.4845H130.694C130.633 13.5464 130.555 13.6083 130.478 13.6701L130.478 13.6703C130.401 13.7321 130.324 13.7939 130.262 13.8557L130.2 13.9175L129.891 14.2268L129.829 14.2887C129.829 14.2887 129.829 14.3505 129.767 14.3505C129.706 14.4124 129.659 14.4742 129.613 14.5361L129.613 14.5362C129.567 14.598 129.52 14.6598 129.458 14.7217L129.397 14.7835C129.322 14.8584 129.27 14.956 129.213 15.0626L129.212 15.0629C129.175 15.1322 129.136 15.2053 129.088 15.2784C129.088 15.2784 129.088 15.3402 129.026 15.3402C129.026 15.3711 129.01 15.4021 128.995 15.433C128.98 15.4639 128.964 15.4948 128.964 15.5258C128.964 15.5567 128.949 15.5722 128.933 15.5876C128.918 15.6031 128.902 15.6186 128.902 15.6495C128.871 15.7113 128.856 15.7577 128.841 15.8041C128.825 15.8505 128.81 15.8969 128.779 15.9588C128.779 15.9851 128.779 16.0002 128.774 16.0136C128.768 16.0318 128.752 16.0469 128.717 16.0825C128.717 16.1081 128.706 16.1337 128.694 16.1637C128.676 16.2062 128.655 16.2574 128.655 16.3299C128.655 16.3608 128.64 16.3918 128.624 16.4227C128.609 16.4536 128.593 16.4845 128.593 16.5155C128.593 16.5463 128.578 16.5927 128.562 16.639L128.562 16.6392C128.547 16.6856 128.532 16.732 128.532 16.7629C128.532 16.8247 128.532 16.8866 128.47 16.9485C128.47 17.0722 128.47 17.134 128.408 17.2577V17.4433V17.8763L128.346 42.4948C128.346 44.0412 129.088 45.3402 130.262 45.9588C132.734 47.3196 135.205 48.6804 137.615 49.9794ZM134.711 46.268L131.189 44.3505C130.633 44.0412 130.262 43.3608 130.262 42.5567L130.324 17.9381V17.6907V17.6289V17.567V17.5052V17.4433V17.3196V17.2577V17.1959V17.134L130.385 17.0103V16.9485V16.8866C130.385 16.8866 130.385 16.8247 130.447 16.8247C130.447 16.7938 130.463 16.7629 130.478 16.732C130.493 16.701 130.509 16.6701 130.509 16.6392V16.5773V16.5155L130.571 16.4536V16.3918C130.633 16.268 130.694 16.2062 130.756 16.1443L130.818 16.0825C130.849 16.0515 130.88 16.0052 130.911 15.9588C130.942 15.9124 130.972 15.866 131.003 15.8351L131.065 15.7732L131.127 15.7113L131.312 15.5258L131.374 15.4639C131.405 15.433 131.451 15.4021 131.498 15.3712L131.498 15.3711C131.544 15.3402 131.59 15.3093 131.621 15.2784C131.621 15.2784 131.683 15.2784 131.683 15.2165H131.745L131.807 15.1546C131.838 15.1546 131.853 15.1392 131.868 15.1237C131.884 15.1082 131.899 15.0928 131.93 15.0928C131.961 15.0928 131.977 15.0773 131.992 15.0619C132.007 15.0464 132.023 15.0309 132.054 15.0309C132.116 15.0309 132.177 14.9691 132.177 14.9691C132.239 14.9691 132.301 14.9072 132.301 14.9072H132.363H132.425C132.486 14.9072 132.548 14.9072 132.61 14.8454L155.412 11.6289H155.597H155.659H155.721H155.783H155.845H155.968H156.03H156.153H156.215C156.242 11.6289 156.257 11.6289 156.27 11.6336C156.288 11.64 156.303 11.6551 156.339 11.6907L156.339 11.6907H156.401C156.432 11.6907 156.447 11.6907 156.455 11.6984C156.462 11.7062 156.462 11.7216 156.462 11.7524V11.7526L159.552 13.4227L163.878 15.7732H163.816C164.434 16.0825 164.805 16.7629 164.805 17.6289L164.743 42.2474C164.743 43.732 163.569 45.1546 162.271 45.3402L139.469 48.5567H139.222C138.975 48.5567 138.666 48.4948 138.48 48.3711L134.711 46.268ZM65.1309 18.4948C64.822 18.1237 64.4512 17.8763 64.0805 17.6289L64.0804 17.6289C63.6478 17.4433 63.1535 17.3196 62.5974 17.3196C62.0412 17.3196 61.5468 17.4433 61.1143 17.6289C60.6817 17.8144 60.311 18.1237 60.0638 18.4948C59.7548 18.866 59.5694 19.299 59.3841 19.7938C59.2605 20.2887 59.1369 20.8454 59.1369 21.4639C59.1369 22.0825 59.1987 22.6392 59.3841 23.134C59.5076 23.6289 59.7548 24.0619 60.0638 24.433C60.3728 24.8041 60.7435 25.0515 61.1143 25.299C61.5468 25.4845 62.0412 25.6082 62.5974 25.6082C63.1535 25.6082 63.6478 25.4845 64.0804 25.299C64.513 25.1134 64.8837 24.8041 65.1309 24.433C65.4399 24.0619 65.6253 23.6289 65.8106 23.134C65.9342 22.6392 66.0578 22.0825 66.0578 21.4639C66.0578 20.8454 65.996 20.2887 65.8106 19.7938C65.6253 19.299 65.3781 18.866 65.1309 18.4948ZM86.388 22.8247L86.2027 22.6392L87.7475 18.5567H87.9329L89.4777 22.6392L89.2924 22.8247H86.388ZM73.3495 34.701C73.8438 34.701 74.2764 34.8247 74.5854 35.0103C74.8943 35.1959 75.0797 35.6289 75.0797 36.2474C75.0797 36.866 74.8943 37.299 74.5854 37.4845C74.2764 37.6701 73.8438 37.7938 73.3495 37.7938H70.0744L69.889 37.6082V34.8866L70.0744 34.701H73.3495ZM61.3615 34.701C61.8558 34.701 62.2884 34.8247 62.5974 35.0103C62.9063 35.1959 63.0917 35.6289 63.0917 36.2474C63.0917 36.866 62.9063 37.299 62.5974 37.4845C62.2884 37.6701 61.8558 37.7938 61.3615 37.7938H58.0864L57.901 37.6082V34.8866L58.0864 34.701H61.3615ZM48.8173 34.8248L48.8173 34.8248L48.8173 34.8247C48.3847 34.6392 47.8904 34.5155 47.3342 34.5155C46.7781 34.5155 46.2837 34.6392 45.8512 34.8247C45.4186 35.0103 45.0478 35.3196 44.8007 35.6907C44.4917 36.0619 44.3063 36.4948 44.1209 36.9897C43.9973 37.4845 43.8738 38.0412 43.8738 38.6598C43.8738 39.2784 43.9355 39.8351 44.1209 40.3299C44.2445 40.8247 44.4917 41.2577 44.8007 41.6289C45.1096 42 45.4804 42.2474 45.8511 42.4948L45.8512 42.4948C46.2837 42.6804 46.7781 42.8041 47.3342 42.8041C47.8904 42.8041 48.3847 42.6804 48.8173 42.4948C49.2498 42.3093 49.6206 42 49.8678 41.6289C50.1767 41.2577 50.3621 40.8247 50.5475 40.3299C50.6711 39.8351 50.7947 39.2784 50.7947 38.6598C50.7947 38.0412 50.7329 37.4845 50.5475 36.9897C50.3621 36.4948 50.1149 36.0619 49.8678 35.6907C49.5588 35.3196 49.1881 35.0722 48.8173 34.8248Z" fill="#C51E1E"/>
</g>
<defs>
<clipPath id="clip0">
<rect width="186" height="60" fill="white"/>
</clipPath>
</defs>
</svg>
