<svg width="536" height="424" viewBox="0 0 536 424" fill="none" xmlns="http://www.w3.org/2000/svg">
<path d="M73.418 421H67.7871V420.162L70.043 417.895C70.7305 417.199 71.1836 416.703 71.4023 416.406C71.6211 416.109 71.7852 415.82 71.8945 415.539C72.0039 415.258 72.0586 414.955 72.0586 414.631C72.0586 414.174 71.9199 413.812 71.6426 413.547C71.3652 413.277 70.9805 413.143 70.4883 413.143C70.1328 413.143 69.7949 413.201 69.4746 413.318C69.1582 413.436 68.8047 413.648 68.4141 413.957L67.8984 413.295C68.6875 412.639 69.5469 412.311 70.4766 412.311C71.2812 412.311 71.9121 412.518 72.3691 412.932C72.8262 413.342 73.0547 413.895 73.0547 414.59C73.0547 415.133 72.9023 415.67 72.5977 416.201C72.293 416.732 71.7227 417.404 70.8867 418.217L69.0117 420.051V420.098H73.418V421ZM74.5605 418.229V417.338H77.4375V418.229H74.5605ZM84.3047 421H78.416V420.221L82.9629 413.33H78.5566V412.434H84.1758V413.213L79.6289 420.098H84.3047V421ZM86.7949 421H85.8223V414.578H86.7949V421ZM85.7402 412.838C85.7402 412.615 85.7949 412.453 85.9043 412.352C86.0137 412.246 86.1504 412.193 86.3145 412.193C86.4707 412.193 86.6055 412.246 86.7188 412.352C86.832 412.457 86.8887 412.619 86.8887 412.838C86.8887 413.057 86.832 413.221 86.7188 413.33C86.6055 413.436 86.4707 413.488 86.3145 413.488C86.1504 413.488 86.0137 413.436 85.9043 413.33C85.7949 413.221 85.7402 413.057 85.7402 412.838ZM97.043 421V416.822C97.043 416.311 96.9336 415.928 96.7148 415.674C96.4961 415.416 96.1562 415.287 95.6953 415.287C95.0898 415.287 94.6426 415.461 94.3535 415.809C94.0645 416.156 93.9199 416.691 93.9199 417.414V421H92.9473V416.822C92.9473 416.311 92.8379 415.928 92.6191 415.674C92.4004 415.416 92.0586 415.287 91.5938 415.287C90.9844 415.287 90.5371 415.471 90.252 415.838C89.9707 416.201 89.8301 416.799 89.8301 417.631V421H88.8574V414.578H89.6484L89.8066 415.457H89.8535C90.0371 415.145 90.2949 414.9 90.627 414.725C90.9629 414.549 91.3379 414.461 91.752 414.461C92.7559 414.461 93.4121 414.824 93.7207 415.551H93.7676C93.959 415.215 94.2363 414.949 94.5996 414.754C94.9629 414.559 95.377 414.461 95.8418 414.461C96.5684 414.461 97.1113 414.648 97.4707 415.023C97.834 415.395 98.0156 415.99 98.0156 416.811V421H97.043ZM108.211 421V416.822C108.211 416.311 108.102 415.928 107.883 415.674C107.664 415.416 107.324 415.287 106.863 415.287C106.258 415.287 105.811 415.461 105.521 415.809C105.232 416.156 105.088 416.691 105.088 417.414V421H104.115V416.822C104.115 416.311 104.006 415.928 103.787 415.674C103.568 415.416 103.227 415.287 102.762 415.287C102.152 415.287 101.705 415.471 101.42 415.838C101.139 416.201 100.998 416.799 100.998 417.631V421H100.025V414.578H100.816L100.975 415.457H101.021C101.205 415.145 101.463 414.9 101.795 414.725C102.131 414.549 102.506 414.461 102.92 414.461C103.924 414.461 104.58 414.824 104.889 415.551H104.936C105.127 415.215 105.404 414.949 105.768 414.754C106.131 414.559 106.545 414.461 107.01 414.461C107.736 414.461 108.279 414.648 108.639 415.023C109.002 415.395 109.184 415.99 109.184 416.811V421H108.211ZM113.906 421.117C112.957 421.117 112.207 420.828 111.656 420.25C111.109 419.672 110.836 418.869 110.836 417.842C110.836 416.807 111.09 415.984 111.598 415.375C112.109 414.766 112.795 414.461 113.654 414.461C114.459 414.461 115.096 414.727 115.564 415.258C116.033 415.785 116.268 416.482 116.268 417.35V417.965H111.844C111.863 418.719 112.053 419.291 112.412 419.682C112.775 420.072 113.285 420.268 113.941 420.268C114.633 420.268 115.316 420.123 115.992 419.834V420.701C115.648 420.85 115.322 420.955 115.014 421.018C114.709 421.084 114.34 421.117 113.906 421.117ZM113.643 415.275C113.127 415.275 112.715 415.443 112.406 415.779C112.102 416.115 111.922 416.58 111.867 417.174H115.225C115.225 416.561 115.088 416.092 114.814 415.768C114.541 415.439 114.15 415.275 113.643 415.275ZM120.861 414.461C121.146 414.461 121.402 414.484 121.629 414.531L121.494 415.434C121.229 415.375 120.994 415.346 120.791 415.346C120.271 415.346 119.826 415.557 119.455 415.979C119.088 416.4 118.904 416.926 118.904 417.555V421H117.932V414.578H118.734L118.846 415.768H118.893C119.131 415.35 119.418 415.027 119.754 414.801C120.09 414.574 120.459 414.461 120.861 414.461Z" fill="#6A6A6A"/>
<path d="M247.096 414.449C247.096 414.996 246.941 415.443 246.633 415.791C246.328 416.139 245.895 416.371 245.332 416.488V416.535C246.02 416.621 246.529 416.84 246.861 417.191C247.193 417.543 247.359 418.004 247.359 418.574C247.359 419.391 247.076 420.02 246.51 420.461C245.943 420.898 245.139 421.117 244.096 421.117C243.643 421.117 243.227 421.082 242.848 421.012C242.473 420.945 242.107 420.826 241.752 420.654V419.729C242.123 419.912 242.518 420.053 242.936 420.15C243.357 420.244 243.756 420.291 244.131 420.291C245.611 420.291 246.352 419.711 246.352 418.551C246.352 417.512 245.535 416.992 243.902 416.992H243.059V416.154H243.914C244.582 416.154 245.111 416.008 245.502 415.715C245.893 415.418 246.088 415.008 246.088 414.484C246.088 414.066 245.943 413.738 245.654 413.5C245.369 413.262 244.98 413.143 244.488 413.143C244.113 413.143 243.76 413.193 243.428 413.295C243.096 413.396 242.717 413.584 242.291 413.857L241.799 413.201C242.15 412.924 242.555 412.707 243.012 412.551C243.473 412.391 243.957 412.311 244.465 412.311C245.297 412.311 245.943 412.502 246.404 412.885C246.865 413.264 247.096 413.785 247.096 414.449ZM248.561 418.229V417.338H251.438V418.229H248.561ZM258.305 421H252.416V420.221L256.963 413.33H252.557V412.434H258.176V413.213L253.629 420.098H258.305V421ZM260.795 421H259.822V414.578H260.795V421ZM259.74 412.838C259.74 412.615 259.795 412.453 259.904 412.352C260.014 412.246 260.15 412.193 260.314 412.193C260.471 412.193 260.605 412.246 260.719 412.352C260.832 412.457 260.889 412.619 260.889 412.838C260.889 413.057 260.832 413.221 260.719 413.33C260.605 413.436 260.471 413.488 260.314 413.488C260.15 413.488 260.014 413.436 259.904 413.33C259.795 413.221 259.74 413.057 259.74 412.838ZM271.043 421V416.822C271.043 416.311 270.934 415.928 270.715 415.674C270.496 415.416 270.156 415.287 269.695 415.287C269.09 415.287 268.643 415.461 268.354 415.809C268.064 416.156 267.92 416.691 267.92 417.414V421H266.947V416.822C266.947 416.311 266.838 415.928 266.619 415.674C266.4 415.416 266.059 415.287 265.594 415.287C264.984 415.287 264.537 415.471 264.252 415.838C263.971 416.201 263.83 416.799 263.83 417.631V421H262.857V414.578H263.648L263.807 415.457H263.854C264.037 415.145 264.295 414.9 264.627 414.725C264.963 414.549 265.338 414.461 265.752 414.461C266.756 414.461 267.412 414.824 267.721 415.551H267.768C267.959 415.215 268.236 414.949 268.6 414.754C268.963 414.559 269.377 414.461 269.842 414.461C270.568 414.461 271.111 414.648 271.471 415.023C271.834 415.395 272.016 415.99 272.016 416.811V421H271.043ZM282.211 421V416.822C282.211 416.311 282.102 415.928 281.883 415.674C281.664 415.416 281.324 415.287 280.863 415.287C280.258 415.287 279.811 415.461 279.521 415.809C279.232 416.156 279.088 416.691 279.088 417.414V421H278.115V416.822C278.115 416.311 278.006 415.928 277.787 415.674C277.568 415.416 277.227 415.287 276.762 415.287C276.152 415.287 275.705 415.471 275.42 415.838C275.139 416.201 274.998 416.799 274.998 417.631V421H274.025V414.578H274.816L274.975 415.457H275.021C275.205 415.145 275.463 414.9 275.795 414.725C276.131 414.549 276.506 414.461 276.92 414.461C277.924 414.461 278.58 414.824 278.889 415.551H278.936C279.127 415.215 279.404 414.949 279.768 414.754C280.131 414.559 280.545 414.461 281.01 414.461C281.736 414.461 282.279 414.648 282.639 415.023C283.002 415.395 283.184 415.99 283.184 416.811V421H282.211ZM287.906 421.117C286.957 421.117 286.207 420.828 285.656 420.25C285.109 419.672 284.836 418.869 284.836 417.842C284.836 416.807 285.09 415.984 285.598 415.375C286.109 414.766 286.795 414.461 287.654 414.461C288.459 414.461 289.096 414.727 289.564 415.258C290.033 415.785 290.268 416.482 290.268 417.35V417.965H285.844C285.863 418.719 286.053 419.291 286.412 419.682C286.775 420.072 287.285 420.268 287.941 420.268C288.633 420.268 289.316 420.123 289.992 419.834V420.701C289.648 420.85 289.322 420.955 289.014 421.018C288.709 421.084 288.34 421.117 287.906 421.117ZM287.643 415.275C287.127 415.275 286.715 415.443 286.406 415.779C286.102 416.115 285.922 416.58 285.867 417.174H289.225C289.225 416.561 289.088 416.092 288.814 415.768C288.541 415.439 288.15 415.275 287.643 415.275ZM294.861 414.461C295.146 414.461 295.402 414.484 295.629 414.531L295.494 415.434C295.229 415.375 294.994 415.346 294.791 415.346C294.271 415.346 293.826 415.557 293.455 415.979C293.088 416.4 292.904 416.926 292.904 417.555V421H291.932V414.578H292.734L292.846 415.768H292.893C293.131 415.35 293.418 415.027 293.754 414.801C294.09 414.574 294.459 414.461 294.861 414.461Z" fill="#6A6A6A"/>
<path d="M421.322 419.031H420.051V421H419.119V419.031H414.953V418.182L419.02 412.387H420.051V418.146H421.322V419.031ZM419.119 418.146V415.299C419.119 414.74 419.139 414.109 419.178 413.406H419.131C418.943 413.781 418.768 414.092 418.604 414.338L415.926 418.146H419.119ZM422.061 418.229V417.338H424.938V418.229H422.061ZM431.805 421H425.916V420.221L430.463 413.33H426.057V412.434H431.676V413.213L427.129 420.098H431.805V421ZM434.295 421H433.322V414.578H434.295V421ZM433.24 412.838C433.24 412.615 433.295 412.453 433.404 412.352C433.514 412.246 433.65 412.193 433.814 412.193C433.971 412.193 434.105 412.246 434.219 412.352C434.332 412.457 434.389 412.619 434.389 412.838C434.389 413.057 434.332 413.221 434.219 413.33C434.105 413.436 433.971 413.488 433.814 413.488C433.65 413.488 433.514 413.436 433.404 413.33C433.295 413.221 433.24 413.057 433.24 412.838ZM444.543 421V416.822C444.543 416.311 444.434 415.928 444.215 415.674C443.996 415.416 443.656 415.287 443.195 415.287C442.59 415.287 442.143 415.461 441.854 415.809C441.564 416.156 441.42 416.691 441.42 417.414V421H440.447V416.822C440.447 416.311 440.338 415.928 440.119 415.674C439.9 415.416 439.559 415.287 439.094 415.287C438.484 415.287 438.037 415.471 437.752 415.838C437.471 416.201 437.33 416.799 437.33 417.631V421H436.357V414.578H437.148L437.307 415.457H437.354C437.537 415.145 437.795 414.9 438.127 414.725C438.463 414.549 438.838 414.461 439.252 414.461C440.256 414.461 440.912 414.824 441.221 415.551H441.268C441.459 415.215 441.736 414.949 442.1 414.754C442.463 414.559 442.877 414.461 443.342 414.461C444.068 414.461 444.611 414.648 444.971 415.023C445.334 415.395 445.516 415.99 445.516 416.811V421H444.543ZM455.711 421V416.822C455.711 416.311 455.602 415.928 455.383 415.674C455.164 415.416 454.824 415.287 454.363 415.287C453.758 415.287 453.311 415.461 453.021 415.809C452.732 416.156 452.588 416.691 452.588 417.414V421H451.615V416.822C451.615 416.311 451.506 415.928 451.287 415.674C451.068 415.416 450.727 415.287 450.262 415.287C449.652 415.287 449.205 415.471 448.92 415.838C448.639 416.201 448.498 416.799 448.498 417.631V421H447.525V414.578H448.316L448.475 415.457H448.521C448.705 415.145 448.963 414.9 449.295 414.725C449.631 414.549 450.006 414.461 450.42 414.461C451.424 414.461 452.08 414.824 452.389 415.551H452.436C452.627 415.215 452.904 414.949 453.268 414.754C453.631 414.559 454.045 414.461 454.51 414.461C455.236 414.461 455.779 414.648 456.139 415.023C456.502 415.395 456.684 415.99 456.684 416.811V421H455.711ZM461.406 421.117C460.457 421.117 459.707 420.828 459.156 420.25C458.609 419.672 458.336 418.869 458.336 417.842C458.336 416.807 458.59 415.984 459.098 415.375C459.609 414.766 460.295 414.461 461.154 414.461C461.959 414.461 462.596 414.727 463.064 415.258C463.533 415.785 463.768 416.482 463.768 417.35V417.965H459.344C459.363 418.719 459.553 419.291 459.912 419.682C460.275 420.072 460.785 420.268 461.441 420.268C462.133 420.268 462.816 420.123 463.492 419.834V420.701C463.148 420.85 462.822 420.955 462.514 421.018C462.209 421.084 461.84 421.117 461.406 421.117ZM461.143 415.275C460.627 415.275 460.215 415.443 459.906 415.779C459.602 416.115 459.422 416.58 459.367 417.174H462.725C462.725 416.561 462.588 416.092 462.314 415.768C462.041 415.439 461.65 415.275 461.143 415.275ZM468.361 414.461C468.646 414.461 468.902 414.484 469.129 414.531L468.994 415.434C468.729 415.375 468.494 415.346 468.291 415.346C467.771 415.346 467.326 415.557 466.955 415.979C466.588 416.4 466.404 416.926 466.404 417.555V421H465.432V414.578H466.234L466.346 415.768H466.393C466.631 415.35 466.918 415.027 467.254 414.801C467.59 414.574 467.959 414.461 468.361 414.461Z" fill="#6A6A6A"/>
<path d="M147.945 8.51172H150.857V12.6777C150.404 12.8223 149.943 12.9316 149.475 13.0059C149.006 13.0801 148.463 13.1172 147.846 13.1172C146.549 13.1172 145.539 12.7324 144.816 11.9629C144.094 11.1895 143.732 10.1074 143.732 8.7168C143.732 7.82617 143.91 7.04688 144.266 6.37891C144.625 5.70703 145.141 5.19531 145.812 4.84375C146.484 4.48828 147.271 4.31055 148.174 4.31055C149.088 4.31055 149.939 4.47852 150.729 4.81445L150.342 5.69336C149.568 5.36523 148.824 5.20117 148.109 5.20117C147.066 5.20117 146.252 5.51172 145.666 6.13281C145.08 6.75391 144.787 7.61523 144.787 8.7168C144.787 9.87305 145.068 10.75 145.631 11.3477C146.197 11.9453 147.027 12.2441 148.121 12.2441C148.715 12.2441 149.295 12.1758 149.861 12.0391V9.40234H147.945V8.51172ZM155.486 13.1172C154.537 13.1172 153.787 12.8281 153.236 12.25C152.689 11.6719 152.416 10.8691 152.416 9.8418C152.416 8.80664 152.67 7.98438 153.178 7.375C153.689 6.76562 154.375 6.46094 155.234 6.46094C156.039 6.46094 156.676 6.72656 157.145 7.25781C157.613 7.78516 157.848 8.48242 157.848 9.34961V9.96484H153.424C153.443 10.7188 153.633 11.291 153.992 11.6816C154.355 12.0723 154.865 12.2676 155.521 12.2676C156.213 12.2676 156.896 12.123 157.572 11.834V12.7012C157.229 12.8496 156.902 12.9551 156.594 13.0176C156.289 13.084 155.92 13.1172 155.486 13.1172ZM155.223 7.27539C154.707 7.27539 154.295 7.44336 153.986 7.7793C153.682 8.11523 153.502 8.58008 153.447 9.17383H156.805C156.805 8.56055 156.668 8.0918 156.395 7.76758C156.121 7.43945 155.73 7.27539 155.223 7.27539ZM167.697 13V8.82227C167.697 8.31055 167.588 7.92773 167.369 7.67383C167.15 7.41602 166.811 7.28711 166.35 7.28711C165.744 7.28711 165.297 7.46094 165.008 7.80859C164.719 8.15625 164.574 8.69141 164.574 9.41406V13H163.602V8.82227C163.602 8.31055 163.492 7.92773 163.273 7.67383C163.055 7.41602 162.713 7.28711 162.248 7.28711C161.639 7.28711 161.191 7.4707 160.906 7.83789C160.625 8.20117 160.484 8.79883 160.484 9.63086V13H159.512V6.57812H160.303L160.461 7.45703H160.508C160.691 7.14453 160.949 6.90039 161.281 6.72461C161.617 6.54883 161.992 6.46094 162.406 6.46094C163.41 6.46094 164.066 6.82422 164.375 7.55078H164.422C164.613 7.21484 164.891 6.94922 165.254 6.75391C165.617 6.55859 166.031 6.46094 166.496 6.46094C167.223 6.46094 167.766 6.64844 168.125 7.02344C168.488 7.39453 168.67 7.99023 168.67 8.81055V13H167.697ZM173.393 13.1172C172.443 13.1172 171.693 12.8281 171.143 12.25C170.596 11.6719 170.322 10.8691 170.322 9.8418C170.322 8.80664 170.576 7.98438 171.084 7.375C171.596 6.76562 172.281 6.46094 173.141 6.46094C173.945 6.46094 174.582 6.72656 175.051 7.25781C175.52 7.78516 175.754 8.48242 175.754 9.34961V9.96484H171.33C171.35 10.7188 171.539 11.291 171.898 11.6816C172.262 12.0723 172.771 12.2676 173.428 12.2676C174.119 12.2676 174.803 12.123 175.479 11.834V12.7012C175.135 12.8496 174.809 12.9551 174.5 13.0176C174.195 13.084 173.826 13.1172 173.393 13.1172ZM173.129 7.27539C172.613 7.27539 172.201 7.44336 171.893 7.7793C171.588 8.11523 171.408 8.58008 171.354 9.17383H174.711C174.711 8.56055 174.574 8.0918 174.301 7.76758C174.027 7.43945 173.637 7.27539 173.129 7.27539ZM178.391 13H177.418V6.57812H178.391V13ZM177.336 4.83789C177.336 4.61523 177.391 4.45312 177.5 4.35156C177.609 4.24609 177.746 4.19336 177.91 4.19336C178.066 4.19336 178.201 4.24609 178.314 4.35156C178.428 4.45703 178.484 4.61914 178.484 4.83789C178.484 5.05664 178.428 5.2207 178.314 5.33008C178.201 5.43555 178.066 5.48828 177.91 5.48828C177.746 5.48828 177.609 5.43555 177.5 5.33008C177.391 5.2207 177.336 5.05664 177.336 4.83789ZM184.848 13V8.8457C184.848 8.32227 184.729 7.93164 184.49 7.67383C184.252 7.41602 183.879 7.28711 183.371 7.28711C182.699 7.28711 182.207 7.46875 181.895 7.83203C181.582 8.19531 181.426 8.79492 181.426 9.63086V13H180.453V6.57812H181.244L181.402 7.45703H181.449C181.648 7.14062 181.928 6.89648 182.287 6.72461C182.646 6.54883 183.047 6.46094 183.488 6.46094C184.262 6.46094 184.844 6.64844 185.234 7.02344C185.625 7.39453 185.82 7.99023 185.82 8.81055V13H184.848ZM192.219 13V8.8457C192.219 8.32227 192.1 7.93164 191.861 7.67383C191.623 7.41602 191.25 7.28711 190.742 7.28711C190.07 7.28711 189.578 7.46875 189.266 7.83203C188.953 8.19531 188.797 8.79492 188.797 9.63086V13H187.824V6.57812H188.615L188.773 7.45703H188.82C189.02 7.14062 189.299 6.89648 189.658 6.72461C190.018 6.54883 190.418 6.46094 190.859 6.46094C191.633 6.46094 192.215 6.64844 192.605 7.02344C192.996 7.39453 193.191 7.99023 193.191 8.81055V13H192.219ZM196.109 6.57812V10.7441C196.109 11.2676 196.229 11.6582 196.467 11.916C196.705 12.1738 197.078 12.3027 197.586 12.3027C198.258 12.3027 198.748 12.1191 199.057 11.752C199.369 11.3848 199.525 10.7852 199.525 9.95312V6.57812H200.498V13H199.695L199.555 12.1387H199.502C199.303 12.4551 199.025 12.6973 198.67 12.8652C198.318 13.0332 197.916 13.1172 197.463 13.1172C196.682 13.1172 196.096 12.9316 195.705 12.5605C195.318 12.1895 195.125 11.5957 195.125 10.7793V6.57812H196.109ZM196.168 4.83789C196.168 4.63477 196.219 4.48828 196.32 4.39844C196.426 4.30859 196.551 4.26367 196.695 4.26367C196.844 4.26367 196.971 4.30859 197.076 4.39844C197.186 4.48828 197.24 4.63477 197.24 4.83789C197.24 5.0332 197.186 5.17969 197.076 5.27734C196.971 5.37109 196.844 5.41797 196.695 5.41797C196.551 5.41797 196.426 5.37109 196.32 5.27734C196.219 5.17969 196.168 5.0332 196.168 4.83789ZM198.4 4.83789C198.4 4.63477 198.451 4.48828 198.553 4.39844C198.658 4.30859 198.783 4.26367 198.928 4.26367C199.072 4.26367 199.197 4.30859 199.303 4.39844C199.412 4.48828 199.467 4.63477 199.467 4.83789C199.467 5.0332 199.412 5.17969 199.303 5.27734C199.197 5.37109 199.072 5.41797 198.928 5.41797C198.783 5.41797 198.658 5.37109 198.553 5.27734C198.451 5.17969 198.4 5.0332 198.4 4.83789ZM204.641 12.3145C204.812 12.3145 204.979 12.3027 205.139 12.2793C205.299 12.252 205.426 12.2246 205.52 12.1973V12.9414C205.414 12.9922 205.258 13.0332 205.051 13.0645C204.848 13.0996 204.664 13.1172 204.5 13.1172C203.258 13.1172 202.637 12.4629 202.637 11.1543V7.33398H201.717V6.86523L202.637 6.46094L203.047 5.08984H203.609V6.57812H205.473V7.33398H203.609V11.1133C203.609 11.5 203.701 11.7969 203.885 12.0039C204.068 12.2109 204.32 12.3145 204.641 12.3145ZM210.916 13H206.258V12.3379L209.762 7.33398H206.475V6.57812H210.828V7.33398L207.371 12.2441H210.916V13ZM213.395 13H212.422V6.57812H213.395V13ZM212.34 4.83789C212.34 4.61523 212.395 4.45312 212.504 4.35156C212.613 4.24609 212.75 4.19336 212.914 4.19336C213.07 4.19336 213.205 4.24609 213.318 4.35156C213.432 4.45703 213.488 4.61914 213.488 4.83789C213.488 5.05664 213.432 5.2207 213.318 5.33008C213.205 5.43555 213.07 5.48828 212.914 5.48828C212.75 5.48828 212.613 5.43555 212.504 5.33008C212.395 5.2207 212.34 5.05664 212.34 4.83789ZM220.713 6.57812V7.19336L219.523 7.33398C219.633 7.4707 219.73 7.65039 219.816 7.87305C219.902 8.0918 219.945 8.33984 219.945 8.61719C219.945 9.24609 219.73 9.74805 219.301 10.123C218.871 10.498 218.281 10.6855 217.531 10.6855C217.34 10.6855 217.16 10.6699 216.992 10.6387C216.578 10.8574 216.371 11.1328 216.371 11.4648C216.371 11.6406 216.443 11.7715 216.588 11.8574C216.732 11.9395 216.98 11.9805 217.332 11.9805H218.469C219.164 11.9805 219.697 12.127 220.068 12.4199C220.443 12.7129 220.631 13.1387 220.631 13.6973C220.631 14.4082 220.346 14.9492 219.775 15.3203C219.205 15.6953 218.373 15.8828 217.279 15.8828C216.439 15.8828 215.791 15.7266 215.334 15.4141C214.881 15.1016 214.654 14.6602 214.654 14.0898C214.654 13.6992 214.779 13.3613 215.029 13.0762C215.279 12.791 215.631 12.5977 216.084 12.4961C215.92 12.4219 215.781 12.3066 215.668 12.1504C215.559 11.9941 215.504 11.8125 215.504 11.6055C215.504 11.3711 215.566 11.166 215.691 10.9902C215.816 10.8145 216.014 10.6445 216.283 10.4805C215.951 10.3438 215.68 10.1113 215.469 9.7832C215.262 9.45508 215.158 9.08008 215.158 8.6582C215.158 7.95508 215.369 7.41406 215.791 7.03516C216.213 6.65234 216.811 6.46094 217.584 6.46094C217.92 6.46094 218.223 6.5 218.492 6.57812H220.713ZM215.592 14.0781C215.592 14.4258 215.738 14.6895 216.031 14.8691C216.324 15.0488 216.744 15.1387 217.291 15.1387C218.107 15.1387 218.711 15.0156 219.102 14.7695C219.496 14.5273 219.693 14.1973 219.693 13.7793C219.693 13.4316 219.586 13.1895 219.371 13.0527C219.156 12.9199 218.752 12.8535 218.158 12.8535H216.992C216.551 12.8535 216.207 12.959 215.961 13.1699C215.715 13.3809 215.592 13.6836 215.592 14.0781ZM216.119 8.63477C216.119 9.08398 216.246 9.42383 216.5 9.6543C216.754 9.88477 217.107 10 217.561 10C218.51 10 218.984 9.53906 218.984 8.61719C218.984 7.65234 218.504 7.16992 217.543 7.16992C217.086 7.16992 216.734 7.29297 216.488 7.53906C216.242 7.78516 216.119 8.15039 216.119 8.63477Z" fill="#6A6A6A"/>
<rect x="110.5" y="3.5" width="26" height="9" fill="#C51E1E" fill-opacity="0.5" stroke="#C51E1E"/>
<path d="M269.174 9.4375V13H268.178V4.43359H270.527C271.578 4.43359 272.354 4.63477 272.854 5.03711C273.357 5.43945 273.609 6.04492 273.609 6.85352C273.609 7.98633 273.035 8.75195 271.887 9.15039L274.213 13H273.035L270.961 9.4375H269.174ZM269.174 8.58203H270.539C271.242 8.58203 271.758 8.44336 272.086 8.16602C272.414 7.88477 272.578 7.46484 272.578 6.90625C272.578 6.33984 272.41 5.93164 272.074 5.68164C271.742 5.43164 271.207 5.30664 270.469 5.30664H269.174V8.58203ZM278.162 13.1172C277.213 13.1172 276.463 12.8281 275.912 12.25C275.365 11.6719 275.092 10.8691 275.092 9.8418C275.092 8.80664 275.346 7.98438 275.854 7.375C276.365 6.76562 277.051 6.46094 277.91 6.46094C278.715 6.46094 279.352 6.72656 279.82 7.25781C280.289 7.78516 280.523 8.48242 280.523 9.34961V9.96484H276.1C276.119 10.7188 276.309 11.291 276.668 11.6816C277.031 12.0723 277.541 12.2676 278.197 12.2676C278.889 12.2676 279.572 12.123 280.248 11.834V12.7012C279.904 12.8496 279.578 12.9551 279.27 13.0176C278.965 13.084 278.596 13.1172 278.162 13.1172ZM277.898 7.27539C277.383 7.27539 276.971 7.44336 276.662 7.7793C276.357 8.11523 276.178 8.58008 276.123 9.17383H279.48C279.48 8.56055 279.344 8.0918 279.07 7.76758C278.797 7.43945 278.406 7.27539 277.898 7.27539ZM286.582 13V8.8457C286.582 8.32227 286.463 7.93164 286.225 7.67383C285.986 7.41602 285.613 7.28711 285.105 7.28711C284.434 7.28711 283.941 7.46875 283.629 7.83203C283.316 8.19531 283.16 8.79492 283.16 9.63086V13H282.188V6.57812H282.979L283.137 7.45703H283.184C283.383 7.14062 283.662 6.89648 284.021 6.72461C284.381 6.54883 284.781 6.46094 285.223 6.46094C285.996 6.46094 286.578 6.64844 286.969 7.02344C287.359 7.39453 287.555 7.99023 287.555 8.81055V13H286.582ZM293.93 12.1387H293.877C293.428 12.791 292.756 13.1172 291.861 13.1172C291.021 13.1172 290.367 12.8301 289.898 12.2559C289.434 11.6816 289.201 10.8652 289.201 9.80664C289.201 8.74805 289.436 7.92578 289.904 7.33984C290.373 6.75391 291.025 6.46094 291.861 6.46094C292.732 6.46094 293.4 6.77734 293.865 7.41016H293.941L293.9 6.94727L293.877 6.49609V3.88281H294.85V13H294.059L293.93 12.1387ZM291.984 12.3027C292.648 12.3027 293.129 12.123 293.426 11.7637C293.727 11.4004 293.877 10.8164 293.877 10.0117V9.80664C293.877 8.89648 293.725 8.24805 293.42 7.86133C293.119 7.4707 292.637 7.27539 291.973 7.27539C291.402 7.27539 290.965 7.49805 290.66 7.94336C290.359 8.38477 290.209 9.00977 290.209 9.81836C290.209 10.6387 290.359 11.2578 290.66 11.6758C290.961 12.0938 291.402 12.3027 291.984 12.3027ZM297.891 13H296.918V6.57812H297.891V13ZM296.836 4.83789C296.836 4.61523 296.891 4.45312 297 4.35156C297.109 4.24609 297.246 4.19336 297.41 4.19336C297.566 4.19336 297.701 4.24609 297.814 4.35156C297.928 4.45703 297.984 4.61914 297.984 4.83789C297.984 5.05664 297.928 5.2207 297.814 5.33008C297.701 5.43555 297.566 5.48828 297.41 5.48828C297.246 5.48828 297.109 5.43555 297 5.33008C296.891 5.2207 296.836 5.05664 296.836 4.83789ZM302.027 12.3145C302.199 12.3145 302.365 12.3027 302.525 12.2793C302.686 12.252 302.812 12.2246 302.906 12.1973V12.9414C302.801 12.9922 302.645 13.0332 302.438 13.0645C302.234 13.0996 302.051 13.1172 301.887 13.1172C300.645 13.1172 300.023 12.4629 300.023 11.1543V7.33398H299.104V6.86523L300.023 6.46094L300.434 5.08984H300.996V6.57812H302.859V7.33398H300.996V11.1133C300.996 11.5 301.088 11.7969 301.271 12.0039C301.455 12.2109 301.707 12.3145 302.027 12.3145ZM306.908 13.1172C305.959 13.1172 305.209 12.8281 304.658 12.25C304.111 11.6719 303.838 10.8691 303.838 9.8418C303.838 8.80664 304.092 7.98438 304.6 7.375C305.111 6.76562 305.797 6.46094 306.656 6.46094C307.461 6.46094 308.098 6.72656 308.566 7.25781C309.035 7.78516 309.27 8.48242 309.27 9.34961V9.96484H304.846C304.865 10.7188 305.055 11.291 305.414 11.6816C305.777 12.0723 306.287 12.2676 306.943 12.2676C307.635 12.2676 308.318 12.123 308.994 11.834V12.7012C308.65 12.8496 308.324 12.9551 308.016 13.0176C307.711 13.084 307.342 13.1172 306.908 13.1172ZM306.645 7.27539C306.129 7.27539 305.717 7.44336 305.408 7.7793C305.104 8.11523 304.924 8.58008 304.869 9.17383H308.227C308.227 8.56055 308.09 8.0918 307.816 7.76758C307.543 7.43945 307.152 7.27539 306.645 7.27539ZM316.477 9.7832C316.477 10.8301 316.213 11.6484 315.686 12.2383C315.158 12.8242 314.43 13.1172 313.5 13.1172C312.926 13.1172 312.416 12.9824 311.971 12.7129C311.525 12.4434 311.182 12.0566 310.939 11.5527C310.697 11.0488 310.576 10.459 310.576 9.7832C310.576 8.73633 310.838 7.92188 311.361 7.33984C311.885 6.75391 312.611 6.46094 313.541 6.46094C314.439 6.46094 315.152 6.75977 315.68 7.35742C316.211 7.95508 316.477 8.76367 316.477 9.7832ZM311.584 9.7832C311.584 10.6035 311.748 11.2285 312.076 11.6582C312.404 12.0879 312.887 12.3027 313.523 12.3027C314.16 12.3027 314.643 12.0898 314.971 11.6641C315.303 11.2344 315.469 10.6074 315.469 9.7832C315.469 8.9668 315.303 8.34766 314.971 7.92578C314.643 7.5 314.156 7.28711 313.512 7.28711C312.875 7.28711 312.395 7.49609 312.07 7.91406C311.746 8.33203 311.584 8.95508 311.584 9.7832ZM321.117 6.46094C321.402 6.46094 321.658 6.48438 321.885 6.53125L321.75 7.43359C321.484 7.375 321.25 7.3457 321.047 7.3457C320.527 7.3457 320.082 7.55664 319.711 7.97852C319.344 8.40039 319.16 8.92578 319.16 9.55469V13H318.188V6.57812H318.99L319.102 7.76758H319.148C319.387 7.34961 319.674 7.02734 320.01 6.80078C320.346 6.57422 320.715 6.46094 321.117 6.46094ZM324.059 13H323.086V6.57812H324.059V13ZM323.004 4.83789C323.004 4.61523 323.059 4.45312 323.168 4.35156C323.277 4.24609 323.414 4.19336 323.578 4.19336C323.734 4.19336 323.869 4.24609 323.982 4.35156C324.096 4.45703 324.152 4.61914 324.152 4.83789C324.152 5.05664 324.096 5.2207 323.982 5.33008C323.869 5.43555 323.734 5.48828 323.578 5.48828C323.414 5.48828 323.277 5.43555 323.168 5.33008C323.059 5.2207 323.004 5.05664 323.004 4.83789ZM328.834 13.1172C327.885 13.1172 327.135 12.8281 326.584 12.25C326.037 11.6719 325.764 10.8691 325.764 9.8418C325.764 8.80664 326.018 7.98438 326.525 7.375C327.037 6.76562 327.723 6.46094 328.582 6.46094C329.387 6.46094 330.023 6.72656 330.492 7.25781C330.961 7.78516 331.195 8.48242 331.195 9.34961V9.96484H326.771C326.791 10.7188 326.98 11.291 327.34 11.6816C327.703 12.0723 328.213 12.2676 328.869 12.2676C329.561 12.2676 330.244 12.123 330.92 11.834V12.7012C330.576 12.8496 330.25 12.9551 329.941 13.0176C329.637 13.084 329.268 13.1172 328.834 13.1172ZM328.57 7.27539C328.055 7.27539 327.643 7.44336 327.334 7.7793C327.029 8.11523 326.85 8.58008 326.795 9.17383H330.152C330.152 8.56055 330.016 8.0918 329.742 7.76758C329.469 7.43945 329.078 7.27539 328.57 7.27539ZM337.254 13V8.8457C337.254 8.32227 337.135 7.93164 336.896 7.67383C336.658 7.41602 336.285 7.28711 335.777 7.28711C335.105 7.28711 334.613 7.46875 334.301 7.83203C333.988 8.19531 333.832 8.79492 333.832 9.63086V13H332.859V6.57812H333.65L333.809 7.45703H333.855C334.055 7.14062 334.334 6.89648 334.693 6.72461C335.053 6.54883 335.453 6.46094 335.895 6.46094C336.668 6.46094 337.25 6.64844 337.641 7.02344C338.031 7.39453 338.227 7.99023 338.227 8.81055V13H337.254ZM342.305 12.3145C342.477 12.3145 342.643 12.3027 342.803 12.2793C342.963 12.252 343.09 12.2246 343.184 12.1973V12.9414C343.078 12.9922 342.922 13.0332 342.715 13.0645C342.512 13.0996 342.328 13.1172 342.164 13.1172C340.922 13.1172 340.301 12.4629 340.301 11.1543V7.33398H339.381V6.86523L340.301 6.46094L340.711 5.08984H341.273V6.57812H343.137V7.33398H341.273V11.1133C341.273 11.5 341.365 11.7969 341.549 12.0039C341.732 12.2109 341.984 12.3145 342.305 12.3145ZM345.445 13H344.473V6.57812H345.445V13ZM344.391 4.83789C344.391 4.61523 344.445 4.45312 344.555 4.35156C344.664 4.24609 344.801 4.19336 344.965 4.19336C345.121 4.19336 345.256 4.24609 345.369 4.35156C345.482 4.45703 345.539 4.61914 345.539 4.83789C345.539 5.05664 345.482 5.2207 345.369 5.33008C345.256 5.43555 345.121 5.48828 344.965 5.48828C344.801 5.48828 344.664 5.43555 344.555 5.33008C344.445 5.2207 344.391 5.05664 344.391 4.83789ZM350.221 13.1172C349.271 13.1172 348.521 12.8281 347.971 12.25C347.424 11.6719 347.15 10.8691 347.15 9.8418C347.15 8.80664 347.404 7.98438 347.912 7.375C348.424 6.76562 349.109 6.46094 349.969 6.46094C350.773 6.46094 351.41 6.72656 351.879 7.25781C352.348 7.78516 352.582 8.48242 352.582 9.34961V9.96484H348.158C348.178 10.7188 348.367 11.291 348.727 11.6816C349.09 12.0723 349.6 12.2676 350.256 12.2676C350.947 12.2676 351.631 12.123 352.307 11.834V12.7012C351.963 12.8496 351.637 12.9551 351.328 13.0176C351.023 13.084 350.654 13.1172 350.221 13.1172ZM349.957 7.27539C349.441 7.27539 349.029 7.44336 348.721 7.7793C348.416 8.11523 348.236 8.58008 348.182 9.17383H351.539C351.539 8.56055 351.402 8.0918 351.129 7.76758C350.855 7.43945 350.465 7.27539 349.957 7.27539ZM357.176 6.46094C357.461 6.46094 357.717 6.48438 357.943 6.53125L357.809 7.43359C357.543 7.375 357.309 7.3457 357.105 7.3457C356.586 7.3457 356.141 7.55664 355.77 7.97852C355.402 8.40039 355.219 8.92578 355.219 9.55469V13H354.246V6.57812H355.049L355.16 7.76758H355.207C355.445 7.34961 355.732 7.02734 356.068 6.80078C356.404 6.57422 356.773 6.46094 357.176 6.46094ZM361.219 12.3145C361.391 12.3145 361.557 12.3027 361.717 12.2793C361.877 12.252 362.004 12.2246 362.098 12.1973V12.9414C361.992 12.9922 361.836 13.0332 361.629 13.0645C361.426 13.0996 361.242 13.1172 361.078 13.1172C359.836 13.1172 359.215 12.4629 359.215 11.1543V7.33398H358.295V6.86523L359.215 6.46094L359.625 5.08984H360.188V6.57812H362.051V7.33398H360.188V11.1133C360.188 11.5 360.279 11.7969 360.463 12.0039C360.646 12.2109 360.898 12.3145 361.219 12.3145Z" fill="#6A6A6A"/>
<rect x="234.5" y="3.5" width="26" height="9" fill="#1F1F8F" fill-opacity="0.5" stroke="#1F1F8F"/>
<line x1="4.37114e-08" y1="399.5" x2="536" y2="399.5" stroke="#999999" stroke-opacity="0.5"/>
<line x1="7.5" y1="407" x2="7.50002" y2="34" stroke="#999999" stroke-opacity="0.5"/>
<line x1="181.5" y1="407" x2="181.5" y2="34" stroke="#999999" stroke-opacity="0.5"/>
<line x1="355.5" y1="407" x2="355.5" y2="34" stroke="#999999" stroke-opacity="0.5"/>
<line x1="528.5" y1="407" x2="528.5" y2="34" stroke="#999999" stroke-opacity="0.5"/>
<line x1="4.37114e-08" y1="364.5" x2="536" y2="364.5" stroke="#999999" stroke-opacity="0.5"/>
<line x1="4.37114e-08" y1="329.5" x2="536" y2="329.5" stroke="#999999" stroke-opacity="0.5"/>
<line x1="4.37114e-08" y1="294.5" x2="536" y2="294.5" stroke="#999999" stroke-opacity="0.5"/>
<line x1="4.37114e-08" y1="259.5" x2="536" y2="259.5" stroke="#999999" stroke-opacity="0.5"/>
<line x1="4.37114e-08" y1="224.5" x2="536" y2="224.5" stroke="#999999" stroke-opacity="0.5"/>
<line x1="4.37114e-08" y1="189.5" x2="536" y2="189.5" stroke="#999999" stroke-opacity="0.5"/>
<line x1="4.37114e-08" y1="154.5" x2="536" y2="154.5" stroke="#999999" stroke-opacity="0.5"/>
<line x1="4.37114e-08" y1="119.5" x2="536" y2="119.5" stroke="#999999" stroke-opacity="0.5"/>
<line x1="4.37114e-08" y1="84.5" x2="536" y2="84.5" stroke="#999999" stroke-opacity="0.5"/>
<line x1="4.37114e-08" y1="49.5" x2="536" y2="49.5" stroke="#999999" stroke-opacity="0.5"/>
<rect width="69" height="349" transform="translate(442 50)" fill="#1F1F8F" fill-opacity="0.5"/>
<rect width="69" height="244" transform="translate(373 155)" fill="#C51E1E" fill-opacity="0.5"/>
<rect width="69" height="277" transform="translate(269 122)" fill="#1F1F8F" fill-opacity="0.5"/>
<rect width="69" height="177" transform="translate(200 222)" fill="#C51E1E" fill-opacity="0.5"/>
<rect width="69" height="234.005" transform="translate(96 165)" fill="#1F1F8F" fill-opacity="0.5"/>
<rect width="69" height="160" transform="translate(27 239)" fill="#C51E1E" fill-opacity="0.5"/>
<path d="M386.356 96.7233V98.3512H386.164C385.27 98.3649 384.55 98.5974 384.003 99.0489C383.46 99.5003 383.134 100.127 383.025 100.93C383.554 100.392 384.222 100.123 385.029 100.123C385.895 100.123 386.584 100.433 387.095 101.053C387.605 101.673 387.861 102.489 387.861 103.502C387.861 104.149 387.719 104.735 387.437 105.26C387.158 105.784 386.762 106.192 386.246 106.484C385.736 106.776 385.156 106.922 384.509 106.922C383.46 106.922 382.612 106.557 381.964 105.827C381.321 105.098 381 104.124 381 102.907V102.195C381 101.115 381.203 100.162 381.609 99.3362C382.019 98.5062 382.605 97.8656 383.367 97.4141C384.133 96.9581 385.02 96.7278 386.027 96.7233H386.356ZM384.427 101.71C384.108 101.71 383.818 101.794 383.558 101.963C383.298 102.127 383.107 102.346 382.984 102.619V103.221C382.984 103.883 383.114 104.4 383.374 104.774C383.633 105.143 383.998 105.328 384.468 105.328C384.892 105.328 385.234 105.162 385.494 104.829C385.758 104.491 385.891 104.056 385.891 103.522C385.891 102.98 385.758 102.542 385.494 102.209C385.229 101.876 384.874 101.71 384.427 101.71Z" fill="#C51E1E"/>
<path d="M395.74 102.667C395.74 104.044 395.455 105.098 394.885 105.827C394.315 106.557 393.481 106.922 392.382 106.922C391.297 106.922 390.467 106.564 389.892 105.848C389.318 105.132 389.023 104.106 389.01 102.77V100.937C389.01 99.5459 389.297 98.4903 389.872 97.7698C390.451 97.0493 391.283 96.6891 392.368 96.6891C393.454 96.6891 394.283 97.047 394.858 97.7629C395.433 98.4743 395.727 99.4981 395.74 100.834V102.667ZM393.764 100.656C393.764 99.8309 393.65 99.2313 393.422 98.8574C393.198 98.4789 392.847 98.2896 392.368 98.2896C391.903 98.2896 391.559 98.4698 391.335 98.83C391.116 99.1857 391 99.7443 390.987 100.506V102.927C390.987 103.739 391.096 104.343 391.315 104.74C391.538 105.132 391.894 105.328 392.382 105.328C392.865 105.328 393.214 105.139 393.428 104.76C393.643 104.382 393.754 103.803 393.764 103.023V100.656Z" fill="#C51E1E"/>
<path d="M403.784 102.667C403.784 104.044 403.499 105.098 402.929 105.827C402.359 106.557 401.525 106.922 400.426 106.922C399.341 106.922 398.511 106.564 397.936 105.848C397.361 105.132 397.067 104.106 397.054 102.77V100.937C397.054 99.5459 397.341 98.4903 397.916 97.7698C398.495 97.0493 399.327 96.6891 400.412 96.6891C401.497 96.6891 402.327 97.047 402.902 97.7629C403.477 98.4743 403.771 99.4981 403.784 100.834V102.667ZM401.808 100.656C401.808 99.8309 401.694 99.2313 401.466 98.8574C401.242 98.4789 400.891 98.2896 400.412 98.2896C399.947 98.2896 399.603 98.4698 399.379 98.83C399.16 99.1857 399.044 99.7443 399.03 100.506V102.927C399.03 103.739 399.14 104.343 399.359 104.74C399.582 105.132 399.938 105.328 400.426 105.328C400.909 105.328 401.258 105.139 401.472 104.76C401.687 104.382 401.798 103.803 401.808 103.023V100.656Z" fill="#C51E1E"/>
<path d="M416.644 103.468C416.566 104.539 416.169 105.383 415.453 105.998C414.742 106.614 413.803 106.922 412.635 106.922C411.359 106.922 410.353 106.493 409.619 105.636C408.889 104.774 408.524 103.593 408.524 102.093V101.484C408.524 100.526 408.693 99.6827 409.031 98.9531C409.368 98.2235 409.849 97.6649 410.474 97.2773C411.103 96.8851 411.833 96.6891 412.663 96.6891C413.812 96.6891 414.738 96.9969 415.44 97.6125C416.142 98.2281 416.548 99.0922 416.657 100.205H414.605C414.555 99.5619 414.375 99.0968 414.065 98.8095C413.759 98.5176 413.292 98.3717 412.663 98.3717C411.979 98.3717 411.466 98.618 411.124 99.1104C410.786 99.5984 410.613 100.358 410.604 101.388V102.141C410.604 103.217 410.766 104.003 411.09 104.5C411.418 104.997 411.933 105.246 412.635 105.246C413.269 105.246 413.741 105.102 414.051 104.815C414.366 104.523 414.546 104.074 414.592 103.468H416.644Z" fill="#C51E1E"/>
<path d="M426.097 106.785H424.045V102.517H420.043V106.785H417.991V96.8259H420.043V100.862H424.045V96.8259H426.097V106.785Z" fill="#C51E1E"/>
<path d="M433.888 102.715H429.948V106.785H427.896V96.8259H434.38V98.488H429.948V101.06H433.888V102.715Z" fill="#C51E1E"/>
<path fill-rule="evenodd" clip-rule="evenodd" d="M409.249 113.789C409.249 113.306 408.857 112.914 408.374 112.914C407.89 112.914 407.498 113.306 407.498 113.789L407.498 151.074L403.74 147.316C403.398 146.974 402.843 146.974 402.502 147.316C402.16 147.658 402.16 148.212 402.502 148.554L407.755 153.807C408.097 154.149 408.651 154.149 408.993 153.807L414.246 148.554C414.588 148.212 414.588 147.658 414.246 147.316C413.904 146.974 413.35 146.974 413.008 147.316L409.249 151.074L409.249 113.789Z" fill="#C51E1E"/>
<path fill-rule="evenodd" clip-rule="evenodd" d="M407.499 89.2744C407.499 89.758 407.891 90.1499 408.374 90.1499C408.858 90.1499 409.25 89.758 409.25 89.2744L409.25 51.9892L413.008 55.7478C413.35 56.0897 413.905 56.0897 414.246 55.7478C414.588 55.4059 414.588 54.8515 414.246 54.5096L408.993 49.2564C408.651 48.9145 408.097 48.9145 407.755 49.2564L402.502 54.5096C402.16 54.8515 402.16 55.4059 402.502 55.7478C402.844 56.0897 403.398 56.0897 403.74 55.7478L407.499 51.9893L407.499 89.2744Z" fill="#C51E1E"/>
<path d="M212.253 172.293L212.828 167.228H218.413V168.878H214.45L214.204 171.02C214.674 170.769 215.174 170.644 215.703 170.644C216.652 170.644 217.396 170.938 217.934 171.527C218.473 172.115 218.742 172.939 218.742 173.997C218.742 174.641 218.605 175.218 218.331 175.729C218.062 176.236 217.674 176.63 217.168 176.913C216.661 177.191 216.063 177.331 215.374 177.331C214.772 177.331 214.213 177.21 213.697 176.968C213.182 176.722 212.773 176.377 212.472 175.934C212.176 175.492 212.018 174.988 212 174.422H213.958C213.999 174.837 214.142 175.161 214.389 175.394C214.64 175.622 214.966 175.736 215.367 175.736C215.815 175.736 216.159 175.576 216.401 175.257C216.643 174.933 216.764 174.477 216.764 173.888C216.764 173.322 216.625 172.889 216.346 172.587C216.068 172.286 215.673 172.136 215.162 172.136C214.692 172.136 214.311 172.259 214.019 172.505L213.827 172.683L212.253 172.293Z" fill="#C51E1E"/>
<path d="M226.784 168.337L222.931 177.194H220.843L224.703 168.83H219.748V167.228H226.784V168.337Z" fill="#C51E1E"/>
<path d="M234.765 173.073C234.765 174.451 234.48 175.505 233.909 176.236C233.339 176.966 232.504 177.331 231.404 177.331C230.318 177.331 229.488 176.972 228.913 176.256C228.338 175.54 228.043 174.513 228.03 173.176V171.342C228.03 169.95 228.317 168.894 228.892 168.173C229.472 167.452 230.304 167.091 231.39 167.091C232.476 167.091 233.307 167.45 233.882 168.166C234.457 168.878 234.751 169.902 234.765 171.239V173.073ZM232.787 171.061C232.787 170.235 232.673 169.635 232.444 169.261C232.221 168.882 231.869 168.693 231.39 168.693C230.925 168.693 230.58 168.873 230.357 169.234C230.138 169.59 230.021 170.149 230.008 170.911V173.333C230.008 174.146 230.117 174.75 230.336 175.147C230.56 175.54 230.916 175.736 231.404 175.736C231.888 175.736 232.237 175.547 232.451 175.168C232.666 174.789 232.778 174.21 232.787 173.429V171.061Z" fill="#C51E1E"/>
<path d="M247.632 173.874C247.555 174.947 247.158 175.791 246.441 176.407C245.73 177.023 244.79 177.331 243.621 177.331C242.344 177.331 241.338 176.902 240.603 176.044C239.873 175.181 239.508 174 239.508 172.498V171.889C239.508 170.931 239.677 170.087 240.014 169.357C240.352 168.627 240.833 168.068 241.459 167.68C242.088 167.288 242.818 167.091 243.649 167.091C244.799 167.091 245.725 167.399 246.428 168.015C247.13 168.631 247.536 169.496 247.646 170.609H245.593C245.542 169.966 245.362 169.501 245.052 169.213C244.746 168.921 244.279 168.775 243.649 168.775C242.964 168.775 242.451 169.021 242.109 169.514C241.771 170.003 241.598 170.762 241.589 171.793V172.546C241.589 173.623 241.751 174.41 242.075 174.908C242.403 175.405 242.919 175.654 243.621 175.654C244.256 175.654 244.728 175.51 245.038 175.223C245.353 174.931 245.533 174.481 245.579 173.874H247.632Z" fill="#C51E1E"/>
<path d="M257.091 177.194H255.038V172.923H251.034V177.194H248.981V167.228H251.034V171.266H255.038V167.228H257.091V177.194Z" fill="#C51E1E"/>
<path d="M264.887 173.121H260.945V177.194H258.891V167.228H265.38V168.891H260.945V171.465H264.887V173.121Z" fill="#C51E1E"/>
<path fill-rule="evenodd" clip-rule="evenodd" d="M237.605 159.672C237.605 160.156 237.997 160.548 238.481 160.548C238.965 160.548 239.357 160.156 239.357 159.672L239.357 124.991L243.118 128.752C243.46 129.094 244.015 129.094 244.357 128.752C244.699 128.41 244.699 127.855 244.357 127.513L239.101 122.257C238.758 121.914 238.204 121.914 237.862 122.257L232.605 127.513C232.263 127.855 232.263 128.41 232.605 128.752C232.947 129.094 233.502 129.094 233.844 128.752L237.605 124.991L237.605 159.672Z" fill="#C51E1E"/>
<path fill-rule="evenodd" clip-rule="evenodd" d="M239.357 184.203C239.357 183.719 238.965 183.326 238.481 183.326C237.997 183.326 237.605 183.719 237.605 184.203L237.605 218.883L233.844 215.122C233.502 214.78 232.947 214.78 232.605 215.122C232.263 215.464 232.263 216.019 232.605 216.361L237.861 221.618C238.203 221.96 238.758 221.96 239.1 221.618L244.357 216.361C244.699 216.019 244.699 215.464 244.357 215.122C244.015 214.78 243.46 214.78 243.118 215.122L239.357 218.883L239.357 184.203Z" fill="#C51E1E"/>
<path d="M40.9939 203.932H42.1162V205.516H40.9939V207.659H39.0283V205.516H34.9678L34.8794 204.278L39.0079 197.756H40.9939V203.932ZM36.8382 203.932H39.0283V200.436L38.8991 200.66L36.8382 203.932Z" fill="#C51E1E"/>
<path d="M49.9651 207.659H43.1772V206.312L46.3807 202.898C46.8205 202.417 47.1447 201.998 47.3533 201.64C47.5664 201.281 47.673 200.941 47.673 200.619C47.673 200.179 47.5619 199.835 47.3397 199.585C47.1175 199.332 46.8001 199.205 46.3875 199.205C45.9431 199.205 45.5917 199.359 45.3333 199.667C45.0793 199.971 44.9524 200.372 44.9524 200.871H42.9799C42.9799 200.268 43.1228 199.717 43.4084 199.218C43.6986 198.719 44.1067 198.329 44.6327 198.048C45.1587 197.763 45.7549 197.62 46.4215 197.62C47.4417 197.62 48.2329 197.865 48.7952 198.354C49.362 198.844 49.6454 199.536 49.6454 200.429C49.6454 200.919 49.5184 201.417 49.2645 201.925C49.0106 202.433 48.5753 203.025 47.9586 203.7L45.7073 206.074H49.9651V207.659Z" fill="#C51E1E"/>
<path d="M56.5081 197.654V199.273H56.3176C55.4289 199.286 54.7125 199.517 54.1684 199.966C53.6288 200.415 53.3046 201.039 53.1958 201.837C53.7217 201.302 54.386 201.034 55.1886 201.034C56.0501 201.034 56.7348 201.343 57.2426 201.959C57.7505 202.576 58.0044 203.388 58.0044 204.394C58.0044 205.038 57.8638 205.621 57.5827 206.142C57.3061 206.664 56.9116 207.069 56.3992 207.36C55.8914 207.65 55.3155 207.795 54.6717 207.795C53.6288 207.795 52.7854 207.432 52.1415 206.707C51.5022 205.981 51.1825 205.013 51.1825 203.802V203.095C51.1825 202.02 51.3843 201.073 51.7879 200.252C52.1959 199.427 52.7786 198.79 53.5358 198.341C54.2976 197.887 55.1795 197.658 56.1816 197.654H56.5081ZM54.5901 202.612C54.2727 202.612 53.9847 202.696 53.7263 202.864C53.4678 203.027 53.2774 203.245 53.1549 203.517V204.115C53.1549 204.773 53.2842 205.287 53.5426 205.659C53.8011 206.026 54.1638 206.21 54.6309 206.21C55.0526 206.21 55.3926 206.045 55.6511 205.714C55.9141 205.378 56.0456 204.945 56.0456 204.415C56.0456 203.875 55.9141 203.44 55.6511 203.109C55.3881 202.778 55.0344 202.612 54.5901 202.612Z" fill="#C51E1E"/>
<path d="M70.6279 204.36C70.5508 205.426 70.1564 206.265 69.4445 206.877C68.7371 207.489 67.803 207.795 66.6423 207.795C65.3727 207.795 64.3728 207.369 63.6428 206.516C62.9173 205.659 62.5546 204.485 62.5546 202.993V202.388C62.5546 201.435 62.7223 200.597 63.0579 199.871C63.3934 199.146 63.8718 198.59 64.493 198.205C65.1187 197.815 65.8442 197.62 66.6695 197.62C67.8121 197.62 68.7326 197.926 69.4309 198.538C70.1292 199.15 70.5327 200.009 70.6415 201.116H68.6011C68.5512 200.476 68.3721 200.014 68.0638 199.728C67.76 199.438 67.2952 199.293 66.6695 199.293C65.9893 199.293 65.4792 199.538 65.1391 200.028C64.8036 200.513 64.6313 201.268 64.6222 202.292V203.041C64.6222 204.111 64.7832 204.893 65.1051 205.387C65.4316 205.881 65.944 206.128 66.6423 206.128C67.2725 206.128 67.7418 205.986 68.0502 205.7C68.363 205.41 68.5421 204.963 68.5875 204.36H70.6279Z" fill="#C51E1E"/>
<path d="M80.0276 207.659H77.9871V203.415H74.0083V207.659H71.9678V197.756H74.0083V201.769H77.9871V197.756H80.0276V207.659Z" fill="#C51E1E"/>
<path d="M87.7744 203.612H83.8568V207.659H81.8163V197.756H88.2641V199.409H83.8568V201.966H87.7744V203.612Z" fill="#C51E1E"/>
<path fill-rule="evenodd" clip-rule="evenodd" d="M60.6637 190.247C60.6637 190.728 61.0535 191.118 61.5343 191.118C62.0151 191.118 62.4049 190.728 62.4049 190.247L62.4049 167.972L66.1422 171.71C66.4822 172.05 67.0334 172.05 67.3734 171.71C67.7134 171.37 67.7134 170.819 67.3734 170.479L62.1499 165.255C61.8099 164.915 61.2587 164.915 60.9187 165.255L55.6952 170.479C55.3552 170.819 55.3552 171.37 55.6952 171.71C56.0352 172.05 56.5864 172.05 56.9264 171.71L60.6637 167.972L60.6637 190.247Z" fill="#C51E1E"/>
<path fill-rule="evenodd" clip-rule="evenodd" d="M62.4051 213.753C62.4051 213.272 62.0154 212.882 61.5345 212.882C61.0537 212.882 60.664 213.272 60.664 213.753L60.664 236.028L56.9266 232.29C56.5866 231.95 56.0354 231.95 55.6954 232.29C55.3554 232.63 55.3554 233.181 55.6954 233.521L60.9189 238.745C61.2589 239.085 61.8102 239.085 62.1501 238.745L67.3737 233.521C67.7137 233.181 67.7137 232.63 67.3737 232.29C67.0337 231.95 66.4825 231.95 66.1425 232.29L62.4051 236.028L62.4051 213.753Z" fill="#C51E1E"/>
</svg>
