<svg width="600" height="424" viewBox="0 0 600 424" fill="none" xmlns="http://www.w3.org/2000/svg">
<g clip-path="url(#clip0)">
<path d="M7.00195 54H1.37109V53.1621L3.62695 50.8945C4.31445 50.1992 4.76758 49.7031 4.98633 49.4062C5.20508 49.1094 5.36914 48.8203 5.47852 48.5391C5.58789 48.2578 5.64258 47.9551 5.64258 47.6309C5.64258 47.1738 5.50391 46.8125 5.22656 46.5469C4.94922 46.2773 4.56445 46.1426 4.07227 46.1426C3.7168 46.1426 3.37891 46.2012 3.05859 46.3184C2.74219 46.4355 2.38867 46.6484 1.99805 46.957L1.48242 46.2949C2.27148 45.6387 3.13086 45.3105 4.06055 45.3105C4.86523 45.3105 5.49609 45.5176 5.95312 45.9316C6.41016 46.3418 6.63867 46.8945 6.63867 47.5898C6.63867 48.1328 6.48633 48.6699 6.18164 49.2012C5.87695 49.7324 5.30664 50.4043 4.4707 51.2168L2.5957 53.0508V53.0977H7.00195V54ZM13.916 49.7051C13.916 51.1855 13.6816 52.291 13.2129 53.0215C12.748 53.752 12.0352 54.1172 11.0742 54.1172C10.1523 54.1172 9.45117 53.7441 8.9707 52.998C8.49023 52.248 8.25 51.1504 8.25 49.7051C8.25 48.2129 8.48242 47.1055 8.94727 46.3828C9.41211 45.6602 10.1211 45.2988 11.0742 45.2988C12.0039 45.2988 12.709 45.6758 13.1895 46.4297C13.6738 47.1836 13.916 48.2754 13.916 49.7051ZM9.23438 49.7051C9.23438 50.9512 9.38086 51.8594 9.67383 52.4297C9.9668 52.9961 10.4336 53.2793 11.0742 53.2793C11.7227 53.2793 12.1914 52.9922 12.4805 52.418C12.7734 51.8398 12.9199 50.9355 12.9199 49.7051C12.9199 48.4746 12.7734 47.5742 12.4805 47.0039C12.1914 46.4297 11.7227 46.1426 11.0742 46.1426C10.4336 46.1426 9.9668 46.4258 9.67383 46.9922C9.38086 47.5547 9.23438 48.459 9.23438 49.7051ZM20.7832 49.7051C20.7832 51.1855 20.5488 52.291 20.0801 53.0215C19.6152 53.752 18.9023 54.1172 17.9414 54.1172C17.0195 54.1172 16.3184 53.7441 15.8379 52.998C15.3574 52.248 15.1172 51.1504 15.1172 49.7051C15.1172 48.2129 15.3496 47.1055 15.8145 46.3828C16.2793 45.6602 16.9883 45.2988 17.9414 45.2988C18.8711 45.2988 19.5762 45.6758 20.0566 46.4297C20.541 47.1836 20.7832 48.2754 20.7832 49.7051ZM16.1016 49.7051C16.1016 50.9512 16.248 51.8594 16.541 52.4297C16.834 52.9961 17.3008 53.2793 17.9414 53.2793C18.5898 53.2793 19.0586 52.9922 19.3477 52.418C19.6406 51.8398 19.7871 50.9355 19.7871 49.7051C19.7871 48.4746 19.6406 47.5742 19.3477 47.0039C19.0586 46.4297 18.5898 46.1426 17.9414 46.1426C17.3008 46.1426 16.834 46.4258 16.541 46.9922C16.248 47.5547 16.1016 48.459 16.1016 49.7051ZM27.6504 49.7051C27.6504 51.1855 27.416 52.291 26.9473 53.0215C26.4824 53.752 25.7695 54.1172 24.8086 54.1172C23.8867 54.1172 23.1855 53.7441 22.7051 52.998C22.2246 52.248 21.9844 51.1504 21.9844 49.7051C21.9844 48.2129 22.2168 47.1055 22.6816 46.3828C23.1465 45.6602 23.8555 45.2988 24.8086 45.2988C25.7383 45.2988 26.4434 45.6758 26.9238 46.4297C27.4082 47.1836 27.6504 48.2754 27.6504 49.7051ZM22.9688 49.7051C22.9688 50.9512 23.1152 51.8594 23.4082 52.4297C23.7012 52.9961 24.168 53.2793 24.8086 53.2793C25.457 53.2793 25.9258 52.9922 26.2148 52.418C26.5078 51.8398 26.6543 50.9355 26.6543 49.7051C26.6543 48.4746 26.5078 47.5742 26.2148 47.0039C25.9258 46.4297 25.457 46.1426 24.8086 46.1426C24.168 46.1426 23.7012 46.4258 23.4082 46.9922C23.1152 47.5547 22.9688 48.459 22.9688 49.7051ZM36.2168 46.2012C35.2754 46.2012 34.5312 46.5156 33.9844 47.1445C33.4414 47.7695 33.1699 48.627 33.1699 49.7168C33.1699 50.8379 33.4316 51.7051 33.9551 52.3184C34.4824 52.9277 35.2324 53.2324 36.2051 53.2324C36.8027 53.2324 37.4844 53.125 38.25 52.9102V53.7832C37.6562 54.0059 36.9238 54.1172 36.0527 54.1172C34.791 54.1172 33.8164 53.7344 33.1289 52.9688C32.4453 52.2031 32.1035 51.1152 32.1035 49.7051C32.1035 48.8223 32.2676 48.0488 32.5957 47.3848C32.9277 46.7207 33.4043 46.209 34.0254 45.8496C34.6504 45.4902 35.3848 45.3105 36.2285 45.3105C37.127 45.3105 37.9121 45.4746 38.584 45.8027L38.1621 46.6582C37.5137 46.3535 36.8652 46.2012 36.2168 46.2012ZM46.623 54H45.627V49.9688H41.1152V54H40.1191V45.4336H41.1152V49.0781H45.627V45.4336H46.623V54ZM49.9746 54H48.9785V45.4336H53.7539V46.3184H49.9746V49.4531H53.5254V50.3379H49.9746V54Z" fill="#6A6A6A"/>
<path d="M4.97461 89H4.02539V82.8945C4.02539 82.3867 4.04102 81.9062 4.07227 81.4531C3.99023 81.5352 3.89844 81.6211 3.79688 81.7109C3.69531 81.8008 3.23047 82.1816 2.40234 82.8535L1.88672 82.1855L4.1543 80.4336H4.97461V89ZM11.0742 80.3105C11.8555 80.3105 12.4746 80.4922 12.9316 80.8555C13.3887 81.2188 13.6172 81.7207 13.6172 82.3613C13.6172 82.7832 13.4863 83.168 13.2246 83.5156C12.9629 83.8633 12.5449 84.1797 11.9707 84.4648C12.666 84.7969 13.1602 85.1465 13.4531 85.5137C13.7461 85.877 13.8926 86.2988 13.8926 86.7793C13.8926 87.4902 13.6445 88.0586 13.1484 88.4844C12.6523 88.9062 11.9727 89.1172 11.1094 89.1172C10.1953 89.1172 9.49219 88.918 9 88.5195C8.50781 88.1172 8.26172 87.5488 8.26172 86.8145C8.26172 85.834 8.85938 85.0703 10.0547 84.5234C9.51562 84.2188 9.12891 83.8906 8.89453 83.5391C8.66016 83.1836 8.54297 82.7871 8.54297 82.3496C8.54297 81.7285 8.77148 81.2344 9.22852 80.8672C9.68945 80.4961 10.3047 80.3105 11.0742 80.3105ZM9.22266 86.8379C9.22266 87.3066 9.38477 87.6719 9.70898 87.9336C10.0371 88.1953 10.4961 88.3262 11.0859 88.3262C11.668 88.3262 12.1211 88.1895 12.4453 87.916C12.7695 87.6426 12.9316 87.2676 12.9316 86.791C12.9316 86.4121 12.7793 86.0762 12.4746 85.7832C12.1699 85.4863 11.6387 85.1992 10.8809 84.9219C10.2988 85.1719 9.87695 85.4492 9.61523 85.7539C9.35352 86.0547 9.22266 86.416 9.22266 86.8379ZM11.0625 81.1016C10.5742 81.1016 10.1914 81.2188 9.91406 81.4531C9.63672 81.6875 9.49805 82 9.49805 82.3906C9.49805 82.75 9.61328 83.0586 9.84375 83.3164C10.0742 83.5742 10.5 83.832 11.1211 84.0898C11.6797 83.8555 12.0742 83.6035 12.3047 83.334C12.5391 83.0645 12.6562 82.75 12.6562 82.3906C12.6562 81.9961 12.5137 81.6836 12.2285 81.4531C11.9473 81.2188 11.5586 81.1016 11.0625 81.1016ZM20.7832 84.7051C20.7832 86.1855 20.5488 87.291 20.0801 88.0215C19.6152 88.752 18.9023 89.1172 17.9414 89.1172C17.0195 89.1172 16.3184 88.7441 15.8379 87.998C15.3574 87.248 15.1172 86.1504 15.1172 84.7051C15.1172 83.2129 15.3496 82.1055 15.8145 81.3828C16.2793 80.6602 16.9883 80.2988 17.9414 80.2988C18.8711 80.2988 19.5762 80.6758 20.0566 81.4297C20.541 82.1836 20.7832 83.2754 20.7832 84.7051ZM16.1016 84.7051C16.1016 85.9512 16.248 86.8594 16.541 87.4297C16.834 87.9961 17.3008 88.2793 17.9414 88.2793C18.5898 88.2793 19.0586 87.9922 19.3477 87.418C19.6406 86.8398 19.7871 85.9355 19.7871 84.7051C19.7871 83.4746 19.6406 82.5742 19.3477 82.0039C19.0586 81.4297 18.5898 81.1426 17.9414 81.1426C17.3008 81.1426 16.834 81.4258 16.541 81.9922C16.248 82.5547 16.1016 83.459 16.1016 84.7051ZM27.6504 84.7051C27.6504 86.1855 27.416 87.291 26.9473 88.0215C26.4824 88.752 25.7695 89.1172 24.8086 89.1172C23.8867 89.1172 23.1855 88.7441 22.7051 87.998C22.2246 87.248 21.9844 86.1504 21.9844 84.7051C21.9844 83.2129 22.2168 82.1055 22.6816 81.3828C23.1465 80.6602 23.8555 80.2988 24.8086 80.2988C25.7383 80.2988 26.4434 80.6758 26.9238 81.4297C27.4082 82.1836 27.6504 83.2754 27.6504 84.7051ZM22.9688 84.7051C22.9688 85.9512 23.1152 86.8594 23.4082 87.4297C23.7012 87.9961 24.168 88.2793 24.8086 88.2793C25.457 88.2793 25.9258 87.9922 26.2148 87.418C26.5078 86.8398 26.6543 85.9355 26.6543 84.7051C26.6543 83.4746 26.5078 82.5742 26.2148 82.0039C25.9258 81.4297 25.457 81.1426 24.8086 81.1426C24.168 81.1426 23.7012 81.4258 23.4082 81.9922C23.1152 82.5547 22.9688 83.459 22.9688 84.7051ZM36.2168 81.2012C35.2754 81.2012 34.5312 81.5156 33.9844 82.1445C33.4414 82.7695 33.1699 83.627 33.1699 84.7168C33.1699 85.8379 33.4316 86.7051 33.9551 87.3184C34.4824 87.9277 35.2324 88.2324 36.2051 88.2324C36.8027 88.2324 37.4844 88.125 38.25 87.9102V88.7832C37.6562 89.0059 36.9238 89.1172 36.0527 89.1172C34.791 89.1172 33.8164 88.7344 33.1289 87.9688C32.4453 87.2031 32.1035 86.1152 32.1035 84.7051C32.1035 83.8223 32.2676 83.0488 32.5957 82.3848C32.9277 81.7207 33.4043 81.209 34.0254 80.8496C34.6504 80.4902 35.3848 80.3105 36.2285 80.3105C37.127 80.3105 37.9121 80.4746 38.584 80.8027L38.1621 81.6582C37.5137 81.3535 36.8652 81.2012 36.2168 81.2012ZM46.623 89H45.627V84.9688H41.1152V89H40.1191V80.4336H41.1152V84.0781H45.627V80.4336H46.623V89ZM49.9746 89H48.9785V80.4336H53.7539V81.3184H49.9746V84.4531H53.5254V85.3379H49.9746V89Z" fill="#6A6A6A"/>
<path d="M4.97461 124H4.02539V117.895C4.02539 117.387 4.04102 116.906 4.07227 116.453C3.99023 116.535 3.89844 116.621 3.79688 116.711C3.69531 116.801 3.23047 117.182 2.40234 117.854L1.88672 117.186L4.1543 115.434H4.97461V124ZM8.33789 120.338C8.33789 118.654 8.66406 117.396 9.31641 116.564C9.97266 115.729 10.9414 115.311 12.2227 115.311C12.6641 115.311 13.0117 115.348 13.2656 115.422V116.26C12.9648 116.162 12.6211 116.113 12.2344 116.113C11.3164 116.113 10.6152 116.4 10.1309 116.975C9.64648 117.545 9.38086 118.443 9.33398 119.67H9.4043C9.83398 118.998 10.5137 118.662 11.4434 118.662C12.2129 118.662 12.8184 118.895 13.2598 119.359C13.7051 119.824 13.9277 120.455 13.9277 121.252C13.9277 122.143 13.6836 122.844 13.1953 123.355C12.7109 123.863 12.0547 124.117 11.2266 124.117C10.3398 124.117 9.63672 123.785 9.11719 123.121C8.59766 122.453 8.33789 121.525 8.33789 120.338ZM11.2148 123.291C11.7695 123.291 12.1992 123.117 12.5039 122.77C12.8125 122.418 12.9668 121.912 12.9668 121.252C12.9668 120.686 12.8242 120.24 12.5391 119.916C12.2539 119.592 11.8281 119.43 11.2617 119.43C10.9102 119.43 10.5879 119.502 10.2949 119.646C10.002 119.791 9.76758 119.99 9.5918 120.244C9.41992 120.498 9.33398 120.762 9.33398 121.035C9.33398 121.438 9.41211 121.812 9.56836 122.16C9.72461 122.508 9.94531 122.783 10.2305 122.986C10.5195 123.189 10.8477 123.291 11.2148 123.291ZM20.7832 119.705C20.7832 121.186 20.5488 122.291 20.0801 123.021C19.6152 123.752 18.9023 124.117 17.9414 124.117C17.0195 124.117 16.3184 123.744 15.8379 122.998C15.3574 122.248 15.1172 121.15 15.1172 119.705C15.1172 118.213 15.3496 117.105 15.8145 116.383C16.2793 115.66 16.9883 115.299 17.9414 115.299C18.8711 115.299 19.5762 115.676 20.0566 116.43C20.541 117.184 20.7832 118.275 20.7832 119.705ZM16.1016 119.705C16.1016 120.951 16.248 121.859 16.541 122.43C16.834 122.996 17.3008 123.279 17.9414 123.279C18.5898 123.279 19.0586 122.992 19.3477 122.418C19.6406 121.84 19.7871 120.936 19.7871 119.705C19.7871 118.475 19.6406 117.574 19.3477 117.004C19.0586 116.43 18.5898 116.143 17.9414 116.143C17.3008 116.143 16.834 116.426 16.541 116.992C16.248 117.555 16.1016 118.459 16.1016 119.705ZM27.6504 119.705C27.6504 121.186 27.416 122.291 26.9473 123.021C26.4824 123.752 25.7695 124.117 24.8086 124.117C23.8867 124.117 23.1855 123.744 22.7051 122.998C22.2246 122.248 21.9844 121.15 21.9844 119.705C21.9844 118.213 22.2168 117.105 22.6816 116.383C23.1465 115.66 23.8555 115.299 24.8086 115.299C25.7383 115.299 26.4434 115.676 26.9238 116.43C27.4082 117.184 27.6504 118.275 27.6504 119.705ZM22.9688 119.705C22.9688 120.951 23.1152 121.859 23.4082 122.43C23.7012 122.996 24.168 123.279 24.8086 123.279C25.457 123.279 25.9258 122.992 26.2148 122.418C26.5078 121.84 26.6543 120.936 26.6543 119.705C26.6543 118.475 26.5078 117.574 26.2148 117.004C25.9258 116.43 25.457 116.143 24.8086 116.143C24.168 116.143 23.7012 116.426 23.4082 116.992C23.1152 117.555 22.9688 118.459 22.9688 119.705ZM36.2168 116.201C35.2754 116.201 34.5312 116.516 33.9844 117.145C33.4414 117.77 33.1699 118.627 33.1699 119.717C33.1699 120.838 33.4316 121.705 33.9551 122.318C34.4824 122.928 35.2324 123.232 36.2051 123.232C36.8027 123.232 37.4844 123.125 38.25 122.91V123.783C37.6562 124.006 36.9238 124.117 36.0527 124.117C34.791 124.117 33.8164 123.734 33.1289 122.969C32.4453 122.203 32.1035 121.115 32.1035 119.705C32.1035 118.822 32.2676 118.049 32.5957 117.385C32.9277 116.721 33.4043 116.209 34.0254 115.85C34.6504 115.49 35.3848 115.311 36.2285 115.311C37.127 115.311 37.9121 115.475 38.584 115.803L38.1621 116.658C37.5137 116.354 36.8652 116.201 36.2168 116.201ZM46.623 124H45.627V119.969H41.1152V124H40.1191V115.434H41.1152V119.078H45.627V115.434H46.623V124ZM49.9746 124H48.9785V115.434H53.7539V116.318H49.9746V119.453H53.5254V120.338H49.9746V124Z" fill="#6A6A6A"/>
<path d="M4.97461 159H4.02539V152.895C4.02539 152.387 4.04102 151.906 4.07227 151.453C3.99023 151.535 3.89844 151.621 3.79688 151.711C3.69531 151.801 3.23047 152.182 2.40234 152.854L1.88672 152.186L4.1543 150.434H4.97461V159ZM14.2734 157.031H13.002V159H12.0703V157.031H7.9043V156.182L11.9707 150.387H13.002V156.146H14.2734V157.031ZM12.0703 156.146V153.299C12.0703 152.74 12.0898 152.109 12.1289 151.406H12.082C11.8945 151.781 11.7188 152.092 11.5547 152.338L8.87695 156.146H12.0703ZM20.7832 154.705C20.7832 156.186 20.5488 157.291 20.0801 158.021C19.6152 158.752 18.9023 159.117 17.9414 159.117C17.0195 159.117 16.3184 158.744 15.8379 157.998C15.3574 157.248 15.1172 156.15 15.1172 154.705C15.1172 153.213 15.3496 152.105 15.8145 151.383C16.2793 150.66 16.9883 150.299 17.9414 150.299C18.8711 150.299 19.5762 150.676 20.0566 151.43C20.541 152.184 20.7832 153.275 20.7832 154.705ZM16.1016 154.705C16.1016 155.951 16.248 156.859 16.541 157.43C16.834 157.996 17.3008 158.279 17.9414 158.279C18.5898 158.279 19.0586 157.992 19.3477 157.418C19.6406 156.84 19.7871 155.936 19.7871 154.705C19.7871 153.475 19.6406 152.574 19.3477 152.004C19.0586 151.43 18.5898 151.143 17.9414 151.143C17.3008 151.143 16.834 151.426 16.541 151.992C16.248 152.555 16.1016 153.459 16.1016 154.705ZM27.6504 154.705C27.6504 156.186 27.416 157.291 26.9473 158.021C26.4824 158.752 25.7695 159.117 24.8086 159.117C23.8867 159.117 23.1855 158.744 22.7051 157.998C22.2246 157.248 21.9844 156.15 21.9844 154.705C21.9844 153.213 22.2168 152.105 22.6816 151.383C23.1465 150.66 23.8555 150.299 24.8086 150.299C25.7383 150.299 26.4434 150.676 26.9238 151.43C27.4082 152.184 27.6504 153.275 27.6504 154.705ZM22.9688 154.705C22.9688 155.951 23.1152 156.859 23.4082 157.43C23.7012 157.996 24.168 158.279 24.8086 158.279C25.457 158.279 25.9258 157.992 26.2148 157.418C26.5078 156.84 26.6543 155.936 26.6543 154.705C26.6543 153.475 26.5078 152.574 26.2148 152.004C25.9258 151.43 25.457 151.143 24.8086 151.143C24.168 151.143 23.7012 151.426 23.4082 151.992C23.1152 152.555 22.9688 153.459 22.9688 154.705ZM36.2168 151.201C35.2754 151.201 34.5312 151.516 33.9844 152.145C33.4414 152.77 33.1699 153.627 33.1699 154.717C33.1699 155.838 33.4316 156.705 33.9551 157.318C34.4824 157.928 35.2324 158.232 36.2051 158.232C36.8027 158.232 37.4844 158.125 38.25 157.91V158.783C37.6562 159.006 36.9238 159.117 36.0527 159.117C34.791 159.117 33.8164 158.734 33.1289 157.969C32.4453 157.203 32.1035 156.115 32.1035 154.705C32.1035 153.822 32.2676 153.049 32.5957 152.385C32.9277 151.721 33.4043 151.209 34.0254 150.85C34.6504 150.49 35.3848 150.311 36.2285 150.311C37.127 150.311 37.9121 150.475 38.584 150.803L38.1621 151.658C37.5137 151.354 36.8652 151.201 36.2168 151.201ZM46.623 159H45.627V154.969H41.1152V159H40.1191V150.434H41.1152V154.078H45.627V150.434H46.623V159ZM49.9746 159H48.9785V150.434H53.7539V151.318H49.9746V154.453H53.5254V155.338H49.9746V159Z" fill="#6A6A6A"/>
<path d="M4.97461 194H4.02539V187.895C4.02539 187.387 4.04102 186.906 4.07227 186.453C3.99023 186.535 3.89844 186.621 3.79688 186.711C3.69531 186.801 3.23047 187.182 2.40234 187.854L1.88672 187.186L4.1543 185.434H4.97461V194ZM13.8691 194H8.23828V193.162L10.4941 190.895C11.1816 190.199 11.6348 189.703 11.8535 189.406C12.0723 189.109 12.2363 188.82 12.3457 188.539C12.4551 188.258 12.5098 187.955 12.5098 187.631C12.5098 187.174 12.3711 186.812 12.0938 186.547C11.8164 186.277 11.4316 186.143 10.9395 186.143C10.584 186.143 10.2461 186.201 9.92578 186.318C9.60938 186.436 9.25586 186.648 8.86523 186.957L8.34961 186.295C9.13867 185.639 9.99805 185.311 10.9277 185.311C11.7324 185.311 12.3633 185.518 12.8203 185.932C13.2773 186.342 13.5059 186.895 13.5059 187.59C13.5059 188.133 13.3535 188.67 13.0488 189.201C12.7441 189.732 12.1738 190.404 11.3379 191.217L9.46289 193.051V193.098H13.8691V194ZM20.7832 189.705C20.7832 191.186 20.5488 192.291 20.0801 193.021C19.6152 193.752 18.9023 194.117 17.9414 194.117C17.0195 194.117 16.3184 193.744 15.8379 192.998C15.3574 192.248 15.1172 191.15 15.1172 189.705C15.1172 188.213 15.3496 187.105 15.8145 186.383C16.2793 185.66 16.9883 185.299 17.9414 185.299C18.8711 185.299 19.5762 185.676 20.0566 186.43C20.541 187.184 20.7832 188.275 20.7832 189.705ZM16.1016 189.705C16.1016 190.951 16.248 191.859 16.541 192.43C16.834 192.996 17.3008 193.279 17.9414 193.279C18.5898 193.279 19.0586 192.992 19.3477 192.418C19.6406 191.84 19.7871 190.936 19.7871 189.705C19.7871 188.475 19.6406 187.574 19.3477 187.004C19.0586 186.43 18.5898 186.143 17.9414 186.143C17.3008 186.143 16.834 186.426 16.541 186.992C16.248 187.555 16.1016 188.459 16.1016 189.705ZM27.6504 189.705C27.6504 191.186 27.416 192.291 26.9473 193.021C26.4824 193.752 25.7695 194.117 24.8086 194.117C23.8867 194.117 23.1855 193.744 22.7051 192.998C22.2246 192.248 21.9844 191.15 21.9844 189.705C21.9844 188.213 22.2168 187.105 22.6816 186.383C23.1465 185.66 23.8555 185.299 24.8086 185.299C25.7383 185.299 26.4434 185.676 26.9238 186.43C27.4082 187.184 27.6504 188.275 27.6504 189.705ZM22.9688 189.705C22.9688 190.951 23.1152 191.859 23.4082 192.43C23.7012 192.996 24.168 193.279 24.8086 193.279C25.457 193.279 25.9258 192.992 26.2148 192.418C26.5078 191.84 26.6543 190.936 26.6543 189.705C26.6543 188.475 26.5078 187.574 26.2148 187.004C25.9258 186.43 25.457 186.143 24.8086 186.143C24.168 186.143 23.7012 186.426 23.4082 186.992C23.1152 187.555 22.9688 188.459 22.9688 189.705ZM36.2168 186.201C35.2754 186.201 34.5312 186.516 33.9844 187.145C33.4414 187.77 33.1699 188.627 33.1699 189.717C33.1699 190.838 33.4316 191.705 33.9551 192.318C34.4824 192.928 35.2324 193.232 36.2051 193.232C36.8027 193.232 37.4844 193.125 38.25 192.91V193.783C37.6562 194.006 36.9238 194.117 36.0527 194.117C34.791 194.117 33.8164 193.734 33.1289 192.969C32.4453 192.203 32.1035 191.115 32.1035 189.705C32.1035 188.822 32.2676 188.049 32.5957 187.385C32.9277 186.721 33.4043 186.209 34.0254 185.85C34.6504 185.49 35.3848 185.311 36.2285 185.311C37.127 185.311 37.9121 185.475 38.584 185.803L38.1621 186.658C37.5137 186.354 36.8652 186.201 36.2168 186.201ZM46.623 194H45.627V189.969H41.1152V194H40.1191V185.434H41.1152V189.078H45.627V185.434H46.623V194ZM49.9746 194H48.9785V185.434H53.7539V186.318H49.9746V189.453H53.5254V190.338H49.9746V194Z" fill="#6A6A6A"/>
<path d="M4.97461 229H4.02539V222.895C4.02539 222.387 4.04102 221.906 4.07227 221.453C3.99023 221.535 3.89844 221.621 3.79688 221.711C3.69531 221.801 3.23047 222.182 2.40234 222.854L1.88672 222.186L4.1543 220.434H4.97461V229ZM13.916 224.705C13.916 226.186 13.6816 227.291 13.2129 228.021C12.748 228.752 12.0352 229.117 11.0742 229.117C10.1523 229.117 9.45117 228.744 8.9707 227.998C8.49023 227.248 8.25 226.15 8.25 224.705C8.25 223.213 8.48242 222.105 8.94727 221.383C9.41211 220.66 10.1211 220.299 11.0742 220.299C12.0039 220.299 12.709 220.676 13.1895 221.43C13.6738 222.184 13.916 223.275 13.916 224.705ZM9.23438 224.705C9.23438 225.951 9.38086 226.859 9.67383 227.43C9.9668 227.996 10.4336 228.279 11.0742 228.279C11.7227 228.279 12.1914 227.992 12.4805 227.418C12.7734 226.84 12.9199 225.936 12.9199 224.705C12.9199 223.475 12.7734 222.574 12.4805 222.004C12.1914 221.43 11.7227 221.143 11.0742 221.143C10.4336 221.143 9.9668 221.426 9.67383 221.992C9.38086 222.555 9.23438 223.459 9.23438 224.705ZM20.7832 224.705C20.7832 226.186 20.5488 227.291 20.0801 228.021C19.6152 228.752 18.9023 229.117 17.9414 229.117C17.0195 229.117 16.3184 228.744 15.8379 227.998C15.3574 227.248 15.1172 226.15 15.1172 224.705C15.1172 223.213 15.3496 222.105 15.8145 221.383C16.2793 220.66 16.9883 220.299 17.9414 220.299C18.8711 220.299 19.5762 220.676 20.0566 221.43C20.541 222.184 20.7832 223.275 20.7832 224.705ZM16.1016 224.705C16.1016 225.951 16.248 226.859 16.541 227.43C16.834 227.996 17.3008 228.279 17.9414 228.279C18.5898 228.279 19.0586 227.992 19.3477 227.418C19.6406 226.84 19.7871 225.936 19.7871 224.705C19.7871 223.475 19.6406 222.574 19.3477 222.004C19.0586 221.43 18.5898 221.143 17.9414 221.143C17.3008 221.143 16.834 221.426 16.541 221.992C16.248 222.555 16.1016 223.459 16.1016 224.705ZM27.6504 224.705C27.6504 226.186 27.416 227.291 26.9473 228.021C26.4824 228.752 25.7695 229.117 24.8086 229.117C23.8867 229.117 23.1855 228.744 22.7051 227.998C22.2246 227.248 21.9844 226.15 21.9844 224.705C21.9844 223.213 22.2168 222.105 22.6816 221.383C23.1465 220.66 23.8555 220.299 24.8086 220.299C25.7383 220.299 26.4434 220.676 26.9238 221.43C27.4082 222.184 27.6504 223.275 27.6504 224.705ZM22.9688 224.705C22.9688 225.951 23.1152 226.859 23.4082 227.43C23.7012 227.996 24.168 228.279 24.8086 228.279C25.457 228.279 25.9258 227.992 26.2148 227.418C26.5078 226.84 26.6543 225.936 26.6543 224.705C26.6543 223.475 26.5078 222.574 26.2148 222.004C25.9258 221.43 25.457 221.143 24.8086 221.143C24.168 221.143 23.7012 221.426 23.4082 221.992C23.1152 222.555 22.9688 223.459 22.9688 224.705ZM36.2168 221.201C35.2754 221.201 34.5312 221.516 33.9844 222.145C33.4414 222.77 33.1699 223.627 33.1699 224.717C33.1699 225.838 33.4316 226.705 33.9551 227.318C34.4824 227.928 35.2324 228.232 36.2051 228.232C36.8027 228.232 37.4844 228.125 38.25 227.91V228.783C37.6562 229.006 36.9238 229.117 36.0527 229.117C34.791 229.117 33.8164 228.734 33.1289 227.969C32.4453 227.203 32.1035 226.115 32.1035 224.705C32.1035 223.822 32.2676 223.049 32.5957 222.385C32.9277 221.721 33.4043 221.209 34.0254 220.85C34.6504 220.49 35.3848 220.311 36.2285 220.311C37.127 220.311 37.9121 220.475 38.584 220.803L38.1621 221.658C37.5137 221.354 36.8652 221.201 36.2168 221.201ZM46.623 229H45.627V224.969H41.1152V229H40.1191V220.434H41.1152V224.078H45.627V220.434H46.623V229ZM49.9746 229H48.9785V220.434H53.7539V221.318H49.9746V224.453H53.5254V225.338H49.9746V229Z" fill="#6A6A6A"/>
<path d="M11.0742 255.311C11.8555 255.311 12.4746 255.492 12.9316 255.855C13.3887 256.219 13.6172 256.721 13.6172 257.361C13.6172 257.783 13.4863 258.168 13.2246 258.516C12.9629 258.863 12.5449 259.18 11.9707 259.465C12.666 259.797 13.1602 260.146 13.4531 260.514C13.7461 260.877 13.8926 261.299 13.8926 261.779C13.8926 262.49 13.6445 263.059 13.1484 263.484C12.6523 263.906 11.9727 264.117 11.1094 264.117C10.1953 264.117 9.49219 263.918 9 263.52C8.50781 263.117 8.26172 262.549 8.26172 261.814C8.26172 260.834 8.85938 260.07 10.0547 259.523C9.51562 259.219 9.12891 258.891 8.89453 258.539C8.66016 258.184 8.54297 257.787 8.54297 257.35C8.54297 256.729 8.77148 256.234 9.22852 255.867C9.68945 255.496 10.3047 255.311 11.0742 255.311ZM9.22266 261.838C9.22266 262.307 9.38477 262.672 9.70898 262.934C10.0371 263.195 10.4961 263.326 11.0859 263.326C11.668 263.326 12.1211 263.189 12.4453 262.916C12.7695 262.643 12.9316 262.268 12.9316 261.791C12.9316 261.412 12.7793 261.076 12.4746 260.783C12.1699 260.486 11.6387 260.199 10.8809 259.922C10.2988 260.172 9.87695 260.449 9.61523 260.754C9.35352 261.055 9.22266 261.416 9.22266 261.838ZM11.0625 256.102C10.5742 256.102 10.1914 256.219 9.91406 256.453C9.63672 256.688 9.49805 257 9.49805 257.391C9.49805 257.75 9.61328 258.059 9.84375 258.316C10.0742 258.574 10.5 258.832 11.1211 259.09C11.6797 258.855 12.0742 258.604 12.3047 258.334C12.5391 258.064 12.6562 257.75 12.6562 257.391C12.6562 256.996 12.5137 256.684 12.2285 256.453C11.9473 256.219 11.5586 256.102 11.0625 256.102ZM20.7832 259.705C20.7832 261.186 20.5488 262.291 20.0801 263.021C19.6152 263.752 18.9023 264.117 17.9414 264.117C17.0195 264.117 16.3184 263.744 15.8379 262.998C15.3574 262.248 15.1172 261.15 15.1172 259.705C15.1172 258.213 15.3496 257.105 15.8145 256.383C16.2793 255.66 16.9883 255.299 17.9414 255.299C18.8711 255.299 19.5762 255.676 20.0566 256.43C20.541 257.184 20.7832 258.275 20.7832 259.705ZM16.1016 259.705C16.1016 260.951 16.248 261.859 16.541 262.43C16.834 262.996 17.3008 263.279 17.9414 263.279C18.5898 263.279 19.0586 262.992 19.3477 262.418C19.6406 261.84 19.7871 260.936 19.7871 259.705C19.7871 258.475 19.6406 257.574 19.3477 257.004C19.0586 256.43 18.5898 256.143 17.9414 256.143C17.3008 256.143 16.834 256.426 16.541 256.992C16.248 257.555 16.1016 258.459 16.1016 259.705ZM27.6504 259.705C27.6504 261.186 27.416 262.291 26.9473 263.021C26.4824 263.752 25.7695 264.117 24.8086 264.117C23.8867 264.117 23.1855 263.744 22.7051 262.998C22.2246 262.248 21.9844 261.15 21.9844 259.705C21.9844 258.213 22.2168 257.105 22.6816 256.383C23.1465 255.66 23.8555 255.299 24.8086 255.299C25.7383 255.299 26.4434 255.676 26.9238 256.43C27.4082 257.184 27.6504 258.275 27.6504 259.705ZM22.9688 259.705C22.9688 260.951 23.1152 261.859 23.4082 262.43C23.7012 262.996 24.168 263.279 24.8086 263.279C25.457 263.279 25.9258 262.992 26.2148 262.418C26.5078 261.84 26.6543 260.936 26.6543 259.705C26.6543 258.475 26.5078 257.574 26.2148 257.004C25.9258 256.43 25.457 256.143 24.8086 256.143C24.168 256.143 23.7012 256.426 23.4082 256.992C23.1152 257.555 22.9688 258.459 22.9688 259.705ZM36.2168 256.201C35.2754 256.201 34.5312 256.516 33.9844 257.145C33.4414 257.77 33.1699 258.627 33.1699 259.717C33.1699 260.838 33.4316 261.705 33.9551 262.318C34.4824 262.928 35.2324 263.232 36.2051 263.232C36.8027 263.232 37.4844 263.125 38.25 262.91V263.783C37.6562 264.006 36.9238 264.117 36.0527 264.117C34.791 264.117 33.8164 263.734 33.1289 262.969C32.4453 262.203 32.1035 261.115 32.1035 259.705C32.1035 258.822 32.2676 258.049 32.5957 257.385C32.9277 256.721 33.4043 256.209 34.0254 255.85C34.6504 255.49 35.3848 255.311 36.2285 255.311C37.127 255.311 37.9121 255.475 38.584 255.803L38.1621 256.658C37.5137 256.354 36.8652 256.201 36.2168 256.201ZM46.623 264H45.627V259.969H41.1152V264H40.1191V255.434H41.1152V259.078H45.627V255.434H46.623V264ZM49.9746 264H48.9785V255.434H53.7539V256.318H49.9746V259.453H53.5254V260.338H49.9746V264Z" fill="#6A6A6A"/>
<path d="M8.33789 295.338C8.33789 293.654 8.66406 292.396 9.31641 291.564C9.97266 290.729 10.9414 290.311 12.2227 290.311C12.6641 290.311 13.0117 290.348 13.2656 290.422V291.26C12.9648 291.162 12.6211 291.113 12.2344 291.113C11.3164 291.113 10.6152 291.4 10.1309 291.975C9.64648 292.545 9.38086 293.443 9.33398 294.67H9.4043C9.83398 293.998 10.5137 293.662 11.4434 293.662C12.2129 293.662 12.8184 293.895 13.2598 294.359C13.7051 294.824 13.9277 295.455 13.9277 296.252C13.9277 297.143 13.6836 297.844 13.1953 298.355C12.7109 298.863 12.0547 299.117 11.2266 299.117C10.3398 299.117 9.63672 298.785 9.11719 298.121C8.59766 297.453 8.33789 296.525 8.33789 295.338ZM11.2148 298.291C11.7695 298.291 12.1992 298.117 12.5039 297.77C12.8125 297.418 12.9668 296.912 12.9668 296.252C12.9668 295.686 12.8242 295.24 12.5391 294.916C12.2539 294.592 11.8281 294.43 11.2617 294.43C10.9102 294.43 10.5879 294.502 10.2949 294.646C10.002 294.791 9.76758 294.99 9.5918 295.244C9.41992 295.498 9.33398 295.762 9.33398 296.035C9.33398 296.438 9.41211 296.812 9.56836 297.16C9.72461 297.508 9.94531 297.783 10.2305 297.986C10.5195 298.189 10.8477 298.291 11.2148 298.291ZM20.7832 294.705C20.7832 296.186 20.5488 297.291 20.0801 298.021C19.6152 298.752 18.9023 299.117 17.9414 299.117C17.0195 299.117 16.3184 298.744 15.8379 297.998C15.3574 297.248 15.1172 296.15 15.1172 294.705C15.1172 293.213 15.3496 292.105 15.8145 291.383C16.2793 290.66 16.9883 290.299 17.9414 290.299C18.8711 290.299 19.5762 290.676 20.0566 291.43C20.541 292.184 20.7832 293.275 20.7832 294.705ZM16.1016 294.705C16.1016 295.951 16.248 296.859 16.541 297.43C16.834 297.996 17.3008 298.279 17.9414 298.279C18.5898 298.279 19.0586 297.992 19.3477 297.418C19.6406 296.84 19.7871 295.936 19.7871 294.705C19.7871 293.475 19.6406 292.574 19.3477 292.004C19.0586 291.43 18.5898 291.143 17.9414 291.143C17.3008 291.143 16.834 291.426 16.541 291.992C16.248 292.555 16.1016 293.459 16.1016 294.705ZM27.6504 294.705C27.6504 296.186 27.416 297.291 26.9473 298.021C26.4824 298.752 25.7695 299.117 24.8086 299.117C23.8867 299.117 23.1855 298.744 22.7051 297.998C22.2246 297.248 21.9844 296.15 21.9844 294.705C21.9844 293.213 22.2168 292.105 22.6816 291.383C23.1465 290.66 23.8555 290.299 24.8086 290.299C25.7383 290.299 26.4434 290.676 26.9238 291.43C27.4082 292.184 27.6504 293.275 27.6504 294.705ZM22.9688 294.705C22.9688 295.951 23.1152 296.859 23.4082 297.43C23.7012 297.996 24.168 298.279 24.8086 298.279C25.457 298.279 25.9258 297.992 26.2148 297.418C26.5078 296.84 26.6543 295.936 26.6543 294.705C26.6543 293.475 26.5078 292.574 26.2148 292.004C25.9258 291.43 25.457 291.143 24.8086 291.143C24.168 291.143 23.7012 291.426 23.4082 291.992C23.1152 292.555 22.9688 293.459 22.9688 294.705ZM36.2168 291.201C35.2754 291.201 34.5312 291.516 33.9844 292.145C33.4414 292.77 33.1699 293.627 33.1699 294.717C33.1699 295.838 33.4316 296.705 33.9551 297.318C34.4824 297.928 35.2324 298.232 36.2051 298.232C36.8027 298.232 37.4844 298.125 38.25 297.91V298.783C37.6562 299.006 36.9238 299.117 36.0527 299.117C34.791 299.117 33.8164 298.734 33.1289 297.969C32.4453 297.203 32.1035 296.115 32.1035 294.705C32.1035 293.822 32.2676 293.049 32.5957 292.385C32.9277 291.721 33.4043 291.209 34.0254 290.85C34.6504 290.49 35.3848 290.311 36.2285 290.311C37.127 290.311 37.9121 290.475 38.584 290.803L38.1621 291.658C37.5137 291.354 36.8652 291.201 36.2168 291.201ZM46.623 299H45.627V294.969H41.1152V299H40.1191V290.434H41.1152V294.078H45.627V290.434H46.623V299ZM49.9746 299H48.9785V290.434H53.7539V291.318H49.9746V294.453H53.5254V295.338H49.9746V299Z" fill="#6A6A6A"/>
<path d="M14.2734 332.031H13.002V334H12.0703V332.031H7.9043V331.182L11.9707 325.387H13.002V331.146H14.2734V332.031ZM12.0703 331.146V328.299C12.0703 327.74 12.0898 327.109 12.1289 326.406H12.082C11.8945 326.781 11.7188 327.092 11.5547 327.338L8.87695 331.146H12.0703ZM20.7832 329.705C20.7832 331.186 20.5488 332.291 20.0801 333.021C19.6152 333.752 18.9023 334.117 17.9414 334.117C17.0195 334.117 16.3184 333.744 15.8379 332.998C15.3574 332.248 15.1172 331.15 15.1172 329.705C15.1172 328.213 15.3496 327.105 15.8145 326.383C16.2793 325.66 16.9883 325.299 17.9414 325.299C18.8711 325.299 19.5762 325.676 20.0566 326.43C20.541 327.184 20.7832 328.275 20.7832 329.705ZM16.1016 329.705C16.1016 330.951 16.248 331.859 16.541 332.43C16.834 332.996 17.3008 333.279 17.9414 333.279C18.5898 333.279 19.0586 332.992 19.3477 332.418C19.6406 331.84 19.7871 330.936 19.7871 329.705C19.7871 328.475 19.6406 327.574 19.3477 327.004C19.0586 326.43 18.5898 326.143 17.9414 326.143C17.3008 326.143 16.834 326.426 16.541 326.992C16.248 327.555 16.1016 328.459 16.1016 329.705ZM27.6504 329.705C27.6504 331.186 27.416 332.291 26.9473 333.021C26.4824 333.752 25.7695 334.117 24.8086 334.117C23.8867 334.117 23.1855 333.744 22.7051 332.998C22.2246 332.248 21.9844 331.15 21.9844 329.705C21.9844 328.213 22.2168 327.105 22.6816 326.383C23.1465 325.66 23.8555 325.299 24.8086 325.299C25.7383 325.299 26.4434 325.676 26.9238 326.43C27.4082 327.184 27.6504 328.275 27.6504 329.705ZM22.9688 329.705C22.9688 330.951 23.1152 331.859 23.4082 332.43C23.7012 332.996 24.168 333.279 24.8086 333.279C25.457 333.279 25.9258 332.992 26.2148 332.418C26.5078 331.84 26.6543 330.936 26.6543 329.705C26.6543 328.475 26.5078 327.574 26.2148 327.004C25.9258 326.43 25.457 326.143 24.8086 326.143C24.168 326.143 23.7012 326.426 23.4082 326.992C23.1152 327.555 22.9688 328.459 22.9688 329.705ZM36.2168 326.201C35.2754 326.201 34.5312 326.516 33.9844 327.145C33.4414 327.77 33.1699 328.627 33.1699 329.717C33.1699 330.838 33.4316 331.705 33.9551 332.318C34.4824 332.928 35.2324 333.232 36.2051 333.232C36.8027 333.232 37.4844 333.125 38.25 332.91V333.783C37.6562 334.006 36.9238 334.117 36.0527 334.117C34.791 334.117 33.8164 333.734 33.1289 332.969C32.4453 332.203 32.1035 331.115 32.1035 329.705C32.1035 328.822 32.2676 328.049 32.5957 327.385C32.9277 326.721 33.4043 326.209 34.0254 325.85C34.6504 325.49 35.3848 325.311 36.2285 325.311C37.127 325.311 37.9121 325.475 38.584 325.803L38.1621 326.658C37.5137 326.354 36.8652 326.201 36.2168 326.201ZM46.623 334H45.627V329.969H41.1152V334H40.1191V325.434H41.1152V329.078H45.627V325.434H46.623V334ZM49.9746 334H48.9785V325.434H53.7539V326.318H49.9746V329.453H53.5254V330.338H49.9746V334Z" fill="#6A6A6A"/>
<path d="M13.8691 369H8.23828V368.162L10.4941 365.895C11.1816 365.199 11.6348 364.703 11.8535 364.406C12.0723 364.109 12.2363 363.82 12.3457 363.539C12.4551 363.258 12.5098 362.955 12.5098 362.631C12.5098 362.174 12.3711 361.812 12.0938 361.547C11.8164 361.277 11.4316 361.143 10.9395 361.143C10.584 361.143 10.2461 361.201 9.92578 361.318C9.60938 361.436 9.25586 361.648 8.86523 361.957L8.34961 361.295C9.13867 360.639 9.99805 360.311 10.9277 360.311C11.7324 360.311 12.3633 360.518 12.8203 360.932C13.2773 361.342 13.5059 361.895 13.5059 362.59C13.5059 363.133 13.3535 363.67 13.0488 364.201C12.7441 364.732 12.1738 365.404 11.3379 366.217L9.46289 368.051V368.098H13.8691V369ZM20.7832 364.705C20.7832 366.186 20.5488 367.291 20.0801 368.021C19.6152 368.752 18.9023 369.117 17.9414 369.117C17.0195 369.117 16.3184 368.744 15.8379 367.998C15.3574 367.248 15.1172 366.15 15.1172 364.705C15.1172 363.213 15.3496 362.105 15.8145 361.383C16.2793 360.66 16.9883 360.299 17.9414 360.299C18.8711 360.299 19.5762 360.676 20.0566 361.43C20.541 362.184 20.7832 363.275 20.7832 364.705ZM16.1016 364.705C16.1016 365.951 16.248 366.859 16.541 367.43C16.834 367.996 17.3008 368.279 17.9414 368.279C18.5898 368.279 19.0586 367.992 19.3477 367.418C19.6406 366.84 19.7871 365.936 19.7871 364.705C19.7871 363.475 19.6406 362.574 19.3477 362.004C19.0586 361.43 18.5898 361.143 17.9414 361.143C17.3008 361.143 16.834 361.426 16.541 361.992C16.248 362.555 16.1016 363.459 16.1016 364.705ZM27.6504 364.705C27.6504 366.186 27.416 367.291 26.9473 368.021C26.4824 368.752 25.7695 369.117 24.8086 369.117C23.8867 369.117 23.1855 368.744 22.7051 367.998C22.2246 367.248 21.9844 366.15 21.9844 364.705C21.9844 363.213 22.2168 362.105 22.6816 361.383C23.1465 360.66 23.8555 360.299 24.8086 360.299C25.7383 360.299 26.4434 360.676 26.9238 361.43C27.4082 362.184 27.6504 363.275 27.6504 364.705ZM22.9688 364.705C22.9688 365.951 23.1152 366.859 23.4082 367.43C23.7012 367.996 24.168 368.279 24.8086 368.279C25.457 368.279 25.9258 367.992 26.2148 367.418C26.5078 366.84 26.6543 365.936 26.6543 364.705C26.6543 363.475 26.5078 362.574 26.2148 362.004C25.9258 361.43 25.457 361.143 24.8086 361.143C24.168 361.143 23.7012 361.426 23.4082 361.992C23.1152 362.555 22.9688 363.459 22.9688 364.705ZM36.2168 361.201C35.2754 361.201 34.5312 361.516 33.9844 362.145C33.4414 362.77 33.1699 363.627 33.1699 364.717C33.1699 365.838 33.4316 366.705 33.9551 367.318C34.4824 367.928 35.2324 368.232 36.2051 368.232C36.8027 368.232 37.4844 368.125 38.25 367.91V368.783C37.6562 369.006 36.9238 369.117 36.0527 369.117C34.791 369.117 33.8164 368.734 33.1289 367.969C32.4453 367.203 32.1035 366.115 32.1035 364.705C32.1035 363.822 32.2676 363.049 32.5957 362.385C32.9277 361.721 33.4043 361.209 34.0254 360.85C34.6504 360.49 35.3848 360.311 36.2285 360.311C37.127 360.311 37.9121 360.475 38.584 360.803L38.1621 361.658C37.5137 361.354 36.8652 361.201 36.2168 361.201ZM46.623 369H45.627V364.969H41.1152V369H40.1191V360.434H41.1152V364.078H45.627V360.434H46.623V369ZM49.9746 369H48.9785V360.434H53.7539V361.318H49.9746V364.453H53.5254V365.338H49.9746V369Z" fill="#6A6A6A"/>
<path d="M27.6504 399.705C27.6504 401.186 27.416 402.291 26.9473 403.021C26.4824 403.752 25.7695 404.117 24.8086 404.117C23.8867 404.117 23.1855 403.744 22.7051 402.998C22.2246 402.248 21.9844 401.15 21.9844 399.705C21.9844 398.213 22.2168 397.105 22.6816 396.383C23.1465 395.66 23.8555 395.299 24.8086 395.299C25.7383 395.299 26.4434 395.676 26.9238 396.43C27.4082 397.184 27.6504 398.275 27.6504 399.705ZM22.9688 399.705C22.9688 400.951 23.1152 401.859 23.4082 402.43C23.7012 402.996 24.168 403.279 24.8086 403.279C25.457 403.279 25.9258 402.992 26.2148 402.418C26.5078 401.84 26.6543 400.936 26.6543 399.705C26.6543 398.475 26.5078 397.574 26.2148 397.004C25.9258 396.43 25.457 396.143 24.8086 396.143C24.168 396.143 23.7012 396.426 23.4082 396.992C23.1152 397.555 22.9688 398.459 22.9688 399.705ZM36.2168 396.201C35.2754 396.201 34.5312 396.516 33.9844 397.145C33.4414 397.77 33.1699 398.627 33.1699 399.717C33.1699 400.838 33.4316 401.705 33.9551 402.318C34.4824 402.928 35.2324 403.232 36.2051 403.232C36.8027 403.232 37.4844 403.125 38.25 402.91V403.783C37.6562 404.006 36.9238 404.117 36.0527 404.117C34.791 404.117 33.8164 403.734 33.1289 402.969C32.4453 402.203 32.1035 401.115 32.1035 399.705C32.1035 398.822 32.2676 398.049 32.5957 397.385C32.9277 396.721 33.4043 396.209 34.0254 395.85C34.6504 395.49 35.3848 395.311 36.2285 395.311C37.127 395.311 37.9121 395.475 38.584 395.803L38.1621 396.658C37.5137 396.354 36.8652 396.201 36.2168 396.201ZM46.623 404H45.627V399.969H41.1152V404H40.1191V395.434H41.1152V399.078H45.627V395.434H46.623V404ZM49.9746 404H48.9785V395.434H53.7539V396.318H49.9746V399.453H53.5254V400.338H49.9746V404Z" fill="#6A6A6A"/>
<path d="M137.418 421H131.787V420.162L134.043 417.895C134.73 417.199 135.184 416.703 135.402 416.406C135.621 416.109 135.785 415.82 135.895 415.539C136.004 415.258 136.059 414.955 136.059 414.631C136.059 414.174 135.92 413.812 135.643 413.547C135.365 413.277 134.98 413.143 134.488 413.143C134.133 413.143 133.795 413.201 133.475 413.318C133.158 413.436 132.805 413.648 132.414 413.957L131.898 413.295C132.688 412.639 133.547 412.311 134.477 412.311C135.281 412.311 135.912 412.518 136.369 412.932C136.826 413.342 137.055 413.895 137.055 414.59C137.055 415.133 136.902 415.67 136.598 416.201C136.293 416.732 135.723 417.404 134.887 418.217L133.012 420.051V420.098H137.418V421ZM138.561 418.229V417.338H141.438V418.229H138.561ZM148.305 421H142.416V420.221L146.963 413.33H142.557V412.434H148.176V413.213L143.629 420.098H148.305V421ZM150.795 421H149.822V414.578H150.795V421ZM149.74 412.838C149.74 412.615 149.795 412.453 149.904 412.352C150.014 412.246 150.15 412.193 150.314 412.193C150.471 412.193 150.605 412.246 150.719 412.352C150.832 412.457 150.889 412.619 150.889 412.838C150.889 413.057 150.832 413.221 150.719 413.33C150.605 413.436 150.471 413.488 150.314 413.488C150.15 413.488 150.014 413.436 149.904 413.33C149.795 413.221 149.74 413.057 149.74 412.838ZM161.043 421V416.822C161.043 416.311 160.934 415.928 160.715 415.674C160.496 415.416 160.156 415.287 159.695 415.287C159.09 415.287 158.643 415.461 158.354 415.809C158.064 416.156 157.92 416.691 157.92 417.414V421H156.947V416.822C156.947 416.311 156.838 415.928 156.619 415.674C156.4 415.416 156.059 415.287 155.594 415.287C154.984 415.287 154.537 415.471 154.252 415.838C153.971 416.201 153.83 416.799 153.83 417.631V421H152.857V414.578H153.648L153.807 415.457H153.854C154.037 415.145 154.295 414.9 154.627 414.725C154.963 414.549 155.338 414.461 155.752 414.461C156.756 414.461 157.412 414.824 157.721 415.551H157.768C157.959 415.215 158.236 414.949 158.6 414.754C158.963 414.559 159.377 414.461 159.842 414.461C160.568 414.461 161.111 414.648 161.471 415.023C161.834 415.395 162.016 415.99 162.016 416.811V421H161.043ZM172.211 421V416.822C172.211 416.311 172.102 415.928 171.883 415.674C171.664 415.416 171.324 415.287 170.863 415.287C170.258 415.287 169.811 415.461 169.521 415.809C169.232 416.156 169.088 416.691 169.088 417.414V421H168.115V416.822C168.115 416.311 168.006 415.928 167.787 415.674C167.568 415.416 167.227 415.287 166.762 415.287C166.152 415.287 165.705 415.471 165.42 415.838C165.139 416.201 164.998 416.799 164.998 417.631V421H164.025V414.578H164.816L164.975 415.457H165.021C165.205 415.145 165.463 414.9 165.795 414.725C166.131 414.549 166.506 414.461 166.92 414.461C167.924 414.461 168.58 414.824 168.889 415.551H168.936C169.127 415.215 169.404 414.949 169.768 414.754C170.131 414.559 170.545 414.461 171.01 414.461C171.736 414.461 172.279 414.648 172.639 415.023C173.002 415.395 173.184 415.99 173.184 416.811V421H172.211ZM177.906 421.117C176.957 421.117 176.207 420.828 175.656 420.25C175.109 419.672 174.836 418.869 174.836 417.842C174.836 416.807 175.09 415.984 175.598 415.375C176.109 414.766 176.795 414.461 177.654 414.461C178.459 414.461 179.096 414.727 179.564 415.258C180.033 415.785 180.268 416.482 180.268 417.35V417.965H175.844C175.863 418.719 176.053 419.291 176.412 419.682C176.775 420.072 177.285 420.268 177.941 420.268C178.633 420.268 179.316 420.123 179.992 419.834V420.701C179.648 420.85 179.322 420.955 179.014 421.018C178.709 421.084 178.34 421.117 177.906 421.117ZM177.643 415.275C177.127 415.275 176.715 415.443 176.406 415.779C176.102 416.115 175.922 416.58 175.867 417.174H179.225C179.225 416.561 179.088 416.092 178.814 415.768C178.541 415.439 178.15 415.275 177.643 415.275ZM184.861 414.461C185.146 414.461 185.402 414.484 185.629 414.531L185.494 415.434C185.229 415.375 184.994 415.346 184.791 415.346C184.271 415.346 183.826 415.557 183.455 415.979C183.088 416.4 182.904 416.926 182.904 417.555V421H181.932V414.578H182.734L182.846 415.768H182.893C183.131 415.35 183.418 415.027 183.754 414.801C184.09 414.574 184.459 414.461 184.861 414.461Z" fill="#6A6A6A"/>
<path d="M311.096 414.449C311.096 414.996 310.941 415.443 310.633 415.791C310.328 416.139 309.895 416.371 309.332 416.488V416.535C310.02 416.621 310.529 416.84 310.861 417.191C311.193 417.543 311.359 418.004 311.359 418.574C311.359 419.391 311.076 420.02 310.51 420.461C309.943 420.898 309.139 421.117 308.096 421.117C307.643 421.117 307.227 421.082 306.848 421.012C306.473 420.945 306.107 420.826 305.752 420.654V419.729C306.123 419.912 306.518 420.053 306.936 420.15C307.357 420.244 307.756 420.291 308.131 420.291C309.611 420.291 310.352 419.711 310.352 418.551C310.352 417.512 309.535 416.992 307.902 416.992H307.059V416.154H307.914C308.582 416.154 309.111 416.008 309.502 415.715C309.893 415.418 310.088 415.008 310.088 414.484C310.088 414.066 309.943 413.738 309.654 413.5C309.369 413.262 308.98 413.143 308.488 413.143C308.113 413.143 307.76 413.193 307.428 413.295C307.096 413.396 306.717 413.584 306.291 413.857L305.799 413.201C306.15 412.924 306.555 412.707 307.012 412.551C307.473 412.391 307.957 412.311 308.465 412.311C309.297 412.311 309.943 412.502 310.404 412.885C310.865 413.264 311.096 413.785 311.096 414.449ZM312.561 418.229V417.338H315.438V418.229H312.561ZM322.305 421H316.416V420.221L320.963 413.33H316.557V412.434H322.176V413.213L317.629 420.098H322.305V421ZM324.795 421H323.822V414.578H324.795V421ZM323.74 412.838C323.74 412.615 323.795 412.453 323.904 412.352C324.014 412.246 324.15 412.193 324.314 412.193C324.471 412.193 324.605 412.246 324.719 412.352C324.832 412.457 324.889 412.619 324.889 412.838C324.889 413.057 324.832 413.221 324.719 413.33C324.605 413.436 324.471 413.488 324.314 413.488C324.15 413.488 324.014 413.436 323.904 413.33C323.795 413.221 323.74 413.057 323.74 412.838ZM335.043 421V416.822C335.043 416.311 334.934 415.928 334.715 415.674C334.496 415.416 334.156 415.287 333.695 415.287C333.09 415.287 332.643 415.461 332.354 415.809C332.064 416.156 331.92 416.691 331.92 417.414V421H330.947V416.822C330.947 416.311 330.838 415.928 330.619 415.674C330.4 415.416 330.059 415.287 329.594 415.287C328.984 415.287 328.537 415.471 328.252 415.838C327.971 416.201 327.83 416.799 327.83 417.631V421H326.857V414.578H327.648L327.807 415.457H327.854C328.037 415.145 328.295 414.9 328.627 414.725C328.963 414.549 329.338 414.461 329.752 414.461C330.756 414.461 331.412 414.824 331.721 415.551H331.768C331.959 415.215 332.236 414.949 332.6 414.754C332.963 414.559 333.377 414.461 333.842 414.461C334.568 414.461 335.111 414.648 335.471 415.023C335.834 415.395 336.016 415.99 336.016 416.811V421H335.043ZM346.211 421V416.822C346.211 416.311 346.102 415.928 345.883 415.674C345.664 415.416 345.324 415.287 344.863 415.287C344.258 415.287 343.811 415.461 343.521 415.809C343.232 416.156 343.088 416.691 343.088 417.414V421H342.115V416.822C342.115 416.311 342.006 415.928 341.787 415.674C341.568 415.416 341.227 415.287 340.762 415.287C340.152 415.287 339.705 415.471 339.42 415.838C339.139 416.201 338.998 416.799 338.998 417.631V421H338.025V414.578H338.816L338.975 415.457H339.021C339.205 415.145 339.463 414.9 339.795 414.725C340.131 414.549 340.506 414.461 340.92 414.461C341.924 414.461 342.58 414.824 342.889 415.551H342.936C343.127 415.215 343.404 414.949 343.768 414.754C344.131 414.559 344.545 414.461 345.01 414.461C345.736 414.461 346.279 414.648 346.639 415.023C347.002 415.395 347.184 415.99 347.184 416.811V421H346.211ZM351.906 421.117C350.957 421.117 350.207 420.828 349.656 420.25C349.109 419.672 348.836 418.869 348.836 417.842C348.836 416.807 349.09 415.984 349.598 415.375C350.109 414.766 350.795 414.461 351.654 414.461C352.459 414.461 353.096 414.727 353.564 415.258C354.033 415.785 354.268 416.482 354.268 417.35V417.965H349.844C349.863 418.719 350.053 419.291 350.412 419.682C350.775 420.072 351.285 420.268 351.941 420.268C352.633 420.268 353.316 420.123 353.992 419.834V420.701C353.648 420.85 353.322 420.955 353.014 421.018C352.709 421.084 352.34 421.117 351.906 421.117ZM351.643 415.275C351.127 415.275 350.715 415.443 350.406 415.779C350.102 416.115 349.922 416.58 349.867 417.174H353.225C353.225 416.561 353.088 416.092 352.814 415.768C352.541 415.439 352.15 415.275 351.643 415.275ZM358.861 414.461C359.146 414.461 359.402 414.484 359.629 414.531L359.494 415.434C359.229 415.375 358.994 415.346 358.791 415.346C358.271 415.346 357.826 415.557 357.455 415.979C357.088 416.4 356.904 416.926 356.904 417.555V421H355.932V414.578H356.734L356.846 415.768H356.893C357.131 415.35 357.418 415.027 357.754 414.801C358.09 414.574 358.459 414.461 358.861 414.461Z" fill="#6A6A6A"/>
<path d="M485.322 419.031H484.051V421H483.119V419.031H478.953V418.182L483.02 412.387H484.051V418.146H485.322V419.031ZM483.119 418.146V415.299C483.119 414.74 483.139 414.109 483.178 413.406H483.131C482.943 413.781 482.768 414.092 482.604 414.338L479.926 418.146H483.119ZM486.061 418.229V417.338H488.938V418.229H486.061ZM495.805 421H489.916V420.221L494.463 413.33H490.057V412.434H495.676V413.213L491.129 420.098H495.805V421ZM498.295 421H497.322V414.578H498.295V421ZM497.24 412.838C497.24 412.615 497.295 412.453 497.404 412.352C497.514 412.246 497.65 412.193 497.814 412.193C497.971 412.193 498.105 412.246 498.219 412.352C498.332 412.457 498.389 412.619 498.389 412.838C498.389 413.057 498.332 413.221 498.219 413.33C498.105 413.436 497.971 413.488 497.814 413.488C497.65 413.488 497.514 413.436 497.404 413.33C497.295 413.221 497.24 413.057 497.24 412.838ZM508.543 421V416.822C508.543 416.311 508.434 415.928 508.215 415.674C507.996 415.416 507.656 415.287 507.195 415.287C506.59 415.287 506.143 415.461 505.854 415.809C505.564 416.156 505.42 416.691 505.42 417.414V421H504.447V416.822C504.447 416.311 504.338 415.928 504.119 415.674C503.9 415.416 503.559 415.287 503.094 415.287C502.484 415.287 502.037 415.471 501.752 415.838C501.471 416.201 501.33 416.799 501.33 417.631V421H500.357V414.578H501.148L501.307 415.457H501.354C501.537 415.145 501.795 414.9 502.127 414.725C502.463 414.549 502.838 414.461 503.252 414.461C504.256 414.461 504.912 414.824 505.221 415.551H505.268C505.459 415.215 505.736 414.949 506.1 414.754C506.463 414.559 506.877 414.461 507.342 414.461C508.068 414.461 508.611 414.648 508.971 415.023C509.334 415.395 509.516 415.99 509.516 416.811V421H508.543ZM519.711 421V416.822C519.711 416.311 519.602 415.928 519.383 415.674C519.164 415.416 518.824 415.287 518.363 415.287C517.758 415.287 517.311 415.461 517.021 415.809C516.732 416.156 516.588 416.691 516.588 417.414V421H515.615V416.822C515.615 416.311 515.506 415.928 515.287 415.674C515.068 415.416 514.727 415.287 514.262 415.287C513.652 415.287 513.205 415.471 512.92 415.838C512.639 416.201 512.498 416.799 512.498 417.631V421H511.525V414.578H512.316L512.475 415.457H512.521C512.705 415.145 512.963 414.9 513.295 414.725C513.631 414.549 514.006 414.461 514.42 414.461C515.424 414.461 516.08 414.824 516.389 415.551H516.436C516.627 415.215 516.904 414.949 517.268 414.754C517.631 414.559 518.045 414.461 518.51 414.461C519.236 414.461 519.779 414.648 520.139 415.023C520.502 415.395 520.684 415.99 520.684 416.811V421H519.711ZM525.406 421.117C524.457 421.117 523.707 420.828 523.156 420.25C522.609 419.672 522.336 418.869 522.336 417.842C522.336 416.807 522.59 415.984 523.098 415.375C523.609 414.766 524.295 414.461 525.154 414.461C525.959 414.461 526.596 414.727 527.064 415.258C527.533 415.785 527.768 416.482 527.768 417.35V417.965H523.344C523.363 418.719 523.553 419.291 523.912 419.682C524.275 420.072 524.785 420.268 525.441 420.268C526.133 420.268 526.816 420.123 527.492 419.834V420.701C527.148 420.85 526.822 420.955 526.514 421.018C526.209 421.084 525.84 421.117 525.406 421.117ZM525.143 415.275C524.627 415.275 524.215 415.443 523.906 415.779C523.602 416.115 523.422 416.58 523.367 417.174H526.725C526.725 416.561 526.588 416.092 526.314 415.768C526.041 415.439 525.65 415.275 525.143 415.275ZM532.361 414.461C532.646 414.461 532.902 414.484 533.129 414.531L532.994 415.434C532.729 415.375 532.494 415.346 532.291 415.346C531.771 415.346 531.326 415.557 530.955 415.979C530.588 416.4 530.404 416.926 530.404 417.555V421H529.432V414.578H530.234L530.346 415.768H530.393C530.631 415.35 530.918 415.027 531.254 414.801C531.59 414.574 531.959 414.461 532.361 414.461Z" fill="#6A6A6A"/>
<path d="M211.945 8.51172H214.857V12.6777C214.404 12.8223 213.943 12.9316 213.475 13.0059C213.006 13.0801 212.463 13.1172 211.846 13.1172C210.549 13.1172 209.539 12.7324 208.816 11.9629C208.094 11.1895 207.732 10.1074 207.732 8.7168C207.732 7.82617 207.91 7.04688 208.266 6.37891C208.625 5.70703 209.141 5.19531 209.812 4.84375C210.484 4.48828 211.271 4.31055 212.174 4.31055C213.088 4.31055 213.939 4.47852 214.729 4.81445L214.342 5.69336C213.568 5.36523 212.824 5.20117 212.109 5.20117C211.066 5.20117 210.252 5.51172 209.666 6.13281C209.08 6.75391 208.787 7.61523 208.787 8.7168C208.787 9.87305 209.068 10.75 209.631 11.3477C210.197 11.9453 211.027 12.2441 212.121 12.2441C212.715 12.2441 213.295 12.1758 213.861 12.0391V9.40234H211.945V8.51172ZM219.486 13.1172C218.537 13.1172 217.787 12.8281 217.236 12.25C216.689 11.6719 216.416 10.8691 216.416 9.8418C216.416 8.80664 216.67 7.98438 217.178 7.375C217.689 6.76562 218.375 6.46094 219.234 6.46094C220.039 6.46094 220.676 6.72656 221.145 7.25781C221.613 7.78516 221.848 8.48242 221.848 9.34961V9.96484H217.424C217.443 10.7188 217.633 11.291 217.992 11.6816C218.355 12.0723 218.865 12.2676 219.521 12.2676C220.213 12.2676 220.896 12.123 221.572 11.834V12.7012C221.229 12.8496 220.902 12.9551 220.594 13.0176C220.289 13.084 219.92 13.1172 219.486 13.1172ZM219.223 7.27539C218.707 7.27539 218.295 7.44336 217.986 7.7793C217.682 8.11523 217.502 8.58008 217.447 9.17383H220.805C220.805 8.56055 220.668 8.0918 220.395 7.76758C220.121 7.43945 219.73 7.27539 219.223 7.27539ZM231.697 13V8.82227C231.697 8.31055 231.588 7.92773 231.369 7.67383C231.15 7.41602 230.811 7.28711 230.35 7.28711C229.744 7.28711 229.297 7.46094 229.008 7.80859C228.719 8.15625 228.574 8.69141 228.574 9.41406V13H227.602V8.82227C227.602 8.31055 227.492 7.92773 227.273 7.67383C227.055 7.41602 226.713 7.28711 226.248 7.28711C225.639 7.28711 225.191 7.4707 224.906 7.83789C224.625 8.20117 224.484 8.79883 224.484 9.63086V13H223.512V6.57812H224.303L224.461 7.45703H224.508C224.691 7.14453 224.949 6.90039 225.281 6.72461C225.617 6.54883 225.992 6.46094 226.406 6.46094C227.41 6.46094 228.066 6.82422 228.375 7.55078H228.422C228.613 7.21484 228.891 6.94922 229.254 6.75391C229.617 6.55859 230.031 6.46094 230.496 6.46094C231.223 6.46094 231.766 6.64844 232.125 7.02344C232.488 7.39453 232.67 7.99023 232.67 8.81055V13H231.697ZM237.393 13.1172C236.443 13.1172 235.693 12.8281 235.143 12.25C234.596 11.6719 234.322 10.8691 234.322 9.8418C234.322 8.80664 234.576 7.98438 235.084 7.375C235.596 6.76562 236.281 6.46094 237.141 6.46094C237.945 6.46094 238.582 6.72656 239.051 7.25781C239.52 7.78516 239.754 8.48242 239.754 9.34961V9.96484H235.33C235.35 10.7188 235.539 11.291 235.898 11.6816C236.262 12.0723 236.771 12.2676 237.428 12.2676C238.119 12.2676 238.803 12.123 239.479 11.834V12.7012C239.135 12.8496 238.809 12.9551 238.5 13.0176C238.195 13.084 237.826 13.1172 237.393 13.1172ZM237.129 7.27539C236.613 7.27539 236.201 7.44336 235.893 7.7793C235.588 8.11523 235.408 8.58008 235.354 9.17383H238.711C238.711 8.56055 238.574 8.0918 238.301 7.76758C238.027 7.43945 237.637 7.27539 237.129 7.27539ZM242.391 13H241.418V6.57812H242.391V13ZM241.336 4.83789C241.336 4.61523 241.391 4.45312 241.5 4.35156C241.609 4.24609 241.746 4.19336 241.91 4.19336C242.066 4.19336 242.201 4.24609 242.314 4.35156C242.428 4.45703 242.484 4.61914 242.484 4.83789C242.484 5.05664 242.428 5.2207 242.314 5.33008C242.201 5.43555 242.066 5.48828 241.91 5.48828C241.746 5.48828 241.609 5.43555 241.5 5.33008C241.391 5.2207 241.336 5.05664 241.336 4.83789ZM248.848 13V8.8457C248.848 8.32227 248.729 7.93164 248.49 7.67383C248.252 7.41602 247.879 7.28711 247.371 7.28711C246.699 7.28711 246.207 7.46875 245.895 7.83203C245.582 8.19531 245.426 8.79492 245.426 9.63086V13H244.453V6.57812H245.244L245.402 7.45703H245.449C245.648 7.14062 245.928 6.89648 246.287 6.72461C246.646 6.54883 247.047 6.46094 247.488 6.46094C248.262 6.46094 248.844 6.64844 249.234 7.02344C249.625 7.39453 249.82 7.99023 249.82 8.81055V13H248.848ZM256.219 13V8.8457C256.219 8.32227 256.1 7.93164 255.861 7.67383C255.623 7.41602 255.25 7.28711 254.742 7.28711C254.07 7.28711 253.578 7.46875 253.266 7.83203C252.953 8.19531 252.797 8.79492 252.797 9.63086V13H251.824V6.57812H252.615L252.773 7.45703H252.82C253.02 7.14062 253.299 6.89648 253.658 6.72461C254.018 6.54883 254.418 6.46094 254.859 6.46094C255.633 6.46094 256.215 6.64844 256.605 7.02344C256.996 7.39453 257.191 7.99023 257.191 8.81055V13H256.219ZM260.109 6.57812V10.7441C260.109 11.2676 260.229 11.6582 260.467 11.916C260.705 12.1738 261.078 12.3027 261.586 12.3027C262.258 12.3027 262.748 12.1191 263.057 11.752C263.369 11.3848 263.525 10.7852 263.525 9.95312V6.57812H264.498V13H263.695L263.555 12.1387H263.502C263.303 12.4551 263.025 12.6973 262.67 12.8652C262.318 13.0332 261.916 13.1172 261.463 13.1172C260.682 13.1172 260.096 12.9316 259.705 12.5605C259.318 12.1895 259.125 11.5957 259.125 10.7793V6.57812H260.109ZM260.168 4.83789C260.168 4.63477 260.219 4.48828 260.32 4.39844C260.426 4.30859 260.551 4.26367 260.695 4.26367C260.844 4.26367 260.971 4.30859 261.076 4.39844C261.186 4.48828 261.24 4.63477 261.24 4.83789C261.24 5.0332 261.186 5.17969 261.076 5.27734C260.971 5.37109 260.844 5.41797 260.695 5.41797C260.551 5.41797 260.426 5.37109 260.32 5.27734C260.219 5.17969 260.168 5.0332 260.168 4.83789ZM262.4 4.83789C262.4 4.63477 262.451 4.48828 262.553 4.39844C262.658 4.30859 262.783 4.26367 262.928 4.26367C263.072 4.26367 263.197 4.30859 263.303 4.39844C263.412 4.48828 263.467 4.63477 263.467 4.83789C263.467 5.0332 263.412 5.17969 263.303 5.27734C263.197 5.37109 263.072 5.41797 262.928 5.41797C262.783 5.41797 262.658 5.37109 262.553 5.27734C262.451 5.17969 262.4 5.0332 262.4 4.83789ZM268.641 12.3145C268.812 12.3145 268.979 12.3027 269.139 12.2793C269.299 12.252 269.426 12.2246 269.52 12.1973V12.9414C269.414 12.9922 269.258 13.0332 269.051 13.0645C268.848 13.0996 268.664 13.1172 268.5 13.1172C267.258 13.1172 266.637 12.4629 266.637 11.1543V7.33398H265.717V6.86523L266.637 6.46094L267.047 5.08984H267.609V6.57812H269.473V7.33398H267.609V11.1133C267.609 11.5 267.701 11.7969 267.885 12.0039C268.068 12.2109 268.32 12.3145 268.641 12.3145ZM274.916 13H270.258V12.3379L273.762 7.33398H270.475V6.57812H274.828V7.33398L271.371 12.2441H274.916V13ZM277.395 13H276.422V6.57812H277.395V13ZM276.34 4.83789C276.34 4.61523 276.395 4.45312 276.504 4.35156C276.613 4.24609 276.75 4.19336 276.914 4.19336C277.07 4.19336 277.205 4.24609 277.318 4.35156C277.432 4.45703 277.488 4.61914 277.488 4.83789C277.488 5.05664 277.432 5.2207 277.318 5.33008C277.205 5.43555 277.07 5.48828 276.914 5.48828C276.75 5.48828 276.613 5.43555 276.504 5.33008C276.395 5.2207 276.34 5.05664 276.34 4.83789ZM284.713 6.57812V7.19336L283.523 7.33398C283.633 7.4707 283.73 7.65039 283.816 7.87305C283.902 8.0918 283.945 8.33984 283.945 8.61719C283.945 9.24609 283.73 9.74805 283.301 10.123C282.871 10.498 282.281 10.6855 281.531 10.6855C281.34 10.6855 281.16 10.6699 280.992 10.6387C280.578 10.8574 280.371 11.1328 280.371 11.4648C280.371 11.6406 280.443 11.7715 280.588 11.8574C280.732 11.9395 280.98 11.9805 281.332 11.9805H282.469C283.164 11.9805 283.697 12.127 284.068 12.4199C284.443 12.7129 284.631 13.1387 284.631 13.6973C284.631 14.4082 284.346 14.9492 283.775 15.3203C283.205 15.6953 282.373 15.8828 281.279 15.8828C280.439 15.8828 279.791 15.7266 279.334 15.4141C278.881 15.1016 278.654 14.6602 278.654 14.0898C278.654 13.6992 278.779 13.3613 279.029 13.0762C279.279 12.791 279.631 12.5977 280.084 12.4961C279.92 12.4219 279.781 12.3066 279.668 12.1504C279.559 11.9941 279.504 11.8125 279.504 11.6055C279.504 11.3711 279.566 11.166 279.691 10.9902C279.816 10.8145 280.014 10.6445 280.283 10.4805C279.951 10.3438 279.68 10.1113 279.469 9.7832C279.262 9.45508 279.158 9.08008 279.158 8.6582C279.158 7.95508 279.369 7.41406 279.791 7.03516C280.213 6.65234 280.811 6.46094 281.584 6.46094C281.92 6.46094 282.223 6.5 282.492 6.57812H284.713ZM279.592 14.0781C279.592 14.4258 279.738 14.6895 280.031 14.8691C280.324 15.0488 280.744 15.1387 281.291 15.1387C282.107 15.1387 282.711 15.0156 283.102 14.7695C283.496 14.5273 283.693 14.1973 283.693 13.7793C283.693 13.4316 283.586 13.1895 283.371 13.0527C283.156 12.9199 282.752 12.8535 282.158 12.8535H280.992C280.551 12.8535 280.207 12.959 279.961 13.1699C279.715 13.3809 279.592 13.6836 279.592 14.0781ZM280.119 8.63477C280.119 9.08398 280.246 9.42383 280.5 9.6543C280.754 9.88477 281.107 10 281.561 10C282.51 10 282.984 9.53906 282.984 8.61719C282.984 7.65234 282.504 7.16992 281.543 7.16992C281.086 7.16992 280.734 7.29297 280.488 7.53906C280.242 7.78516 280.119 8.15039 280.119 8.63477Z" fill="#6A6A6A"/>
<rect x="174.5" y="3.5" width="26" height="9" fill="#C51E1E" fill-opacity="0.5" stroke="#C51E1E"/>
<path d="M333.174 9.4375V13H332.178V4.43359H334.527C335.578 4.43359 336.354 4.63477 336.854 5.03711C337.357 5.43945 337.609 6.04492 337.609 6.85352C337.609 7.98633 337.035 8.75195 335.887 9.15039L338.213 13H337.035L334.961 9.4375H333.174ZM333.174 8.58203H334.539C335.242 8.58203 335.758 8.44336 336.086 8.16602C336.414 7.88477 336.578 7.46484 336.578 6.90625C336.578 6.33984 336.41 5.93164 336.074 5.68164C335.742 5.43164 335.207 5.30664 334.469 5.30664H333.174V8.58203ZM342.162 13.1172C341.213 13.1172 340.463 12.8281 339.912 12.25C339.365 11.6719 339.092 10.8691 339.092 9.8418C339.092 8.80664 339.346 7.98438 339.854 7.375C340.365 6.76562 341.051 6.46094 341.91 6.46094C342.715 6.46094 343.352 6.72656 343.82 7.25781C344.289 7.78516 344.523 8.48242 344.523 9.34961V9.96484H340.1C340.119 10.7188 340.309 11.291 340.668 11.6816C341.031 12.0723 341.541 12.2676 342.197 12.2676C342.889 12.2676 343.572 12.123 344.248 11.834V12.7012C343.904 12.8496 343.578 12.9551 343.27 13.0176C342.965 13.084 342.596 13.1172 342.162 13.1172ZM341.898 7.27539C341.383 7.27539 340.971 7.44336 340.662 7.7793C340.357 8.11523 340.178 8.58008 340.123 9.17383H343.48C343.48 8.56055 343.344 8.0918 343.07 7.76758C342.797 7.43945 342.406 7.27539 341.898 7.27539ZM350.582 13V8.8457C350.582 8.32227 350.463 7.93164 350.225 7.67383C349.986 7.41602 349.613 7.28711 349.105 7.28711C348.434 7.28711 347.941 7.46875 347.629 7.83203C347.316 8.19531 347.16 8.79492 347.16 9.63086V13H346.188V6.57812H346.979L347.137 7.45703H347.184C347.383 7.14062 347.662 6.89648 348.021 6.72461C348.381 6.54883 348.781 6.46094 349.223 6.46094C349.996 6.46094 350.578 6.64844 350.969 7.02344C351.359 7.39453 351.555 7.99023 351.555 8.81055V13H350.582ZM357.93 12.1387H357.877C357.428 12.791 356.756 13.1172 355.861 13.1172C355.021 13.1172 354.367 12.8301 353.898 12.2559C353.434 11.6816 353.201 10.8652 353.201 9.80664C353.201 8.74805 353.436 7.92578 353.904 7.33984C354.373 6.75391 355.025 6.46094 355.861 6.46094C356.732 6.46094 357.4 6.77734 357.865 7.41016H357.941L357.9 6.94727L357.877 6.49609V3.88281H358.85V13H358.059L357.93 12.1387ZM355.984 12.3027C356.648 12.3027 357.129 12.123 357.426 11.7637C357.727 11.4004 357.877 10.8164 357.877 10.0117V9.80664C357.877 8.89648 357.725 8.24805 357.42 7.86133C357.119 7.4707 356.637 7.27539 355.973 7.27539C355.402 7.27539 354.965 7.49805 354.66 7.94336C354.359 8.38477 354.209 9.00977 354.209 9.81836C354.209 10.6387 354.359 11.2578 354.66 11.6758C354.961 12.0938 355.402 12.3027 355.984 12.3027ZM361.891 13H360.918V6.57812H361.891V13ZM360.836 4.83789C360.836 4.61523 360.891 4.45312 361 4.35156C361.109 4.24609 361.246 4.19336 361.41 4.19336C361.566 4.19336 361.701 4.24609 361.814 4.35156C361.928 4.45703 361.984 4.61914 361.984 4.83789C361.984 5.05664 361.928 5.2207 361.814 5.33008C361.701 5.43555 361.566 5.48828 361.41 5.48828C361.246 5.48828 361.109 5.43555 361 5.33008C360.891 5.2207 360.836 5.05664 360.836 4.83789ZM366.027 12.3145C366.199 12.3145 366.365 12.3027 366.525 12.2793C366.686 12.252 366.812 12.2246 366.906 12.1973V12.9414C366.801 12.9922 366.645 13.0332 366.438 13.0645C366.234 13.0996 366.051 13.1172 365.887 13.1172C364.645 13.1172 364.023 12.4629 364.023 11.1543V7.33398H363.104V6.86523L364.023 6.46094L364.434 5.08984H364.996V6.57812H366.859V7.33398H364.996V11.1133C364.996 11.5 365.088 11.7969 365.271 12.0039C365.455 12.2109 365.707 12.3145 366.027 12.3145ZM370.908 13.1172C369.959 13.1172 369.209 12.8281 368.658 12.25C368.111 11.6719 367.838 10.8691 367.838 9.8418C367.838 8.80664 368.092 7.98438 368.6 7.375C369.111 6.76562 369.797 6.46094 370.656 6.46094C371.461 6.46094 372.098 6.72656 372.566 7.25781C373.035 7.78516 373.27 8.48242 373.27 9.34961V9.96484H368.846C368.865 10.7188 369.055 11.291 369.414 11.6816C369.777 12.0723 370.287 12.2676 370.943 12.2676C371.635 12.2676 372.318 12.123 372.994 11.834V12.7012C372.65 12.8496 372.324 12.9551 372.016 13.0176C371.711 13.084 371.342 13.1172 370.908 13.1172ZM370.645 7.27539C370.129 7.27539 369.717 7.44336 369.408 7.7793C369.104 8.11523 368.924 8.58008 368.869 9.17383H372.227C372.227 8.56055 372.09 8.0918 371.816 7.76758C371.543 7.43945 371.152 7.27539 370.645 7.27539ZM380.477 9.7832C380.477 10.8301 380.213 11.6484 379.686 12.2383C379.158 12.8242 378.43 13.1172 377.5 13.1172C376.926 13.1172 376.416 12.9824 375.971 12.7129C375.525 12.4434 375.182 12.0566 374.939 11.5527C374.697 11.0488 374.576 10.459 374.576 9.7832C374.576 8.73633 374.838 7.92188 375.361 7.33984C375.885 6.75391 376.611 6.46094 377.541 6.46094C378.439 6.46094 379.152 6.75977 379.68 7.35742C380.211 7.95508 380.477 8.76367 380.477 9.7832ZM375.584 9.7832C375.584 10.6035 375.748 11.2285 376.076 11.6582C376.404 12.0879 376.887 12.3027 377.523 12.3027C378.16 12.3027 378.643 12.0898 378.971 11.6641C379.303 11.2344 379.469 10.6074 379.469 9.7832C379.469 8.9668 379.303 8.34766 378.971 7.92578C378.643 7.5 378.156 7.28711 377.512 7.28711C376.875 7.28711 376.395 7.49609 376.07 7.91406C375.746 8.33203 375.584 8.95508 375.584 9.7832ZM385.117 6.46094C385.402 6.46094 385.658 6.48438 385.885 6.53125L385.75 7.43359C385.484 7.375 385.25 7.3457 385.047 7.3457C384.527 7.3457 384.082 7.55664 383.711 7.97852C383.344 8.40039 383.16 8.92578 383.16 9.55469V13H382.188V6.57812H382.99L383.102 7.76758H383.148C383.387 7.34961 383.674 7.02734 384.01 6.80078C384.346 6.57422 384.715 6.46094 385.117 6.46094ZM388.059 13H387.086V6.57812H388.059V13ZM387.004 4.83789C387.004 4.61523 387.059 4.45312 387.168 4.35156C387.277 4.24609 387.414 4.19336 387.578 4.19336C387.734 4.19336 387.869 4.24609 387.982 4.35156C388.096 4.45703 388.152 4.61914 388.152 4.83789C388.152 5.05664 388.096 5.2207 387.982 5.33008C387.869 5.43555 387.734 5.48828 387.578 5.48828C387.414 5.48828 387.277 5.43555 387.168 5.33008C387.059 5.2207 387.004 5.05664 387.004 4.83789ZM392.834 13.1172C391.885 13.1172 391.135 12.8281 390.584 12.25C390.037 11.6719 389.764 10.8691 389.764 9.8418C389.764 8.80664 390.018 7.98438 390.525 7.375C391.037 6.76562 391.723 6.46094 392.582 6.46094C393.387 6.46094 394.023 6.72656 394.492 7.25781C394.961 7.78516 395.195 8.48242 395.195 9.34961V9.96484H390.771C390.791 10.7188 390.98 11.291 391.34 11.6816C391.703 12.0723 392.213 12.2676 392.869 12.2676C393.561 12.2676 394.244 12.123 394.92 11.834V12.7012C394.576 12.8496 394.25 12.9551 393.941 13.0176C393.637 13.084 393.268 13.1172 392.834 13.1172ZM392.57 7.27539C392.055 7.27539 391.643 7.44336 391.334 7.7793C391.029 8.11523 390.85 8.58008 390.795 9.17383H394.152C394.152 8.56055 394.016 8.0918 393.742 7.76758C393.469 7.43945 393.078 7.27539 392.57 7.27539ZM401.254 13V8.8457C401.254 8.32227 401.135 7.93164 400.896 7.67383C400.658 7.41602 400.285 7.28711 399.777 7.28711C399.105 7.28711 398.613 7.46875 398.301 7.83203C397.988 8.19531 397.832 8.79492 397.832 9.63086V13H396.859V6.57812H397.65L397.809 7.45703H397.855C398.055 7.14062 398.334 6.89648 398.693 6.72461C399.053 6.54883 399.453 6.46094 399.895 6.46094C400.668 6.46094 401.25 6.64844 401.641 7.02344C402.031 7.39453 402.227 7.99023 402.227 8.81055V13H401.254ZM406.305 12.3145C406.477 12.3145 406.643 12.3027 406.803 12.2793C406.963 12.252 407.09 12.2246 407.184 12.1973V12.9414C407.078 12.9922 406.922 13.0332 406.715 13.0645C406.512 13.0996 406.328 13.1172 406.164 13.1172C404.922 13.1172 404.301 12.4629 404.301 11.1543V7.33398H403.381V6.86523L404.301 6.46094L404.711 5.08984H405.273V6.57812H407.137V7.33398H405.273V11.1133C405.273 11.5 405.365 11.7969 405.549 12.0039C405.732 12.2109 405.984 12.3145 406.305 12.3145ZM409.445 13H408.473V6.57812H409.445V13ZM408.391 4.83789C408.391 4.61523 408.445 4.45312 408.555 4.35156C408.664 4.24609 408.801 4.19336 408.965 4.19336C409.121 4.19336 409.256 4.24609 409.369 4.35156C409.482 4.45703 409.539 4.61914 409.539 4.83789C409.539 5.05664 409.482 5.2207 409.369 5.33008C409.256 5.43555 409.121 5.48828 408.965 5.48828C408.801 5.48828 408.664 5.43555 408.555 5.33008C408.445 5.2207 408.391 5.05664 408.391 4.83789ZM414.221 13.1172C413.271 13.1172 412.521 12.8281 411.971 12.25C411.424 11.6719 411.15 10.8691 411.15 9.8418C411.15 8.80664 411.404 7.98438 411.912 7.375C412.424 6.76562 413.109 6.46094 413.969 6.46094C414.773 6.46094 415.41 6.72656 415.879 7.25781C416.348 7.78516 416.582 8.48242 416.582 9.34961V9.96484H412.158C412.178 10.7188 412.367 11.291 412.727 11.6816C413.09 12.0723 413.6 12.2676 414.256 12.2676C414.947 12.2676 415.631 12.123 416.307 11.834V12.7012C415.963 12.8496 415.637 12.9551 415.328 13.0176C415.023 13.084 414.654 13.1172 414.221 13.1172ZM413.957 7.27539C413.441 7.27539 413.029 7.44336 412.721 7.7793C412.416 8.11523 412.236 8.58008 412.182 9.17383H415.539C415.539 8.56055 415.402 8.0918 415.129 7.76758C414.855 7.43945 414.465 7.27539 413.957 7.27539ZM421.176 6.46094C421.461 6.46094 421.717 6.48438 421.943 6.53125L421.809 7.43359C421.543 7.375 421.309 7.3457 421.105 7.3457C420.586 7.3457 420.141 7.55664 419.77 7.97852C419.402 8.40039 419.219 8.92578 419.219 9.55469V13H418.246V6.57812H419.049L419.16 7.76758H419.207C419.445 7.34961 419.732 7.02734 420.068 6.80078C420.404 6.57422 420.773 6.46094 421.176 6.46094ZM425.219 12.3145C425.391 12.3145 425.557 12.3027 425.717 12.2793C425.877 12.252 426.004 12.2246 426.098 12.1973V12.9414C425.992 12.9922 425.836 13.0332 425.629 13.0645C425.426 13.0996 425.242 13.1172 425.078 13.1172C423.836 13.1172 423.215 12.4629 423.215 11.1543V7.33398H422.295V6.86523L423.215 6.46094L423.625 5.08984H424.188V6.57812H426.051V7.33398H424.188V11.1133C424.188 11.5 424.279 11.7969 424.463 12.0039C424.646 12.2109 424.898 12.3145 425.219 12.3145Z" fill="#6A6A6A"/>
<rect x="298.5" y="3.5" width="26" height="9" fill="#1F1F8F" fill-opacity="0.5" stroke="#1F1F8F"/>
<line x1="64" y1="399.5" x2="600" y2="399.5" stroke="#999999" stroke-opacity="0.5"/>
<line x1="71.5" y1="407" x2="71.5" y2="34" stroke="#999999" stroke-opacity="0.5"/>
<line x1="245.5" y1="407" x2="245.5" y2="34" stroke="#999999" stroke-opacity="0.5"/>
<line x1="419.5" y1="407" x2="419.5" y2="34" stroke="#999999" stroke-opacity="0.5"/>
<line x1="592.5" y1="407" x2="592.5" y2="34" stroke="#999999" stroke-opacity="0.5"/>
<line x1="64" y1="364.5" x2="600" y2="364.5" stroke="#999999" stroke-opacity="0.5"/>
<line x1="64" y1="329.5" x2="600" y2="329.5" stroke="#999999" stroke-opacity="0.5"/>
<line x1="64" y1="294.5" x2="600" y2="294.5" stroke="#999999" stroke-opacity="0.5"/>
<line x1="64" y1="259.5" x2="600" y2="259.5" stroke="#999999" stroke-opacity="0.5"/>
<line x1="64" y1="224.5" x2="600" y2="224.5" stroke="#999999" stroke-opacity="0.5"/>
<line x1="64" y1="189.5" x2="600" y2="189.5" stroke="#999999" stroke-opacity="0.5"/>
<line x1="64" y1="154.5" x2="600" y2="154.5" stroke="#999999" stroke-opacity="0.5"/>
<line x1="64" y1="119.5" x2="600" y2="119.5" stroke="#999999" stroke-opacity="0.5"/>
<line x1="64" y1="84.5" x2="600" y2="84.5" stroke="#999999" stroke-opacity="0.5"/>
<line x1="64" y1="49.5" x2="600" y2="49.5" stroke="#999999" stroke-opacity="0.5"/>
<rect width="69" height="349" transform="translate(506 50)" fill="#1F1F8F" fill-opacity="0.5"/>
<rect width="69" height="244" transform="translate(437 155)" fill="#C51E1E" fill-opacity="0.5"/>
<rect width="69" height="277" transform="translate(333 122)" fill="#1F1F8F" fill-opacity="0.5"/>
<rect width="69" height="177" transform="translate(264 222)" fill="#C51E1E" fill-opacity="0.5"/>
<rect width="69" height="234.005" transform="translate(160 165)" fill="#1F1F8F" fill-opacity="0.5"/>
<rect width="69" height="160" transform="translate(91 239)" fill="#C51E1E" fill-opacity="0.5"/>
<path d="M450.356 96.7233V98.3512H450.164C449.27 98.3649 448.55 98.5974 448.003 99.0489C447.46 99.5003 447.134 100.127 447.025 100.93C447.554 100.392 448.222 100.123 449.029 100.123C449.895 100.123 450.584 100.433 451.095 101.053C451.605 101.673 451.861 102.489 451.861 103.502C451.861 104.149 451.719 104.735 451.437 105.26C451.158 105.784 450.762 106.192 450.246 106.484C449.736 106.776 449.156 106.922 448.509 106.922C447.46 106.922 446.612 106.557 445.964 105.827C445.321 105.098 445 104.124 445 102.907V102.195C445 101.115 445.203 100.162 445.609 99.3362C446.019 98.5062 446.605 97.8656 447.367 97.4141C448.133 96.9581 449.02 96.7278 450.027 96.7233H450.356ZM448.427 101.71C448.108 101.71 447.818 101.794 447.558 101.963C447.298 102.127 447.107 102.346 446.984 102.619V103.221C446.984 103.883 447.114 104.4 447.374 104.774C447.633 105.143 447.998 105.328 448.468 105.328C448.892 105.328 449.234 105.162 449.494 104.829C449.758 104.491 449.891 104.056 449.891 103.522C449.891 102.98 449.758 102.542 449.494 102.209C449.229 101.876 448.874 101.71 448.427 101.71Z" fill="#C51E1E"/>
<path d="M459.74 102.667C459.74 104.044 459.455 105.098 458.885 105.827C458.315 106.557 457.481 106.922 456.382 106.922C455.297 106.922 454.467 106.564 453.892 105.848C453.318 105.132 453.023 104.106 453.01 102.77V100.937C453.01 99.5459 453.297 98.4903 453.872 97.7698C454.451 97.0493 455.283 96.6891 456.368 96.6891C457.454 96.6891 458.283 97.047 458.858 97.7629C459.433 98.4743 459.727 99.4981 459.74 100.834V102.667ZM457.764 100.656C457.764 99.8309 457.65 99.2313 457.422 98.8574C457.198 98.4789 456.847 98.2896 456.368 98.2896C455.903 98.2896 455.559 98.4698 455.335 98.83C455.116 99.1857 455 99.7443 454.987 100.506V102.927C454.987 103.739 455.096 104.343 455.315 104.74C455.538 105.132 455.894 105.328 456.382 105.328C456.865 105.328 457.214 105.139 457.428 104.76C457.643 104.382 457.754 103.803 457.764 103.023V100.656Z" fill="#C51E1E"/>
<path d="M467.784 102.667C467.784 104.044 467.499 105.098 466.929 105.827C466.359 106.557 465.525 106.922 464.426 106.922C463.341 106.922 462.511 106.564 461.936 105.848C461.361 105.132 461.067 104.106 461.054 102.77V100.937C461.054 99.5459 461.341 98.4903 461.916 97.7698C462.495 97.0493 463.327 96.6891 464.412 96.6891C465.497 96.6891 466.327 97.047 466.902 97.7629C467.477 98.4743 467.771 99.4981 467.784 100.834V102.667ZM465.808 100.656C465.808 99.8309 465.694 99.2313 465.466 98.8574C465.242 98.4789 464.891 98.2896 464.412 98.2896C463.947 98.2896 463.603 98.4698 463.379 98.83C463.16 99.1857 463.044 99.7443 463.03 100.506V102.927C463.03 103.739 463.14 104.343 463.359 104.74C463.582 105.132 463.938 105.328 464.426 105.328C464.909 105.328 465.258 105.139 465.472 104.76C465.687 104.382 465.798 103.803 465.808 103.023V100.656Z" fill="#C51E1E"/>
<path d="M480.644 103.468C480.566 104.539 480.169 105.383 479.453 105.998C478.742 106.614 477.803 106.922 476.635 106.922C475.359 106.922 474.353 106.493 473.619 105.636C472.889 104.774 472.524 103.593 472.524 102.093V101.484C472.524 100.526 472.693 99.6827 473.031 98.9531C473.368 98.2235 473.849 97.6649 474.474 97.2773C475.103 96.8851 475.833 96.6891 476.663 96.6891C477.812 96.6891 478.738 96.9969 479.44 97.6125C480.142 98.2281 480.548 99.0922 480.657 100.205H478.605C478.555 99.5619 478.375 99.0968 478.065 98.8095C477.759 98.5176 477.292 98.3717 476.663 98.3717C475.979 98.3717 475.466 98.618 475.124 99.1104C474.786 99.5984 474.613 100.358 474.604 101.388V102.141C474.604 103.217 474.766 104.003 475.09 104.5C475.418 104.997 475.933 105.246 476.635 105.246C477.269 105.246 477.741 105.102 478.051 104.815C478.366 104.523 478.546 104.074 478.592 103.468H480.644Z" fill="#C51E1E"/>
<path d="M490.097 106.785H488.045V102.517H484.043V106.785H481.991V96.8259H484.043V100.862H488.045V96.8259H490.097V106.785Z" fill="#C51E1E"/>
<path d="M497.888 102.715H493.948V106.785H491.896V96.8259H498.38V98.488H493.948V101.06H497.888V102.715Z" fill="#C51E1E"/>
<path fill-rule="evenodd" clip-rule="evenodd" d="M473.249 113.789C473.249 113.306 472.857 112.914 472.374 112.914C471.89 112.914 471.498 113.306 471.498 113.789L471.498 151.074L467.74 147.316C467.398 146.974 466.843 146.974 466.502 147.316C466.16 147.658 466.16 148.212 466.502 148.554L471.755 153.807C472.097 154.149 472.651 154.149 472.993 153.807L478.246 148.554C478.588 148.212 478.588 147.658 478.246 147.316C477.904 146.974 477.35 146.974 477.008 147.316L473.249 151.074L473.249 113.789Z" fill="#C51E1E"/>
<path fill-rule="evenodd" clip-rule="evenodd" d="M471.499 89.2744C471.499 89.758 471.891 90.1499 472.374 90.1499C472.858 90.1499 473.25 89.758 473.25 89.2744L473.25 51.9893L477.008 55.7478C477.35 56.0897 477.905 56.0897 478.246 55.7478C478.588 55.4059 478.588 54.8515 478.246 54.5096L472.993 49.2564C472.651 48.9145 472.097 48.9145 471.755 49.2564L466.502 54.5096C466.16 54.8515 466.16 55.4059 466.502 55.7478C466.844 56.0897 467.398 56.0897 467.74 55.7478L471.499 51.9893L471.499 89.2744Z" fill="#C51E1E"/>
<path d="M276.253 172.293L276.828 167.228H282.413V168.878H278.45L278.204 171.02C278.674 170.769 279.174 170.644 279.703 170.644C280.652 170.644 281.396 170.938 281.934 171.527C282.473 172.115 282.742 172.939 282.742 173.997C282.742 174.641 282.605 175.218 282.331 175.729C282.062 176.236 281.674 176.63 281.168 176.913C280.661 177.191 280.063 177.331 279.374 177.331C278.772 177.331 278.213 177.21 277.697 176.968C277.182 176.722 276.773 176.377 276.472 175.934C276.176 175.492 276.018 174.988 276 174.422H277.958C277.999 174.837 278.142 175.161 278.389 175.394C278.64 175.622 278.966 175.736 279.367 175.736C279.815 175.736 280.159 175.576 280.401 175.257C280.643 174.933 280.764 174.477 280.764 173.888C280.764 173.322 280.625 172.889 280.346 172.587C280.068 172.286 279.673 172.136 279.162 172.136C278.692 172.136 278.311 172.259 278.019 172.505L277.827 172.683L276.253 172.293Z" fill="#C51E1E"/>
<path d="M290.784 168.337L286.931 177.194H284.843L288.703 168.83H283.748V167.228H290.784V168.337Z" fill="#C51E1E"/>
<path d="M298.765 173.073C298.765 174.451 298.48 175.505 297.909 176.236C297.339 176.966 296.504 177.331 295.404 177.331C294.318 177.331 293.488 176.972 292.913 176.256C292.338 175.54 292.043 174.513 292.03 173.176V171.342C292.03 169.95 292.317 168.894 292.892 168.173C293.472 167.452 294.304 167.091 295.39 167.091C296.476 167.091 297.307 167.45 297.882 168.166C298.457 168.878 298.751 169.902 298.765 171.239V173.073ZM296.787 171.061C296.787 170.235 296.673 169.635 296.444 169.261C296.221 168.882 295.869 168.693 295.39 168.693C294.925 168.693 294.58 168.873 294.357 169.234C294.138 169.59 294.021 170.149 294.008 170.911V173.333C294.008 174.146 294.117 174.75 294.336 175.147C294.56 175.54 294.916 175.736 295.404 175.736C295.888 175.736 296.237 175.547 296.451 175.168C296.666 174.789 296.778 174.21 296.787 173.429V171.061Z" fill="#C51E1E"/>
<path d="M311.632 173.874C311.555 174.947 311.158 175.791 310.441 176.407C309.73 177.023 308.79 177.331 307.621 177.331C306.344 177.331 305.338 176.902 304.603 176.044C303.873 175.181 303.508 174 303.508 172.498V171.889C303.508 170.931 303.677 170.087 304.014 169.357C304.352 168.627 304.833 168.068 305.459 167.68C306.088 167.288 306.818 167.091 307.649 167.091C308.799 167.091 309.725 167.399 310.428 168.015C311.13 168.631 311.536 169.496 311.646 170.609H309.593C309.542 169.966 309.362 169.501 309.052 169.213C308.746 168.921 308.279 168.775 307.649 168.775C306.964 168.775 306.451 169.021 306.109 169.514C305.771 170.003 305.598 170.762 305.589 171.793V172.546C305.589 173.623 305.751 174.41 306.075 174.908C306.403 175.405 306.919 175.654 307.621 175.654C308.256 175.654 308.728 175.51 309.038 175.223C309.353 174.931 309.533 174.481 309.579 173.874H311.632Z" fill="#C51E1E"/>
<path d="M321.091 177.194H319.038V172.923H315.034V177.194H312.981V167.228H315.034V171.266H319.038V167.228H321.091V177.194Z" fill="#C51E1E"/>
<path d="M328.887 173.121H324.945V177.194H322.891V167.228H329.38V168.891H324.945V171.465H328.887V173.121Z" fill="#C51E1E"/>
<path fill-rule="evenodd" clip-rule="evenodd" d="M301.605 159.672C301.605 160.156 301.997 160.548 302.481 160.548C302.965 160.548 303.357 160.156 303.357 159.672L303.357 124.991L307.118 128.752C307.46 129.094 308.015 129.094 308.357 128.752C308.699 128.41 308.699 127.855 308.357 127.513L303.101 122.257C302.758 121.914 302.204 121.914 301.862 122.257L296.605 127.513C296.263 127.855 296.263 128.41 296.605 128.752C296.947 129.094 297.502 129.094 297.844 128.752L301.605 124.991L301.605 159.672Z" fill="#C51E1E"/>
<path fill-rule="evenodd" clip-rule="evenodd" d="M303.357 184.203C303.357 183.719 302.965 183.326 302.481 183.326C301.997 183.326 301.605 183.719 301.605 184.203L301.605 218.883L297.844 215.122C297.502 214.78 296.947 214.78 296.605 215.122C296.263 215.464 296.263 216.019 296.605 216.361L301.861 221.618C302.203 221.96 302.758 221.96 303.1 221.618L308.357 216.361C308.699 216.019 308.699 215.464 308.357 215.122C308.015 214.78 307.46 214.78 307.118 215.122L303.357 218.883L303.357 184.203Z" fill="#C51E1E"/>
<path d="M104.994 203.932H106.116V205.516H104.994V207.659H103.028V205.516H98.9678L98.8794 204.278L103.008 197.756H104.994V203.932ZM100.838 203.932H103.028V200.436L102.899 200.66L100.838 203.932Z" fill="#C51E1E"/>
<path d="M113.965 207.659H107.177V206.312L110.381 202.898C110.821 202.417 111.145 201.998 111.353 201.64C111.566 201.281 111.673 200.941 111.673 200.619C111.673 200.179 111.562 199.835 111.34 199.585C111.118 199.332 110.8 199.205 110.387 199.205C109.943 199.205 109.592 199.359 109.333 199.667C109.079 199.971 108.952 200.372 108.952 200.871H106.98C106.98 200.268 107.123 199.717 107.408 199.218C107.699 198.719 108.107 198.329 108.633 198.048C109.159 197.763 109.755 197.62 110.421 197.62C111.442 197.62 112.233 197.865 112.795 198.354C113.362 198.844 113.645 199.536 113.645 200.429C113.645 200.919 113.518 201.417 113.265 201.925C113.011 202.433 112.575 203.025 111.959 203.7L109.707 206.074H113.965V207.659Z" fill="#C51E1E"/>
<path d="M120.508 197.654V199.273H120.318C119.429 199.286 118.712 199.517 118.168 199.966C117.629 200.415 117.305 201.039 117.196 201.837C117.722 201.302 118.386 201.034 119.189 201.034C120.05 201.034 120.735 201.343 121.243 201.959C121.75 202.576 122.004 203.388 122.004 204.394C122.004 205.038 121.864 205.621 121.583 206.142C121.306 206.664 120.912 207.069 120.399 207.36C119.891 207.65 119.316 207.795 118.672 207.795C117.629 207.795 116.785 207.432 116.142 206.707C115.502 205.981 115.183 205.013 115.183 203.802V203.095C115.183 202.02 115.384 201.073 115.788 200.252C116.196 199.427 116.779 198.79 117.536 198.341C118.298 197.887 119.18 197.658 120.182 197.654H120.508ZM118.59 202.612C118.273 202.612 117.985 202.696 117.726 202.864C117.468 203.027 117.277 203.245 117.155 203.517V204.115C117.155 204.773 117.284 205.287 117.543 205.659C117.801 206.026 118.164 206.21 118.631 206.21C119.053 206.21 119.393 206.045 119.651 205.714C119.914 205.378 120.046 204.945 120.046 204.415C120.046 203.875 119.914 203.44 119.651 203.109C119.388 202.778 119.034 202.612 118.59 202.612Z" fill="#C51E1E"/>
<path d="M134.628 204.36C134.551 205.426 134.156 206.265 133.444 206.877C132.737 207.489 131.803 207.795 130.642 207.795C129.373 207.795 128.373 207.369 127.643 206.516C126.917 205.659 126.555 204.485 126.555 202.993V202.388C126.555 201.435 126.722 200.597 127.058 199.871C127.393 199.146 127.872 198.59 128.493 198.205C129.119 197.815 129.844 197.62 130.669 197.62C131.812 197.62 132.733 197.926 133.431 198.538C134.129 199.15 134.533 200.009 134.642 201.116H132.601C132.551 200.476 132.372 200.014 132.064 199.728C131.76 199.438 131.295 199.293 130.669 199.293C129.989 199.293 129.479 199.538 129.139 200.028C128.804 200.513 128.631 201.268 128.622 202.292V203.041C128.622 204.111 128.783 204.893 129.105 205.387C129.432 205.881 129.944 206.128 130.642 206.128C131.273 206.128 131.742 205.986 132.05 205.7C132.363 205.41 132.542 204.963 132.587 204.36H134.628Z" fill="#C51E1E"/>
<path d="M144.028 207.659H141.987V203.415H138.008V207.659H135.968V197.756H138.008V201.769H141.987V197.756H144.028V207.659Z" fill="#C51E1E"/>
<path d="M151.774 203.612H147.857V207.659H145.816V197.756H152.264V199.409H147.857V201.966H151.774V203.612Z" fill="#C51E1E"/>
<path fill-rule="evenodd" clip-rule="evenodd" d="M124.664 190.247C124.664 190.728 125.053 191.118 125.534 191.118C126.015 191.118 126.405 190.728 126.405 190.247L126.405 167.972L130.142 171.71C130.482 172.05 131.033 172.05 131.373 171.71C131.713 171.37 131.713 170.819 131.373 170.479L126.15 165.255C125.81 164.915 125.259 164.915 124.919 165.255L119.695 170.479C119.355 170.819 119.355 171.37 119.695 171.71C120.035 172.05 120.586 172.05 120.926 171.71L124.664 167.972L124.664 190.247Z" fill="#C51E1E"/>
<path fill-rule="evenodd" clip-rule="evenodd" d="M126.405 213.753C126.405 213.272 126.015 212.882 125.535 212.882C125.054 212.882 124.664 213.272 124.664 213.753L124.664 236.028L120.927 232.29C120.587 231.95 120.035 231.95 119.695 232.29C119.355 232.63 119.355 233.181 119.695 233.521L124.919 238.745C125.259 239.085 125.81 239.085 126.15 238.745L131.374 233.521C131.714 233.181 131.714 232.63 131.374 232.29C131.034 231.95 130.482 231.95 130.142 232.29L126.405 236.028L126.405 213.753Z" fill="#C51E1E"/>
</g>
<defs>
<clipPath id="clip0">
<rect width="600" height="424" fill="white"/>
</clipPath>
</defs>
</svg>
