<svg width="536" height="502" viewBox="0 0 536 502" fill="none" xmlns="http://www.w3.org/2000/svg">
<g clip-path="url(#clip0_308_158)">
<path d="M73.4531 499H67.8398V498.186L70.1309 495.859C70.5566 495.43 70.9141 495.047 71.2031 494.711C71.4961 494.375 71.7188 494.045 71.8711 493.721C72.0234 493.393 72.0996 493.033 72.0996 492.643C72.0996 492.158 71.9551 491.789 71.666 491.535C71.3809 491.277 71.0039 491.148 70.5352 491.148C70.125 491.148 69.7617 491.219 69.4453 491.359C69.1289 491.5 68.8047 491.699 68.4727 491.957L67.9512 491.301C68.1777 491.109 68.4238 490.939 68.6895 490.791C68.959 490.643 69.2461 490.525 69.5508 490.439C69.8594 490.354 70.1875 490.311 70.5352 490.311C71.0625 490.311 71.5176 490.402 71.9004 490.586C72.2832 490.77 72.5781 491.031 72.7852 491.371C72.9961 491.711 73.1016 492.115 73.1016 492.584C73.1016 493.037 73.0117 493.459 72.832 493.85C72.6523 494.236 72.4004 494.621 72.0762 495.004C71.752 495.383 71.373 495.785 70.9395 496.211L69.0762 498.068V498.109H73.4531V499ZM74.5957 496.211V495.344H77.502V496.211H74.5957ZM84.3867 499H78.4395V498.25L83.0508 491.324H78.5977V490.434H84.2637V491.184L79.6465 498.109H84.3867V499ZM86.8477 492.578V499H85.875V492.578H86.8477ZM86.373 490.176C86.5332 490.176 86.6699 490.229 86.7832 490.334C86.9004 490.436 86.959 490.596 86.959 490.814C86.959 491.029 86.9004 491.189 86.7832 491.295C86.6699 491.4 86.5332 491.453 86.373 491.453C86.2051 491.453 86.0645 491.4 85.9512 491.295C85.8418 491.189 85.7871 491.029 85.7871 490.814C85.7871 490.596 85.8418 490.436 85.9512 490.334C86.0645 490.229 86.2051 490.176 86.373 490.176ZM95.8828 492.461C96.5898 492.461 97.123 492.646 97.4824 493.018C97.8418 493.385 98.0215 493.977 98.0215 494.793V499H97.0605V494.84C97.0605 494.32 96.9473 493.932 96.7207 493.674C96.498 493.412 96.166 493.281 95.7246 493.281C95.1035 493.281 94.6523 493.461 94.3711 493.82C94.0898 494.18 93.9492 494.709 93.9492 495.408V499H92.9824V494.84C92.9824 494.492 92.9316 494.203 92.8301 493.973C92.7324 493.742 92.584 493.57 92.3848 493.457C92.1895 493.34 91.9414 493.281 91.6406 493.281C91.2148 493.281 90.873 493.369 90.6152 493.545C90.3574 493.721 90.1699 493.982 90.0527 494.33C89.9395 494.674 89.8828 495.098 89.8828 495.602V499H88.9102V492.578H89.6953L89.8418 493.486H89.8945C90.0234 493.264 90.1855 493.076 90.3809 492.924C90.5762 492.771 90.7949 492.656 91.0371 492.578C91.2793 492.5 91.5371 492.461 91.8105 492.461C92.2988 492.461 92.707 492.553 93.0352 492.736C93.3672 492.916 93.6074 493.191 93.7559 493.562H93.8086C94.0195 493.191 94.3086 492.916 94.6758 492.736C95.043 492.553 95.4453 492.461 95.8828 492.461ZM106.992 492.461C107.699 492.461 108.232 492.646 108.592 493.018C108.951 493.385 109.131 493.977 109.131 494.793V499H108.17V494.84C108.17 494.32 108.057 493.932 107.83 493.674C107.607 493.412 107.275 493.281 106.834 493.281C106.213 493.281 105.762 493.461 105.48 493.82C105.199 494.18 105.059 494.709 105.059 495.408V499H104.092V494.84C104.092 494.492 104.041 494.203 103.939 493.973C103.842 493.742 103.693 493.57 103.494 493.457C103.299 493.34 103.051 493.281 102.75 493.281C102.324 493.281 101.982 493.369 101.725 493.545C101.467 493.721 101.279 493.982 101.162 494.33C101.049 494.674 100.992 495.098 100.992 495.602V499H100.02V492.578H100.805L100.951 493.486H101.004C101.133 493.264 101.295 493.076 101.49 492.924C101.686 492.771 101.904 492.656 102.146 492.578C102.389 492.5 102.646 492.461 102.92 492.461C103.408 492.461 103.816 492.553 104.145 492.736C104.477 492.916 104.717 493.191 104.865 493.562H104.918C105.129 493.191 105.418 492.916 105.785 492.736C106.152 492.553 106.555 492.461 106.992 492.461ZM113.602 492.461C114.148 492.461 114.617 492.582 115.008 492.824C115.398 493.066 115.697 493.406 115.904 493.844C116.111 494.277 116.215 494.785 116.215 495.367V495.971H111.779C111.791 496.725 111.979 497.299 112.342 497.693C112.705 498.088 113.217 498.285 113.877 498.285C114.283 498.285 114.643 498.248 114.955 498.174C115.268 498.1 115.592 497.99 115.928 497.846V498.701C115.604 498.846 115.281 498.951 114.961 499.018C114.645 499.084 114.27 499.117 113.836 499.117C113.219 499.117 112.68 498.992 112.219 498.742C111.762 498.488 111.406 498.117 111.152 497.629C110.898 497.141 110.771 496.543 110.771 495.836C110.771 495.145 110.887 494.547 111.117 494.043C111.352 493.535 111.68 493.145 112.102 492.871C112.527 492.598 113.027 492.461 113.602 492.461ZM113.59 493.258C113.07 493.258 112.656 493.428 112.348 493.768C112.039 494.107 111.855 494.582 111.797 495.191H115.195C115.191 494.809 115.131 494.473 115.014 494.184C114.9 493.891 114.727 493.664 114.492 493.504C114.258 493.34 113.957 493.258 113.59 493.258ZM120.785 492.461C120.914 492.461 121.049 492.469 121.189 492.484C121.33 492.496 121.455 492.514 121.564 492.537L121.441 493.439C121.336 493.412 121.219 493.391 121.09 493.375C120.961 493.359 120.84 493.352 120.727 493.352C120.469 493.352 120.225 493.404 119.994 493.51C119.768 493.611 119.568 493.76 119.396 493.955C119.225 494.146 119.09 494.379 118.992 494.652C118.895 494.922 118.846 495.223 118.846 495.555V499H117.867V492.578H118.676L118.781 493.762H118.822C118.955 493.523 119.115 493.307 119.303 493.111C119.49 492.912 119.707 492.754 119.953 492.637C120.203 492.52 120.48 492.461 120.785 492.461Z" fill="#6A6A6A"/>
<path d="M247.096 492.449C247.096 492.996 246.941 493.443 246.633 493.791C246.328 494.139 245.895 494.371 245.332 494.488V494.535C246.02 494.621 246.529 494.84 246.861 495.191C247.193 495.543 247.359 496.004 247.359 496.574C247.359 497.391 247.076 498.02 246.51 498.461C245.943 498.898 245.139 499.117 244.096 499.117C243.643 499.117 243.227 499.082 242.848 499.012C242.473 498.945 242.107 498.826 241.752 498.654V497.729C242.123 497.912 242.518 498.053 242.936 498.15C243.357 498.244 243.756 498.291 244.131 498.291C245.611 498.291 246.352 497.711 246.352 496.551C246.352 495.512 245.535 494.992 243.902 494.992H243.059V494.154H243.914C244.582 494.154 245.111 494.008 245.502 493.715C245.893 493.418 246.088 493.008 246.088 492.484C246.088 492.066 245.943 491.738 245.654 491.5C245.369 491.262 244.98 491.143 244.488 491.143C244.113 491.143 243.76 491.193 243.428 491.295C243.096 491.396 242.717 491.584 242.291 491.857L241.799 491.201C242.15 490.924 242.555 490.707 243.012 490.551C243.473 490.391 243.957 490.311 244.465 490.311C245.297 490.311 245.943 490.502 246.404 490.885C246.865 491.264 247.096 491.785 247.096 492.449ZM248.561 496.229V495.338H251.438V496.229H248.561ZM258.305 499H252.416V498.221L256.963 491.33H252.557V490.434H258.176V491.213L253.629 498.098H258.305V499ZM260.795 499H259.822V492.578H260.795V499ZM259.74 490.838C259.74 490.615 259.795 490.453 259.904 490.352C260.014 490.246 260.15 490.193 260.314 490.193C260.471 490.193 260.605 490.246 260.719 490.352C260.832 490.457 260.889 490.619 260.889 490.838C260.889 491.057 260.832 491.221 260.719 491.33C260.605 491.436 260.471 491.488 260.314 491.488C260.15 491.488 260.014 491.436 259.904 491.33C259.795 491.221 259.74 491.057 259.74 490.838ZM271.043 499V494.822C271.043 494.311 270.934 493.928 270.715 493.674C270.496 493.416 270.156 493.287 269.695 493.287C269.09 493.287 268.643 493.461 268.354 493.809C268.064 494.156 267.92 494.691 267.92 495.414V499H266.947V494.822C266.947 494.311 266.838 493.928 266.619 493.674C266.4 493.416 266.059 493.287 265.594 493.287C264.984 493.287 264.537 493.471 264.252 493.838C263.971 494.201 263.83 494.799 263.83 495.631V499H262.857V492.578H263.648L263.807 493.457H263.854C264.037 493.145 264.295 492.9 264.627 492.725C264.963 492.549 265.338 492.461 265.752 492.461C266.756 492.461 267.412 492.824 267.721 493.551H267.768C267.959 493.215 268.236 492.949 268.6 492.754C268.963 492.559 269.377 492.461 269.842 492.461C270.568 492.461 271.111 492.648 271.471 493.023C271.834 493.395 272.016 493.99 272.016 494.811V499H271.043ZM282.211 499V494.822C282.211 494.311 282.102 493.928 281.883 493.674C281.664 493.416 281.324 493.287 280.863 493.287C280.258 493.287 279.811 493.461 279.521 493.809C279.232 494.156 279.088 494.691 279.088 495.414V499H278.115V494.822C278.115 494.311 278.006 493.928 277.787 493.674C277.568 493.416 277.227 493.287 276.762 493.287C276.152 493.287 275.705 493.471 275.42 493.838C275.139 494.201 274.998 494.799 274.998 495.631V499H274.025V492.578H274.816L274.975 493.457H275.021C275.205 493.145 275.463 492.9 275.795 492.725C276.131 492.549 276.506 492.461 276.92 492.461C277.924 492.461 278.58 492.824 278.889 493.551H278.936C279.127 493.215 279.404 492.949 279.768 492.754C280.131 492.559 280.545 492.461 281.01 492.461C281.736 492.461 282.279 492.648 282.639 493.023C283.002 493.395 283.184 493.99 283.184 494.811V499H282.211ZM287.906 499.117C286.957 499.117 286.207 498.828 285.656 498.25C285.109 497.672 284.836 496.869 284.836 495.842C284.836 494.807 285.09 493.984 285.598 493.375C286.109 492.766 286.795 492.461 287.654 492.461C288.459 492.461 289.096 492.727 289.564 493.258C290.033 493.785 290.268 494.482 290.268 495.35V495.965H285.844C285.863 496.719 286.053 497.291 286.412 497.682C286.775 498.072 287.285 498.268 287.941 498.268C288.633 498.268 289.316 498.123 289.992 497.834V498.701C289.648 498.85 289.322 498.955 289.014 499.018C288.709 499.084 288.34 499.117 287.906 499.117ZM287.643 493.275C287.127 493.275 286.715 493.443 286.406 493.779C286.102 494.115 285.922 494.58 285.867 495.174H289.225C289.225 494.561 289.088 494.092 288.814 493.768C288.541 493.439 288.15 493.275 287.643 493.275ZM294.861 492.461C295.146 492.461 295.402 492.484 295.629 492.531L295.494 493.434C295.229 493.375 294.994 493.346 294.791 493.346C294.271 493.346 293.826 493.557 293.455 493.979C293.088 494.4 292.904 494.926 292.904 495.555V499H291.932V492.578H292.734L292.846 493.768H292.893C293.131 493.35 293.418 493.027 293.754 492.801C294.09 492.574 294.459 492.461 294.861 492.461Z" fill="#6A6A6A"/>
<path d="M421.322 497.031H420.051V499H419.119V497.031H414.953V496.182L419.02 490.387H420.051V496.146H421.322V497.031ZM419.119 496.146V493.299C419.119 492.74 419.139 492.109 419.178 491.406H419.131C418.943 491.781 418.768 492.092 418.604 492.338L415.926 496.146H419.119ZM422.061 496.229V495.338H424.938V496.229H422.061ZM431.805 499H425.916V498.221L430.463 491.33H426.057V490.434H431.676V491.213L427.129 498.098H431.805V499ZM434.295 499H433.322V492.578H434.295V499ZM433.24 490.838C433.24 490.615 433.295 490.453 433.404 490.352C433.514 490.246 433.65 490.193 433.814 490.193C433.971 490.193 434.105 490.246 434.219 490.352C434.332 490.457 434.389 490.619 434.389 490.838C434.389 491.057 434.332 491.221 434.219 491.33C434.105 491.436 433.971 491.488 433.814 491.488C433.65 491.488 433.514 491.436 433.404 491.33C433.295 491.221 433.24 491.057 433.24 490.838ZM444.543 499V494.822C444.543 494.311 444.434 493.928 444.215 493.674C443.996 493.416 443.656 493.287 443.195 493.287C442.59 493.287 442.143 493.461 441.854 493.809C441.564 494.156 441.42 494.691 441.42 495.414V499H440.447V494.822C440.447 494.311 440.338 493.928 440.119 493.674C439.9 493.416 439.559 493.287 439.094 493.287C438.484 493.287 438.037 493.471 437.752 493.838C437.471 494.201 437.33 494.799 437.33 495.631V499H436.357V492.578H437.148L437.307 493.457H437.354C437.537 493.145 437.795 492.9 438.127 492.725C438.463 492.549 438.838 492.461 439.252 492.461C440.256 492.461 440.912 492.824 441.221 493.551H441.268C441.459 493.215 441.736 492.949 442.1 492.754C442.463 492.559 442.877 492.461 443.342 492.461C444.068 492.461 444.611 492.648 444.971 493.023C445.334 493.395 445.516 493.99 445.516 494.811V499H444.543ZM455.711 499V494.822C455.711 494.311 455.602 493.928 455.383 493.674C455.164 493.416 454.824 493.287 454.363 493.287C453.758 493.287 453.311 493.461 453.021 493.809C452.732 494.156 452.588 494.691 452.588 495.414V499H451.615V494.822C451.615 494.311 451.506 493.928 451.287 493.674C451.068 493.416 450.727 493.287 450.262 493.287C449.652 493.287 449.205 493.471 448.92 493.838C448.639 494.201 448.498 494.799 448.498 495.631V499H447.525V492.578H448.316L448.475 493.457H448.521C448.705 493.145 448.963 492.9 449.295 492.725C449.631 492.549 450.006 492.461 450.42 492.461C451.424 492.461 452.08 492.824 452.389 493.551H452.436C452.627 493.215 452.904 492.949 453.268 492.754C453.631 492.559 454.045 492.461 454.51 492.461C455.236 492.461 455.779 492.648 456.139 493.023C456.502 493.395 456.684 493.99 456.684 494.811V499H455.711ZM461.406 499.117C460.457 499.117 459.707 498.828 459.156 498.25C458.609 497.672 458.336 496.869 458.336 495.842C458.336 494.807 458.59 493.984 459.098 493.375C459.609 492.766 460.295 492.461 461.154 492.461C461.959 492.461 462.596 492.727 463.064 493.258C463.533 493.785 463.768 494.482 463.768 495.35V495.965H459.344C459.363 496.719 459.553 497.291 459.912 497.682C460.275 498.072 460.785 498.268 461.441 498.268C462.133 498.268 462.816 498.123 463.492 497.834V498.701C463.148 498.85 462.822 498.955 462.514 499.018C462.209 499.084 461.84 499.117 461.406 499.117ZM461.143 493.275C460.627 493.275 460.215 493.443 459.906 493.779C459.602 494.115 459.422 494.58 459.367 495.174H462.725C462.725 494.561 462.588 494.092 462.314 493.768C462.041 493.439 461.65 493.275 461.143 493.275ZM468.361 492.461C468.646 492.461 468.902 492.484 469.129 492.531L468.994 493.434C468.729 493.375 468.494 493.346 468.291 493.346C467.771 493.346 467.326 493.557 466.955 493.979C466.588 494.4 466.404 494.926 466.404 495.555V499H465.432V492.578H466.234L466.346 493.768H466.393C466.631 493.35 466.918 493.027 467.254 492.801C467.59 492.574 467.959 492.461 468.361 492.461Z" fill="#6A6A6A"/>
<path d="M147.945 8.51172H150.857V12.6777C150.404 12.8223 149.943 12.9316 149.475 13.0059C149.006 13.0801 148.463 13.1172 147.846 13.1172C146.549 13.1172 145.539 12.7324 144.816 11.9629C144.094 11.1895 143.732 10.1074 143.732 8.7168C143.732 7.82617 143.91 7.04688 144.266 6.37891C144.625 5.70703 145.141 5.19531 145.812 4.84375C146.484 4.48828 147.271 4.31055 148.174 4.31055C149.088 4.31055 149.939 4.47852 150.729 4.81445L150.342 5.69336C149.568 5.36523 148.824 5.20117 148.109 5.20117C147.066 5.20117 146.252 5.51172 145.666 6.13281C145.08 6.75391 144.787 7.61523 144.787 8.7168C144.787 9.87305 145.068 10.75 145.631 11.3477C146.197 11.9453 147.027 12.2441 148.121 12.2441C148.715 12.2441 149.295 12.1758 149.861 12.0391V9.40234H147.945V8.51172ZM155.486 13.1172C154.537 13.1172 153.787 12.8281 153.236 12.25C152.689 11.6719 152.416 10.8691 152.416 9.8418C152.416 8.80664 152.67 7.98438 153.178 7.375C153.689 6.76562 154.375 6.46094 155.234 6.46094C156.039 6.46094 156.676 6.72656 157.145 7.25781C157.613 7.78516 157.848 8.48242 157.848 9.34961V9.96484H153.424C153.443 10.7188 153.633 11.291 153.992 11.6816C154.355 12.0723 154.865 12.2676 155.521 12.2676C156.213 12.2676 156.896 12.123 157.572 11.834V12.7012C157.229 12.8496 156.902 12.9551 156.594 13.0176C156.289 13.084 155.92 13.1172 155.486 13.1172ZM155.223 7.27539C154.707 7.27539 154.295 7.44336 153.986 7.7793C153.682 8.11523 153.502 8.58008 153.447 9.17383H156.805C156.805 8.56055 156.668 8.0918 156.395 7.76758C156.121 7.43945 155.73 7.27539 155.223 7.27539ZM167.697 13V8.82227C167.697 8.31055 167.588 7.92773 167.369 7.67383C167.15 7.41602 166.811 7.28711 166.35 7.28711C165.744 7.28711 165.297 7.46094 165.008 7.80859C164.719 8.15625 164.574 8.69141 164.574 9.41406V13H163.602V8.82227C163.602 8.31055 163.492 7.92773 163.273 7.67383C163.055 7.41602 162.713 7.28711 162.248 7.28711C161.639 7.28711 161.191 7.4707 160.906 7.83789C160.625 8.20117 160.484 8.79883 160.484 9.63086V13H159.512V6.57812H160.303L160.461 7.45703H160.508C160.691 7.14453 160.949 6.90039 161.281 6.72461C161.617 6.54883 161.992 6.46094 162.406 6.46094C163.41 6.46094 164.066 6.82422 164.375 7.55078H164.422C164.613 7.21484 164.891 6.94922 165.254 6.75391C165.617 6.55859 166.031 6.46094 166.496 6.46094C167.223 6.46094 167.766 6.64844 168.125 7.02344C168.488 7.39453 168.67 7.99023 168.67 8.81055V13H167.697ZM173.393 13.1172C172.443 13.1172 171.693 12.8281 171.143 12.25C170.596 11.6719 170.322 10.8691 170.322 9.8418C170.322 8.80664 170.576 7.98438 171.084 7.375C171.596 6.76562 172.281 6.46094 173.141 6.46094C173.945 6.46094 174.582 6.72656 175.051 7.25781C175.52 7.78516 175.754 8.48242 175.754 9.34961V9.96484H171.33C171.35 10.7188 171.539 11.291 171.898 11.6816C172.262 12.0723 172.771 12.2676 173.428 12.2676C174.119 12.2676 174.803 12.123 175.479 11.834V12.7012C175.135 12.8496 174.809 12.9551 174.5 13.0176C174.195 13.084 173.826 13.1172 173.393 13.1172ZM173.129 7.27539C172.613 7.27539 172.201 7.44336 171.893 7.7793C171.588 8.11523 171.408 8.58008 171.354 9.17383H174.711C174.711 8.56055 174.574 8.0918 174.301 7.76758C174.027 7.43945 173.637 7.27539 173.129 7.27539ZM178.391 13H177.418V6.57812H178.391V13ZM177.336 4.83789C177.336 4.61523 177.391 4.45312 177.5 4.35156C177.609 4.24609 177.746 4.19336 177.91 4.19336C178.066 4.19336 178.201 4.24609 178.314 4.35156C178.428 4.45703 178.484 4.61914 178.484 4.83789C178.484 5.05664 178.428 5.2207 178.314 5.33008C178.201 5.43555 178.066 5.48828 177.91 5.48828C177.746 5.48828 177.609 5.43555 177.5 5.33008C177.391 5.2207 177.336 5.05664 177.336 4.83789ZM184.848 13V8.8457C184.848 8.32227 184.729 7.93164 184.49 7.67383C184.252 7.41602 183.879 7.28711 183.371 7.28711C182.699 7.28711 182.207 7.46875 181.895 7.83203C181.582 8.19531 181.426 8.79492 181.426 9.63086V13H180.453V6.57812H181.244L181.402 7.45703H181.449C181.648 7.14062 181.928 6.89648 182.287 6.72461C182.646 6.54883 183.047 6.46094 183.488 6.46094C184.262 6.46094 184.844 6.64844 185.234 7.02344C185.625 7.39453 185.82 7.99023 185.82 8.81055V13H184.848ZM192.219 13V8.8457C192.219 8.32227 192.1 7.93164 191.861 7.67383C191.623 7.41602 191.25 7.28711 190.742 7.28711C190.07 7.28711 189.578 7.46875 189.266 7.83203C188.953 8.19531 188.797 8.79492 188.797 9.63086V13H187.824V6.57812H188.615L188.773 7.45703H188.82C189.02 7.14062 189.299 6.89648 189.658 6.72461C190.018 6.54883 190.418 6.46094 190.859 6.46094C191.633 6.46094 192.215 6.64844 192.605 7.02344C192.996 7.39453 193.191 7.99023 193.191 8.81055V13H192.219ZM196.109 6.57812V10.7441C196.109 11.2676 196.229 11.6582 196.467 11.916C196.705 12.1738 197.078 12.3027 197.586 12.3027C198.258 12.3027 198.748 12.1191 199.057 11.752C199.369 11.3848 199.525 10.7852 199.525 9.95312V6.57812H200.498V13H199.695L199.555 12.1387H199.502C199.303 12.4551 199.025 12.6973 198.67 12.8652C198.318 13.0332 197.916 13.1172 197.463 13.1172C196.682 13.1172 196.096 12.9316 195.705 12.5605C195.318 12.1895 195.125 11.5957 195.125 10.7793V6.57812H196.109ZM196.168 4.83789C196.168 4.63477 196.219 4.48828 196.32 4.39844C196.426 4.30859 196.551 4.26367 196.695 4.26367C196.844 4.26367 196.971 4.30859 197.076 4.39844C197.186 4.48828 197.24 4.63477 197.24 4.83789C197.24 5.0332 197.186 5.17969 197.076 5.27734C196.971 5.37109 196.844 5.41797 196.695 5.41797C196.551 5.41797 196.426 5.37109 196.32 5.27734C196.219 5.17969 196.168 5.0332 196.168 4.83789ZM198.4 4.83789C198.4 4.63477 198.451 4.48828 198.553 4.39844C198.658 4.30859 198.783 4.26367 198.928 4.26367C199.072 4.26367 199.197 4.30859 199.303 4.39844C199.412 4.48828 199.467 4.63477 199.467 4.83789C199.467 5.0332 199.412 5.17969 199.303 5.27734C199.197 5.37109 199.072 5.41797 198.928 5.41797C198.783 5.41797 198.658 5.37109 198.553 5.27734C198.451 5.17969 198.4 5.0332 198.4 4.83789ZM204.641 12.3145C204.812 12.3145 204.979 12.3027 205.139 12.2793C205.299 12.252 205.426 12.2246 205.52 12.1973V12.9414C205.414 12.9922 205.258 13.0332 205.051 13.0645C204.848 13.0996 204.664 13.1172 204.5 13.1172C203.258 13.1172 202.637 12.4629 202.637 11.1543V7.33398H201.717V6.86523L202.637 6.46094L203.047 5.08984H203.609V6.57812H205.473V7.33398H203.609V11.1133C203.609 11.5 203.701 11.7969 203.885 12.0039C204.068 12.2109 204.32 12.3145 204.641 12.3145ZM210.916 13H206.258V12.3379L209.762 7.33398H206.475V6.57812H210.828V7.33398L207.371 12.2441H210.916V13ZM213.395 13H212.422V6.57812H213.395V13ZM212.34 4.83789C212.34 4.61523 212.395 4.45312 212.504 4.35156C212.613 4.24609 212.75 4.19336 212.914 4.19336C213.07 4.19336 213.205 4.24609 213.318 4.35156C213.432 4.45703 213.488 4.61914 213.488 4.83789C213.488 5.05664 213.432 5.2207 213.318 5.33008C213.205 5.43555 213.07 5.48828 212.914 5.48828C212.75 5.48828 212.613 5.43555 212.504 5.33008C212.395 5.2207 212.34 5.05664 212.34 4.83789ZM220.713 6.57812V7.19336L219.523 7.33398C219.633 7.4707 219.73 7.65039 219.816 7.87305C219.902 8.0918 219.945 8.33984 219.945 8.61719C219.945 9.24609 219.73 9.74805 219.301 10.123C218.871 10.498 218.281 10.6855 217.531 10.6855C217.34 10.6855 217.16 10.6699 216.992 10.6387C216.578 10.8574 216.371 11.1328 216.371 11.4648C216.371 11.6406 216.443 11.7715 216.588 11.8574C216.732 11.9395 216.98 11.9805 217.332 11.9805H218.469C219.164 11.9805 219.697 12.127 220.068 12.4199C220.443 12.7129 220.631 13.1387 220.631 13.6973C220.631 14.4082 220.346 14.9492 219.775 15.3203C219.205 15.6953 218.373 15.8828 217.279 15.8828C216.439 15.8828 215.791 15.7266 215.334 15.4141C214.881 15.1016 214.654 14.6602 214.654 14.0898C214.654 13.6992 214.779 13.3613 215.029 13.0762C215.279 12.791 215.631 12.5977 216.084 12.4961C215.92 12.4219 215.781 12.3066 215.668 12.1504C215.559 11.9941 215.504 11.8125 215.504 11.6055C215.504 11.3711 215.566 11.166 215.691 10.9902C215.816 10.8145 216.014 10.6445 216.283 10.4805C215.951 10.3438 215.68 10.1113 215.469 9.7832C215.262 9.45508 215.158 9.08008 215.158 8.6582C215.158 7.95508 215.369 7.41406 215.791 7.03516C216.213 6.65234 216.811 6.46094 217.584 6.46094C217.92 6.46094 218.223 6.5 218.492 6.57812H220.713ZM215.592 14.0781C215.592 14.4258 215.738 14.6895 216.031 14.8691C216.324 15.0488 216.744 15.1387 217.291 15.1387C218.107 15.1387 218.711 15.0156 219.102 14.7695C219.496 14.5273 219.693 14.1973 219.693 13.7793C219.693 13.4316 219.586 13.1895 219.371 13.0527C219.156 12.9199 218.752 12.8535 218.158 12.8535H216.992C216.551 12.8535 216.207 12.959 215.961 13.1699C215.715 13.3809 215.592 13.6836 215.592 14.0781ZM216.119 8.63477C216.119 9.08398 216.246 9.42383 216.5 9.6543C216.754 9.88477 217.107 10 217.561 10C218.51 10 218.984 9.53906 218.984 8.61719C218.984 7.65234 218.504 7.16992 217.543 7.16992C217.086 7.16992 216.734 7.29297 216.488 7.53906C216.242 7.78516 216.119 8.15039 216.119 8.63477Z" fill="#6A6A6A"/>
<rect x="110.5" y="3.5" width="26" height="9" fill="#C51E1E" fill-opacity="0.5" stroke="#C51E1E"/>
<path d="M269.174 9.4375V13H268.178V4.43359H270.527C271.578 4.43359 272.354 4.63477 272.854 5.03711C273.357 5.43945 273.609 6.04492 273.609 6.85352C273.609 7.98633 273.035 8.75195 271.887 9.15039L274.213 13H273.035L270.961 9.4375H269.174ZM269.174 8.58203H270.539C271.242 8.58203 271.758 8.44336 272.086 8.16602C272.414 7.88477 272.578 7.46484 272.578 6.90625C272.578 6.33984 272.41 5.93164 272.074 5.68164C271.742 5.43164 271.207 5.30664 270.469 5.30664H269.174V8.58203ZM278.162 13.1172C277.213 13.1172 276.463 12.8281 275.912 12.25C275.365 11.6719 275.092 10.8691 275.092 9.8418C275.092 8.80664 275.346 7.98438 275.854 7.375C276.365 6.76562 277.051 6.46094 277.91 6.46094C278.715 6.46094 279.352 6.72656 279.82 7.25781C280.289 7.78516 280.523 8.48242 280.523 9.34961V9.96484H276.1C276.119 10.7188 276.309 11.291 276.668 11.6816C277.031 12.0723 277.541 12.2676 278.197 12.2676C278.889 12.2676 279.572 12.123 280.248 11.834V12.7012C279.904 12.8496 279.578 12.9551 279.27 13.0176C278.965 13.084 278.596 13.1172 278.162 13.1172ZM277.898 7.27539C277.383 7.27539 276.971 7.44336 276.662 7.7793C276.357 8.11523 276.178 8.58008 276.123 9.17383H279.48C279.48 8.56055 279.344 8.0918 279.07 7.76758C278.797 7.43945 278.406 7.27539 277.898 7.27539ZM286.582 13V8.8457C286.582 8.32227 286.463 7.93164 286.225 7.67383C285.986 7.41602 285.613 7.28711 285.105 7.28711C284.434 7.28711 283.941 7.46875 283.629 7.83203C283.316 8.19531 283.16 8.79492 283.16 9.63086V13H282.188V6.57812H282.979L283.137 7.45703H283.184C283.383 7.14062 283.662 6.89648 284.021 6.72461C284.381 6.54883 284.781 6.46094 285.223 6.46094C285.996 6.46094 286.578 6.64844 286.969 7.02344C287.359 7.39453 287.555 7.99023 287.555 8.81055V13H286.582ZM293.93 12.1387H293.877C293.428 12.791 292.756 13.1172 291.861 13.1172C291.021 13.1172 290.367 12.8301 289.898 12.2559C289.434 11.6816 289.201 10.8652 289.201 9.80664C289.201 8.74805 289.436 7.92578 289.904 7.33984C290.373 6.75391 291.025 6.46094 291.861 6.46094C292.732 6.46094 293.4 6.77734 293.865 7.41016H293.941L293.9 6.94727L293.877 6.49609V3.88281H294.85V13H294.059L293.93 12.1387ZM291.984 12.3027C292.648 12.3027 293.129 12.123 293.426 11.7637C293.727 11.4004 293.877 10.8164 293.877 10.0117V9.80664C293.877 8.89648 293.725 8.24805 293.42 7.86133C293.119 7.4707 292.637 7.27539 291.973 7.27539C291.402 7.27539 290.965 7.49805 290.66 7.94336C290.359 8.38477 290.209 9.00977 290.209 9.81836C290.209 10.6387 290.359 11.2578 290.66 11.6758C290.961 12.0938 291.402 12.3027 291.984 12.3027ZM297.891 13H296.918V6.57812H297.891V13ZM296.836 4.83789C296.836 4.61523 296.891 4.45312 297 4.35156C297.109 4.24609 297.246 4.19336 297.41 4.19336C297.566 4.19336 297.701 4.24609 297.814 4.35156C297.928 4.45703 297.984 4.61914 297.984 4.83789C297.984 5.05664 297.928 5.2207 297.814 5.33008C297.701 5.43555 297.566 5.48828 297.41 5.48828C297.246 5.48828 297.109 5.43555 297 5.33008C296.891 5.2207 296.836 5.05664 296.836 4.83789ZM302.027 12.3145C302.199 12.3145 302.365 12.3027 302.525 12.2793C302.686 12.252 302.812 12.2246 302.906 12.1973V12.9414C302.801 12.9922 302.645 13.0332 302.438 13.0645C302.234 13.0996 302.051 13.1172 301.887 13.1172C300.645 13.1172 300.023 12.4629 300.023 11.1543V7.33398H299.104V6.86523L300.023 6.46094L300.434 5.08984H300.996V6.57812H302.859V7.33398H300.996V11.1133C300.996 11.5 301.088 11.7969 301.271 12.0039C301.455 12.2109 301.707 12.3145 302.027 12.3145ZM306.908 13.1172C305.959 13.1172 305.209 12.8281 304.658 12.25C304.111 11.6719 303.838 10.8691 303.838 9.8418C303.838 8.80664 304.092 7.98438 304.6 7.375C305.111 6.76562 305.797 6.46094 306.656 6.46094C307.461 6.46094 308.098 6.72656 308.566 7.25781C309.035 7.78516 309.27 8.48242 309.27 9.34961V9.96484H304.846C304.865 10.7188 305.055 11.291 305.414 11.6816C305.777 12.0723 306.287 12.2676 306.943 12.2676C307.635 12.2676 308.318 12.123 308.994 11.834V12.7012C308.65 12.8496 308.324 12.9551 308.016 13.0176C307.711 13.084 307.342 13.1172 306.908 13.1172ZM306.645 7.27539C306.129 7.27539 305.717 7.44336 305.408 7.7793C305.104 8.11523 304.924 8.58008 304.869 9.17383H308.227C308.227 8.56055 308.09 8.0918 307.816 7.76758C307.543 7.43945 307.152 7.27539 306.645 7.27539ZM316.477 9.7832C316.477 10.8301 316.213 11.6484 315.686 12.2383C315.158 12.8242 314.43 13.1172 313.5 13.1172C312.926 13.1172 312.416 12.9824 311.971 12.7129C311.525 12.4434 311.182 12.0566 310.939 11.5527C310.697 11.0488 310.576 10.459 310.576 9.7832C310.576 8.73633 310.838 7.92188 311.361 7.33984C311.885 6.75391 312.611 6.46094 313.541 6.46094C314.439 6.46094 315.152 6.75977 315.68 7.35742C316.211 7.95508 316.477 8.76367 316.477 9.7832ZM311.584 9.7832C311.584 10.6035 311.748 11.2285 312.076 11.6582C312.404 12.0879 312.887 12.3027 313.523 12.3027C314.16 12.3027 314.643 12.0898 314.971 11.6641C315.303 11.2344 315.469 10.6074 315.469 9.7832C315.469 8.9668 315.303 8.34766 314.971 7.92578C314.643 7.5 314.156 7.28711 313.512 7.28711C312.875 7.28711 312.395 7.49609 312.07 7.91406C311.746 8.33203 311.584 8.95508 311.584 9.7832ZM321.117 6.46094C321.402 6.46094 321.658 6.48438 321.885 6.53125L321.75 7.43359C321.484 7.375 321.25 7.3457 321.047 7.3457C320.527 7.3457 320.082 7.55664 319.711 7.97852C319.344 8.40039 319.16 8.92578 319.16 9.55469V13H318.188V6.57812H318.99L319.102 7.76758H319.148C319.387 7.34961 319.674 7.02734 320.01 6.80078C320.346 6.57422 320.715 6.46094 321.117 6.46094ZM324.059 13H323.086V6.57812H324.059V13ZM323.004 4.83789C323.004 4.61523 323.059 4.45312 323.168 4.35156C323.277 4.24609 323.414 4.19336 323.578 4.19336C323.734 4.19336 323.869 4.24609 323.982 4.35156C324.096 4.45703 324.152 4.61914 324.152 4.83789C324.152 5.05664 324.096 5.2207 323.982 5.33008C323.869 5.43555 323.734 5.48828 323.578 5.48828C323.414 5.48828 323.277 5.43555 323.168 5.33008C323.059 5.2207 323.004 5.05664 323.004 4.83789ZM328.834 13.1172C327.885 13.1172 327.135 12.8281 326.584 12.25C326.037 11.6719 325.764 10.8691 325.764 9.8418C325.764 8.80664 326.018 7.98438 326.525 7.375C327.037 6.76562 327.723 6.46094 328.582 6.46094C329.387 6.46094 330.023 6.72656 330.492 7.25781C330.961 7.78516 331.195 8.48242 331.195 9.34961V9.96484H326.771C326.791 10.7188 326.98 11.291 327.34 11.6816C327.703 12.0723 328.213 12.2676 328.869 12.2676C329.561 12.2676 330.244 12.123 330.92 11.834V12.7012C330.576 12.8496 330.25 12.9551 329.941 13.0176C329.637 13.084 329.268 13.1172 328.834 13.1172ZM328.57 7.27539C328.055 7.27539 327.643 7.44336 327.334 7.7793C327.029 8.11523 326.85 8.58008 326.795 9.17383H330.152C330.152 8.56055 330.016 8.0918 329.742 7.76758C329.469 7.43945 329.078 7.27539 328.57 7.27539ZM337.254 13V8.8457C337.254 8.32227 337.135 7.93164 336.896 7.67383C336.658 7.41602 336.285 7.28711 335.777 7.28711C335.105 7.28711 334.613 7.46875 334.301 7.83203C333.988 8.19531 333.832 8.79492 333.832 9.63086V13H332.859V6.57812H333.65L333.809 7.45703H333.855C334.055 7.14062 334.334 6.89648 334.693 6.72461C335.053 6.54883 335.453 6.46094 335.895 6.46094C336.668 6.46094 337.25 6.64844 337.641 7.02344C338.031 7.39453 338.227 7.99023 338.227 8.81055V13H337.254ZM342.305 12.3145C342.477 12.3145 342.643 12.3027 342.803 12.2793C342.963 12.252 343.09 12.2246 343.184 12.1973V12.9414C343.078 12.9922 342.922 13.0332 342.715 13.0645C342.512 13.0996 342.328 13.1172 342.164 13.1172C340.922 13.1172 340.301 12.4629 340.301 11.1543V7.33398H339.381V6.86523L340.301 6.46094L340.711 5.08984H341.273V6.57812H343.137V7.33398H341.273V11.1133C341.273 11.5 341.365 11.7969 341.549 12.0039C341.732 12.2109 341.984 12.3145 342.305 12.3145ZM345.445 13H344.473V6.57812H345.445V13ZM344.391 4.83789C344.391 4.61523 344.445 4.45312 344.555 4.35156C344.664 4.24609 344.801 4.19336 344.965 4.19336C345.121 4.19336 345.256 4.24609 345.369 4.35156C345.482 4.45703 345.539 4.61914 345.539 4.83789C345.539 5.05664 345.482 5.2207 345.369 5.33008C345.256 5.43555 345.121 5.48828 344.965 5.48828C344.801 5.48828 344.664 5.43555 344.555 5.33008C344.445 5.2207 344.391 5.05664 344.391 4.83789ZM350.221 13.1172C349.271 13.1172 348.521 12.8281 347.971 12.25C347.424 11.6719 347.15 10.8691 347.15 9.8418C347.15 8.80664 347.404 7.98438 347.912 7.375C348.424 6.76562 349.109 6.46094 349.969 6.46094C350.773 6.46094 351.41 6.72656 351.879 7.25781C352.348 7.78516 352.582 8.48242 352.582 9.34961V9.96484H348.158C348.178 10.7188 348.367 11.291 348.727 11.6816C349.09 12.0723 349.6 12.2676 350.256 12.2676C350.947 12.2676 351.631 12.123 352.307 11.834V12.7012C351.963 12.8496 351.637 12.9551 351.328 13.0176C351.023 13.084 350.654 13.1172 350.221 13.1172ZM349.957 7.27539C349.441 7.27539 349.029 7.44336 348.721 7.7793C348.416 8.11523 348.236 8.58008 348.182 9.17383H351.539C351.539 8.56055 351.402 8.0918 351.129 7.76758C350.855 7.43945 350.465 7.27539 349.957 7.27539ZM357.176 6.46094C357.461 6.46094 357.717 6.48438 357.943 6.53125L357.809 7.43359C357.543 7.375 357.309 7.3457 357.105 7.3457C356.586 7.3457 356.141 7.55664 355.77 7.97852C355.402 8.40039 355.219 8.92578 355.219 9.55469V13H354.246V6.57812H355.049L355.16 7.76758H355.207C355.445 7.34961 355.732 7.02734 356.068 6.80078C356.404 6.57422 356.773 6.46094 357.176 6.46094ZM361.219 12.3145C361.391 12.3145 361.557 12.3027 361.717 12.2793C361.877 12.252 362.004 12.2246 362.098 12.1973V12.9414C361.992 12.9922 361.836 13.0332 361.629 13.0645C361.426 13.0996 361.242 13.1172 361.078 13.1172C359.836 13.1172 359.215 12.4629 359.215 11.1543V7.33398H358.295V6.86523L359.215 6.46094L359.625 5.08984H360.188V6.57812H362.051V7.33398H360.188V11.1133C360.188 11.5 360.279 11.7969 360.463 12.0039C360.646 12.2109 360.898 12.3145 361.219 12.3145Z" fill="#6A6A6A"/>
<rect x="234.5" y="3.5" width="26" height="9" fill="#1F1F8F" fill-opacity="0.5" stroke="#1F1F8F"/>
<line x1="5.92992e-08" y1="467.34" x2="536" y2="467.34" stroke="#999999" stroke-opacity="0.5"/>
<line x1="7.5" y1="473" x2="7.50002" y2="72" stroke="#999999" stroke-opacity="0.5"/>
<line x1="181.5" y1="473" x2="181.5" y2="72" stroke="#999999" stroke-opacity="0.5"/>
<line x1="355.5" y1="473" x2="355.5" y2="72" stroke="#999999" stroke-opacity="0.5"/>
<line x1="528.5" y1="473" x2="528.5" y2="72" stroke="#999999" stroke-opacity="0.5"/>
<line x1="5.92992e-08" y1="441.54" x2="536" y2="441.54" stroke="#999999" stroke-opacity="0.5"/>
<line x1="5.92992e-08" y1="415.741" x2="536" y2="415.741" stroke="#999999" stroke-opacity="0.5"/>
<line x1="5.92992e-08" y1="389.941" x2="536" y2="389.941" stroke="#999999" stroke-opacity="0.5"/>
<line x1="5.92992e-08" y1="364.142" x2="536" y2="364.142" stroke="#999999" stroke-opacity="0.5"/>
<line x1="5.92992e-08" y1="338.342" x2="536" y2="338.342" stroke="#999999" stroke-opacity="0.5"/>
<line x1="5.92992e-08" y1="312.542" x2="536" y2="312.542" stroke="#999999" stroke-opacity="0.5"/>
<line x1="5.92992e-08" y1="286.743" x2="536" y2="286.743" stroke="#999999" stroke-opacity="0.5"/>
<line x1="5.92992e-08" y1="260.943" x2="536" y2="260.943" stroke="#999999" stroke-opacity="0.5"/>
<line x1="5.92992e-08" y1="235.143" x2="536" y2="235.143" stroke="#999999" stroke-opacity="0.5"/>
<line x1="5.92992e-08" y1="209.344" x2="536" y2="209.344" stroke="#999999" stroke-opacity="0.5"/>
<line x1="5.92992e-08" y1="183.544" x2="536" y2="183.544" stroke="#999999" stroke-opacity="0.5"/>
<line x1="5.92992e-08" y1="157.744" x2="536" y2="157.745" stroke="#999999" stroke-opacity="0.5"/>
<line x1="5.92992e-08" y1="131.945" x2="536" y2="131.945" stroke="#999999" stroke-opacity="0.5"/>
<line x1="5.92992e-08" y1="106.145" x2="536" y2="106.145" stroke="#999999" stroke-opacity="0.5"/>
<line x1="5.92992e-08" y1="80.3456" x2="536" y2="80.3456" stroke="#999999" stroke-opacity="0.5"/>
<rect width="69" height="377" transform="translate(442 90)" fill="#1F1F8F" fill-opacity="0.5"/>
<rect width="69" height="178.487" transform="translate(373 288.216)" fill="#C51E1E" fill-opacity="0.5"/>
<path d="M408.707 89.2929C408.317 88.9024 407.683 88.9024 407.293 89.2929L400.929 95.6569C400.538 96.0474 400.538 96.6805 400.929 97.0711C401.319 97.4616 401.953 97.4616 402.343 97.0711L408 91.4142L413.657 97.0711C414.047 97.4616 414.681 97.4616 415.071 97.0711C415.462 96.6805 415.462 96.0474 415.071 95.6569L408.707 89.2929ZM409 174.5L409 90L407 90L407 174.5L409 174.5Z" fill="#C51E1E"/>
<path d="M382.276 194.5H380.164V188.717C380.164 188.557 380.166 188.361 380.171 188.129C380.175 187.892 380.182 187.65 380.191 187.404C380.201 187.154 380.21 186.928 380.219 186.728C380.169 186.787 380.066 186.889 379.911 187.035C379.761 187.176 379.619 187.304 379.487 187.418L378.339 188.341L377.32 187.069L380.54 184.506H382.276V194.5ZM392.011 188.771C392.011 189.346 391.967 189.915 391.881 190.48C391.799 191.046 391.653 191.579 391.443 192.08C391.234 192.577 390.94 193.019 390.562 193.406C390.183 193.789 389.702 194.09 389.119 194.309C388.536 194.527 387.829 194.637 387 194.637C386.804 194.637 386.574 194.628 386.31 194.609C386.045 194.596 385.826 194.573 385.653 194.541V192.846C385.836 192.891 386.029 192.928 386.234 192.955C386.439 192.978 386.647 192.989 386.856 192.989C387.69 192.989 388.333 192.857 388.784 192.593C389.24 192.328 389.559 191.962 389.741 191.492C389.928 191.023 390.035 190.48 390.062 189.865H389.98C389.848 190.084 389.691 190.282 389.509 190.46C389.331 190.633 389.103 190.772 388.825 190.877C388.547 190.977 388.194 191.027 387.766 191.027C387.196 191.027 386.699 190.904 386.275 190.658C385.856 190.408 385.53 190.048 385.298 189.578C385.07 189.104 384.956 188.532 384.956 187.862C384.956 187.138 385.093 186.518 385.366 186.003C385.644 185.483 386.038 185.085 386.549 184.807C387.059 184.529 387.661 184.39 388.354 184.39C388.864 184.39 389.34 184.479 389.782 184.656C390.224 184.829 390.612 185.096 390.944 185.456C391.282 185.816 391.544 186.272 391.73 186.823C391.917 187.375 392.011 188.024 392.011 188.771ZM388.395 186.085C387.984 186.085 387.649 186.226 387.39 186.509C387.13 186.791 387 187.233 387 187.835C387 188.318 387.112 188.701 387.335 188.983C387.558 189.266 387.898 189.407 388.354 189.407C388.668 189.407 388.941 189.339 389.174 189.202C389.406 189.061 389.586 188.885 389.714 188.676C389.846 188.462 389.912 188.243 389.912 188.02C389.912 187.787 389.88 187.557 389.816 187.329C389.753 187.101 389.657 186.894 389.529 186.707C389.402 186.52 389.242 186.37 389.051 186.256C388.864 186.142 388.645 186.085 388.395 186.085ZM399.674 186.741C399.674 187.201 399.578 187.6 399.387 187.938C399.195 188.275 398.936 188.55 398.607 188.765C398.284 188.979 397.919 189.136 397.514 189.236V189.277C398.316 189.378 398.924 189.624 399.339 190.016C399.758 190.408 399.968 190.932 399.968 191.588C399.968 192.171 399.824 192.693 399.537 193.153C399.255 193.614 398.817 193.976 398.225 194.24C397.632 194.505 396.869 194.637 395.935 194.637C395.383 194.637 394.868 194.591 394.39 194.5C393.916 194.413 393.469 194.279 393.05 194.097V192.299C393.478 192.518 393.927 192.684 394.396 192.798C394.866 192.907 395.303 192.962 395.709 192.962C396.465 192.962 396.994 192.832 397.295 192.572C397.6 192.308 397.753 191.939 397.753 191.465C397.753 191.187 397.682 190.952 397.541 190.761C397.4 190.569 397.154 190.424 396.803 190.323C396.456 190.223 395.971 190.173 395.347 190.173H394.588V188.553H395.36C395.976 188.553 396.443 188.496 396.762 188.382C397.085 188.263 397.304 188.104 397.418 187.903C397.536 187.698 397.596 187.466 397.596 187.206C397.596 186.851 397.486 186.573 397.268 186.372C397.049 186.172 396.684 186.071 396.174 186.071C395.855 186.071 395.563 186.112 395.299 186.194C395.039 186.272 394.804 186.368 394.595 186.481C394.385 186.591 394.201 186.698 394.041 186.803L393.063 185.347C393.455 185.064 393.913 184.829 394.438 184.643C394.966 184.456 395.595 184.362 396.324 184.362C397.354 184.362 398.17 184.57 398.771 184.984C399.373 185.399 399.674 185.985 399.674 186.741ZM407.686 186.741C407.686 187.201 407.59 187.6 407.398 187.938C407.207 188.275 406.947 188.55 406.619 188.765C406.296 188.979 405.931 189.136 405.525 189.236V189.277C406.327 189.378 406.936 189.624 407.351 190.016C407.77 190.408 407.979 190.932 407.979 191.588C407.979 192.171 407.836 192.693 407.549 193.153C407.266 193.614 406.829 193.976 406.236 194.24C405.644 194.505 404.881 194.637 403.946 194.637C403.395 194.637 402.88 194.591 402.401 194.5C401.927 194.413 401.481 194.279 401.062 194.097V192.299C401.49 192.518 401.939 192.684 402.408 192.798C402.878 192.907 403.315 192.962 403.721 192.962C404.477 192.962 405.006 192.832 405.307 192.572C405.612 192.308 405.765 191.939 405.765 191.465C405.765 191.187 405.694 190.952 405.553 190.761C405.411 190.569 405.165 190.424 404.814 190.323C404.468 190.223 403.983 190.173 403.358 190.173H402.6V188.553H403.372C403.987 188.553 404.454 188.496 404.773 188.382C405.097 188.263 405.316 188.104 405.43 187.903C405.548 187.698 405.607 187.466 405.607 187.206C405.607 186.851 405.498 186.573 405.279 186.372C405.061 186.172 404.696 186.071 404.186 186.071C403.867 186.071 403.575 186.112 403.311 186.194C403.051 186.272 402.816 186.368 402.606 186.481C402.397 186.591 402.212 186.698 402.053 186.803L401.075 185.347C401.467 185.064 401.925 184.829 402.449 184.643C402.978 184.456 403.607 184.362 404.336 184.362C405.366 184.362 406.182 184.57 406.783 184.984C407.385 185.399 407.686 185.985 407.686 186.741ZM417.68 186.126C417.274 186.126 416.914 186.206 416.6 186.365C416.29 186.52 416.028 186.746 415.813 187.042C415.604 187.338 415.444 187.696 415.335 188.115C415.226 188.535 415.171 189.006 415.171 189.53C415.171 190.237 415.257 190.84 415.431 191.342C415.608 191.839 415.882 192.219 416.251 192.483C416.62 192.743 417.096 192.873 417.68 192.873C418.085 192.873 418.491 192.827 418.896 192.736C419.307 192.645 419.751 192.515 420.229 192.347V194.124C419.787 194.306 419.352 194.436 418.924 194.514C418.495 194.596 418.015 194.637 417.481 194.637C416.451 194.637 415.604 194.425 414.938 194.001C414.278 193.573 413.788 192.976 413.469 192.21C413.15 191.44 412.99 190.542 412.99 189.517C412.99 188.76 413.093 188.067 413.298 187.438C413.503 186.81 413.804 186.265 414.2 185.805C414.597 185.344 415.087 184.989 415.67 184.738C416.253 184.488 416.923 184.362 417.68 184.362C418.176 184.362 418.673 184.426 419.17 184.554C419.671 184.677 420.15 184.848 420.605 185.066L419.922 186.789C419.548 186.611 419.172 186.456 418.794 186.324C418.416 186.192 418.044 186.126 417.68 186.126ZM430.552 194.5H428.439V190.187H424.481V194.5H422.362V184.506H424.481V188.423H428.439V184.506H430.552V194.5ZM435.166 194.5H433.081V184.506H438.81V186.242H435.166V188.819H438.557V190.549H435.166V194.5Z" fill="#C51E1E"/>
<path d="M407.293 288.707C407.683 289.098 408.317 289.098 408.707 288.707L415.071 282.343C415.462 281.953 415.462 281.319 415.071 280.929C414.681 280.538 414.047 280.538 413.657 280.929L408 286.586L402.343 280.929C401.953 280.538 401.319 280.538 400.929 280.929C400.538 281.319 400.538 281.953 400.929 282.343L407.293 288.707ZM409 288L409 203.5L407 203.5L407 288L409 288Z" fill="#C51E1E"/>
<rect width="69" height="314.252" transform="translate(269 153)" fill="#1F1F8F" fill-opacity="0.5"/>
<rect width="69" height="154.251" transform="translate(200 313)" fill="#C51E1E" fill-opacity="0.5"/>
<path d="M234.707 152.293C234.317 151.902 233.683 151.902 233.293 152.293L226.929 158.657C226.538 159.047 226.538 159.681 226.929 160.071C227.319 160.462 227.953 160.462 228.343 160.071L234 154.414L239.657 160.071C240.047 160.462 240.681 160.462 241.071 160.071C241.462 159.681 241.462 159.047 241.071 158.657L234.707 152.293ZM235 218.5L235 153L233 153L233 218.5L235 218.5Z" fill="#C51E1E"/>
<path d="M208.276 238.5H206.164V232.717C206.164 232.557 206.166 232.361 206.171 232.129C206.175 231.892 206.182 231.65 206.191 231.404C206.201 231.154 206.21 230.928 206.219 230.728C206.169 230.787 206.066 230.889 205.911 231.035C205.761 231.176 205.619 231.304 205.487 231.418L204.339 232.341L203.32 231.069L206.54 228.506H208.276V238.5ZM214.702 232.115C215.313 232.115 215.855 232.231 216.329 232.464C216.808 232.696 217.184 233.038 217.457 233.489C217.73 233.94 217.867 234.496 217.867 235.157C217.867 235.877 217.717 236.499 217.416 237.023C217.12 237.543 216.675 237.942 216.083 238.22C215.495 238.498 214.761 238.637 213.882 238.637C213.358 238.637 212.863 238.591 212.398 238.5C211.938 238.413 211.535 238.279 211.188 238.097V236.271C211.535 236.454 211.95 236.609 212.433 236.736C212.92 236.859 213.378 236.921 213.807 236.921C214.226 236.921 214.579 236.866 214.866 236.757C215.153 236.643 215.37 236.47 215.516 236.237C215.666 236 215.741 235.7 215.741 235.335C215.741 234.847 215.577 234.474 215.249 234.214C214.921 233.954 214.417 233.824 213.738 233.824C213.479 233.824 213.207 233.849 212.925 233.899C212.647 233.95 212.414 234 212.228 234.05L211.387 233.599L211.763 228.506H217.184V230.297H213.615L213.431 232.259C213.586 232.227 213.754 232.195 213.937 232.163C214.119 232.131 214.374 232.115 214.702 232.115ZM222.714 232.115C223.325 232.115 223.867 232.231 224.341 232.464C224.819 232.696 225.195 233.038 225.469 233.489C225.742 233.94 225.879 234.496 225.879 235.157C225.879 235.877 225.729 236.499 225.428 237.023C225.132 237.543 224.687 237.942 224.095 238.22C223.507 238.498 222.773 238.637 221.894 238.637C221.369 238.637 220.875 238.591 220.41 238.5C219.95 238.413 219.547 238.279 219.2 238.097V236.271C219.547 236.454 219.961 236.609 220.444 236.736C220.932 236.859 221.39 236.921 221.818 236.921C222.238 236.921 222.591 236.866 222.878 236.757C223.165 236.643 223.382 236.47 223.527 236.237C223.678 236 223.753 235.7 223.753 235.335C223.753 234.847 223.589 234.474 223.261 234.214C222.933 233.954 222.429 233.824 221.75 233.824C221.49 233.824 221.219 233.849 220.937 233.899C220.659 233.95 220.426 234 220.239 234.05L219.398 233.599L219.774 228.506H225.195V230.297H221.627L221.442 232.259C221.597 232.227 221.766 232.195 221.948 232.163C222.131 232.131 222.386 232.115 222.714 232.115ZM230.534 228.376C231.108 228.376 231.637 228.465 232.12 228.643C232.608 228.82 232.997 229.089 233.289 229.449C233.581 229.805 233.727 230.251 233.727 230.789C233.727 231.19 233.647 231.541 233.487 231.842C233.332 232.143 233.12 232.407 232.852 232.635C232.583 232.858 232.277 233.054 231.936 233.223C232.291 233.41 232.628 233.628 232.947 233.879C233.266 234.125 233.526 234.414 233.727 234.747C233.932 235.08 234.034 235.467 234.034 235.909C234.034 236.465 233.886 236.948 233.59 237.358C233.294 237.764 232.883 238.078 232.359 238.302C231.835 238.525 231.227 238.637 230.534 238.637C229.787 238.637 229.151 238.53 228.627 238.315C228.103 238.101 227.704 237.796 227.431 237.399C227.157 236.998 227.021 236.52 227.021 235.964C227.021 235.508 227.105 235.112 227.273 234.774C227.447 234.437 227.679 234.148 227.971 233.906C228.262 233.66 228.584 233.451 228.935 233.277C228.638 233.09 228.367 232.879 228.121 232.642C227.88 232.405 227.686 232.133 227.54 231.828C227.399 231.523 227.328 231.172 227.328 230.775C227.328 230.247 227.476 229.805 227.772 229.449C228.073 229.094 228.467 228.827 228.955 228.649C229.443 228.467 229.969 228.376 230.534 228.376ZM228.976 235.841C228.976 236.201 229.103 236.499 229.358 236.736C229.618 236.969 230.001 237.085 230.507 237.085C231.031 237.085 231.423 236.973 231.683 236.75C231.942 236.522 232.072 236.224 232.072 235.854C232.072 235.599 231.997 235.376 231.847 235.185C231.701 234.993 231.516 234.822 231.293 234.672C231.07 234.517 230.844 234.373 230.616 234.241L230.432 234.146C230.14 234.278 229.885 234.426 229.666 234.59C229.452 234.754 229.283 234.938 229.16 235.144C229.037 235.349 228.976 235.581 228.976 235.841ZM230.521 229.921C230.174 229.921 229.887 230.01 229.659 230.188C229.431 230.365 229.317 230.616 229.317 230.939C229.317 231.167 229.372 231.368 229.481 231.541C229.595 231.71 229.743 231.858 229.926 231.985C230.113 232.113 230.315 232.231 230.534 232.341C230.744 232.241 230.94 232.129 231.122 232.006C231.304 231.883 231.452 231.735 231.566 231.562C231.68 231.388 231.737 231.181 231.737 230.939C231.737 230.616 231.621 230.365 231.389 230.188C231.161 230.01 230.871 229.921 230.521 229.921ZM243.68 230.126C243.274 230.126 242.914 230.206 242.6 230.365C242.29 230.52 242.028 230.746 241.813 231.042C241.604 231.338 241.444 231.696 241.335 232.115C241.226 232.535 241.171 233.006 241.171 233.53C241.171 234.237 241.257 234.84 241.431 235.342C241.608 235.839 241.882 236.219 242.251 236.483C242.62 236.743 243.096 236.873 243.68 236.873C244.085 236.873 244.491 236.827 244.896 236.736C245.307 236.645 245.751 236.515 246.229 236.347V238.124C245.787 238.306 245.352 238.436 244.924 238.514C244.495 238.596 244.015 238.637 243.481 238.637C242.451 238.637 241.604 238.425 240.938 238.001C240.278 237.573 239.788 236.976 239.469 236.21C239.15 235.44 238.99 234.542 238.99 233.517C238.99 232.76 239.093 232.067 239.298 231.438C239.503 230.81 239.804 230.265 240.2 229.805C240.597 229.344 241.087 228.989 241.67 228.738C242.253 228.488 242.923 228.362 243.68 228.362C244.176 228.362 244.673 228.426 245.17 228.554C245.671 228.677 246.15 228.848 246.605 229.066L245.922 230.789C245.548 230.611 245.172 230.456 244.794 230.324C244.416 230.192 244.044 230.126 243.68 230.126ZM256.552 238.5H254.439V234.187H250.481V238.5H248.362V228.506H250.481V232.423H254.439V228.506H256.552V238.5ZM261.166 238.5H259.081V228.506H264.81V230.242H261.166V232.819H264.557V234.549H261.166V238.5Z" fill="#C51E1E"/>
<path d="M233.293 313.707C233.683 314.098 234.317 314.098 234.707 313.707L241.071 307.343C241.462 306.953 241.462 306.319 241.071 305.929C240.681 305.538 240.047 305.538 239.657 305.929L234 311.586L228.343 305.929C227.953 305.538 227.319 305.538 226.929 305.929C226.538 306.319 226.538 306.953 226.929 307.343L233.293 313.707ZM235 313L235 247.5L233 247.5L233 313L235 313Z" fill="#C51E1E"/>
<rect width="69" height="229.322" transform="translate(96 238)" fill="#1F1F8F" fill-opacity="0.5"/>
<rect width="69" height="128.885" transform="translate(27 338)" fill="#C51E1E" fill-opacity="0.5"/>
<path d="M62.7071 237.293C62.3166 236.902 61.6834 236.902 61.2929 237.293L54.9289 243.657C54.5384 244.047 54.5384 244.681 54.9289 245.071C55.3195 245.462 55.9526 245.462 56.3431 245.071L62 239.414L67.6569 245.071C68.0474 245.462 68.6805 245.462 69.0711 245.071C69.4616 244.681 69.4616 244.047 69.0711 243.657L62.7071 237.293ZM63 273.5L63 238L61 238L61 273.5L63 273.5Z" fill="#C51E1E"/>
<path d="M42.0049 287.771C42.0049 288.346 41.9616 288.915 41.875 289.48C41.793 290.046 41.6471 290.579 41.4375 291.08C41.2279 291.577 40.9339 292.019 40.5557 292.406C40.1774 292.789 39.6966 293.09 39.1133 293.309C38.5299 293.527 37.8236 293.637 36.9941 293.637C36.7982 293.637 36.568 293.628 36.3037 293.609C36.0394 293.596 35.8206 293.573 35.6475 293.541V291.846C35.8298 291.891 36.0234 291.928 36.2285 291.955C36.4336 291.978 36.641 291.989 36.8506 291.989C37.6846 291.989 38.3271 291.857 38.7783 291.593C39.234 291.328 39.5531 290.962 39.7354 290.492C39.9222 290.023 40.0293 289.48 40.0566 288.865H39.9746C39.8424 289.084 39.6852 289.282 39.5029 289.46C39.3252 289.633 39.0973 289.772 38.8193 289.877C38.5413 289.977 38.1882 290.027 37.7598 290.027C37.1901 290.027 36.6934 289.904 36.2695 289.658C35.8503 289.408 35.5244 289.048 35.292 288.578C35.0641 288.104 34.9502 287.532 34.9502 286.862C34.9502 286.138 35.0869 285.518 35.3604 285.003C35.6383 284.483 36.0326 284.085 36.543 283.807C37.0534 283.529 37.6549 283.39 38.3477 283.39C38.8581 283.39 39.3343 283.479 39.7764 283.656C40.2184 283.829 40.6058 284.096 40.9385 284.456C41.2757 284.816 41.5378 285.272 41.7246 285.823C41.9115 286.375 42.0049 287.024 42.0049 287.771ZM38.3887 285.085C37.9785 285.085 37.6436 285.226 37.3838 285.509C37.124 285.791 36.9941 286.233 36.9941 286.835C36.9941 287.318 37.1058 287.701 37.3291 287.983C37.5524 288.266 37.8919 288.407 38.3477 288.407C38.6621 288.407 38.9355 288.339 39.168 288.202C39.4004 288.061 39.5804 287.885 39.708 287.676C39.8402 287.462 39.9062 287.243 39.9062 287.02C39.9062 286.787 39.8743 286.557 39.8105 286.329C39.7467 286.101 39.651 285.894 39.5234 285.707C39.3958 285.52 39.2363 285.37 39.0449 285.256C38.8581 285.142 38.6393 285.085 38.3887 285.085ZM44.0625 293.5L47.8154 285.283H42.8867V283.506H50.0576V284.832L46.2773 293.5H44.0625ZM54.5283 283.376C55.1025 283.376 55.6312 283.465 56.1143 283.643C56.6019 283.82 56.9915 284.089 57.2832 284.449C57.5749 284.805 57.7207 285.251 57.7207 285.789C57.7207 286.19 57.641 286.541 57.4814 286.842C57.3265 287.143 57.1146 287.407 56.8457 287.635C56.5768 287.858 56.2715 288.054 55.9297 288.223C56.2852 288.41 56.6224 288.628 56.9414 288.879C57.2604 289.125 57.5202 289.414 57.7207 289.747C57.9258 290.08 58.0283 290.467 58.0283 290.909C58.0283 291.465 57.8802 291.948 57.584 292.358C57.2878 292.764 56.8776 293.078 56.3535 293.302C55.8294 293.525 55.221 293.637 54.5283 293.637C53.7809 293.637 53.1452 293.53 52.6211 293.315C52.097 293.101 51.6982 292.796 51.4248 292.399C51.1514 291.998 51.0146 291.52 51.0146 290.964C51.0146 290.508 51.099 290.112 51.2676 289.774C51.4408 289.437 51.6732 289.148 51.9648 288.906C52.2565 288.66 52.5778 288.451 52.9287 288.277C52.6325 288.09 52.3613 287.879 52.1152 287.642C51.8737 287.405 51.68 287.133 51.5342 286.828C51.3929 286.523 51.3223 286.172 51.3223 285.775C51.3223 285.247 51.4704 284.805 51.7666 284.449C52.0674 284.094 52.4616 283.827 52.9492 283.649C53.4368 283.467 53.9632 283.376 54.5283 283.376ZM52.9697 290.841C52.9697 291.201 53.0973 291.499 53.3525 291.736C53.6123 291.969 53.9951 292.085 54.501 292.085C55.0251 292.085 55.417 291.973 55.6768 291.75C55.9365 291.522 56.0664 291.224 56.0664 290.854C56.0664 290.599 55.9912 290.376 55.8408 290.185C55.695 289.993 55.5104 289.822 55.2871 289.672C55.0638 289.517 54.8382 289.373 54.6104 289.241L54.4258 289.146C54.1341 289.278 53.8789 289.426 53.6602 289.59C53.446 289.754 53.2773 289.938 53.1543 290.144C53.0312 290.349 52.9697 290.581 52.9697 290.841ZM54.5146 284.921C54.1683 284.921 53.8812 285.01 53.6533 285.188C53.4255 285.365 53.3115 285.616 53.3115 285.939C53.3115 286.167 53.3662 286.368 53.4756 286.541C53.5895 286.71 53.7376 286.858 53.9199 286.985C54.1068 287.113 54.3096 287.231 54.5283 287.341C54.738 287.241 54.9339 287.129 55.1162 287.006C55.2985 286.883 55.4466 286.735 55.5605 286.562C55.6745 286.388 55.7314 286.181 55.7314 285.939C55.7314 285.616 55.6152 285.365 55.3828 285.188C55.1549 285.01 54.8656 284.921 54.5146 284.921ZM67.6738 285.126C67.2682 285.126 66.9082 285.206 66.5938 285.365C66.2839 285.52 66.0218 285.746 65.8076 286.042C65.598 286.338 65.4385 286.696 65.3291 287.115C65.2197 287.535 65.165 288.006 65.165 288.53C65.165 289.237 65.2516 289.84 65.4248 290.342C65.6025 290.839 65.876 291.219 66.2451 291.483C66.6143 291.743 67.0905 291.873 67.6738 291.873C68.0794 291.873 68.485 291.827 68.8906 291.736C69.3008 291.645 69.7451 291.515 70.2236 291.347V293.124C69.7816 293.306 69.3464 293.436 68.918 293.514C68.4896 293.596 68.0088 293.637 67.4756 293.637C66.4456 293.637 65.598 293.425 64.9326 293.001C64.2718 292.573 63.7819 291.976 63.4629 291.21C63.1439 290.44 62.9844 289.542 62.9844 288.517C62.9844 287.76 63.0869 287.067 63.292 286.438C63.4971 285.81 63.7979 285.265 64.1943 284.805C64.5908 284.344 65.0807 283.989 65.6641 283.738C66.2474 283.488 66.9173 283.362 67.6738 283.362C68.1706 283.362 68.6673 283.426 69.1641 283.554C69.6654 283.677 70.1439 283.848 70.5996 284.066L69.916 285.789C69.5423 285.611 69.1663 285.456 68.7881 285.324C68.4098 285.192 68.0384 285.126 67.6738 285.126ZM80.5459 293.5H78.4336V289.187H74.4756V293.5H72.3564V283.506H74.4756V287.423H78.4336V283.506H80.5459V293.5ZM85.1602 293.5H83.0752V283.506H88.8037V285.242H85.1602V287.819H88.5508V289.549H85.1602V293.5Z" fill="#C51E1E"/>
<path d="M61.2929 338.707C61.6834 339.098 62.3166 339.098 62.7071 338.707L69.0711 332.343C69.4616 331.953 69.4616 331.319 69.0711 330.929C68.6805 330.538 68.0474 330.538 67.6569 330.929L62 336.586L56.3431 330.929C55.9526 330.538 55.3195 330.538 54.9289 330.929C54.5384 331.319 54.5384 331.953 54.9289 332.343L61.2929 338.707ZM63 338L63 302.5L61 302.5L61 338L63 338Z" fill="#C51E1E"/>
</g>
<defs>
<clipPath id="clip0_308_158">
<rect width="536" height="502" fill="white"/>
</clipPath>
</defs>
</svg>
