<svg width="600" height="424" viewBox="0 0 600 424" fill="none" xmlns="http://www.w3.org/2000/svg">
<g clip-path="url(#clip0)">
<path d="M7.00195 54H1.37109V53.1621L3.62695 50.8945C4.31445 50.1992 4.76758 49.7031 4.98633 49.4062C5.20508 49.1094 5.36914 48.8203 5.47852 48.5391C5.58789 48.2578 5.64258 47.9551 5.64258 47.6309C5.64258 47.1738 5.50391 46.8125 5.22656 46.5469C4.94922 46.2773 4.56445 46.1426 4.07227 46.1426C3.7168 46.1426 3.37891 46.2012 3.05859 46.3184C2.74219 46.4355 2.38867 46.6484 1.99805 46.957L1.48242 46.2949C2.27148 45.6387 3.13086 45.3105 4.06055 45.3105C4.86523 45.3105 5.49609 45.5176 5.95312 45.9316C6.41016 46.3418 6.63867 46.8945 6.63867 47.5898C6.63867 48.1328 6.48633 48.6699 6.18164 49.2012C5.87695 49.7324 5.30664 50.4043 4.4707 51.2168L2.5957 53.0508V53.0977H7.00195V54ZM13.916 49.7051C13.916 51.1855 13.6816 52.291 13.2129 53.0215C12.748 53.752 12.0352 54.1172 11.0742 54.1172C10.1523 54.1172 9.45117 53.7441 8.9707 52.998C8.49023 52.248 8.25 51.1504 8.25 49.7051C8.25 48.2129 8.48242 47.1055 8.94727 46.3828C9.41211 45.6602 10.1211 45.2988 11.0742 45.2988C12.0039 45.2988 12.709 45.6758 13.1895 46.4297C13.6738 47.1836 13.916 48.2754 13.916 49.7051ZM9.23438 49.7051C9.23438 50.9512 9.38086 51.8594 9.67383 52.4297C9.9668 52.9961 10.4336 53.2793 11.0742 53.2793C11.7227 53.2793 12.1914 52.9922 12.4805 52.418C12.7734 51.8398 12.9199 50.9355 12.9199 49.7051C12.9199 48.4746 12.7734 47.5742 12.4805 47.0039C12.1914 46.4297 11.7227 46.1426 11.0742 46.1426C10.4336 46.1426 9.9668 46.4258 9.67383 46.9922C9.38086 47.5547 9.23438 48.459 9.23438 49.7051ZM20.7832 49.7051C20.7832 51.1855 20.5488 52.291 20.0801 53.0215C19.6152 53.752 18.9023 54.1172 17.9414 54.1172C17.0195 54.1172 16.3184 53.7441 15.8379 52.998C15.3574 52.248 15.1172 51.1504 15.1172 49.7051C15.1172 48.2129 15.3496 47.1055 15.8145 46.3828C16.2793 45.6602 16.9883 45.2988 17.9414 45.2988C18.8711 45.2988 19.5762 45.6758 20.0566 46.4297C20.541 47.1836 20.7832 48.2754 20.7832 49.7051ZM16.1016 49.7051C16.1016 50.9512 16.248 51.8594 16.541 52.4297C16.834 52.9961 17.3008 53.2793 17.9414 53.2793C18.5898 53.2793 19.0586 52.9922 19.3477 52.418C19.6406 51.8398 19.7871 50.9355 19.7871 49.7051C19.7871 48.4746 19.6406 47.5742 19.3477 47.0039C19.0586 46.4297 18.5898 46.1426 17.9414 46.1426C17.3008 46.1426 16.834 46.4258 16.541 46.9922C16.248 47.5547 16.1016 48.459 16.1016 49.7051ZM27.6504 49.7051C27.6504 51.1855 27.416 52.291 26.9473 53.0215C26.4824 53.752 25.7695 54.1172 24.8086 54.1172C23.8867 54.1172 23.1855 53.7441 22.7051 52.998C22.2246 52.248 21.9844 51.1504 21.9844 49.7051C21.9844 48.2129 22.2168 47.1055 22.6816 46.3828C23.1465 45.6602 23.8555 45.2988 24.8086 45.2988C25.7383 45.2988 26.4434 45.6758 26.9238 46.4297C27.4082 47.1836 27.6504 48.2754 27.6504 49.7051ZM22.9688 49.7051C22.9688 50.9512 23.1152 51.8594 23.4082 52.4297C23.7012 52.9961 24.168 53.2793 24.8086 53.2793C25.457 53.2793 25.9258 52.9922 26.2148 52.418C26.5078 51.8398 26.6543 50.9355 26.6543 49.7051C26.6543 48.4746 26.5078 47.5742 26.2148 47.0039C25.9258 46.4297 25.457 46.1426 24.8086 46.1426C24.168 46.1426 23.7012 46.4258 23.4082 46.9922C23.1152 47.5547 22.9688 48.459 22.9688 49.7051ZM36.2168 46.2012C35.2754 46.2012 34.5312 46.5156 33.9844 47.1445C33.4414 47.7695 33.1699 48.627 33.1699 49.7168C33.1699 50.8379 33.4316 51.7051 33.9551 52.3184C34.4824 52.9277 35.2324 53.2324 36.2051 53.2324C36.8027 53.2324 37.4844 53.125 38.25 52.9102V53.7832C37.6562 54.0059 36.9238 54.1172 36.0527 54.1172C34.791 54.1172 33.8164 53.7344 33.1289 52.9688C32.4453 52.2031 32.1035 51.1152 32.1035 49.7051C32.1035 48.8223 32.2676 48.0488 32.5957 47.3848C32.9277 46.7207 33.4043 46.209 34.0254 45.8496C34.6504 45.4902 35.3848 45.3105 36.2285 45.3105C37.127 45.3105 37.9121 45.4746 38.584 45.8027L38.1621 46.6582C37.5137 46.3535 36.8652 46.2012 36.2168 46.2012ZM46.623 54H45.627V49.9688H41.1152V54H40.1191V45.4336H41.1152V49.0781H45.627V45.4336H46.623V54ZM49.9746 54H48.9785V45.4336H53.7539V46.3184H49.9746V49.4531H53.5254V50.3379H49.9746V54Z" fill="#6A6A6A"/>
<path d="M4.97461 89H4.02539V82.8945C4.02539 82.3867 4.04102 81.9062 4.07227 81.4531C3.99023 81.5352 3.89844 81.6211 3.79688 81.7109C3.69531 81.8008 3.23047 82.1816 2.40234 82.8535L1.88672 82.1855L4.1543 80.4336H4.97461V89ZM11.0742 80.3105C11.8555 80.3105 12.4746 80.4922 12.9316 80.8555C13.3887 81.2188 13.6172 81.7207 13.6172 82.3613C13.6172 82.7832 13.4863 83.168 13.2246 83.5156C12.9629 83.8633 12.5449 84.1797 11.9707 84.4648C12.666 84.7969 13.1602 85.1465 13.4531 85.5137C13.7461 85.877 13.8926 86.2988 13.8926 86.7793C13.8926 87.4902 13.6445 88.0586 13.1484 88.4844C12.6523 88.9062 11.9727 89.1172 11.1094 89.1172C10.1953 89.1172 9.49219 88.918 9 88.5195C8.50781 88.1172 8.26172 87.5488 8.26172 86.8145C8.26172 85.834 8.85938 85.0703 10.0547 84.5234C9.51562 84.2188 9.12891 83.8906 8.89453 83.5391C8.66016 83.1836 8.54297 82.7871 8.54297 82.3496C8.54297 81.7285 8.77148 81.2344 9.22852 80.8672C9.68945 80.4961 10.3047 80.3105 11.0742 80.3105ZM9.22266 86.8379C9.22266 87.3066 9.38477 87.6719 9.70898 87.9336C10.0371 88.1953 10.4961 88.3262 11.0859 88.3262C11.668 88.3262 12.1211 88.1895 12.4453 87.916C12.7695 87.6426 12.9316 87.2676 12.9316 86.791C12.9316 86.4121 12.7793 86.0762 12.4746 85.7832C12.1699 85.4863 11.6387 85.1992 10.8809 84.9219C10.2988 85.1719 9.87695 85.4492 9.61523 85.7539C9.35352 86.0547 9.22266 86.416 9.22266 86.8379ZM11.0625 81.1016C10.5742 81.1016 10.1914 81.2188 9.91406 81.4531C9.63672 81.6875 9.49805 82 9.49805 82.3906C9.49805 82.75 9.61328 83.0586 9.84375 83.3164C10.0742 83.5742 10.5 83.832 11.1211 84.0898C11.6797 83.8555 12.0742 83.6035 12.3047 83.334C12.5391 83.0645 12.6562 82.75 12.6562 82.3906C12.6562 81.9961 12.5137 81.6836 12.2285 81.4531C11.9473 81.2188 11.5586 81.1016 11.0625 81.1016ZM20.7832 84.7051C20.7832 86.1855 20.5488 87.291 20.0801 88.0215C19.6152 88.752 18.9023 89.1172 17.9414 89.1172C17.0195 89.1172 16.3184 88.7441 15.8379 87.998C15.3574 87.248 15.1172 86.1504 15.1172 84.7051C15.1172 83.2129 15.3496 82.1055 15.8145 81.3828C16.2793 80.6602 16.9883 80.2988 17.9414 80.2988C18.8711 80.2988 19.5762 80.6758 20.0566 81.4297C20.541 82.1836 20.7832 83.2754 20.7832 84.7051ZM16.1016 84.7051C16.1016 85.9512 16.248 86.8594 16.541 87.4297C16.834 87.9961 17.3008 88.2793 17.9414 88.2793C18.5898 88.2793 19.0586 87.9922 19.3477 87.418C19.6406 86.8398 19.7871 85.9355 19.7871 84.7051C19.7871 83.4746 19.6406 82.5742 19.3477 82.0039C19.0586 81.4297 18.5898 81.1426 17.9414 81.1426C17.3008 81.1426 16.834 81.4258 16.541 81.9922C16.248 82.5547 16.1016 83.459 16.1016 84.7051ZM27.6504 84.7051C27.6504 86.1855 27.416 87.291 26.9473 88.0215C26.4824 88.752 25.7695 89.1172 24.8086 89.1172C23.8867 89.1172 23.1855 88.7441 22.7051 87.998C22.2246 87.248 21.9844 86.1504 21.9844 84.7051C21.9844 83.2129 22.2168 82.1055 22.6816 81.3828C23.1465 80.6602 23.8555 80.2988 24.8086 80.2988C25.7383 80.2988 26.4434 80.6758 26.9238 81.4297C27.4082 82.1836 27.6504 83.2754 27.6504 84.7051ZM22.9688 84.7051C22.9688 85.9512 23.1152 86.8594 23.4082 87.4297C23.7012 87.9961 24.168 88.2793 24.8086 88.2793C25.457 88.2793 25.9258 87.9922 26.2148 87.418C26.5078 86.8398 26.6543 85.9355 26.6543 84.7051C26.6543 83.4746 26.5078 82.5742 26.2148 82.0039C25.9258 81.4297 25.457 81.1426 24.8086 81.1426C24.168 81.1426 23.7012 81.4258 23.4082 81.9922C23.1152 82.5547 22.9688 83.459 22.9688 84.7051ZM36.2168 81.2012C35.2754 81.2012 34.5312 81.5156 33.9844 82.1445C33.4414 82.7695 33.1699 83.627 33.1699 84.7168C33.1699 85.8379 33.4316 86.7051 33.9551 87.3184C34.4824 87.9277 35.2324 88.2324 36.2051 88.2324C36.8027 88.2324 37.4844 88.125 38.25 87.9102V88.7832C37.6562 89.0059 36.9238 89.1172 36.0527 89.1172C34.791 89.1172 33.8164 88.7344 33.1289 87.9688C32.4453 87.2031 32.1035 86.1152 32.1035 84.7051C32.1035 83.8223 32.2676 83.0488 32.5957 82.3848C32.9277 81.7207 33.4043 81.209 34.0254 80.8496C34.6504 80.4902 35.3848 80.3105 36.2285 80.3105C37.127 80.3105 37.9121 80.4746 38.584 80.8027L38.1621 81.6582C37.5137 81.3535 36.8652 81.2012 36.2168 81.2012ZM46.623 89H45.627V84.9688H41.1152V89H40.1191V80.4336H41.1152V84.0781H45.627V80.4336H46.623V89ZM49.9746 89H48.9785V80.4336H53.7539V81.3184H49.9746V84.4531H53.5254V85.3379H49.9746V89Z" fill="#6A6A6A"/>
<path d="M4.97461 124H4.02539V117.895C4.02539 117.387 4.04102 116.906 4.07227 116.453C3.99023 116.535 3.89844 116.621 3.79688 116.711C3.69531 116.801 3.23047 117.182 2.40234 117.854L1.88672 117.186L4.1543 115.434H4.97461V124ZM8.33789 120.338C8.33789 118.654 8.66406 117.396 9.31641 116.564C9.97266 115.729 10.9414 115.311 12.2227 115.311C12.6641 115.311 13.0117 115.348 13.2656 115.422V116.26C12.9648 116.162 12.6211 116.113 12.2344 116.113C11.3164 116.113 10.6152 116.4 10.1309 116.975C9.64648 117.545 9.38086 118.443 9.33398 119.67H9.4043C9.83398 118.998 10.5137 118.662 11.4434 118.662C12.2129 118.662 12.8184 118.895 13.2598 119.359C13.7051 119.824 13.9277 120.455 13.9277 121.252C13.9277 122.143 13.6836 122.844 13.1953 123.355C12.7109 123.863 12.0547 124.117 11.2266 124.117C10.3398 124.117 9.63672 123.785 9.11719 123.121C8.59766 122.453 8.33789 121.525 8.33789 120.338ZM11.2148 123.291C11.7695 123.291 12.1992 123.117 12.5039 122.77C12.8125 122.418 12.9668 121.912 12.9668 121.252C12.9668 120.686 12.8242 120.24 12.5391 119.916C12.2539 119.592 11.8281 119.43 11.2617 119.43C10.9102 119.43 10.5879 119.502 10.2949 119.646C10.002 119.791 9.76758 119.99 9.5918 120.244C9.41992 120.498 9.33398 120.762 9.33398 121.035C9.33398 121.438 9.41211 121.812 9.56836 122.16C9.72461 122.508 9.94531 122.783 10.2305 122.986C10.5195 123.189 10.8477 123.291 11.2148 123.291ZM20.7832 119.705C20.7832 121.186 20.5488 122.291 20.0801 123.021C19.6152 123.752 18.9023 124.117 17.9414 124.117C17.0195 124.117 16.3184 123.744 15.8379 122.998C15.3574 122.248 15.1172 121.15 15.1172 119.705C15.1172 118.213 15.3496 117.105 15.8145 116.383C16.2793 115.66 16.9883 115.299 17.9414 115.299C18.8711 115.299 19.5762 115.676 20.0566 116.43C20.541 117.184 20.7832 118.275 20.7832 119.705ZM16.1016 119.705C16.1016 120.951 16.248 121.859 16.541 122.43C16.834 122.996 17.3008 123.279 17.9414 123.279C18.5898 123.279 19.0586 122.992 19.3477 122.418C19.6406 121.84 19.7871 120.936 19.7871 119.705C19.7871 118.475 19.6406 117.574 19.3477 117.004C19.0586 116.43 18.5898 116.143 17.9414 116.143C17.3008 116.143 16.834 116.426 16.541 116.992C16.248 117.555 16.1016 118.459 16.1016 119.705ZM27.6504 119.705C27.6504 121.186 27.416 122.291 26.9473 123.021C26.4824 123.752 25.7695 124.117 24.8086 124.117C23.8867 124.117 23.1855 123.744 22.7051 122.998C22.2246 122.248 21.9844 121.15 21.9844 119.705C21.9844 118.213 22.2168 117.105 22.6816 116.383C23.1465 115.66 23.8555 115.299 24.8086 115.299C25.7383 115.299 26.4434 115.676 26.9238 116.43C27.4082 117.184 27.6504 118.275 27.6504 119.705ZM22.9688 119.705C22.9688 120.951 23.1152 121.859 23.4082 122.43C23.7012 122.996 24.168 123.279 24.8086 123.279C25.457 123.279 25.9258 122.992 26.2148 122.418C26.5078 121.84 26.6543 120.936 26.6543 119.705C26.6543 118.475 26.5078 117.574 26.2148 117.004C25.9258 116.43 25.457 116.143 24.8086 116.143C24.168 116.143 23.7012 116.426 23.4082 116.992C23.1152 117.555 22.9688 118.459 22.9688 119.705ZM36.2168 116.201C35.2754 116.201 34.5312 116.516 33.9844 117.145C33.4414 117.77 33.1699 118.627 33.1699 119.717C33.1699 120.838 33.4316 121.705 33.9551 122.318C34.4824 122.928 35.2324 123.232 36.2051 123.232C36.8027 123.232 37.4844 123.125 38.25 122.91V123.783C37.6562 124.006 36.9238 124.117 36.0527 124.117C34.791 124.117 33.8164 123.734 33.1289 122.969C32.4453 122.203 32.1035 121.115 32.1035 119.705C32.1035 118.822 32.2676 118.049 32.5957 117.385C32.9277 116.721 33.4043 116.209 34.0254 115.85C34.6504 115.49 35.3848 115.311 36.2285 115.311C37.127 115.311 37.9121 115.475 38.584 115.803L38.1621 116.658C37.5137 116.354 36.8652 116.201 36.2168 116.201ZM46.623 124H45.627V119.969H41.1152V124H40.1191V115.434H41.1152V119.078H45.627V115.434H46.623V124ZM49.9746 124H48.9785V115.434H53.7539V116.318H49.9746V119.453H53.5254V120.338H49.9746V124Z" fill="#6A6A6A"/>
<path d="M4.97461 159H4.02539V152.895C4.02539 152.387 4.04102 151.906 4.07227 151.453C3.99023 151.535 3.89844 151.621 3.79688 151.711C3.69531 151.801 3.23047 152.182 2.40234 152.854L1.88672 152.186L4.1543 150.434H4.97461V159ZM14.2734 157.031H13.002V159H12.0703V157.031H7.9043V156.182L11.9707 150.387H13.002V156.146H14.2734V157.031ZM12.0703 156.146V153.299C12.0703 152.74 12.0898 152.109 12.1289 151.406H12.082C11.8945 151.781 11.7188 152.092 11.5547 152.338L8.87695 156.146H12.0703ZM20.7832 154.705C20.7832 156.186 20.5488 157.291 20.0801 158.021C19.6152 158.752 18.9023 159.117 17.9414 159.117C17.0195 159.117 16.3184 158.744 15.8379 157.998C15.3574 157.248 15.1172 156.15 15.1172 154.705C15.1172 153.213 15.3496 152.105 15.8145 151.383C16.2793 150.66 16.9883 150.299 17.9414 150.299C18.8711 150.299 19.5762 150.676 20.0566 151.43C20.541 152.184 20.7832 153.275 20.7832 154.705ZM16.1016 154.705C16.1016 155.951 16.248 156.859 16.541 157.43C16.834 157.996 17.3008 158.279 17.9414 158.279C18.5898 158.279 19.0586 157.992 19.3477 157.418C19.6406 156.84 19.7871 155.936 19.7871 154.705C19.7871 153.475 19.6406 152.574 19.3477 152.004C19.0586 151.43 18.5898 151.143 17.9414 151.143C17.3008 151.143 16.834 151.426 16.541 151.992C16.248 152.555 16.1016 153.459 16.1016 154.705ZM27.6504 154.705C27.6504 156.186 27.416 157.291 26.9473 158.021C26.4824 158.752 25.7695 159.117 24.8086 159.117C23.8867 159.117 23.1855 158.744 22.7051 157.998C22.2246 157.248 21.9844 156.15 21.9844 154.705C21.9844 153.213 22.2168 152.105 22.6816 151.383C23.1465 150.66 23.8555 150.299 24.8086 150.299C25.7383 150.299 26.4434 150.676 26.9238 151.43C27.4082 152.184 27.6504 153.275 27.6504 154.705ZM22.9688 154.705C22.9688 155.951 23.1152 156.859 23.4082 157.43C23.7012 157.996 24.168 158.279 24.8086 158.279C25.457 158.279 25.9258 157.992 26.2148 157.418C26.5078 156.84 26.6543 155.936 26.6543 154.705C26.6543 153.475 26.5078 152.574 26.2148 152.004C25.9258 151.43 25.457 151.143 24.8086 151.143C24.168 151.143 23.7012 151.426 23.4082 151.992C23.1152 152.555 22.9688 153.459 22.9688 154.705ZM36.2168 151.201C35.2754 151.201 34.5312 151.516 33.9844 152.145C33.4414 152.77 33.1699 153.627 33.1699 154.717C33.1699 155.838 33.4316 156.705 33.9551 157.318C34.4824 157.928 35.2324 158.232 36.2051 158.232C36.8027 158.232 37.4844 158.125 38.25 157.91V158.783C37.6562 159.006 36.9238 159.117 36.0527 159.117C34.791 159.117 33.8164 158.734 33.1289 157.969C32.4453 157.203 32.1035 156.115 32.1035 154.705C32.1035 153.822 32.2676 153.049 32.5957 152.385C32.9277 151.721 33.4043 151.209 34.0254 150.85C34.6504 150.49 35.3848 150.311 36.2285 150.311C37.127 150.311 37.9121 150.475 38.584 150.803L38.1621 151.658C37.5137 151.354 36.8652 151.201 36.2168 151.201ZM46.623 159H45.627V154.969H41.1152V159H40.1191V150.434H41.1152V154.078H45.627V150.434H46.623V159ZM49.9746 159H48.9785V150.434H53.7539V151.318H49.9746V154.453H53.5254V155.338H49.9746V159Z" fill="#6A6A6A"/>
<path d="M4.97461 194H4.02539V187.895C4.02539 187.387 4.04102 186.906 4.07227 186.453C3.99023 186.535 3.89844 186.621 3.79688 186.711C3.69531 186.801 3.23047 187.182 2.40234 187.854L1.88672 187.186L4.1543 185.434H4.97461V194ZM13.8691 194H8.23828V193.162L10.4941 190.895C11.1816 190.199 11.6348 189.703 11.8535 189.406C12.0723 189.109 12.2363 188.82 12.3457 188.539C12.4551 188.258 12.5098 187.955 12.5098 187.631C12.5098 187.174 12.3711 186.812 12.0938 186.547C11.8164 186.277 11.4316 186.143 10.9395 186.143C10.584 186.143 10.2461 186.201 9.92578 186.318C9.60938 186.436 9.25586 186.648 8.86523 186.957L8.34961 186.295C9.13867 185.639 9.99805 185.311 10.9277 185.311C11.7324 185.311 12.3633 185.518 12.8203 185.932C13.2773 186.342 13.5059 186.895 13.5059 187.59C13.5059 188.133 13.3535 188.67 13.0488 189.201C12.7441 189.732 12.1738 190.404 11.3379 191.217L9.46289 193.051V193.098H13.8691V194ZM20.7832 189.705C20.7832 191.186 20.5488 192.291 20.0801 193.021C19.6152 193.752 18.9023 194.117 17.9414 194.117C17.0195 194.117 16.3184 193.744 15.8379 192.998C15.3574 192.248 15.1172 191.15 15.1172 189.705C15.1172 188.213 15.3496 187.105 15.8145 186.383C16.2793 185.66 16.9883 185.299 17.9414 185.299C18.8711 185.299 19.5762 185.676 20.0566 186.43C20.541 187.184 20.7832 188.275 20.7832 189.705ZM16.1016 189.705C16.1016 190.951 16.248 191.859 16.541 192.43C16.834 192.996 17.3008 193.279 17.9414 193.279C18.5898 193.279 19.0586 192.992 19.3477 192.418C19.6406 191.84 19.7871 190.936 19.7871 189.705C19.7871 188.475 19.6406 187.574 19.3477 187.004C19.0586 186.43 18.5898 186.143 17.9414 186.143C17.3008 186.143 16.834 186.426 16.541 186.992C16.248 187.555 16.1016 188.459 16.1016 189.705ZM27.6504 189.705C27.6504 191.186 27.416 192.291 26.9473 193.021C26.4824 193.752 25.7695 194.117 24.8086 194.117C23.8867 194.117 23.1855 193.744 22.7051 192.998C22.2246 192.248 21.9844 191.15 21.9844 189.705C21.9844 188.213 22.2168 187.105 22.6816 186.383C23.1465 185.66 23.8555 185.299 24.8086 185.299C25.7383 185.299 26.4434 185.676 26.9238 186.43C27.4082 187.184 27.6504 188.275 27.6504 189.705ZM22.9688 189.705C22.9688 190.951 23.1152 191.859 23.4082 192.43C23.7012 192.996 24.168 193.279 24.8086 193.279C25.457 193.279 25.9258 192.992 26.2148 192.418C26.5078 191.84 26.6543 190.936 26.6543 189.705C26.6543 188.475 26.5078 187.574 26.2148 187.004C25.9258 186.43 25.457 186.143 24.8086 186.143C24.168 186.143 23.7012 186.426 23.4082 186.992C23.1152 187.555 22.9688 188.459 22.9688 189.705ZM36.2168 186.201C35.2754 186.201 34.5312 186.516 33.9844 187.145C33.4414 187.77 33.1699 188.627 33.1699 189.717C33.1699 190.838 33.4316 191.705 33.9551 192.318C34.4824 192.928 35.2324 193.232 36.2051 193.232C36.8027 193.232 37.4844 193.125 38.25 192.91V193.783C37.6562 194.006 36.9238 194.117 36.0527 194.117C34.791 194.117 33.8164 193.734 33.1289 192.969C32.4453 192.203 32.1035 191.115 32.1035 189.705C32.1035 188.822 32.2676 188.049 32.5957 187.385C32.9277 186.721 33.4043 186.209 34.0254 185.85C34.6504 185.49 35.3848 185.311 36.2285 185.311C37.127 185.311 37.9121 185.475 38.584 185.803L38.1621 186.658C37.5137 186.354 36.8652 186.201 36.2168 186.201ZM46.623 194H45.627V189.969H41.1152V194H40.1191V185.434H41.1152V189.078H45.627V185.434H46.623V194ZM49.9746 194H48.9785V185.434H53.7539V186.318H49.9746V189.453H53.5254V190.338H49.9746V194Z" fill="#6A6A6A"/>
<path d="M4.97461 229H4.02539V222.895C4.02539 222.387 4.04102 221.906 4.07227 221.453C3.99023 221.535 3.89844 221.621 3.79688 221.711C3.69531 221.801 3.23047 222.182 2.40234 222.854L1.88672 222.186L4.1543 220.434H4.97461V229ZM13.916 224.705C13.916 226.186 13.6816 227.291 13.2129 228.021C12.748 228.752 12.0352 229.117 11.0742 229.117C10.1523 229.117 9.45117 228.744 8.9707 227.998C8.49023 227.248 8.25 226.15 8.25 224.705C8.25 223.213 8.48242 222.105 8.94727 221.383C9.41211 220.66 10.1211 220.299 11.0742 220.299C12.0039 220.299 12.709 220.676 13.1895 221.43C13.6738 222.184 13.916 223.275 13.916 224.705ZM9.23438 224.705C9.23438 225.951 9.38086 226.859 9.67383 227.43C9.9668 227.996 10.4336 228.279 11.0742 228.279C11.7227 228.279 12.1914 227.992 12.4805 227.418C12.7734 226.84 12.9199 225.936 12.9199 224.705C12.9199 223.475 12.7734 222.574 12.4805 222.004C12.1914 221.43 11.7227 221.143 11.0742 221.143C10.4336 221.143 9.9668 221.426 9.67383 221.992C9.38086 222.555 9.23438 223.459 9.23438 224.705ZM20.7832 224.705C20.7832 226.186 20.5488 227.291 20.0801 228.021C19.6152 228.752 18.9023 229.117 17.9414 229.117C17.0195 229.117 16.3184 228.744 15.8379 227.998C15.3574 227.248 15.1172 226.15 15.1172 224.705C15.1172 223.213 15.3496 222.105 15.8145 221.383C16.2793 220.66 16.9883 220.299 17.9414 220.299C18.8711 220.299 19.5762 220.676 20.0566 221.43C20.541 222.184 20.7832 223.275 20.7832 224.705ZM16.1016 224.705C16.1016 225.951 16.248 226.859 16.541 227.43C16.834 227.996 17.3008 228.279 17.9414 228.279C18.5898 228.279 19.0586 227.992 19.3477 227.418C19.6406 226.84 19.7871 225.936 19.7871 224.705C19.7871 223.475 19.6406 222.574 19.3477 222.004C19.0586 221.43 18.5898 221.143 17.9414 221.143C17.3008 221.143 16.834 221.426 16.541 221.992C16.248 222.555 16.1016 223.459 16.1016 224.705ZM27.6504 224.705C27.6504 226.186 27.416 227.291 26.9473 228.021C26.4824 228.752 25.7695 229.117 24.8086 229.117C23.8867 229.117 23.1855 228.744 22.7051 227.998C22.2246 227.248 21.9844 226.15 21.9844 224.705C21.9844 223.213 22.2168 222.105 22.6816 221.383C23.1465 220.66 23.8555 220.299 24.8086 220.299C25.7383 220.299 26.4434 220.676 26.9238 221.43C27.4082 222.184 27.6504 223.275 27.6504 224.705ZM22.9688 224.705C22.9688 225.951 23.1152 226.859 23.4082 227.43C23.7012 227.996 24.168 228.279 24.8086 228.279C25.457 228.279 25.9258 227.992 26.2148 227.418C26.5078 226.84 26.6543 225.936 26.6543 224.705C26.6543 223.475 26.5078 222.574 26.2148 222.004C25.9258 221.43 25.457 221.143 24.8086 221.143C24.168 221.143 23.7012 221.426 23.4082 221.992C23.1152 222.555 22.9688 223.459 22.9688 224.705ZM36.2168 221.201C35.2754 221.201 34.5312 221.516 33.9844 222.145C33.4414 222.77 33.1699 223.627 33.1699 224.717C33.1699 225.838 33.4316 226.705 33.9551 227.318C34.4824 227.928 35.2324 228.232 36.2051 228.232C36.8027 228.232 37.4844 228.125 38.25 227.91V228.783C37.6562 229.006 36.9238 229.117 36.0527 229.117C34.791 229.117 33.8164 228.734 33.1289 227.969C32.4453 227.203 32.1035 226.115 32.1035 224.705C32.1035 223.822 32.2676 223.049 32.5957 222.385C32.9277 221.721 33.4043 221.209 34.0254 220.85C34.6504 220.49 35.3848 220.311 36.2285 220.311C37.127 220.311 37.9121 220.475 38.584 220.803L38.1621 221.658C37.5137 221.354 36.8652 221.201 36.2168 221.201ZM46.623 229H45.627V224.969H41.1152V229H40.1191V220.434H41.1152V224.078H45.627V220.434H46.623V229ZM49.9746 229H48.9785V220.434H53.7539V221.318H49.9746V224.453H53.5254V225.338H49.9746V229Z" fill="#6A6A6A"/>
<path d="M11.0742 255.311C11.8555 255.311 12.4746 255.492 12.9316 255.855C13.3887 256.219 13.6172 256.721 13.6172 257.361C13.6172 257.783 13.4863 258.168 13.2246 258.516C12.9629 258.863 12.5449 259.18 11.9707 259.465C12.666 259.797 13.1602 260.146 13.4531 260.514C13.7461 260.877 13.8926 261.299 13.8926 261.779C13.8926 262.49 13.6445 263.059 13.1484 263.484C12.6523 263.906 11.9727 264.117 11.1094 264.117C10.1953 264.117 9.49219 263.918 9 263.52C8.50781 263.117 8.26172 262.549 8.26172 261.814C8.26172 260.834 8.85938 260.07 10.0547 259.523C9.51562 259.219 9.12891 258.891 8.89453 258.539C8.66016 258.184 8.54297 257.787 8.54297 257.35C8.54297 256.729 8.77148 256.234 9.22852 255.867C9.68945 255.496 10.3047 255.311 11.0742 255.311ZM9.22266 261.838C9.22266 262.307 9.38477 262.672 9.70898 262.934C10.0371 263.195 10.4961 263.326 11.0859 263.326C11.668 263.326 12.1211 263.189 12.4453 262.916C12.7695 262.643 12.9316 262.268 12.9316 261.791C12.9316 261.412 12.7793 261.076 12.4746 260.783C12.1699 260.486 11.6387 260.199 10.8809 259.922C10.2988 260.172 9.87695 260.449 9.61523 260.754C9.35352 261.055 9.22266 261.416 9.22266 261.838ZM11.0625 256.102C10.5742 256.102 10.1914 256.219 9.91406 256.453C9.63672 256.688 9.49805 257 9.49805 257.391C9.49805 257.75 9.61328 258.059 9.84375 258.316C10.0742 258.574 10.5 258.832 11.1211 259.09C11.6797 258.855 12.0742 258.604 12.3047 258.334C12.5391 258.064 12.6562 257.75 12.6562 257.391C12.6562 256.996 12.5137 256.684 12.2285 256.453C11.9473 256.219 11.5586 256.102 11.0625 256.102ZM20.7832 259.705C20.7832 261.186 20.5488 262.291 20.0801 263.021C19.6152 263.752 18.9023 264.117 17.9414 264.117C17.0195 264.117 16.3184 263.744 15.8379 262.998C15.3574 262.248 15.1172 261.15 15.1172 259.705C15.1172 258.213 15.3496 257.105 15.8145 256.383C16.2793 255.66 16.9883 255.299 17.9414 255.299C18.8711 255.299 19.5762 255.676 20.0566 256.43C20.541 257.184 20.7832 258.275 20.7832 259.705ZM16.1016 259.705C16.1016 260.951 16.248 261.859 16.541 262.43C16.834 262.996 17.3008 263.279 17.9414 263.279C18.5898 263.279 19.0586 262.992 19.3477 262.418C19.6406 261.84 19.7871 260.936 19.7871 259.705C19.7871 258.475 19.6406 257.574 19.3477 257.004C19.0586 256.43 18.5898 256.143 17.9414 256.143C17.3008 256.143 16.834 256.426 16.541 256.992C16.248 257.555 16.1016 258.459 16.1016 259.705ZM27.6504 259.705C27.6504 261.186 27.416 262.291 26.9473 263.021C26.4824 263.752 25.7695 264.117 24.8086 264.117C23.8867 264.117 23.1855 263.744 22.7051 262.998C22.2246 262.248 21.9844 261.15 21.9844 259.705C21.9844 258.213 22.2168 257.105 22.6816 256.383C23.1465 255.66 23.8555 255.299 24.8086 255.299C25.7383 255.299 26.4434 255.676 26.9238 256.43C27.4082 257.184 27.6504 258.275 27.6504 259.705ZM22.9688 259.705C22.9688 260.951 23.1152 261.859 23.4082 262.43C23.7012 262.996 24.168 263.279 24.8086 263.279C25.457 263.279 25.9258 262.992 26.2148 262.418C26.5078 261.84 26.6543 260.936 26.6543 259.705C26.6543 258.475 26.5078 257.574 26.2148 257.004C25.9258 256.43 25.457 256.143 24.8086 256.143C24.168 256.143 23.7012 256.426 23.4082 256.992C23.1152 257.555 22.9688 258.459 22.9688 259.705ZM36.2168 256.201C35.2754 256.201 34.5312 256.516 33.9844 257.145C33.4414 257.77 33.1699 258.627 33.1699 259.717C33.1699 260.838 33.4316 261.705 33.9551 262.318C34.4824 262.928 35.2324 263.232 36.2051 263.232C36.8027 263.232 37.4844 263.125 38.25 262.91V263.783C37.6562 264.006 36.9238 264.117 36.0527 264.117C34.791 264.117 33.8164 263.734 33.1289 262.969C32.4453 262.203 32.1035 261.115 32.1035 259.705C32.1035 258.822 32.2676 258.049 32.5957 257.385C32.9277 256.721 33.4043 256.209 34.0254 255.85C34.6504 255.49 35.3848 255.311 36.2285 255.311C37.127 255.311 37.9121 255.475 38.584 255.803L38.1621 256.658C37.5137 256.354 36.8652 256.201 36.2168 256.201ZM46.623 264H45.627V259.969H41.1152V264H40.1191V255.434H41.1152V259.078H45.627V255.434H46.623V264ZM49.9746 264H48.9785V255.434H53.7539V256.318H49.9746V259.453H53.5254V260.338H49.9746V264Z" fill="#6A6A6A"/>
<path d="M8.33789 295.338C8.33789 293.654 8.66406 292.396 9.31641 291.564C9.97266 290.729 10.9414 290.311 12.2227 290.311C12.6641 290.311 13.0117 290.348 13.2656 290.422V291.26C12.9648 291.162 12.6211 291.113 12.2344 291.113C11.3164 291.113 10.6152 291.4 10.1309 291.975C9.64648 292.545 9.38086 293.443 9.33398 294.67H9.4043C9.83398 293.998 10.5137 293.662 11.4434 293.662C12.2129 293.662 12.8184 293.895 13.2598 294.359C13.7051 294.824 13.9277 295.455 13.9277 296.252C13.9277 297.143 13.6836 297.844 13.1953 298.355C12.7109 298.863 12.0547 299.117 11.2266 299.117C10.3398 299.117 9.63672 298.785 9.11719 298.121C8.59766 297.453 8.33789 296.525 8.33789 295.338ZM11.2148 298.291C11.7695 298.291 12.1992 298.117 12.5039 297.77C12.8125 297.418 12.9668 296.912 12.9668 296.252C12.9668 295.686 12.8242 295.24 12.5391 294.916C12.2539 294.592 11.8281 294.43 11.2617 294.43C10.9102 294.43 10.5879 294.502 10.2949 294.646C10.002 294.791 9.76758 294.99 9.5918 295.244C9.41992 295.498 9.33398 295.762 9.33398 296.035C9.33398 296.438 9.41211 296.812 9.56836 297.16C9.72461 297.508 9.94531 297.783 10.2305 297.986C10.5195 298.189 10.8477 298.291 11.2148 298.291ZM20.7832 294.705C20.7832 296.186 20.5488 297.291 20.0801 298.021C19.6152 298.752 18.9023 299.117 17.9414 299.117C17.0195 299.117 16.3184 298.744 15.8379 297.998C15.3574 297.248 15.1172 296.15 15.1172 294.705C15.1172 293.213 15.3496 292.105 15.8145 291.383C16.2793 290.66 16.9883 290.299 17.9414 290.299C18.8711 290.299 19.5762 290.676 20.0566 291.43C20.541 292.184 20.7832 293.275 20.7832 294.705ZM16.1016 294.705C16.1016 295.951 16.248 296.859 16.541 297.43C16.834 297.996 17.3008 298.279 17.9414 298.279C18.5898 298.279 19.0586 297.992 19.3477 297.418C19.6406 296.84 19.7871 295.936 19.7871 294.705C19.7871 293.475 19.6406 292.574 19.3477 292.004C19.0586 291.43 18.5898 291.143 17.9414 291.143C17.3008 291.143 16.834 291.426 16.541 291.992C16.248 292.555 16.1016 293.459 16.1016 294.705ZM27.6504 294.705C27.6504 296.186 27.416 297.291 26.9473 298.021C26.4824 298.752 25.7695 299.117 24.8086 299.117C23.8867 299.117 23.1855 298.744 22.7051 297.998C22.2246 297.248 21.9844 296.15 21.9844 294.705C21.9844 293.213 22.2168 292.105 22.6816 291.383C23.1465 290.66 23.8555 290.299 24.8086 290.299C25.7383 290.299 26.4434 290.676 26.9238 291.43C27.4082 292.184 27.6504 293.275 27.6504 294.705ZM22.9688 294.705C22.9688 295.951 23.1152 296.859 23.4082 297.43C23.7012 297.996 24.168 298.279 24.8086 298.279C25.457 298.279 25.9258 297.992 26.2148 297.418C26.5078 296.84 26.6543 295.936 26.6543 294.705C26.6543 293.475 26.5078 292.574 26.2148 292.004C25.9258 291.43 25.457 291.143 24.8086 291.143C24.168 291.143 23.7012 291.426 23.4082 291.992C23.1152 292.555 22.9688 293.459 22.9688 294.705ZM36.2168 291.201C35.2754 291.201 34.5312 291.516 33.9844 292.145C33.4414 292.77 33.1699 293.627 33.1699 294.717C33.1699 295.838 33.4316 296.705 33.9551 297.318C34.4824 297.928 35.2324 298.232 36.2051 298.232C36.8027 298.232 37.4844 298.125 38.25 297.91V298.783C37.6562 299.006 36.9238 299.117 36.0527 299.117C34.791 299.117 33.8164 298.734 33.1289 297.969C32.4453 297.203 32.1035 296.115 32.1035 294.705C32.1035 293.822 32.2676 293.049 32.5957 292.385C32.9277 291.721 33.4043 291.209 34.0254 290.85C34.6504 290.49 35.3848 290.311 36.2285 290.311C37.127 290.311 37.9121 290.475 38.584 290.803L38.1621 291.658C37.5137 291.354 36.8652 291.201 36.2168 291.201ZM46.623 299H45.627V294.969H41.1152V299H40.1191V290.434H41.1152V294.078H45.627V290.434H46.623V299ZM49.9746 299H48.9785V290.434H53.7539V291.318H49.9746V294.453H53.5254V295.338H49.9746V299Z" fill="#6A6A6A"/>
<path d="M14.2734 332.031H13.002V334H12.0703V332.031H7.9043V331.182L11.9707 325.387H13.002V331.146H14.2734V332.031ZM12.0703 331.146V328.299C12.0703 327.74 12.0898 327.109 12.1289 326.406H12.082C11.8945 326.781 11.7188 327.092 11.5547 327.338L8.87695 331.146H12.0703ZM20.7832 329.705C20.7832 331.186 20.5488 332.291 20.0801 333.021C19.6152 333.752 18.9023 334.117 17.9414 334.117C17.0195 334.117 16.3184 333.744 15.8379 332.998C15.3574 332.248 15.1172 331.15 15.1172 329.705C15.1172 328.213 15.3496 327.105 15.8145 326.383C16.2793 325.66 16.9883 325.299 17.9414 325.299C18.8711 325.299 19.5762 325.676 20.0566 326.43C20.541 327.184 20.7832 328.275 20.7832 329.705ZM16.1016 329.705C16.1016 330.951 16.248 331.859 16.541 332.43C16.834 332.996 17.3008 333.279 17.9414 333.279C18.5898 333.279 19.0586 332.992 19.3477 332.418C19.6406 331.84 19.7871 330.936 19.7871 329.705C19.7871 328.475 19.6406 327.574 19.3477 327.004C19.0586 326.43 18.5898 326.143 17.9414 326.143C17.3008 326.143 16.834 326.426 16.541 326.992C16.248 327.555 16.1016 328.459 16.1016 329.705ZM27.6504 329.705C27.6504 331.186 27.416 332.291 26.9473 333.021C26.4824 333.752 25.7695 334.117 24.8086 334.117C23.8867 334.117 23.1855 333.744 22.7051 332.998C22.2246 332.248 21.9844 331.15 21.9844 329.705C21.9844 328.213 22.2168 327.105 22.6816 326.383C23.1465 325.66 23.8555 325.299 24.8086 325.299C25.7383 325.299 26.4434 325.676 26.9238 326.43C27.4082 327.184 27.6504 328.275 27.6504 329.705ZM22.9688 329.705C22.9688 330.951 23.1152 331.859 23.4082 332.43C23.7012 332.996 24.168 333.279 24.8086 333.279C25.457 333.279 25.9258 332.992 26.2148 332.418C26.5078 331.84 26.6543 330.936 26.6543 329.705C26.6543 328.475 26.5078 327.574 26.2148 327.004C25.9258 326.43 25.457 326.143 24.8086 326.143C24.168 326.143 23.7012 326.426 23.4082 326.992C23.1152 327.555 22.9688 328.459 22.9688 329.705ZM36.2168 326.201C35.2754 326.201 34.5312 326.516 33.9844 327.145C33.4414 327.77 33.1699 328.627 33.1699 329.717C33.1699 330.838 33.4316 331.705 33.9551 332.318C34.4824 332.928 35.2324 333.232 36.2051 333.232C36.8027 333.232 37.4844 333.125 38.25 332.91V333.783C37.6562 334.006 36.9238 334.117 36.0527 334.117C34.791 334.117 33.8164 333.734 33.1289 332.969C32.4453 332.203 32.1035 331.115 32.1035 329.705C32.1035 328.822 32.2676 328.049 32.5957 327.385C32.9277 326.721 33.4043 326.209 34.0254 325.85C34.6504 325.49 35.3848 325.311 36.2285 325.311C37.127 325.311 37.9121 325.475 38.584 325.803L38.1621 326.658C37.5137 326.354 36.8652 326.201 36.2168 326.201ZM46.623 334H45.627V329.969H41.1152V334H40.1191V325.434H41.1152V329.078H45.627V325.434H46.623V334ZM49.9746 334H48.9785V325.434H53.7539V326.318H49.9746V329.453H53.5254V330.338H49.9746V334Z" fill="#6A6A6A"/>
<path d="M13.8691 369H8.23828V368.162L10.4941 365.895C11.1816 365.199 11.6348 364.703 11.8535 364.406C12.0723 364.109 12.2363 363.82 12.3457 363.539C12.4551 363.258 12.5098 362.955 12.5098 362.631C12.5098 362.174 12.3711 361.812 12.0938 361.547C11.8164 361.277 11.4316 361.143 10.9395 361.143C10.584 361.143 10.2461 361.201 9.92578 361.318C9.60938 361.436 9.25586 361.648 8.86523 361.957L8.34961 361.295C9.13867 360.639 9.99805 360.311 10.9277 360.311C11.7324 360.311 12.3633 360.518 12.8203 360.932C13.2773 361.342 13.5059 361.895 13.5059 362.59C13.5059 363.133 13.3535 363.67 13.0488 364.201C12.7441 364.732 12.1738 365.404 11.3379 366.217L9.46289 368.051V368.098H13.8691V369ZM20.7832 364.705C20.7832 366.186 20.5488 367.291 20.0801 368.021C19.6152 368.752 18.9023 369.117 17.9414 369.117C17.0195 369.117 16.3184 368.744 15.8379 367.998C15.3574 367.248 15.1172 366.15 15.1172 364.705C15.1172 363.213 15.3496 362.105 15.8145 361.383C16.2793 360.66 16.9883 360.299 17.9414 360.299C18.8711 360.299 19.5762 360.676 20.0566 361.43C20.541 362.184 20.7832 363.275 20.7832 364.705ZM16.1016 364.705C16.1016 365.951 16.248 366.859 16.541 367.43C16.834 367.996 17.3008 368.279 17.9414 368.279C18.5898 368.279 19.0586 367.992 19.3477 367.418C19.6406 366.84 19.7871 365.936 19.7871 364.705C19.7871 363.475 19.6406 362.574 19.3477 362.004C19.0586 361.43 18.5898 361.143 17.9414 361.143C17.3008 361.143 16.834 361.426 16.541 361.992C16.248 362.555 16.1016 363.459 16.1016 364.705ZM27.6504 364.705C27.6504 366.186 27.416 367.291 26.9473 368.021C26.4824 368.752 25.7695 369.117 24.8086 369.117C23.8867 369.117 23.1855 368.744 22.7051 367.998C22.2246 367.248 21.9844 366.15 21.9844 364.705C21.9844 363.213 22.2168 362.105 22.6816 361.383C23.1465 360.66 23.8555 360.299 24.8086 360.299C25.7383 360.299 26.4434 360.676 26.9238 361.43C27.4082 362.184 27.6504 363.275 27.6504 364.705ZM22.9688 364.705C22.9688 365.951 23.1152 366.859 23.4082 367.43C23.7012 367.996 24.168 368.279 24.8086 368.279C25.457 368.279 25.9258 367.992 26.2148 367.418C26.5078 366.84 26.6543 365.936 26.6543 364.705C26.6543 363.475 26.5078 362.574 26.2148 362.004C25.9258 361.43 25.457 361.143 24.8086 361.143C24.168 361.143 23.7012 361.426 23.4082 361.992C23.1152 362.555 22.9688 363.459 22.9688 364.705ZM36.2168 361.201C35.2754 361.201 34.5312 361.516 33.9844 362.145C33.4414 362.77 33.1699 363.627 33.1699 364.717C33.1699 365.838 33.4316 366.705 33.9551 367.318C34.4824 367.928 35.2324 368.232 36.2051 368.232C36.8027 368.232 37.4844 368.125 38.25 367.91V368.783C37.6562 369.006 36.9238 369.117 36.0527 369.117C34.791 369.117 33.8164 368.734 33.1289 367.969C32.4453 367.203 32.1035 366.115 32.1035 364.705C32.1035 363.822 32.2676 363.049 32.5957 362.385C32.9277 361.721 33.4043 361.209 34.0254 360.85C34.6504 360.49 35.3848 360.311 36.2285 360.311C37.127 360.311 37.9121 360.475 38.584 360.803L38.1621 361.658C37.5137 361.354 36.8652 361.201 36.2168 361.201ZM46.623 369H45.627V364.969H41.1152V369H40.1191V360.434H41.1152V364.078H45.627V360.434H46.623V369ZM49.9746 369H48.9785V360.434H53.7539V361.318H49.9746V364.453H53.5254V365.338H49.9746V369Z" fill="#6A6A6A"/>
<path d="M27.6504 399.705C27.6504 401.186 27.416 402.291 26.9473 403.021C26.4824 403.752 25.7695 404.117 24.8086 404.117C23.8867 404.117 23.1855 403.744 22.7051 402.998C22.2246 402.248 21.9844 401.15 21.9844 399.705C21.9844 398.213 22.2168 397.105 22.6816 396.383C23.1465 395.66 23.8555 395.299 24.8086 395.299C25.7383 395.299 26.4434 395.676 26.9238 396.43C27.4082 397.184 27.6504 398.275 27.6504 399.705ZM22.9688 399.705C22.9688 400.951 23.1152 401.859 23.4082 402.43C23.7012 402.996 24.168 403.279 24.8086 403.279C25.457 403.279 25.9258 402.992 26.2148 402.418C26.5078 401.84 26.6543 400.936 26.6543 399.705C26.6543 398.475 26.5078 397.574 26.2148 397.004C25.9258 396.43 25.457 396.143 24.8086 396.143C24.168 396.143 23.7012 396.426 23.4082 396.992C23.1152 397.555 22.9688 398.459 22.9688 399.705ZM36.2168 396.201C35.2754 396.201 34.5312 396.516 33.9844 397.145C33.4414 397.77 33.1699 398.627 33.1699 399.717C33.1699 400.838 33.4316 401.705 33.9551 402.318C34.4824 402.928 35.2324 403.232 36.2051 403.232C36.8027 403.232 37.4844 403.125 38.25 402.91V403.783C37.6562 404.006 36.9238 404.117 36.0527 404.117C34.791 404.117 33.8164 403.734 33.1289 402.969C32.4453 402.203 32.1035 401.115 32.1035 399.705C32.1035 398.822 32.2676 398.049 32.5957 397.385C32.9277 396.721 33.4043 396.209 34.0254 395.85C34.6504 395.49 35.3848 395.311 36.2285 395.311C37.127 395.311 37.9121 395.475 38.584 395.803L38.1621 396.658C37.5137 396.354 36.8652 396.201 36.2168 396.201ZM46.623 404H45.627V399.969H41.1152V404H40.1191V395.434H41.1152V399.078H45.627V395.434H46.623V404ZM49.9746 404H48.9785V395.434H53.7539V396.318H49.9746V399.453H53.5254V400.338H49.9746V404Z" fill="#6A6A6A"/>
<path d="M137.418 421H131.787V420.162L134.043 417.895C134.73 417.199 135.184 416.703 135.402 416.406C135.621 416.109 135.785 415.82 135.895 415.539C136.004 415.258 136.059 414.955 136.059 414.631C136.059 414.174 135.92 413.812 135.643 413.547C135.365 413.277 134.98 413.143 134.488 413.143C134.133 413.143 133.795 413.201 133.475 413.318C133.158 413.436 132.805 413.648 132.414 413.957L131.898 413.295C132.688 412.639 133.547 412.311 134.477 412.311C135.281 412.311 135.912 412.518 136.369 412.932C136.826 413.342 137.055 413.895 137.055 414.59C137.055 415.133 136.902 415.67 136.598 416.201C136.293 416.732 135.723 417.404 134.887 418.217L133.012 420.051V420.098H137.418V421ZM138.561 418.229V417.338H141.438V418.229H138.561ZM148.305 421H142.416V420.221L146.963 413.33H142.557V412.434H148.176V413.213L143.629 420.098H148.305V421ZM150.795 421H149.822V414.578H150.795V421ZM149.74 412.838C149.74 412.615 149.795 412.453 149.904 412.352C150.014 412.246 150.15 412.193 150.314 412.193C150.471 412.193 150.605 412.246 150.719 412.352C150.832 412.457 150.889 412.619 150.889 412.838C150.889 413.057 150.832 413.221 150.719 413.33C150.605 413.436 150.471 413.488 150.314 413.488C150.15 413.488 150.014 413.436 149.904 413.33C149.795 413.221 149.74 413.057 149.74 412.838ZM161.043 421V416.822C161.043 416.311 160.934 415.928 160.715 415.674C160.496 415.416 160.156 415.287 159.695 415.287C159.09 415.287 158.643 415.461 158.354 415.809C158.064 416.156 157.92 416.691 157.92 417.414V421H156.947V416.822C156.947 416.311 156.838 415.928 156.619 415.674C156.4 415.416 156.059 415.287 155.594 415.287C154.984 415.287 154.537 415.471 154.252 415.838C153.971 416.201 153.83 416.799 153.83 417.631V421H152.857V414.578H153.648L153.807 415.457H153.854C154.037 415.145 154.295 414.9 154.627 414.725C154.963 414.549 155.338 414.461 155.752 414.461C156.756 414.461 157.412 414.824 157.721 415.551H157.768C157.959 415.215 158.236 414.949 158.6 414.754C158.963 414.559 159.377 414.461 159.842 414.461C160.568 414.461 161.111 414.648 161.471 415.023C161.834 415.395 162.016 415.99 162.016 416.811V421H161.043ZM172.211 421V416.822C172.211 416.311 172.102 415.928 171.883 415.674C171.664 415.416 171.324 415.287 170.863 415.287C170.258 415.287 169.811 415.461 169.521 415.809C169.232 416.156 169.088 416.691 169.088 417.414V421H168.115V416.822C168.115 416.311 168.006 415.928 167.787 415.674C167.568 415.416 167.227 415.287 166.762 415.287C166.152 415.287 165.705 415.471 165.42 415.838C165.139 416.201 164.998 416.799 164.998 417.631V421H164.025V414.578H164.816L164.975 415.457H165.021C165.205 415.145 165.463 414.9 165.795 414.725C166.131 414.549 166.506 414.461 166.92 414.461C167.924 414.461 168.58 414.824 168.889 415.551H168.936C169.127 415.215 169.404 414.949 169.768 414.754C170.131 414.559 170.545 414.461 171.01 414.461C171.736 414.461 172.279 414.648 172.639 415.023C173.002 415.395 173.184 415.99 173.184 416.811V421H172.211ZM177.906 421.117C176.957 421.117 176.207 420.828 175.656 420.25C175.109 419.672 174.836 418.869 174.836 417.842C174.836 416.807 175.09 415.984 175.598 415.375C176.109 414.766 176.795 414.461 177.654 414.461C178.459 414.461 179.096 414.727 179.564 415.258C180.033 415.785 180.268 416.482 180.268 417.35V417.965H175.844C175.863 418.719 176.053 419.291 176.412 419.682C176.775 420.072 177.285 420.268 177.941 420.268C178.633 420.268 179.316 420.123 179.992 419.834V420.701C179.648 420.85 179.322 420.955 179.014 421.018C178.709 421.084 178.34 421.117 177.906 421.117ZM177.643 415.275C177.127 415.275 176.715 415.443 176.406 415.779C176.102 416.115 175.922 416.58 175.867 417.174H179.225C179.225 416.561 179.088 416.092 178.814 415.768C178.541 415.439 178.15 415.275 177.643 415.275ZM184.861 414.461C185.146 414.461 185.402 414.484 185.629 414.531L185.494 415.434C185.229 415.375 184.994 415.346 184.791 415.346C184.271 415.346 183.826 415.557 183.455 415.979C183.088 416.4 182.904 416.926 182.904 417.555V421H181.932V414.578H182.734L182.846 415.768H182.893C183.131 415.35 183.418 415.027 183.754 414.801C184.09 414.574 184.459 414.461 184.861 414.461Z" fill="#6A6A6A"/>
<path d="M311.096 414.449C311.096 414.996 310.941 415.443 310.633 415.791C310.328 416.139 309.895 416.371 309.332 416.488V416.535C310.02 416.621 310.529 416.84 310.861 417.191C311.193 417.543 311.359 418.004 311.359 418.574C311.359 419.391 311.076 420.02 310.51 420.461C309.943 420.898 309.139 421.117 308.096 421.117C307.643 421.117 307.227 421.082 306.848 421.012C306.473 420.945 306.107 420.826 305.752 420.654V419.729C306.123 419.912 306.518 420.053 306.936 420.15C307.357 420.244 307.756 420.291 308.131 420.291C309.611 420.291 310.352 419.711 310.352 418.551C310.352 417.512 309.535 416.992 307.902 416.992H307.059V416.154H307.914C308.582 416.154 309.111 416.008 309.502 415.715C309.893 415.418 310.088 415.008 310.088 414.484C310.088 414.066 309.943 413.738 309.654 413.5C309.369 413.262 308.98 413.143 308.488 413.143C308.113 413.143 307.76 413.193 307.428 413.295C307.096 413.396 306.717 413.584 306.291 413.857L305.799 413.201C306.15 412.924 306.555 412.707 307.012 412.551C307.473 412.391 307.957 412.311 308.465 412.311C309.297 412.311 309.943 412.502 310.404 412.885C310.865 413.264 311.096 413.785 311.096 414.449ZM312.561 418.229V417.338H315.438V418.229H312.561ZM322.305 421H316.416V420.221L320.963 413.33H316.557V412.434H322.176V413.213L317.629 420.098H322.305V421ZM324.795 421H323.822V414.578H324.795V421ZM323.74 412.838C323.74 412.615 323.795 412.453 323.904 412.352C324.014 412.246 324.15 412.193 324.314 412.193C324.471 412.193 324.605 412.246 324.719 412.352C324.832 412.457 324.889 412.619 324.889 412.838C324.889 413.057 324.832 413.221 324.719 413.33C324.605 413.436 324.471 413.488 324.314 413.488C324.15 413.488 324.014 413.436 323.904 413.33C323.795 413.221 323.74 413.057 323.74 412.838ZM335.043 421V416.822C335.043 416.311 334.934 415.928 334.715 415.674C334.496 415.416 334.156 415.287 333.695 415.287C333.09 415.287 332.643 415.461 332.354 415.809C332.064 416.156 331.92 416.691 331.92 417.414V421H330.947V416.822C330.947 416.311 330.838 415.928 330.619 415.674C330.4 415.416 330.059 415.287 329.594 415.287C328.984 415.287 328.537 415.471 328.252 415.838C327.971 416.201 327.83 416.799 327.83 417.631V421H326.857V414.578H327.648L327.807 415.457H327.854C328.037 415.145 328.295 414.9 328.627 414.725C328.963 414.549 329.338 414.461 329.752 414.461C330.756 414.461 331.412 414.824 331.721 415.551H331.768C331.959 415.215 332.236 414.949 332.6 414.754C332.963 414.559 333.377 414.461 333.842 414.461C334.568 414.461 335.111 414.648 335.471 415.023C335.834 415.395 336.016 415.99 336.016 416.811V421H335.043ZM346.211 421V416.822C346.211 416.311 346.102 415.928 345.883 415.674C345.664 415.416 345.324 415.287 344.863 415.287C344.258 415.287 343.811 415.461 343.521 415.809C343.232 416.156 343.088 416.691 343.088 417.414V421H342.115V416.822C342.115 416.311 342.006 415.928 341.787 415.674C341.568 415.416 341.227 415.287 340.762 415.287C340.152 415.287 339.705 415.471 339.42 415.838C339.139 416.201 338.998 416.799 338.998 417.631V421H338.025V414.578H338.816L338.975 415.457H339.021C339.205 415.145 339.463 414.9 339.795 414.725C340.131 414.549 340.506 414.461 340.92 414.461C341.924 414.461 342.58 414.824 342.889 415.551H342.936C343.127 415.215 343.404 414.949 343.768 414.754C344.131 414.559 344.545 414.461 345.01 414.461C345.736 414.461 346.279 414.648 346.639 415.023C347.002 415.395 347.184 415.99 347.184 416.811V421H346.211ZM351.906 421.117C350.957 421.117 350.207 420.828 349.656 420.25C349.109 419.672 348.836 418.869 348.836 417.842C348.836 416.807 349.09 415.984 349.598 415.375C350.109 414.766 350.795 414.461 351.654 414.461C352.459 414.461 353.096 414.727 353.564 415.258C354.033 415.785 354.268 416.482 354.268 417.35V417.965H349.844C349.863 418.719 350.053 419.291 350.412 419.682C350.775 420.072 351.285 420.268 351.941 420.268C352.633 420.268 353.316 420.123 353.992 419.834V420.701C353.648 420.85 353.322 420.955 353.014 421.018C352.709 421.084 352.34 421.117 351.906 421.117ZM351.643 415.275C351.127 415.275 350.715 415.443 350.406 415.779C350.102 416.115 349.922 416.58 349.867 417.174H353.225C353.225 416.561 353.088 416.092 352.814 415.768C352.541 415.439 352.15 415.275 351.643 415.275ZM358.861 414.461C359.146 414.461 359.402 414.484 359.629 414.531L359.494 415.434C359.229 415.375 358.994 415.346 358.791 415.346C358.271 415.346 357.826 415.557 357.455 415.979C357.088 416.4 356.904 416.926 356.904 417.555V421H355.932V414.578H356.734L356.846 415.768H356.893C357.131 415.35 357.418 415.027 357.754 414.801C358.09 414.574 358.459 414.461 358.861 414.461Z" fill="#6A6A6A"/>
<path d="M485.322 419.031H484.051V421H483.119V419.031H478.953V418.182L483.02 412.387H484.051V418.146H485.322V419.031ZM483.119 418.146V415.299C483.119 414.74 483.139 414.109 483.178 413.406H483.131C482.943 413.781 482.768 414.092 482.604 414.338L479.926 418.146H483.119ZM486.061 418.229V417.338H488.938V418.229H486.061ZM495.805 421H489.916V420.221L494.463 413.33H490.057V412.434H495.676V413.213L491.129 420.098H495.805V421ZM498.295 421H497.322V414.578H498.295V421ZM497.24 412.838C497.24 412.615 497.295 412.453 497.404 412.352C497.514 412.246 497.65 412.193 497.814 412.193C497.971 412.193 498.105 412.246 498.219 412.352C498.332 412.457 498.389 412.619 498.389 412.838C498.389 413.057 498.332 413.221 498.219 413.33C498.105 413.436 497.971 413.488 497.814 413.488C497.65 413.488 497.514 413.436 497.404 413.33C497.295 413.221 497.24 413.057 497.24 412.838ZM508.543 421V416.822C508.543 416.311 508.434 415.928 508.215 415.674C507.996 415.416 507.656 415.287 507.195 415.287C506.59 415.287 506.143 415.461 505.854 415.809C505.564 416.156 505.42 416.691 505.42 417.414V421H504.447V416.822C504.447 416.311 504.338 415.928 504.119 415.674C503.9 415.416 503.559 415.287 503.094 415.287C502.484 415.287 502.037 415.471 501.752 415.838C501.471 416.201 501.33 416.799 501.33 417.631V421H500.357V414.578H501.148L501.307 415.457H501.354C501.537 415.145 501.795 414.9 502.127 414.725C502.463 414.549 502.838 414.461 503.252 414.461C504.256 414.461 504.912 414.824 505.221 415.551H505.268C505.459 415.215 505.736 414.949 506.1 414.754C506.463 414.559 506.877 414.461 507.342 414.461C508.068 414.461 508.611 414.648 508.971 415.023C509.334 415.395 509.516 415.99 509.516 416.811V421H508.543ZM519.711 421V416.822C519.711 416.311 519.602 415.928 519.383 415.674C519.164 415.416 518.824 415.287 518.363 415.287C517.758 415.287 517.311 415.461 517.021 415.809C516.732 416.156 516.588 416.691 516.588 417.414V421H515.615V416.822C515.615 416.311 515.506 415.928 515.287 415.674C515.068 415.416 514.727 415.287 514.262 415.287C513.652 415.287 513.205 415.471 512.92 415.838C512.639 416.201 512.498 416.799 512.498 417.631V421H511.525V414.578H512.316L512.475 415.457H512.521C512.705 415.145 512.963 414.9 513.295 414.725C513.631 414.549 514.006 414.461 514.42 414.461C515.424 414.461 516.08 414.824 516.389 415.551H516.436C516.627 415.215 516.904 414.949 517.268 414.754C517.631 414.559 518.045 414.461 518.51 414.461C519.236 414.461 519.779 414.648 520.139 415.023C520.502 415.395 520.684 415.99 520.684 416.811V421H519.711ZM525.406 421.117C524.457 421.117 523.707 420.828 523.156 420.25C522.609 419.672 522.336 418.869 522.336 417.842C522.336 416.807 522.59 415.984 523.098 415.375C523.609 414.766 524.295 414.461 525.154 414.461C525.959 414.461 526.596 414.727 527.064 415.258C527.533 415.785 527.768 416.482 527.768 417.35V417.965H523.344C523.363 418.719 523.553 419.291 523.912 419.682C524.275 420.072 524.785 420.268 525.441 420.268C526.133 420.268 526.816 420.123 527.492 419.834V420.701C527.148 420.85 526.822 420.955 526.514 421.018C526.209 421.084 525.84 421.117 525.406 421.117ZM525.143 415.275C524.627 415.275 524.215 415.443 523.906 415.779C523.602 416.115 523.422 416.58 523.367 417.174H526.725C526.725 416.561 526.588 416.092 526.314 415.768C526.041 415.439 525.65 415.275 525.143 415.275ZM532.361 414.461C532.646 414.461 532.902 414.484 533.129 414.531L532.994 415.434C532.729 415.375 532.494 415.346 532.291 415.346C531.771 415.346 531.326 415.557 530.955 415.979C530.588 416.4 530.404 416.926 530.404 417.555V421H529.432V414.578H530.234L530.346 415.768H530.393C530.631 415.35 530.918 415.027 531.254 414.801C531.59 414.574 531.959 414.461 532.361 414.461Z" fill="#6A6A6A"/>
<path d="M242.945 8.51172H245.857V12.6777C245.404 12.8223 244.943 12.9316 244.475 13.0059C244.006 13.0801 243.463 13.1172 242.846 13.1172C241.549 13.1172 240.539 12.7324 239.816 11.9629C239.094 11.1895 238.732 10.1074 238.732 8.7168C238.732 7.82617 238.91 7.04688 239.266 6.37891C239.625 5.70703 240.141 5.19531 240.812 4.84375C241.484 4.48828 242.271 4.31055 243.174 4.31055C244.088 4.31055 244.939 4.47852 245.729 4.81445L245.342 5.69336C244.568 5.36523 243.824 5.20117 243.109 5.20117C242.066 5.20117 241.252 5.51172 240.666 6.13281C240.08 6.75391 239.787 7.61523 239.787 8.7168C239.787 9.87305 240.068 10.75 240.631 11.3477C241.197 11.9453 242.027 12.2441 243.121 12.2441C243.715 12.2441 244.295 12.1758 244.861 12.0391V9.40234H242.945V8.51172ZM250.486 13.1172C249.537 13.1172 248.787 12.8281 248.236 12.25C247.689 11.6719 247.416 10.8691 247.416 9.8418C247.416 8.80664 247.67 7.98438 248.178 7.375C248.689 6.76562 249.375 6.46094 250.234 6.46094C251.039 6.46094 251.676 6.72656 252.145 7.25781C252.613 7.78516 252.848 8.48242 252.848 9.34961V9.96484H248.424C248.443 10.7188 248.633 11.291 248.992 11.6816C249.355 12.0723 249.865 12.2676 250.521 12.2676C251.213 12.2676 251.896 12.123 252.572 11.834V12.7012C252.229 12.8496 251.902 12.9551 251.594 13.0176C251.289 13.084 250.92 13.1172 250.486 13.1172ZM250.223 7.27539C249.707 7.27539 249.295 7.44336 248.986 7.7793C248.682 8.11523 248.502 8.58008 248.447 9.17383H251.805C251.805 8.56055 251.668 8.0918 251.395 7.76758C251.121 7.43945 250.73 7.27539 250.223 7.27539ZM262.697 13V8.82227C262.697 8.31055 262.588 7.92773 262.369 7.67383C262.15 7.41602 261.811 7.28711 261.35 7.28711C260.744 7.28711 260.297 7.46094 260.008 7.80859C259.719 8.15625 259.574 8.69141 259.574 9.41406V13H258.602V8.82227C258.602 8.31055 258.492 7.92773 258.273 7.67383C258.055 7.41602 257.713 7.28711 257.248 7.28711C256.639 7.28711 256.191 7.4707 255.906 7.83789C255.625 8.20117 255.484 8.79883 255.484 9.63086V13H254.512V6.57812H255.303L255.461 7.45703H255.508C255.691 7.14453 255.949 6.90039 256.281 6.72461C256.617 6.54883 256.992 6.46094 257.406 6.46094C258.41 6.46094 259.066 6.82422 259.375 7.55078H259.422C259.613 7.21484 259.891 6.94922 260.254 6.75391C260.617 6.55859 261.031 6.46094 261.496 6.46094C262.223 6.46094 262.766 6.64844 263.125 7.02344C263.488 7.39453 263.67 7.99023 263.67 8.81055V13H262.697ZM268.393 13.1172C267.443 13.1172 266.693 12.8281 266.143 12.25C265.596 11.6719 265.322 10.8691 265.322 9.8418C265.322 8.80664 265.576 7.98438 266.084 7.375C266.596 6.76562 267.281 6.46094 268.141 6.46094C268.945 6.46094 269.582 6.72656 270.051 7.25781C270.52 7.78516 270.754 8.48242 270.754 9.34961V9.96484H266.33C266.35 10.7188 266.539 11.291 266.898 11.6816C267.262 12.0723 267.771 12.2676 268.428 12.2676C269.119 12.2676 269.803 12.123 270.479 11.834V12.7012C270.135 12.8496 269.809 12.9551 269.5 13.0176C269.195 13.084 268.826 13.1172 268.393 13.1172ZM268.129 7.27539C267.613 7.27539 267.201 7.44336 266.893 7.7793C266.588 8.11523 266.408 8.58008 266.354 9.17383H269.711C269.711 8.56055 269.574 8.0918 269.301 7.76758C269.027 7.43945 268.637 7.27539 268.129 7.27539ZM273.391 13H272.418V6.57812H273.391V13ZM272.336 4.83789C272.336 4.61523 272.391 4.45312 272.5 4.35156C272.609 4.24609 272.746 4.19336 272.91 4.19336C273.066 4.19336 273.201 4.24609 273.314 4.35156C273.428 4.45703 273.484 4.61914 273.484 4.83789C273.484 5.05664 273.428 5.2207 273.314 5.33008C273.201 5.43555 273.066 5.48828 272.91 5.48828C272.746 5.48828 272.609 5.43555 272.5 5.33008C272.391 5.2207 272.336 5.05664 272.336 4.83789ZM279.848 13V8.8457C279.848 8.32227 279.729 7.93164 279.49 7.67383C279.252 7.41602 278.879 7.28711 278.371 7.28711C277.699 7.28711 277.207 7.46875 276.895 7.83203C276.582 8.19531 276.426 8.79492 276.426 9.63086V13H275.453V6.57812H276.244L276.402 7.45703H276.449C276.648 7.14062 276.928 6.89648 277.287 6.72461C277.646 6.54883 278.047 6.46094 278.488 6.46094C279.262 6.46094 279.844 6.64844 280.234 7.02344C280.625 7.39453 280.82 7.99023 280.82 8.81055V13H279.848ZM287.219 13V8.8457C287.219 8.32227 287.1 7.93164 286.861 7.67383C286.623 7.41602 286.25 7.28711 285.742 7.28711C285.07 7.28711 284.578 7.46875 284.266 7.83203C283.953 8.19531 283.797 8.79492 283.797 9.63086V13H282.824V6.57812H283.615L283.773 7.45703H283.82C284.02 7.14062 284.299 6.89648 284.658 6.72461C285.018 6.54883 285.418 6.46094 285.859 6.46094C286.633 6.46094 287.215 6.64844 287.605 7.02344C287.996 7.39453 288.191 7.99023 288.191 8.81055V13H287.219ZM291.109 6.57812V10.7441C291.109 11.2676 291.229 11.6582 291.467 11.916C291.705 12.1738 292.078 12.3027 292.586 12.3027C293.258 12.3027 293.748 12.1191 294.057 11.752C294.369 11.3848 294.525 10.7852 294.525 9.95312V6.57812H295.498V13H294.695L294.555 12.1387H294.502C294.303 12.4551 294.025 12.6973 293.67 12.8652C293.318 13.0332 292.916 13.1172 292.463 13.1172C291.682 13.1172 291.096 12.9316 290.705 12.5605C290.318 12.1895 290.125 11.5957 290.125 10.7793V6.57812H291.109ZM291.168 4.83789C291.168 4.63477 291.219 4.48828 291.32 4.39844C291.426 4.30859 291.551 4.26367 291.695 4.26367C291.844 4.26367 291.971 4.30859 292.076 4.39844C292.186 4.48828 292.24 4.63477 292.24 4.83789C292.24 5.0332 292.186 5.17969 292.076 5.27734C291.971 5.37109 291.844 5.41797 291.695 5.41797C291.551 5.41797 291.426 5.37109 291.32 5.27734C291.219 5.17969 291.168 5.0332 291.168 4.83789ZM293.4 4.83789C293.4 4.63477 293.451 4.48828 293.553 4.39844C293.658 4.30859 293.783 4.26367 293.928 4.26367C294.072 4.26367 294.197 4.30859 294.303 4.39844C294.412 4.48828 294.467 4.63477 294.467 4.83789C294.467 5.0332 294.412 5.17969 294.303 5.27734C294.197 5.37109 294.072 5.41797 293.928 5.41797C293.783 5.41797 293.658 5.37109 293.553 5.27734C293.451 5.17969 293.4 5.0332 293.4 4.83789ZM299.641 12.3145C299.812 12.3145 299.979 12.3027 300.139 12.2793C300.299 12.252 300.426 12.2246 300.52 12.1973V12.9414C300.414 12.9922 300.258 13.0332 300.051 13.0645C299.848 13.0996 299.664 13.1172 299.5 13.1172C298.258 13.1172 297.637 12.4629 297.637 11.1543V7.33398H296.717V6.86523L297.637 6.46094L298.047 5.08984H298.609V6.57812H300.473V7.33398H298.609V11.1133C298.609 11.5 298.701 11.7969 298.885 12.0039C299.068 12.2109 299.32 12.3145 299.641 12.3145ZM305.916 13H301.258V12.3379L304.762 7.33398H301.475V6.57812H305.828V7.33398L302.371 12.2441H305.916V13ZM308.395 13H307.422V6.57812H308.395V13ZM307.34 4.83789C307.34 4.61523 307.395 4.45312 307.504 4.35156C307.613 4.24609 307.75 4.19336 307.914 4.19336C308.07 4.19336 308.205 4.24609 308.318 4.35156C308.432 4.45703 308.488 4.61914 308.488 4.83789C308.488 5.05664 308.432 5.2207 308.318 5.33008C308.205 5.43555 308.07 5.48828 307.914 5.48828C307.75 5.48828 307.613 5.43555 307.504 5.33008C307.395 5.2207 307.34 5.05664 307.34 4.83789ZM315.713 6.57812V7.19336L314.523 7.33398C314.633 7.4707 314.73 7.65039 314.816 7.87305C314.902 8.0918 314.945 8.33984 314.945 8.61719C314.945 9.24609 314.73 9.74805 314.301 10.123C313.871 10.498 313.281 10.6855 312.531 10.6855C312.34 10.6855 312.16 10.6699 311.992 10.6387C311.578 10.8574 311.371 11.1328 311.371 11.4648C311.371 11.6406 311.443 11.7715 311.588 11.8574C311.732 11.9395 311.98 11.9805 312.332 11.9805H313.469C314.164 11.9805 314.697 12.127 315.068 12.4199C315.443 12.7129 315.631 13.1387 315.631 13.6973C315.631 14.4082 315.346 14.9492 314.775 15.3203C314.205 15.6953 313.373 15.8828 312.279 15.8828C311.439 15.8828 310.791 15.7266 310.334 15.4141C309.881 15.1016 309.654 14.6602 309.654 14.0898C309.654 13.6992 309.779 13.3613 310.029 13.0762C310.279 12.791 310.631 12.5977 311.084 12.4961C310.92 12.4219 310.781 12.3066 310.668 12.1504C310.559 11.9941 310.504 11.8125 310.504 11.6055C310.504 11.3711 310.566 11.166 310.691 10.9902C310.816 10.8145 311.014 10.6445 311.283 10.4805C310.951 10.3438 310.68 10.1113 310.469 9.7832C310.262 9.45508 310.158 9.08008 310.158 8.6582C310.158 7.95508 310.369 7.41406 310.791 7.03516C311.213 6.65234 311.811 6.46094 312.584 6.46094C312.92 6.46094 313.223 6.5 313.492 6.57812H315.713ZM310.592 14.0781C310.592 14.4258 310.738 14.6895 311.031 14.8691C311.324 15.0488 311.744 15.1387 312.291 15.1387C313.107 15.1387 313.711 15.0156 314.102 14.7695C314.496 14.5273 314.693 14.1973 314.693 13.7793C314.693 13.4316 314.586 13.1895 314.371 13.0527C314.156 12.9199 313.752 12.8535 313.158 12.8535H311.992C311.551 12.8535 311.207 12.959 310.961 13.1699C310.715 13.3809 310.592 13.6836 310.592 14.0781ZM311.119 8.63477C311.119 9.08398 311.246 9.42383 311.5 9.6543C311.754 9.88477 312.107 10 312.561 10C313.51 10 313.984 9.53906 313.984 8.61719C313.984 7.65234 313.504 7.16992 312.543 7.16992C312.086 7.16992 311.734 7.29297 311.488 7.53906C311.242 7.78516 311.119 8.15039 311.119 8.63477Z" fill="#6A6A6A"/>
<rect x="205.5" y="3.5" width="26" height="9" fill="#7A017B" fill-opacity="0.5" stroke="#7A017B"/>
<path d="M368.609 6.92969C368.609 7.79688 368.312 8.46484 367.719 8.93359C367.129 9.39844 366.283 9.63086 365.182 9.63086H364.174V13H363.178V4.43359H365.398C367.539 4.43359 368.609 5.26562 368.609 6.92969ZM364.174 8.77539H365.07C365.953 8.77539 366.592 8.63281 366.986 8.34766C367.381 8.0625 367.578 7.60547 367.578 6.97656C367.578 6.41016 367.393 5.98828 367.021 5.71094C366.65 5.43359 366.072 5.29492 365.287 5.29492H364.174V8.77539ZM373.191 6.46094C373.477 6.46094 373.732 6.48438 373.959 6.53125L373.824 7.43359C373.559 7.375 373.324 7.3457 373.121 7.3457C372.602 7.3457 372.156 7.55664 371.785 7.97852C371.418 8.40039 371.234 8.92578 371.234 9.55469V13H370.262V6.57812H371.064L371.176 7.76758H371.223C371.461 7.34961 371.748 7.02734 372.084 6.80078C372.42 6.57422 372.789 6.46094 373.191 6.46094ZM376.133 13H375.16V6.57812H376.133V13ZM375.078 4.83789C375.078 4.61523 375.133 4.45312 375.242 4.35156C375.352 4.24609 375.488 4.19336 375.652 4.19336C375.809 4.19336 375.943 4.24609 376.057 4.35156C376.17 4.45703 376.227 4.61914 376.227 4.83789C376.227 5.05664 376.17 5.2207 376.057 5.33008C375.943 5.43555 375.809 5.48828 375.652 5.48828C375.488 5.48828 375.352 5.43555 375.242 5.33008C375.133 5.2207 375.078 5.05664 375.078 4.83789ZM379.602 13L377.164 6.57812H378.207L379.59 10.3867C379.902 11.2773 380.086 11.8555 380.141 12.1211H380.188C380.23 11.9141 380.365 11.4863 380.592 10.8379C380.822 10.1855 381.336 8.76562 382.133 6.57812H383.176L380.738 13H379.602ZM388.156 13L387.963 12.0859H387.916C387.596 12.4883 387.275 12.7617 386.955 12.9062C386.639 13.0469 386.242 13.1172 385.766 13.1172C385.129 13.1172 384.629 12.9531 384.266 12.625C383.906 12.2969 383.727 11.8301 383.727 11.2246C383.727 9.92773 384.764 9.24805 386.838 9.18555L387.928 9.15039V8.75195C387.928 8.24805 387.818 7.87695 387.6 7.63867C387.385 7.39648 387.039 7.27539 386.562 7.27539C386.027 7.27539 385.422 7.43945 384.746 7.76758L384.447 7.02344C384.764 6.85156 385.109 6.7168 385.484 6.61914C385.863 6.52148 386.242 6.47266 386.621 6.47266C387.387 6.47266 387.953 6.64258 388.32 6.98242C388.691 7.32227 388.877 7.86719 388.877 8.61719V13H388.156ZM385.959 12.3145C386.564 12.3145 387.039 12.1484 387.383 11.8164C387.73 11.4844 387.904 11.0195 387.904 10.4219V9.8418L386.932 9.88281C386.158 9.91016 385.6 10.0312 385.256 10.2461C384.916 10.457 384.746 10.7871 384.746 11.2363C384.746 11.5879 384.852 11.8555 385.062 12.0391C385.277 12.2227 385.576 12.3145 385.959 12.3145ZM392.961 12.3145C393.133 12.3145 393.299 12.3027 393.459 12.2793C393.619 12.252 393.746 12.2246 393.84 12.1973V12.9414C393.734 12.9922 393.578 13.0332 393.371 13.0645C393.168 13.0996 392.984 13.1172 392.82 13.1172C391.578 13.1172 390.957 12.4629 390.957 11.1543V7.33398H390.037V6.86523L390.957 6.46094L391.367 5.08984H391.93V6.57812H393.793V7.33398H391.93V11.1133C391.93 11.5 392.021 11.7969 392.205 12.0039C392.389 12.2109 392.641 12.3145 392.961 12.3145Z" fill="#6A6A6A"/>
<rect x="329.5" y="3.5" width="26" height="9" fill="#00466D" fill-opacity="0.5" stroke="#00466D"/>
<line x1="64" y1="399.5" x2="600" y2="399.5" stroke="#999999" stroke-opacity="0.5"/>
<line x1="71.5" y1="407" x2="71.5" y2="34" stroke="#999999" stroke-opacity="0.5"/>
<line x1="245.5" y1="407" x2="245.5" y2="34" stroke="#999999" stroke-opacity="0.5"/>
<line x1="419.5" y1="407" x2="419.5" y2="34" stroke="#999999" stroke-opacity="0.5"/>
<line x1="592.5" y1="407" x2="592.5" y2="34" stroke="#999999" stroke-opacity="0.5"/>
<line x1="64" y1="364.5" x2="600" y2="364.5" stroke="#999999" stroke-opacity="0.5"/>
<line x1="64" y1="329.5" x2="600" y2="329.5" stroke="#999999" stroke-opacity="0.5"/>
<line x1="64" y1="294.5" x2="600" y2="294.5" stroke="#999999" stroke-opacity="0.5"/>
<line x1="64" y1="259.5" x2="600" y2="259.5" stroke="#999999" stroke-opacity="0.5"/>
<line x1="64" y1="224.5" x2="600" y2="224.5" stroke="#999999" stroke-opacity="0.5"/>
<line x1="64" y1="189.5" x2="600" y2="189.5" stroke="#999999" stroke-opacity="0.5"/>
<line x1="64" y1="154.5" x2="600" y2="154.5" stroke="#999999" stroke-opacity="0.5"/>
<line x1="64" y1="119.5" x2="600" y2="119.5" stroke="#999999" stroke-opacity="0.5"/>
<line x1="64" y1="84.5" x2="600" y2="84.5" stroke="#999999" stroke-opacity="0.5"/>
<line x1="64" y1="49.5" x2="600" y2="49.5" stroke="#999999" stroke-opacity="0.5"/>
<rect width="69" height="349" transform="translate(506 50)" fill="#00466D" fill-opacity="0.5"/>
<rect x="507" y="51" width="67" height="103" fill="#00466D" fill-opacity="0.5"/>
<path d="M518.707 98.3496C518.707 94.998 520.072 93.3223 522.803 93.3223C523.232 93.3223 523.596 93.3555 523.893 93.4219V94.5703C523.596 94.4844 523.252 94.4414 522.861 94.4414C521.943 94.4414 521.254 94.6875 520.793 95.1797C520.332 95.6719 520.082 96.4609 520.043 97.5469H520.113C520.297 97.2305 520.555 96.9863 520.887 96.8145C521.219 96.6387 521.609 96.5508 522.059 96.5508C522.836 96.5508 523.441 96.7891 523.875 97.2656C524.309 97.7422 524.525 98.3887 524.525 99.2051C524.525 100.104 524.273 100.814 523.77 101.338C523.27 101.857 522.586 102.117 521.719 102.117C521.105 102.117 520.572 101.971 520.119 101.678C519.666 101.381 519.316 100.951 519.07 100.389C518.828 99.8223 518.707 99.1426 518.707 98.3496ZM521.695 100.98C522.168 100.98 522.531 100.828 522.785 100.523C523.043 100.219 523.172 99.7832 523.172 99.2168C523.172 98.7246 523.051 98.3379 522.809 98.0566C522.57 97.7754 522.211 97.6348 521.73 97.6348C521.434 97.6348 521.16 97.6992 520.91 97.8281C520.66 97.9531 520.463 98.127 520.318 98.3496C520.174 98.5684 520.102 98.793 520.102 99.0234C520.102 99.5742 520.25 100.039 520.547 100.418C520.848 100.793 521.23 100.98 521.695 100.98ZM531.346 97.7168C531.346 99.2051 531.105 100.311 530.625 101.033C530.148 101.756 529.418 102.117 528.434 102.117C527.48 102.117 526.758 101.744 526.266 100.998C525.773 100.252 525.527 99.1582 525.527 97.7168C525.527 96.2051 525.766 95.0918 526.242 94.377C526.723 93.6582 527.453 93.2988 528.434 93.2988C529.391 93.2988 530.115 93.6738 530.607 94.4238C531.1 95.1738 531.346 96.2715 531.346 97.7168ZM526.922 97.7168C526.922 98.8848 527.041 99.7188 527.279 100.219C527.521 100.719 527.906 100.969 528.434 100.969C528.961 100.969 529.346 100.715 529.588 100.207C529.834 99.6992 529.957 98.8691 529.957 97.7168C529.957 96.5684 529.834 95.7383 529.588 95.2266C529.346 94.7109 528.961 94.4531 528.434 94.4531C527.906 94.4531 527.521 94.7051 527.279 95.209C527.041 95.7129 526.922 96.5488 526.922 97.7168ZM538.201 97.7168C538.201 99.2051 537.961 100.311 537.48 101.033C537.004 101.756 536.273 102.117 535.289 102.117C534.336 102.117 533.613 101.744 533.121 100.998C532.629 100.252 532.383 99.1582 532.383 97.7168C532.383 96.2051 532.621 95.0918 533.098 94.377C533.578 93.6582 534.309 93.2988 535.289 93.2988C536.246 93.2988 536.971 93.6738 537.463 94.4238C537.955 95.1738 538.201 96.2715 538.201 97.7168ZM533.777 97.7168C533.777 98.8848 533.896 99.7188 534.135 100.219C534.377 100.719 534.762 100.969 535.289 100.969C535.816 100.969 536.201 100.715 536.443 100.207C536.689 99.6992 536.812 98.8691 536.812 97.7168C536.812 96.5684 536.689 95.7383 536.443 95.2266C536.201 94.7109 535.816 94.4531 535.289 94.4531C534.762 94.4531 534.377 94.7051 534.135 95.209C533.896 95.7129 533.777 96.5488 533.777 97.7168ZM546.615 94.5117C545.811 94.5117 545.178 94.7969 544.717 95.3672C544.256 95.9375 544.025 96.7246 544.025 97.7285C544.025 98.7793 544.246 99.5742 544.688 100.113C545.133 100.652 545.775 100.922 546.615 100.922C546.979 100.922 547.33 100.887 547.67 100.816C548.01 100.742 548.363 100.648 548.73 100.535V101.736C548.059 101.99 547.297 102.117 546.445 102.117C545.191 102.117 544.229 101.738 543.557 100.98C542.885 100.219 542.549 99.1309 542.549 97.7168C542.549 96.8262 542.711 96.0469 543.035 95.3789C543.363 94.7109 543.836 94.1992 544.453 93.8438C545.07 93.4883 545.795 93.3105 546.627 93.3105C547.502 93.3105 548.311 93.4941 549.053 93.8613L548.549 95.0273C548.26 94.8906 547.953 94.7715 547.629 94.6699C547.309 94.5645 546.971 94.5117 546.615 94.5117ZM557.332 102H555.926V98.1387H551.977V102H550.576V93.4336H551.977V96.9375H555.926V93.4336H557.332V102ZM560.977 102H559.588V93.4336H564.422V94.6172H560.977V97.2949H564.205V98.4844H560.977V102ZM526.635 112.004C526.971 112.004 527.307 111.951 527.643 111.846V112.883C527.49 112.949 527.293 113.004 527.051 113.047C526.812 113.094 526.564 113.117 526.307 113.117C525.002 113.117 524.35 112.43 524.35 111.055V107.562H523.465V106.953L524.414 106.449L524.883 105.078H525.732V106.52H527.578V107.562H525.732V111.031C525.732 111.363 525.814 111.609 525.979 111.77C526.146 111.926 526.365 112.004 526.635 112.004ZM531.773 113.117C530.766 113.117 529.977 112.824 529.406 112.238C528.84 111.648 528.557 110.838 528.557 109.807C528.557 108.748 528.82 107.916 529.348 107.311C529.875 106.705 530.6 106.402 531.521 106.402C532.377 106.402 533.053 106.662 533.549 107.182C534.045 107.701 534.293 108.416 534.293 109.326V110.07H529.975C529.994 110.699 530.164 111.184 530.484 111.523C530.805 111.859 531.256 112.027 531.838 112.027C532.221 112.027 532.576 111.992 532.904 111.922C533.236 111.848 533.592 111.727 533.971 111.559V112.678C533.635 112.838 533.295 112.951 532.951 113.018C532.607 113.084 532.215 113.117 531.773 113.117ZM531.521 107.445C531.084 107.445 530.732 107.584 530.467 107.861C530.205 108.139 530.049 108.543 529.998 109.074H532.939C532.932 108.539 532.803 108.135 532.553 107.861C532.303 107.584 531.959 107.445 531.521 107.445ZM540.428 113L540.234 112.15H540.164C539.973 112.451 539.699 112.688 539.344 112.859C538.992 113.031 538.59 113.117 538.137 113.117C537.352 113.117 536.766 112.922 536.379 112.531C535.992 112.141 535.799 111.549 535.799 110.756V106.52H537.188V110.516C537.188 111.012 537.289 111.385 537.492 111.635C537.695 111.881 538.014 112.004 538.447 112.004C539.025 112.004 539.449 111.832 539.719 111.488C539.992 111.141 540.129 110.561 540.129 109.748V106.52H541.512V113H540.428ZM546.762 106.402C547.039 106.402 547.268 106.422 547.447 106.461L547.312 107.744C547.117 107.697 546.914 107.674 546.703 107.674C546.152 107.674 545.705 107.854 545.361 108.213C545.021 108.572 544.852 109.039 544.852 109.613V113H543.475V106.52H544.553L544.734 107.662H544.805C545.02 107.275 545.299 106.969 545.643 106.742C545.99 106.516 546.363 106.402 546.762 106.402ZM551.484 113.117C550.477 113.117 549.688 112.824 549.117 112.238C548.551 111.648 548.268 110.838 548.268 109.807C548.268 108.748 548.531 107.916 549.059 107.311C549.586 106.705 550.311 106.402 551.232 106.402C552.088 106.402 552.764 106.662 553.26 107.182C553.756 107.701 554.004 108.416 554.004 109.326V110.07H549.686C549.705 110.699 549.875 111.184 550.195 111.523C550.516 111.859 550.967 112.027 551.549 112.027C551.932 112.027 552.287 111.992 552.615 111.922C552.947 111.848 553.303 111.727 553.682 111.559V112.678C553.346 112.838 553.006 112.951 552.662 113.018C552.318 113.084 551.926 113.117 551.484 113.117ZM551.232 107.445C550.795 107.445 550.443 107.584 550.178 107.861C549.916 108.139 549.76 108.543 549.709 109.074H552.65C552.643 108.539 552.514 108.135 552.264 107.861C552.014 107.584 551.67 107.445 551.232 107.445ZM558.855 106.402C559.133 106.402 559.361 106.422 559.541 106.461L559.406 107.744C559.211 107.697 559.008 107.674 558.797 107.674C558.246 107.674 557.799 107.854 557.455 108.213C557.115 108.572 556.945 109.039 556.945 109.613V113H555.568V106.52H556.646L556.828 107.662H556.898C557.113 107.275 557.393 106.969 557.736 106.742C558.084 106.516 558.457 106.402 558.855 106.402Z" fill="white"/>
<rect x="507" y="51" width="67" height="103" stroke="#00466D" stroke-width="2"/>
<rect width="69" height="244" transform="translate(437 155)" fill="#7A017B" fill-opacity="0.5"/>
<rect width="69" height="277" transform="translate(333 122)" fill="#00466D" fill-opacity="0.5"/>
<rect x="334" y="123" width="67" height="98" fill="#00466D" fill-opacity="0.5"/>
<path d="M348.59 165.65C349.453 165.65 350.137 165.879 350.641 166.336C351.145 166.793 351.396 167.416 351.396 168.205C351.396 169.119 351.109 169.834 350.535 170.35C349.965 170.861 349.152 171.117 348.098 171.117C347.141 171.117 346.389 170.963 345.842 170.654V169.406C346.158 169.586 346.521 169.725 346.932 169.822C347.342 169.92 347.723 169.969 348.074 169.969C348.695 169.969 349.168 169.83 349.492 169.553C349.816 169.275 349.979 168.869 349.979 168.334C349.979 167.311 349.326 166.799 348.021 166.799C347.838 166.799 347.611 166.818 347.342 166.857C347.072 166.893 346.836 166.934 346.633 166.98L346.018 166.617L346.346 162.434H350.799V163.658H347.559L347.365 165.779C347.502 165.756 347.668 165.729 347.863 165.697C348.062 165.666 348.305 165.65 348.59 165.65ZM353.512 171L356.898 163.658H352.445V162.445H358.369V163.406L355 171H353.512ZM365.201 166.717C365.201 168.205 364.961 169.311 364.48 170.033C364.004 170.756 363.273 171.117 362.289 171.117C361.336 171.117 360.613 170.744 360.121 169.998C359.629 169.252 359.383 168.158 359.383 166.717C359.383 165.205 359.621 164.092 360.098 163.377C360.578 162.658 361.309 162.299 362.289 162.299C363.246 162.299 363.971 162.674 364.463 163.424C364.955 164.174 365.201 165.271 365.201 166.717ZM360.777 166.717C360.777 167.885 360.896 168.719 361.135 169.219C361.377 169.719 361.762 169.969 362.289 169.969C362.816 169.969 363.201 169.715 363.443 169.207C363.689 168.699 363.812 167.869 363.812 166.717C363.812 165.568 363.689 164.738 363.443 164.227C363.201 163.711 362.816 163.453 362.289 163.453C361.762 163.453 361.377 163.705 361.135 164.209C360.896 164.713 360.777 165.549 360.777 166.717ZM373.615 163.512C372.811 163.512 372.178 163.797 371.717 164.367C371.256 164.938 371.025 165.725 371.025 166.729C371.025 167.779 371.246 168.574 371.688 169.113C372.133 169.652 372.775 169.922 373.615 169.922C373.979 169.922 374.33 169.887 374.67 169.816C375.01 169.742 375.363 169.648 375.73 169.535V170.736C375.059 170.99 374.297 171.117 373.445 171.117C372.191 171.117 371.229 170.738 370.557 169.98C369.885 169.219 369.549 168.131 369.549 166.717C369.549 165.826 369.711 165.047 370.035 164.379C370.363 163.711 370.836 163.199 371.453 162.844C372.07 162.488 372.795 162.311 373.627 162.311C374.502 162.311 375.311 162.494 376.053 162.861L375.549 164.027C375.26 163.891 374.953 163.771 374.629 163.67C374.309 163.564 373.971 163.512 373.615 163.512ZM384.332 171H382.926V167.139H378.977V171H377.576V162.434H378.977V165.938H382.926V162.434H384.332V171ZM387.977 171H386.588V162.434H391.422V163.617H387.977V166.295H391.205V167.484H387.977V171ZM353.635 181.004C353.971 181.004 354.307 180.951 354.643 180.846V181.883C354.49 181.949 354.293 182.004 354.051 182.047C353.812 182.094 353.564 182.117 353.307 182.117C352.002 182.117 351.35 181.43 351.35 180.055V176.562H350.465V175.953L351.414 175.449L351.883 174.078H352.732V175.52H354.578V176.562H352.732V180.031C352.732 180.363 352.814 180.609 352.979 180.77C353.146 180.926 353.365 181.004 353.635 181.004ZM358.773 182.117C357.766 182.117 356.977 181.824 356.406 181.238C355.84 180.648 355.557 179.838 355.557 178.807C355.557 177.748 355.82 176.916 356.348 176.311C356.875 175.705 357.6 175.402 358.521 175.402C359.377 175.402 360.053 175.662 360.549 176.182C361.045 176.701 361.293 177.416 361.293 178.326V179.07H356.975C356.994 179.699 357.164 180.184 357.484 180.523C357.805 180.859 358.256 181.027 358.838 181.027C359.221 181.027 359.576 180.992 359.904 180.922C360.236 180.848 360.592 180.727 360.971 180.559V181.678C360.635 181.838 360.295 181.951 359.951 182.018C359.607 182.084 359.215 182.117 358.773 182.117ZM358.521 176.445C358.084 176.445 357.732 176.584 357.467 176.861C357.205 177.139 357.049 177.543 356.998 178.074H359.939C359.932 177.539 359.803 177.135 359.553 176.861C359.303 176.584 358.959 176.445 358.521 176.445ZM367.428 182L367.234 181.15H367.164C366.973 181.451 366.699 181.688 366.344 181.859C365.992 182.031 365.59 182.117 365.137 182.117C364.352 182.117 363.766 181.922 363.379 181.531C362.992 181.141 362.799 180.549 362.799 179.756V175.52H364.188V179.516C364.188 180.012 364.289 180.385 364.492 180.635C364.695 180.881 365.014 181.004 365.447 181.004C366.025 181.004 366.449 180.832 366.719 180.488C366.992 180.141 367.129 179.561 367.129 178.748V175.52H368.512V182H367.428ZM373.762 175.402C374.039 175.402 374.268 175.422 374.447 175.461L374.312 176.744C374.117 176.697 373.914 176.674 373.703 176.674C373.152 176.674 372.705 176.854 372.361 177.213C372.021 177.572 371.852 178.039 371.852 178.613V182H370.475V175.52H371.553L371.734 176.662H371.805C372.02 176.275 372.299 175.969 372.643 175.742C372.99 175.516 373.363 175.402 373.762 175.402ZM378.484 182.117C377.477 182.117 376.688 181.824 376.117 181.238C375.551 180.648 375.268 179.838 375.268 178.807C375.268 177.748 375.531 176.916 376.059 176.311C376.586 175.705 377.311 175.402 378.232 175.402C379.088 175.402 379.764 175.662 380.26 176.182C380.756 176.701 381.004 177.416 381.004 178.326V179.07H376.686C376.705 179.699 376.875 180.184 377.195 180.523C377.516 180.859 377.967 181.027 378.549 181.027C378.932 181.027 379.287 180.992 379.615 180.922C379.947 180.848 380.303 180.727 380.682 180.559V181.678C380.346 181.838 380.006 181.951 379.662 182.018C379.318 182.084 378.926 182.117 378.484 182.117ZM378.232 176.445C377.795 176.445 377.443 176.584 377.178 176.861C376.916 177.139 376.76 177.543 376.709 178.074H379.65C379.643 177.539 379.514 177.135 379.264 176.861C379.014 176.584 378.67 176.445 378.232 176.445ZM385.855 175.402C386.133 175.402 386.361 175.422 386.541 175.461L386.406 176.744C386.211 176.697 386.008 176.674 385.797 176.674C385.246 176.674 384.799 176.854 384.455 177.213C384.115 177.572 383.945 178.039 383.945 178.613V182H382.568V175.52H383.646L383.828 176.662H383.898C384.113 176.275 384.393 175.969 384.736 175.742C385.084 175.516 385.457 175.402 385.855 175.402Z" fill="white"/>
<rect x="334" y="123" width="67" height="98" stroke="#00466D" stroke-width="2"/>
<rect width="69" height="177" transform="translate(264 222)" fill="#7A017B" fill-opacity="0.5"/>
<rect width="69" height="234.005" transform="translate(160 165)" fill="#00466D" fill-opacity="0.5"/>
<rect x="161" y="166" width="67" height="72" fill="#00466D" fill-opacity="0.5"/>
<path d="M178.795 199.131H177.641V201H176.299V199.131H172.385V198.07L176.299 192.41H177.641V197.988H178.795V199.131ZM176.299 197.988V195.838C176.299 195.072 176.318 194.445 176.357 193.957H176.311C176.201 194.215 176.029 194.527 175.795 194.895L173.668 197.988H176.299ZM185.346 201H179.539V199.957L181.748 197.736C182.4 197.068 182.832 196.596 183.043 196.318C183.258 196.037 183.414 195.773 183.512 195.527C183.609 195.281 183.658 195.018 183.658 194.736C183.658 194.35 183.541 194.045 183.307 193.822C183.076 193.6 182.756 193.488 182.346 193.488C182.018 193.488 181.699 193.549 181.391 193.67C181.086 193.791 180.732 194.01 180.33 194.326L179.586 193.418C180.062 193.016 180.525 192.73 180.975 192.562C181.424 192.395 181.902 192.311 182.41 192.311C183.207 192.311 183.846 192.52 184.326 192.938C184.807 193.352 185.047 193.91 185.047 194.613C185.047 195 184.977 195.367 184.836 195.715C184.699 196.062 184.486 196.422 184.197 196.793C183.912 197.16 183.436 197.658 182.768 198.287L181.279 199.729V199.787H185.346V201ZM186.418 197.35C186.418 193.998 187.783 192.322 190.514 192.322C190.943 192.322 191.307 192.355 191.604 192.422V193.57C191.307 193.484 190.963 193.441 190.572 193.441C189.654 193.441 188.965 193.688 188.504 194.18C188.043 194.672 187.793 195.461 187.754 196.547H187.824C188.008 196.23 188.266 195.986 188.598 195.814C188.93 195.639 189.32 195.551 189.77 195.551C190.547 195.551 191.152 195.789 191.586 196.266C192.02 196.742 192.236 197.389 192.236 198.205C192.236 199.104 191.984 199.814 191.48 200.338C190.98 200.857 190.297 201.117 189.43 201.117C188.816 201.117 188.283 200.971 187.83 200.678C187.377 200.381 187.027 199.951 186.781 199.389C186.539 198.822 186.418 198.143 186.418 197.35ZM189.406 199.98C189.879 199.98 190.242 199.828 190.496 199.523C190.754 199.219 190.883 198.783 190.883 198.217C190.883 197.725 190.762 197.338 190.52 197.057C190.281 196.775 189.922 196.635 189.441 196.635C189.145 196.635 188.871 196.699 188.621 196.828C188.371 196.953 188.174 197.127 188.029 197.35C187.885 197.568 187.812 197.793 187.812 198.023C187.812 198.574 187.961 199.039 188.258 199.418C188.559 199.793 188.941 199.98 189.406 199.98ZM200.615 193.512C199.811 193.512 199.178 193.797 198.717 194.367C198.256 194.938 198.025 195.725 198.025 196.729C198.025 197.779 198.246 198.574 198.688 199.113C199.133 199.652 199.775 199.922 200.615 199.922C200.979 199.922 201.33 199.887 201.67 199.816C202.01 199.742 202.363 199.648 202.73 199.535V200.736C202.059 200.99 201.297 201.117 200.445 201.117C199.191 201.117 198.229 200.738 197.557 199.98C196.885 199.219 196.549 198.131 196.549 196.717C196.549 195.826 196.711 195.047 197.035 194.379C197.363 193.711 197.836 193.199 198.453 192.844C199.07 192.488 199.795 192.311 200.627 192.311C201.502 192.311 202.311 192.494 203.053 192.861L202.549 194.027C202.26 193.891 201.953 193.771 201.629 193.67C201.309 193.564 200.971 193.512 200.615 193.512ZM211.332 201H209.926V197.139H205.977V201H204.576V192.434H205.977V195.938H209.926V192.434H211.332V201ZM214.977 201H213.588V192.434H218.422V193.617H214.977V196.295H218.205V197.484H214.977V201ZM180.635 211.004C180.971 211.004 181.307 210.951 181.643 210.846V211.883C181.49 211.949 181.293 212.004 181.051 212.047C180.812 212.094 180.564 212.117 180.307 212.117C179.002 212.117 178.35 211.43 178.35 210.055V206.562H177.465V205.953L178.414 205.449L178.883 204.078H179.732V205.52H181.578V206.562H179.732V210.031C179.732 210.363 179.814 210.609 179.979 210.77C180.146 210.926 180.365 211.004 180.635 211.004ZM185.773 212.117C184.766 212.117 183.977 211.824 183.406 211.238C182.84 210.648 182.557 209.838 182.557 208.807C182.557 207.748 182.82 206.916 183.348 206.311C183.875 205.705 184.6 205.402 185.521 205.402C186.377 205.402 187.053 205.662 187.549 206.182C188.045 206.701 188.293 207.416 188.293 208.326V209.07H183.975C183.994 209.699 184.164 210.184 184.484 210.523C184.805 210.859 185.256 211.027 185.838 211.027C186.221 211.027 186.576 210.992 186.904 210.922C187.236 210.848 187.592 210.727 187.971 210.559V211.678C187.635 211.838 187.295 211.951 186.951 212.018C186.607 212.084 186.215 212.117 185.773 212.117ZM185.521 206.445C185.084 206.445 184.732 206.584 184.467 206.861C184.205 207.139 184.049 207.543 183.998 208.074H186.939C186.932 207.539 186.803 207.135 186.553 206.861C186.303 206.584 185.959 206.445 185.521 206.445ZM194.428 212L194.234 211.15H194.164C193.973 211.451 193.699 211.688 193.344 211.859C192.992 212.031 192.59 212.117 192.137 212.117C191.352 212.117 190.766 211.922 190.379 211.531C189.992 211.141 189.799 210.549 189.799 209.756V205.52H191.188V209.516C191.188 210.012 191.289 210.385 191.492 210.635C191.695 210.881 192.014 211.004 192.447 211.004C193.025 211.004 193.449 210.832 193.719 210.488C193.992 210.141 194.129 209.561 194.129 208.748V205.52H195.512V212H194.428ZM200.762 205.402C201.039 205.402 201.268 205.422 201.447 205.461L201.312 206.744C201.117 206.697 200.914 206.674 200.703 206.674C200.152 206.674 199.705 206.854 199.361 207.213C199.021 207.572 198.852 208.039 198.852 208.613V212H197.475V205.52H198.553L198.734 206.662H198.805C199.02 206.275 199.299 205.969 199.643 205.742C199.99 205.516 200.363 205.402 200.762 205.402ZM205.484 212.117C204.477 212.117 203.688 211.824 203.117 211.238C202.551 210.648 202.268 209.838 202.268 208.807C202.268 207.748 202.531 206.916 203.059 206.311C203.586 205.705 204.311 205.402 205.232 205.402C206.088 205.402 206.764 205.662 207.26 206.182C207.756 206.701 208.004 207.416 208.004 208.326V209.07H203.686C203.705 209.699 203.875 210.184 204.195 210.523C204.516 210.859 204.967 211.027 205.549 211.027C205.932 211.027 206.287 210.992 206.615 210.922C206.947 210.848 207.303 210.727 207.682 210.559V211.678C207.346 211.838 207.006 211.951 206.662 212.018C206.318 212.084 205.926 212.117 205.484 212.117ZM205.232 206.445C204.795 206.445 204.443 206.584 204.178 206.861C203.916 207.139 203.76 207.543 203.709 208.074H206.65C206.643 207.539 206.514 207.135 206.264 206.861C206.014 206.584 205.67 206.445 205.232 206.445ZM212.855 205.402C213.133 205.402 213.361 205.422 213.541 205.461L213.406 206.744C213.211 206.697 213.008 206.674 212.797 206.674C212.246 206.674 211.799 206.854 211.455 207.213C211.115 207.572 210.945 208.039 210.945 208.613V212H209.568V205.52H210.646L210.828 206.662H210.898C211.113 206.275 211.393 205.969 211.736 205.742C212.084 205.516 212.457 205.402 212.855 205.402Z" fill="white"/>
<rect x="161" y="166" width="67" height="72" stroke="#00466D" stroke-width="2"/>
<rect width="69" height="160" transform="translate(91 239)" fill="#7A017B" fill-opacity="0.5"/>
</g>
<defs>
<clipPath id="clip0">
<rect width="600" height="424" fill="white"/>
</clipPath>
</defs>
</svg>
