<svg width="64" height="200" viewBox="0 0 64 200" fill="none" xmlns="http://www.w3.org/2000/svg">
<path d="M32.7071 0.292889C32.3166 -0.0976349 31.6834 -0.0976349 31.2929 0.292889L24.9289 6.65685C24.5384 7.04738 24.5384 7.68054 24.9289 8.07106C25.3195 8.46159 25.9526 8.46159 26.3431 8.07106L32 2.41421L37.6569 8.07106C38.0474 8.46159 38.6805 8.46159 39.0711 8.07106C39.4616 7.68054 39.4616 7.04737 39.0711 6.65685L32.7071 0.292889ZM33 85.5L33 0.999996L31 0.999996L31 85.5L33 85.5Z" fill="#C51E1E"/>
<path d="M6.27637 105.5H4.16406V99.7168C4.16406 99.5573 4.16634 99.3613 4.1709 99.1289C4.17546 98.8919 4.18229 98.6504 4.19141 98.4043C4.20052 98.1536 4.20964 97.9281 4.21875 97.7275C4.16862 97.7868 4.06608 97.8893 3.91113 98.0352C3.76074 98.1764 3.61947 98.304 3.4873 98.418L2.33887 99.3408L1.32031 98.0693L4.54004 95.5059H6.27637V105.5ZM16.0107 99.7715C16.0107 100.346 15.9674 100.915 15.8809 101.48C15.7988 102.046 15.653 102.579 15.4434 103.08C15.2337 103.577 14.9398 104.019 14.5615 104.406C14.1833 104.789 13.7025 105.09 13.1191 105.309C12.5358 105.527 11.8294 105.637 11 105.637C10.804 105.637 10.5739 105.628 10.3096 105.609C10.0452 105.596 9.8265 105.573 9.65332 105.541V103.846C9.83561 103.891 10.0293 103.928 10.2344 103.955C10.4395 103.978 10.6468 103.989 10.8564 103.989C11.6904 103.989 12.333 103.857 12.7842 103.593C13.2399 103.328 13.5589 102.962 13.7412 102.492C13.9281 102.023 14.0352 101.48 14.0625 100.865H13.9805C13.8483 101.084 13.6911 101.282 13.5088 101.46C13.3311 101.633 13.1032 101.772 12.8252 101.877C12.5472 101.977 12.194 102.027 11.7656 102.027C11.196 102.027 10.6992 101.904 10.2754 101.658C9.85612 101.408 9.53027 101.048 9.29785 100.578C9.06999 100.104 8.95605 99.5322 8.95605 98.8623C8.95605 98.1377 9.09277 97.5179 9.36621 97.0029C9.64421 96.4834 10.0384 96.0846 10.5488 95.8066C11.0592 95.5286 11.6608 95.3896 12.3535 95.3896C12.8639 95.3896 13.3402 95.4785 13.7822 95.6562C14.2243 95.8294 14.6117 96.096 14.9443 96.4561C15.2816 96.8161 15.5436 97.2718 15.7305 97.8232C15.9173 98.3747 16.0107 99.0241 16.0107 99.7715ZM12.3945 97.085C11.9844 97.085 11.6494 97.2262 11.3896 97.5088C11.1299 97.7913 11 98.2334 11 98.835C11 99.318 11.1117 99.7008 11.335 99.9834C11.5583 100.266 11.8978 100.407 12.3535 100.407C12.668 100.407 12.9414 100.339 13.1738 100.202C13.4062 100.061 13.5863 99.8854 13.7139 99.6758C13.846 99.4616 13.9121 99.2428 13.9121 99.0195C13.9121 98.7871 13.8802 98.557 13.8164 98.3291C13.7526 98.1012 13.6569 97.8939 13.5293 97.707C13.4017 97.5202 13.2422 97.3698 13.0508 97.2559C12.8639 97.1419 12.6452 97.085 12.3945 97.085ZM23.6738 97.7412C23.6738 98.2015 23.5781 98.6003 23.3867 98.9375C23.1953 99.2747 22.9355 99.5505 22.6074 99.7646C22.2839 99.9788 21.9193 100.136 21.5137 100.236V100.277C22.3158 100.378 22.9242 100.624 23.3389 101.016C23.7581 101.408 23.9678 101.932 23.9678 102.588C23.9678 103.171 23.8242 103.693 23.5371 104.153C23.2546 104.614 22.8171 104.976 22.2246 105.24C21.6322 105.505 20.8688 105.637 19.9346 105.637C19.3831 105.637 18.8682 105.591 18.3896 105.5C17.9157 105.413 17.4691 105.279 17.0498 105.097V103.299C17.4782 103.518 17.9271 103.684 18.3965 103.798C18.8659 103.907 19.3034 103.962 19.709 103.962C20.4655 103.962 20.9941 103.832 21.2949 103.572C21.6003 103.308 21.7529 102.939 21.7529 102.465C21.7529 102.187 21.6823 101.952 21.541 101.761C21.3997 101.569 21.1536 101.424 20.8027 101.323C20.4564 101.223 19.971 101.173 19.3467 101.173H18.5879V99.5527H19.3604C19.9756 99.5527 20.4427 99.4958 20.7617 99.3818C21.0853 99.2633 21.304 99.1038 21.418 98.9033C21.5365 98.6982 21.5957 98.4658 21.5957 98.2061C21.5957 97.8506 21.4863 97.5726 21.2676 97.3721C21.0488 97.1715 20.6842 97.0713 20.1738 97.0713C19.8548 97.0713 19.5632 97.1123 19.2988 97.1943C19.0391 97.2718 18.8044 97.3675 18.5947 97.4814C18.3851 97.5908 18.2005 97.6979 18.041 97.8027L17.0635 96.3467C17.4554 96.0641 17.9134 95.8294 18.4375 95.6426C18.9661 95.4557 19.5951 95.3623 20.3242 95.3623C21.3542 95.3623 22.1699 95.5697 22.7715 95.9844C23.373 96.3991 23.6738 96.9847 23.6738 97.7412ZM31.6855 97.7412C31.6855 98.2015 31.5898 98.6003 31.3984 98.9375C31.207 99.2747 30.9473 99.5505 30.6191 99.7646C30.2956 99.9788 29.931 100.136 29.5254 100.236V100.277C30.3275 100.378 30.9359 100.624 31.3506 101.016C31.7699 101.408 31.9795 101.932 31.9795 102.588C31.9795 103.171 31.8359 103.693 31.5488 104.153C31.2663 104.614 30.8288 104.976 30.2363 105.24C29.6439 105.505 28.8805 105.637 27.9463 105.637C27.3949 105.637 26.8799 105.591 26.4014 105.5C25.9274 105.413 25.4808 105.279 25.0615 105.097V103.299C25.4899 103.518 25.9388 103.684 26.4082 103.798C26.8776 103.907 27.3151 103.962 27.7207 103.962C28.4772 103.962 29.0059 103.832 29.3066 103.572C29.612 103.308 29.7646 102.939 29.7646 102.465C29.7646 102.187 29.694 101.952 29.5527 101.761C29.4115 101.569 29.1654 101.424 28.8145 101.323C28.4681 101.223 27.9827 101.173 27.3584 101.173H26.5996V99.5527H27.3721C27.9873 99.5527 28.4544 99.4958 28.7734 99.3818C29.097 99.2633 29.3158 99.1038 29.4297 98.9033C29.5482 98.6982 29.6074 98.4658 29.6074 98.2061C29.6074 97.8506 29.498 97.5726 29.2793 97.3721C29.0605 97.1715 28.696 97.0713 28.1855 97.0713C27.8665 97.0713 27.5749 97.1123 27.3105 97.1943C27.0508 97.2718 26.8161 97.3675 26.6064 97.4814C26.3968 97.5908 26.2122 97.6979 26.0527 97.8027L25.0752 96.3467C25.4671 96.0641 25.9251 95.8294 26.4492 95.6426C26.9779 95.4557 27.6068 95.3623 28.3359 95.3623C29.3659 95.3623 30.1816 95.5697 30.7832 95.9844C31.3848 96.3991 31.6855 96.9847 31.6855 97.7412ZM41.6797 97.126C41.2741 97.126 40.9141 97.2057 40.5996 97.3652C40.2897 97.5202 40.0277 97.7458 39.8135 98.042C39.6038 98.3382 39.4443 98.696 39.335 99.1152C39.2256 99.5345 39.1709 100.006 39.1709 100.53C39.1709 101.237 39.2575 101.84 39.4307 102.342C39.6084 102.839 39.8818 103.219 40.251 103.483C40.6201 103.743 41.0964 103.873 41.6797 103.873C42.0853 103.873 42.4909 103.827 42.8965 103.736C43.3066 103.645 43.751 103.515 44.2295 103.347V105.124C43.7874 105.306 43.3522 105.436 42.9238 105.514C42.4954 105.596 42.0146 105.637 41.4814 105.637C40.4515 105.637 39.6038 105.425 38.9385 105.001C38.2777 104.573 37.7878 103.976 37.4688 103.21C37.1497 102.44 36.9902 101.542 36.9902 100.517C36.9902 99.7601 37.0928 99.0674 37.2979 98.4385C37.5029 97.8096 37.8037 97.265 38.2002 96.8047C38.5967 96.3444 39.0866 95.9889 39.6699 95.7383C40.2533 95.4876 40.9232 95.3623 41.6797 95.3623C42.1764 95.3623 42.6732 95.4261 43.1699 95.5537C43.6712 95.6768 44.1497 95.8477 44.6055 96.0664L43.9219 97.7891C43.5482 97.6113 43.1722 97.4564 42.7939 97.3242C42.4157 97.1921 42.0443 97.126 41.6797 97.126ZM54.5518 105.5H52.4395V101.187H48.4814V105.5H46.3623V95.5059H48.4814V99.4229H52.4395V95.5059H54.5518V105.5ZM59.166 105.5H57.0811V95.5059H62.8096V97.2422H59.166V99.8193H62.5566V101.549H59.166V105.5Z" fill="#C51E1E"/>
<path d="M31.2929 199.707C31.6834 200.098 32.3166 200.098 32.7071 199.707L39.0711 193.343C39.4616 192.953 39.4616 192.319 39.0711 191.929C38.6805 191.538 38.0474 191.538 37.6569 191.929L32 197.586L26.3431 191.929C25.9526 191.538 25.3195 191.538 24.9289 191.929C24.5384 192.319 24.5384 192.953 24.9289 193.343L31.2929 199.707ZM33 199L33 114.5L31 114.5L31 199L33 199Z" fill="#C51E1E"/>
</svg>
