<svg width="80" height="85" viewBox="0 0 80 85" fill="none" xmlns="http://www.w3.org/2000/svg">
<g clip-path="url(#clip0)">
<path d="M16.4062 44.7188H17.6953V46.5391H16.4062V49H14.1484V46.5391H9.48438L9.38281 45.1172L14.125 37.625H16.4062V44.7188ZM11.6328 44.7188H14.1484V40.7031L14 40.9609L11.6328 44.7188ZM26.7109 49H18.9141V47.4531L22.5938 43.5312C23.099 42.9792 23.4714 42.4974 23.7109 42.0859C23.9557 41.6745 24.0781 41.2839 24.0781 40.9141C24.0781 40.4089 23.9505 40.013 23.6953 39.7266C23.4401 39.4349 23.0755 39.2891 22.6016 39.2891C22.0911 39.2891 21.6875 39.4661 21.3906 39.8203C21.099 40.1693 20.9531 40.6302 20.9531 41.2031H18.6875C18.6875 40.5104 18.8516 39.8776 19.1797 39.3047C19.513 38.7318 19.9818 38.2839 20.5859 37.9609C21.1901 37.6328 21.875 37.4688 22.6406 37.4688C23.8125 37.4688 24.7214 37.75 25.3672 38.3125C26.0182 38.875 26.3438 39.6693 26.3438 40.6953C26.3438 41.2578 26.1979 41.8307 25.9062 42.4141C25.6146 42.9974 25.1146 43.6771 24.4062 44.4531L21.8203 47.1797H26.7109V49ZM34.2266 37.5078V39.3672H34.0078C32.987 39.3828 32.1641 39.6484 31.5391 40.1641C30.9193 40.6797 30.5469 41.3958 30.4219 42.3125C31.026 41.6979 31.7891 41.3906 32.7109 41.3906C33.7005 41.3906 34.487 41.7448 35.0703 42.4531C35.6536 43.1615 35.9453 44.0938 35.9453 45.25C35.9453 45.9896 35.7839 46.6589 35.4609 47.2578C35.1432 47.8568 34.6901 48.3229 34.1016 48.6562C33.5182 48.9896 32.8568 49.1562 32.1172 49.1562C30.9193 49.1562 29.9505 48.7396 29.2109 47.9062C28.4766 47.0729 28.1094 45.9609 28.1094 44.5703V43.7578C28.1094 42.5234 28.3411 41.4349 28.8047 40.4922C29.2734 39.5443 29.9427 38.8125 30.8125 38.2969C31.6875 37.776 32.7005 37.513 33.8516 37.5078H34.2266ZM32.0234 43.2031C31.6589 43.2031 31.3281 43.2995 31.0312 43.4922C30.7344 43.6797 30.5156 43.9297 30.375 44.2422V44.9297C30.375 45.6849 30.5234 46.276 30.8203 46.7031C31.1172 47.125 31.5339 47.3359 32.0703 47.3359C32.5547 47.3359 32.9453 47.1458 33.2422 46.7656C33.5443 46.3802 33.6953 45.8828 33.6953 45.2734C33.6953 44.6536 33.5443 44.1536 33.2422 43.7734C32.9401 43.3932 32.5339 43.2031 32.0234 43.2031ZM50.4453 45.2109C50.3568 46.4349 49.9036 47.3984 49.0859 48.1016C48.2734 48.8047 47.2005 49.1562 45.8672 49.1562C44.4089 49.1562 43.2604 48.6667 42.4219 47.6875C41.5885 46.7031 41.1719 45.3542 41.1719 43.6406V42.9453C41.1719 41.8516 41.3646 40.888 41.75 40.0547C42.1354 39.2214 42.6849 38.5833 43.3984 38.1406C44.1172 37.6927 44.9505 37.4688 45.8984 37.4688C47.2109 37.4688 48.2682 37.8203 49.0703 38.5234C49.8724 39.2266 50.3359 40.2135 50.4609 41.4844H48.1172C48.0599 40.75 47.8542 40.2188 47.5 39.8906C47.151 39.5573 46.6172 39.3906 45.8984 39.3906C45.1172 39.3906 44.5312 39.6719 44.1406 40.2344C43.7552 40.7917 43.5573 41.6589 43.5469 42.8359V43.6953C43.5469 44.9245 43.7318 45.8229 44.1016 46.3906C44.4766 46.9583 45.0651 47.2422 45.8672 47.2422C46.5911 47.2422 47.1302 47.0781 47.4844 46.75C47.8438 46.4167 48.0495 45.9036 48.1016 45.2109H50.4453ZM61.2422 49H58.8984V44.125H54.3281V49H51.9844V37.625H54.3281V42.2344H58.8984V37.625H61.2422V49ZM70.1406 44.3516H65.6406V49H63.2969V37.625H70.7031V39.5234H65.6406V42.4609H70.1406V44.3516Z" fill="black"/>
<path fill-rule="evenodd" clip-rule="evenodd" d="M39 29C39 29.5523 39.4477 30 40 30C40.5523 30 41 29.5523 41 29L41 3.41421L45.2929 7.70711C45.6834 8.09763 46.3166 8.09763 46.7071 7.70711C47.0976 7.31658 47.0976 6.68342 46.7071 6.29289L40.7071 0.292891C40.3166 -0.0976326 39.6834 -0.0976327 39.2929 0.292891L33.2929 6.29289C32.9024 6.68342 32.9024 7.31658 33.2929 7.70711C33.6834 8.09763 34.3166 8.09763 34.7071 7.70711L39 3.41421L39 29Z" fill="black"/>
<path fill-rule="evenodd" clip-rule="evenodd" d="M41 56C41 55.4477 40.5523 55 40 55C39.4477 55 39 55.4477 39 56L39 81.5858L34.7071 77.2929C34.3166 76.9024 33.6834 76.9024 33.2929 77.2929C32.9024 77.6834 32.9024 78.3166 33.2929 78.7071L39.2929 84.7071C39.6834 85.0976 40.3166 85.0976 40.7071 84.7071L46.7071 78.7071C47.0976 78.3166 47.0976 77.6834 46.7071 77.2929C46.3166 76.9024 45.6834 76.9024 45.2929 77.2929L41 81.5858L41 56Z" fill="black"/>
</g>
<defs>
<clipPath id="clip0">
<rect width="80" height="85" fill="white"/>
</clipPath>
</defs>
</svg>
