<svg width="80" height="114" viewBox="0 0 80 114" fill="none" xmlns="http://www.w3.org/2000/svg">
<g clip-path="url(#clip0)">
<path d="M10.0625 57.4062L10.7188 51.625H17.0938V53.5078H12.5703L12.2891 55.9531C12.8255 55.6667 13.3958 55.5234 14 55.5234C15.0833 55.5234 15.9323 55.8594 16.5469 56.5312C17.1615 57.2031 17.4688 58.1432 17.4688 59.3516C17.4688 60.0859 17.3125 60.7448 17 61.3281C16.6927 61.9062 16.25 62.3568 15.6719 62.6797C15.0938 62.9974 14.4115 63.1562 13.625 63.1562C12.9375 63.1562 12.2995 63.0182 11.7109 62.7422C11.1224 62.4609 10.6562 62.0677 10.3125 61.5625C9.97396 61.0573 9.79427 60.4818 9.77344 59.8359H12.0078C12.0547 60.3099 12.2188 60.6797 12.5 60.9453C12.7865 61.2057 13.1589 61.3359 13.6172 61.3359C14.1276 61.3359 14.5208 61.1536 14.7969 60.7891C15.0729 60.4193 15.2109 59.8984 15.2109 59.2266C15.2109 58.5807 15.0521 58.0859 14.7344 57.7422C14.4167 57.3984 13.9661 57.2266 13.3828 57.2266C12.8464 57.2266 12.4115 57.3672 12.0781 57.6484L11.8594 57.8516L10.0625 57.4062ZM26.6484 52.8906L22.25 63H19.8672L24.2734 53.4531H18.6172V51.625H26.6484V52.8906ZM35.7578 58.2969C35.7578 59.8698 35.4323 61.0729 34.7812 61.9062C34.1302 62.7396 33.1771 63.1562 31.9219 63.1562C30.6823 63.1562 29.7344 62.7474 29.0781 61.9297C28.4219 61.112 28.0859 59.9401 28.0703 58.4141V56.3203C28.0703 54.7318 28.3984 53.526 29.0547 52.7031C29.7161 51.8802 30.6667 51.4688 31.9062 51.4688C33.1458 51.4688 34.0938 51.8776 34.75 52.6953C35.4062 53.5078 35.7422 54.6771 35.7578 56.2031V58.2969ZM33.5 56C33.5 55.0573 33.3698 54.3724 33.1094 53.9453C32.8542 53.513 32.4531 53.2969 31.9062 53.2969C31.375 53.2969 30.9818 53.5026 30.7266 53.9141C30.4766 54.3203 30.3438 54.9583 30.3281 55.8281V58.5938C30.3281 59.5208 30.4531 60.2109 30.7031 60.6641C30.9583 61.112 31.3646 61.3359 31.9219 61.3359C32.474 61.3359 32.8724 61.1198 33.1172 60.6875C33.362 60.2552 33.4896 59.5938 33.5 58.7031V56ZM50.4453 59.2109C50.3568 60.4349 49.9036 61.3984 49.0859 62.1016C48.2734 62.8047 47.2005 63.1562 45.8672 63.1562C44.4089 63.1562 43.2604 62.6667 42.4219 61.6875C41.5885 60.7031 41.1719 59.3542 41.1719 57.6406V56.9453C41.1719 55.8516 41.3646 54.888 41.75 54.0547C42.1354 53.2214 42.6849 52.5833 43.3984 52.1406C44.1172 51.6927 44.9505 51.4688 45.8984 51.4688C47.2109 51.4688 48.2682 51.8203 49.0703 52.5234C49.8724 53.2266 50.3359 54.2135 50.4609 55.4844H48.1172C48.0599 54.75 47.8542 54.2188 47.5 53.8906C47.151 53.5573 46.6172 53.3906 45.8984 53.3906C45.1172 53.3906 44.5312 53.6719 44.1406 54.2344C43.7552 54.7917 43.5573 55.6589 43.5469 56.8359V57.6953C43.5469 58.9245 43.7318 59.8229 44.1016 60.3906C44.4766 60.9583 45.0651 61.2422 45.8672 61.2422C46.5911 61.2422 47.1302 61.0781 47.4844 60.75C47.8438 60.4167 48.0495 59.9036 48.1016 59.2109H50.4453ZM61.2422 63H58.8984V58.125H54.3281V63H51.9844V51.625H54.3281V56.2344H58.8984V51.625H61.2422V63ZM70.1406 58.3516H65.6406V63H63.2969V51.625H70.7031V53.5234H65.6406V56.4609H70.1406V58.3516Z" fill="black"/>
<path fill-rule="evenodd" clip-rule="evenodd" d="M39 43C39 43.5523 39.4477 44 40 44C40.5523 44 41 43.5523 41 43L41 3.41421L45.2929 7.70711C45.6834 8.09763 46.3166 8.09763 46.7071 7.70711C47.0976 7.31658 47.0976 6.68342 46.7071 6.29289L40.7071 0.292891C40.3166 -0.0976307 39.6834 -0.0976308 39.2929 0.292891L33.2929 6.29289C32.9024 6.68342 32.9024 7.31658 33.2929 7.70711C33.6834 8.09763 34.3166 8.09763 34.7071 7.70711L39 3.41421L39 43Z" fill="black"/>
<path fill-rule="evenodd" clip-rule="evenodd" d="M41 71C41 70.4477 40.5523 70 40 70C39.4477 70 39 70.4477 39 71L39 110.586L34.7071 106.293C34.3166 105.902 33.6834 105.902 33.2929 106.293C32.9024 106.683 32.9024 107.317 33.2929 107.707L39.2929 113.707C39.6834 114.098 40.3166 114.098 40.7071 113.707L46.7071 107.707C47.0976 107.317 47.0976 106.683 46.7071 106.293C46.3166 105.902 45.6834 105.902 45.2929 106.293L41 110.586L41 71Z" fill="black"/>
</g>
<defs>
<clipPath id="clip0">
<rect width="80" height="114" fill="white"/>
</clipPath>
</defs>
</svg>
