<svg width="80" height="120" viewBox="0 0 80 120" fill="none" xmlns="http://www.w3.org/2000/svg">
<g clip-path="url(#clip0)">
<path d="M15.8516 54.5078V56.3672H15.6328C14.612 56.3828 13.7891 56.6484 13.1641 57.1641C12.5443 57.6797 12.1719 58.3958 12.0469 59.3125C12.651 58.6979 13.4141 58.3906 14.3359 58.3906C15.3255 58.3906 16.112 58.7448 16.6953 59.4531C17.2786 60.1615 17.5703 61.0938 17.5703 62.25C17.5703 62.9896 17.4089 63.6589 17.0859 64.2578C16.7682 64.8568 16.3151 65.3229 15.7266 65.6562C15.1432 65.9896 14.4818 66.1562 13.7422 66.1562C12.5443 66.1562 11.5755 65.7396 10.8359 64.9062C10.1016 64.0729 9.73438 62.9609 9.73438 61.5703V60.7578C9.73438 59.5234 9.96615 58.4349 10.4297 57.4922C10.8984 56.5443 11.5677 55.8125 12.4375 55.2969C13.3125 54.776 14.3255 54.513 15.4766 54.5078H15.8516ZM13.6484 60.2031C13.2839 60.2031 12.9531 60.2995 12.6562 60.4922C12.3594 60.6797 12.1406 60.9297 12 61.2422V61.9297C12 62.6849 12.1484 63.276 12.4453 63.7031C12.7422 64.125 13.1589 64.3359 13.6953 64.3359C14.1797 64.3359 14.5703 64.1458 14.8672 63.7656C15.1693 63.3802 15.3203 62.8828 15.3203 62.2734C15.3203 61.6536 15.1693 61.1536 14.8672 60.7734C14.5651 60.3932 14.1589 60.2031 13.6484 60.2031ZM26.5703 61.2969C26.5703 62.8698 26.2448 64.0729 25.5938 64.9062C24.9427 65.7396 23.9896 66.1562 22.7344 66.1562C21.4948 66.1562 20.5469 65.7474 19.8906 64.9297C19.2344 64.112 18.8984 62.9401 18.8828 61.4141V59.3203C18.8828 57.7318 19.2109 56.526 19.8672 55.7031C20.5286 54.8802 21.4792 54.4688 22.7188 54.4688C23.9583 54.4688 24.9062 54.8776 25.5625 55.6953C26.2188 56.5078 26.5547 57.6771 26.5703 59.2031V61.2969ZM24.3125 59C24.3125 58.0573 24.1823 57.3724 23.9219 56.9453C23.6667 56.513 23.2656 56.2969 22.7188 56.2969C22.1875 56.2969 21.7943 56.5026 21.5391 56.9141C21.2891 57.3203 21.1562 57.9583 21.1406 58.8281V61.5938C21.1406 62.5208 21.2656 63.2109 21.5156 63.6641C21.7708 64.112 22.1771 64.3359 22.7344 64.3359C23.2865 64.3359 23.6849 64.1198 23.9297 63.6875C24.1745 63.2552 24.3021 62.5938 24.3125 61.7031V59ZM35.7578 61.2969C35.7578 62.8698 35.4323 64.0729 34.7812 64.9062C34.1302 65.7396 33.1771 66.1562 31.9219 66.1562C30.6823 66.1562 29.7344 65.7474 29.0781 64.9297C28.4219 64.112 28.0859 62.9401 28.0703 61.4141V59.3203C28.0703 57.7318 28.3984 56.526 29.0547 55.7031C29.7161 54.8802 30.6667 54.4688 31.9062 54.4688C33.1458 54.4688 34.0938 54.8776 34.75 55.6953C35.4062 56.5078 35.7422 57.6771 35.7578 59.2031V61.2969ZM33.5 59C33.5 58.0573 33.3698 57.3724 33.1094 56.9453C32.8542 56.513 32.4531 56.2969 31.9062 56.2969C31.375 56.2969 30.9818 56.5026 30.7266 56.9141C30.4766 57.3203 30.3438 57.9583 30.3281 58.8281V61.5938C30.3281 62.5208 30.4531 63.2109 30.7031 63.6641C30.9583 64.112 31.3646 64.3359 31.9219 64.3359C32.474 64.3359 32.8724 64.1198 33.1172 63.6875C33.362 63.2552 33.4896 62.5938 33.5 61.7031V59ZM50.4453 62.2109C50.3568 63.4349 49.9036 64.3984 49.0859 65.1016C48.2734 65.8047 47.2005 66.1562 45.8672 66.1562C44.4089 66.1562 43.2604 65.6667 42.4219 64.6875C41.5885 63.7031 41.1719 62.3542 41.1719 60.6406V59.9453C41.1719 58.8516 41.3646 57.888 41.75 57.0547C42.1354 56.2214 42.6849 55.5833 43.3984 55.1406C44.1172 54.6927 44.9505 54.4688 45.8984 54.4688C47.2109 54.4688 48.2682 54.8203 49.0703 55.5234C49.8724 56.2266 50.3359 57.2135 50.4609 58.4844H48.1172C48.0599 57.75 47.8542 57.2188 47.5 56.8906C47.151 56.5573 46.6172 56.3906 45.8984 56.3906C45.1172 56.3906 44.5312 56.6719 44.1406 57.2344C43.7552 57.7917 43.5573 58.6589 43.5469 59.8359V60.6953C43.5469 61.9245 43.7318 62.8229 44.1016 63.3906C44.4766 63.9583 45.0651 64.2422 45.8672 64.2422C46.5911 64.2422 47.1302 64.0781 47.4844 63.75C47.8438 63.4167 48.0495 62.9036 48.1016 62.2109H50.4453ZM61.2422 66H58.8984V61.125H54.3281V66H51.9844V54.625H54.3281V59.2344H58.8984V54.625H61.2422V66ZM70.1406 61.3516H65.6406V66H63.2969V54.625H70.7031V56.5234H65.6406V59.4609H70.1406V61.3516Z" fill="black"/>
<path fill-rule="evenodd" clip-rule="evenodd" d="M42 74C42 73.4477 41.5523 73 41 73C40.4477 73 40 73.4477 40 74L40 116.586L35.7071 112.293C35.3166 111.902 34.6834 111.902 34.2929 112.293C33.9024 112.683 33.9024 113.317 34.2929 113.707L40.2929 119.707C40.6834 120.098 41.3166 120.098 41.7071 119.707L47.7071 113.707C48.0976 113.317 48.0976 112.683 47.7071 112.293C47.3166 111.902 46.6834 111.902 46.2929 112.293L42 116.586L42 74Z" fill="black"/>
<path fill-rule="evenodd" clip-rule="evenodd" d="M40 46C40 46.5523 40.4477 47 41 47C41.5523 47 42 46.5523 42 46L42 3.41421L46.2929 7.70711C46.6834 8.09763 47.3166 8.09763 47.7071 7.70711C48.0976 7.31658 48.0976 6.68342 47.7071 6.29289L41.7071 0.292892C41.3166 -0.0976301 40.6834 -0.0976302 40.2929 0.292892L34.2929 6.29289C33.9024 6.68342 33.9024 7.31658 34.2929 7.70711C34.6834 8.09763 35.3166 8.09763 35.7071 7.70711L40 3.41421L40 46Z" fill="black"/>
</g>
<defs>
<clipPath id="clip0">
<rect width="80" height="120" fill="white"/>
</clipPath>
</defs>
</svg>
