<svg width="56" height="102" viewBox="0 0 56 102" fill="none" xmlns="http://www.w3.org/2000/svg">
<path d="M28.7071 0.292893C28.3166 -0.0976308 27.6834 -0.0976308 27.2929 0.292893L20.9289 6.65685C20.5384 7.04738 20.5384 7.68054 20.9289 8.07107C21.3195 8.46159 21.9526 8.46159 22.3431 8.07107L28 2.41421L33.6569 8.07107C34.0474 8.46159 34.6805 8.46159 35.0711 8.07107C35.4616 7.68054 35.4616 7.04738 35.0711 6.65685L28.7071 0.292893ZM29 36.5L29 1L27 1L27 36.5L29 36.5Z" fill="#C51E1E"/>
<path d="M8.00488 50.7715C8.00488 51.3457 7.96159 51.9154 7.875 52.4805C7.79297 53.0456 7.64714 53.5788 7.4375 54.0801C7.22786 54.5768 6.93392 55.0189 6.55566 55.4062C6.17741 55.7891 5.69661 56.0898 5.11328 56.3086C4.52995 56.5273 3.82357 56.6367 2.99414 56.6367C2.79818 56.6367 2.56803 56.6276 2.30371 56.6094C2.03939 56.5957 1.82064 56.5729 1.64746 56.541V54.8457C1.82975 54.8913 2.02344 54.9277 2.22852 54.9551C2.43359 54.9779 2.64095 54.9893 2.85059 54.9893C3.68457 54.9893 4.32715 54.8571 4.77832 54.5928C5.23405 54.3285 5.55306 53.9616 5.73535 53.4922C5.9222 53.0228 6.0293 52.4805 6.05664 51.8652H5.97461C5.84245 52.084 5.68522 52.2822 5.50293 52.46C5.3252 52.6331 5.09733 52.7721 4.81934 52.877C4.54134 52.9772 4.18815 53.0273 3.75977 53.0273C3.1901 53.0273 2.69336 52.9043 2.26953 52.6582C1.85026 52.4076 1.52441 52.0475 1.29199 51.5781C1.06413 51.1042 0.950195 50.5322 0.950195 49.8623C0.950195 49.1377 1.08691 48.5179 1.36035 48.0029C1.63835 47.4834 2.03255 47.0846 2.54297 46.8066C3.05339 46.5286 3.65495 46.3896 4.34766 46.3896C4.85807 46.3896 5.33431 46.4785 5.77637 46.6562C6.21842 46.8294 6.60579 47.096 6.93848 47.4561C7.27572 47.8161 7.53776 48.2718 7.72461 48.8232C7.91146 49.3747 8.00488 50.0241 8.00488 50.7715ZM4.38867 48.085C3.97852 48.085 3.64355 48.2262 3.38379 48.5088C3.12402 48.7913 2.99414 49.2334 2.99414 49.835C2.99414 50.318 3.10579 50.7008 3.3291 50.9834C3.55241 51.266 3.89193 51.4072 4.34766 51.4072C4.66211 51.4072 4.93555 51.3389 5.16797 51.2021C5.40039 51.0609 5.5804 50.8854 5.70801 50.6758C5.84017 50.4616 5.90625 50.2428 5.90625 50.0195C5.90625 49.7871 5.87435 49.557 5.81055 49.3291C5.74674 49.1012 5.65104 48.8939 5.52344 48.707C5.39583 48.5202 5.23633 48.3698 5.04492 48.2559C4.85807 48.1419 4.63932 48.085 4.38867 48.085ZM10.0625 56.5L13.8154 48.2832H8.88672V46.5059H16.0576V47.832L12.2773 56.5H10.0625ZM20.5283 46.376C21.1025 46.376 21.6312 46.4648 22.1143 46.6426C22.6019 46.8203 22.9915 47.0892 23.2832 47.4492C23.5749 47.8047 23.7207 48.2513 23.7207 48.7891C23.7207 49.1901 23.641 49.541 23.4814 49.8418C23.3265 50.1426 23.1146 50.4069 22.8457 50.6348C22.5768 50.8581 22.2715 51.054 21.9297 51.2227C22.2852 51.4095 22.6224 51.6283 22.9414 51.8789C23.2604 52.125 23.5202 52.4144 23.7207 52.7471C23.9258 53.0798 24.0283 53.4671 24.0283 53.9092C24.0283 54.4652 23.8802 54.9482 23.584 55.3584C23.2878 55.764 22.8776 56.0785 22.3535 56.3018C21.8294 56.5251 21.221 56.6367 20.5283 56.6367C19.7809 56.6367 19.1452 56.5296 18.6211 56.3154C18.097 56.1012 17.6982 55.7959 17.4248 55.3994C17.1514 54.9984 17.0146 54.5199 17.0146 53.9639C17.0146 53.5081 17.099 53.1117 17.2676 52.7744C17.4408 52.4372 17.6732 52.1478 17.9648 51.9062C18.2565 51.6602 18.5778 51.4505 18.9287 51.2773C18.6325 51.0905 18.3613 50.8786 18.1152 50.6416C17.8737 50.4046 17.68 50.1335 17.5342 49.8281C17.3929 49.5228 17.3223 49.1719 17.3223 48.7754C17.3223 48.2467 17.4704 47.8047 17.7666 47.4492C18.0674 47.0938 18.4616 46.8271 18.9492 46.6494C19.4368 46.4671 19.9632 46.376 20.5283 46.376ZM18.9697 53.8408C18.9697 54.2008 19.0973 54.4993 19.3525 54.7363C19.6123 54.9688 19.9951 55.085 20.501 55.085C21.0251 55.085 21.417 54.9733 21.6768 54.75C21.9365 54.5221 22.0664 54.2236 22.0664 53.8545C22.0664 53.5993 21.9912 53.376 21.8408 53.1846C21.695 52.9932 21.5104 52.8223 21.2871 52.6719C21.0638 52.5169 20.8382 52.3734 20.6104 52.2412L20.4258 52.1455C20.1341 52.2777 19.8789 52.4258 19.6602 52.5898C19.446 52.7539 19.2773 52.9385 19.1543 53.1436C19.0312 53.3486 18.9697 53.5811 18.9697 53.8408ZM20.5146 47.9209C20.1683 47.9209 19.8812 48.0098 19.6533 48.1875C19.4255 48.3652 19.3115 48.6159 19.3115 48.9395C19.3115 49.1673 19.3662 49.3678 19.4756 49.541C19.5895 49.7096 19.7376 49.8577 19.9199 49.9854C20.1068 50.113 20.3096 50.2314 20.5283 50.3408C20.738 50.2406 20.9339 50.1289 21.1162 50.0059C21.2985 49.8828 21.4466 49.7347 21.5605 49.5615C21.6745 49.3883 21.7314 49.181 21.7314 48.9395C21.7314 48.6159 21.6152 48.3652 21.3828 48.1875C21.1549 48.0098 20.8656 47.9209 20.5146 47.9209ZM33.6738 48.126C33.2682 48.126 32.9082 48.2057 32.5938 48.3652C32.2839 48.5202 32.0218 48.7458 31.8076 49.042C31.598 49.3382 31.4385 49.696 31.3291 50.1152C31.2197 50.5345 31.165 51.0062 31.165 51.5303C31.165 52.2367 31.2516 52.8405 31.4248 53.3418C31.6025 53.8385 31.876 54.2191 32.2451 54.4834C32.6143 54.7432 33.0905 54.873 33.6738 54.873C34.0794 54.873 34.485 54.8275 34.8906 54.7363C35.3008 54.6452 35.7451 54.5153 36.2236 54.3467V56.124C35.7816 56.3063 35.3464 56.4362 34.918 56.5137C34.4896 56.5957 34.0088 56.6367 33.4756 56.6367C32.4456 56.6367 31.598 56.4248 30.9326 56.001C30.2718 55.5726 29.7819 54.9756 29.4629 54.21C29.1439 53.4398 28.9844 52.542 28.9844 51.5166C28.9844 50.7601 29.0869 50.0674 29.292 49.4385C29.4971 48.8096 29.7979 48.265 30.1943 47.8047C30.5908 47.3444 31.0807 46.9889 31.6641 46.7383C32.2474 46.4876 32.9173 46.3623 33.6738 46.3623C34.1706 46.3623 34.6673 46.4261 35.1641 46.5537C35.6654 46.6768 36.1439 46.8477 36.5996 47.0664L35.916 48.7891C35.5423 48.6113 35.1663 48.4564 34.7881 48.3242C34.4098 48.1921 34.0384 48.126 33.6738 48.126ZM46.5459 56.5H44.4336V52.1865H40.4756V56.5H38.3564V46.5059H40.4756V50.4229H44.4336V46.5059H46.5459V56.5ZM51.1602 56.5H49.0752V46.5059H54.8037V48.2422H51.1602V50.8193H54.5508V52.5488H51.1602V56.5Z" fill="#C51E1E"/>
<path d="M27.2929 101.707C27.6834 102.098 28.3166 102.098 28.7071 101.707L35.0711 95.3431C35.4616 94.9526 35.4616 94.3195 35.0711 93.9289C34.6805 93.5384 34.0474 93.5384 33.6569 93.9289L28 99.5858L22.3431 93.9289C21.9526 93.5384 21.3195 93.5384 20.9289 93.9289C20.5384 94.3195 20.5384 94.9526 20.9289 95.3431L27.2929 101.707ZM29 101L29 65.5L27 65.5L27 101L29 101Z" fill="#C51E1E"/>
</svg>
