<svg width="64" height="162" viewBox="0 0 64 162" fill="none" xmlns="http://www.w3.org/2000/svg">
<path d="M32.7071 0.292894C32.3166 -0.0976301 31.6834 -0.0976301 31.2929 0.292894L24.9289 6.65686C24.5384 7.04738 24.5384 7.68054 24.9289 8.07107C25.3195 8.46159 25.9526 8.46159 26.3431 8.07107L32 2.41421L37.6569 8.07107C38.0474 8.46159 38.6805 8.46159 39.0711 8.07107C39.4616 7.68054 39.4616 7.04738 39.0711 6.65685L32.7071 0.292894ZM33 66.5L33 1L31 1L31 66.5L33 66.5Z" fill="#C51E1E"/>
<path d="M6.27637 86.5H4.16406V80.7168C4.16406 80.5573 4.16634 80.3613 4.1709 80.1289C4.17546 79.8919 4.18229 79.6504 4.19141 79.4043C4.20052 79.1536 4.20964 78.9281 4.21875 78.7275C4.16862 78.7868 4.06608 78.8893 3.91113 79.0352C3.76074 79.1764 3.61947 79.304 3.4873 79.418L2.33887 80.3408L1.32031 79.0693L4.54004 76.5059H6.27637V86.5ZM12.7021 80.1152C13.3128 80.1152 13.8551 80.2314 14.3291 80.4639C14.8076 80.6963 15.1836 81.0381 15.457 81.4893C15.7305 81.9404 15.8672 82.4964 15.8672 83.1572C15.8672 83.8773 15.7168 84.4993 15.416 85.0234C15.1198 85.543 14.6755 85.9417 14.083 86.2197C13.4951 86.4977 12.7614 86.6367 11.8818 86.6367C11.3577 86.6367 10.8633 86.5911 10.3984 86.5C9.93815 86.4134 9.53483 86.279 9.18848 86.0967V84.2715C9.53483 84.4538 9.94954 84.6087 10.4326 84.7363C10.9202 84.8594 11.3783 84.9209 11.8066 84.9209C12.2259 84.9209 12.5791 84.8662 12.8662 84.7568C13.1533 84.6429 13.3698 84.4697 13.5156 84.2373C13.666 84.0003 13.7412 83.6995 13.7412 83.335C13.7412 82.8473 13.5771 82.4736 13.249 82.2139C12.9209 81.9541 12.4173 81.8242 11.7383 81.8242C11.4785 81.8242 11.2074 81.8493 10.9248 81.8994C10.6468 81.9495 10.4144 81.9997 10.2275 82.0498L9.38672 81.5986L9.7627 76.5059H15.1836V78.2969H11.6152L11.4307 80.2588C11.5856 80.2269 11.7542 80.195 11.9365 80.1631C12.1188 80.1312 12.374 80.1152 12.7021 80.1152ZM20.7139 80.1152C21.3245 80.1152 21.8669 80.2314 22.3408 80.4639C22.8193 80.6963 23.1953 81.0381 23.4688 81.4893C23.7422 81.9404 23.8789 82.4964 23.8789 83.1572C23.8789 83.8773 23.7285 84.4993 23.4277 85.0234C23.1315 85.543 22.6872 85.9417 22.0947 86.2197C21.5068 86.4977 20.7731 86.6367 19.8936 86.6367C19.3695 86.6367 18.875 86.5911 18.4102 86.5C17.9499 86.4134 17.5465 86.279 17.2002 86.0967V84.2715C17.5465 84.4538 17.9613 84.6087 18.4443 84.7363C18.932 84.8594 19.39 84.9209 19.8184 84.9209C20.2376 84.9209 20.5908 84.8662 20.8779 84.7568C21.165 84.6429 21.3815 84.4697 21.5273 84.2373C21.6777 84.0003 21.7529 83.6995 21.7529 83.335C21.7529 82.8473 21.5889 82.4736 21.2607 82.2139C20.9326 81.9541 20.429 81.8242 19.75 81.8242C19.4902 81.8242 19.2191 81.8493 18.9365 81.8994C18.6585 81.9495 18.4261 81.9997 18.2393 82.0498L17.3984 81.5986L17.7744 76.5059H23.1953V78.2969H19.627L19.4424 80.2588C19.5973 80.2269 19.766 80.195 19.9482 80.1631C20.1305 80.1312 20.3857 80.1152 20.7139 80.1152ZM28.5342 76.376C29.1084 76.376 29.637 76.4648 30.1201 76.6426C30.6077 76.8203 30.9974 77.0892 31.2891 77.4492C31.5807 77.8047 31.7266 78.2513 31.7266 78.7891C31.7266 79.1901 31.6468 79.541 31.4873 79.8418C31.3324 80.1426 31.1204 80.4069 30.8516 80.6348C30.5827 80.8581 30.2773 81.054 29.9355 81.2227C30.291 81.4095 30.6283 81.6283 30.9473 81.8789C31.2663 82.125 31.526 82.4144 31.7266 82.7471C31.9316 83.0798 32.0342 83.4671 32.0342 83.9092C32.0342 84.4652 31.8861 84.9482 31.5898 85.3584C31.2936 85.764 30.8835 86.0785 30.3594 86.3018C29.8353 86.5251 29.2269 86.6367 28.5342 86.6367C27.7868 86.6367 27.151 86.5296 26.627 86.3154C26.1029 86.1012 25.7041 85.7959 25.4307 85.3994C25.1572 84.9984 25.0205 84.5199 25.0205 83.9639C25.0205 83.5081 25.1048 83.1117 25.2734 82.7744C25.4466 82.4372 25.679 82.1478 25.9707 81.9062C26.2624 81.6602 26.5837 81.4505 26.9346 81.2773C26.6383 81.0905 26.3672 80.8786 26.1211 80.6416C25.8796 80.4046 25.6859 80.1335 25.54 79.8281C25.3988 79.5228 25.3281 79.1719 25.3281 78.7754C25.3281 78.2467 25.4762 77.8047 25.7725 77.4492C26.0732 77.0938 26.4674 76.8271 26.9551 76.6494C27.4427 76.4671 27.9691 76.376 28.5342 76.376ZM26.9756 83.8408C26.9756 84.2008 27.1032 84.4993 27.3584 84.7363C27.6182 84.9688 28.001 85.085 28.5068 85.085C29.0309 85.085 29.4229 84.9733 29.6826 84.75C29.9424 84.5221 30.0723 84.2236 30.0723 83.8545C30.0723 83.5993 29.9971 83.376 29.8467 83.1846C29.7008 82.9932 29.5163 82.8223 29.293 82.6719C29.0697 82.5169 28.8441 82.3734 28.6162 82.2412L28.4316 82.1455C28.14 82.2777 27.8848 82.4258 27.666 82.5898C27.4518 82.7539 27.2832 82.9385 27.1602 83.1436C27.0371 83.3486 26.9756 83.5811 26.9756 83.8408ZM28.5205 77.9209C28.1742 77.9209 27.887 78.0098 27.6592 78.1875C27.4313 78.3652 27.3174 78.6159 27.3174 78.9395C27.3174 79.1673 27.3721 79.3678 27.4814 79.541C27.5954 79.7096 27.7435 79.8577 27.9258 79.9854C28.1126 80.113 28.3154 80.2314 28.5342 80.3408C28.7438 80.2406 28.9398 80.1289 29.1221 80.0059C29.3044 79.8828 29.4525 79.7347 29.5664 79.5615C29.6803 79.3883 29.7373 79.181 29.7373 78.9395C29.7373 78.6159 29.6211 78.3652 29.3887 78.1875C29.1608 78.0098 28.8714 77.9209 28.5205 77.9209ZM41.6797 78.126C41.2741 78.126 40.9141 78.2057 40.5996 78.3652C40.2897 78.5202 40.0277 78.7458 39.8135 79.042C39.6038 79.3382 39.4443 79.696 39.335 80.1152C39.2256 80.5345 39.1709 81.0062 39.1709 81.5303C39.1709 82.2367 39.2575 82.8405 39.4307 83.3418C39.6084 83.8385 39.8818 84.2191 40.251 84.4834C40.6201 84.7432 41.0964 84.873 41.6797 84.873C42.0853 84.873 42.4909 84.8275 42.8965 84.7363C43.3066 84.6452 43.751 84.5153 44.2295 84.3467V86.124C43.7874 86.3063 43.3522 86.4362 42.9238 86.5137C42.4954 86.5957 42.0146 86.6367 41.4814 86.6367C40.4515 86.6367 39.6038 86.4248 38.9385 86.001C38.2777 85.5726 37.7878 84.9756 37.4688 84.21C37.1497 83.4398 36.9902 82.542 36.9902 81.5166C36.9902 80.7601 37.0928 80.0674 37.2979 79.4385C37.5029 78.8096 37.8037 78.265 38.2002 77.8047C38.5967 77.3444 39.0866 76.9889 39.6699 76.7383C40.2533 76.4876 40.9232 76.3623 41.6797 76.3623C42.1764 76.3623 42.6732 76.4261 43.1699 76.5537C43.6712 76.6768 44.1497 76.8477 44.6055 77.0664L43.9219 78.7891C43.5482 78.6113 43.1722 78.4564 42.7939 78.3242C42.4157 78.1921 42.0443 78.126 41.6797 78.126ZM54.5518 86.5H52.4395V82.1865H48.4814V86.5H46.3623V76.5059H48.4814V80.4229H52.4395V76.5059H54.5518V86.5ZM59.166 86.5H57.0811V76.5059H62.8096V78.2422H59.166V80.8193H62.5566V82.5488H59.166V86.5Z" fill="#C51E1E"/>
<path d="M31.2929 161.707C31.6834 162.098 32.3166 162.098 32.7071 161.707L39.0711 155.343C39.4616 154.953 39.4616 154.319 39.0711 153.929C38.6805 153.538 38.0474 153.538 37.6569 153.929L32 159.586L26.3431 153.929C25.9526 153.538 25.3195 153.538 24.9289 153.929C24.5384 154.319 24.5384 154.953 24.9289 155.343L31.2929 161.707ZM33 161L33 95.5L31 95.5L31 161L33 161Z" fill="#C51E1E"/>
</svg>
