<?xml version="1.0" standalone="no"?>
<!DOCTYPE svg PUBLIC "-//W3C//DTD SVG 20010904//EN"
 "http://www.w3.org/TR/2001/REC-SVG-20010904/DTD/svg10.dtd">
<svg version="1.0" xmlns="http://www.w3.org/2000/svg"
 width="600.000000pt" height="600.000000pt" viewBox="0 0 600.000000 600.000000"
 preserveAspectRatio="xMidYMid meet">
<metadata>
Created by potrace 1.14, written by Peter Selinger 2001-2017
</metadata>
<g transform="translate(0.000000,600.000000) scale(0.100000,-0.100000)"
fill="#000000" stroke="none">
<path d="M0 3000 l0 -3000 3000 0 3000 0 0 3000 0 3000 -3000 0 -3000 0 0
-3000z m4106 2472 c460 -246 931 -502 973 -530 69 -45 123 -101 161 -166 64
-113 61 -12 58 -1767 l-3 -1594 -23 -70 c-65 -194 -208 -351 -377 -414 -38
-14 -496 -83 -1507 -225 -1584 -223 -1507 -215 -1607 -163 -187 96 -964 525
-1000 552 -70 51 -135 149 -161 245 -10 35 -12 395 -11 1643 l3 1597 25 77
c34 107 59 155 102 205 21 24 43 53 49 65 19 34 123 108 193 136 52 20 181 42
684 112 341 48 991 140 1445 206 876 125 924 130 996 91z"/>
<path d="M2510 5070 c-767 -109 -1412 -204 -1434 -211 -50 -17 -140 -89 -170
-138 -13 -21 -31 -64 -39 -97 -16 -60 -16 -54 -39 -3010 l-2 -211 28 -56 c17
-35 41 -67 64 -83 20 -14 244 -137 496 -274 301 -163 474 -251 500 -255 28 -4
511 60 1460 194 1231 174 1425 204 1472 225 102 47 191 167 214 287 6 32 10
638 10 1593 0 1675 3 1590 -53 1658 -13 16 -185 115 -422 244 -579 314 -580
314 -603 314 -11 0 -24 5 -27 10 -3 6 -18 9 -33 9 -15 -1 -655 -91 -1422 -199z
m-562 -1415 c166 -39 267 -139 280 -277 l5 -59 -109 3 -108 3 -9 42 c-5 28
-18 51 -37 67 -80 67 -324 59 -380 -12 -18 -22 -21 -37 -17 -75 8 -86 58 -116
249 -147 207 -34 297 -68 372 -143 62 -62 80 -107 84 -209 8 -176 -66 -280
-240 -339 -86 -29 -284 -37 -385 -16 -191 41 -308 156 -321 315 l-5 63 109 -3
108 -3 8 -45 c10 -60 34 -90 94 -120 43 -22 62 -25 159 -25 72 0 122 5 145 14
143 58 140 233 -5 284 -22 8 -96 24 -164 36 -281 50 -385 113 -427 260 -31
105 4 233 79 297 45 38 123 74 191 89 83 18 247 18 324 0z m1183 -15 c121 -23
223 -101 259 -197 25 -67 27 -183 4 -250 -33 -98 -104 -166 -211 -202 -55 -19
-86 -21 -270 -21 -114 0 -214 -4 -220 -8 -9 -6 -13 -68 -15 -232 l-3 -225
-107 -3 -108 -3 0 576 0 575 309 0 c169 0 333 -5 362 -10z"/>
<path d="M2692 3462 c-9 -6 -12 -44 -10 -153 l3 -144 195 0 c178 0 198 2 230
20 49 29 72 77 67 143 -4 59 -28 99 -73 122 -33 17 -390 27 -412 12z"/>
</g>
</svg>
